<!-- Generator: Adobe Illustrator 22.1.0, SVG Export Plug-In  -->
<svg version="1.1"
	 xmlns="http://www.w3.org/2000/svg" xmlns:xlink="http://www.w3.org/1999/xlink" xmlns:a="http://ns.adobe.com/AdobeSVGViewerExtensions/3.0/"
	 x="0px" y="0px" width="254.5px" height="30px" viewBox="0 0 254.5 30" style="enable-background:new 0 0 254.5 30;"
	 xml:space="preserve">
<style type="text/css">
	.st0{fill:#EF7800;}
	.st1{fill:#FFEABD;}
	.st2{fill:#000333;}
</style>
<defs>
</defs>
<g>
	<g>
		<path class="st0" d="M10.8,2.8c0-0.6,0.6-0.9,1.3-0.9c0.6,0,1.3,0.3,1.3,0.9v1h7.8c0.6,0,0.9,0.5,0.9,1.1s-0.3,1.1-0.9,1.1H5.7
			c-0.8,0-1.1,0.2-1.1,0.9v3.9c0,5-0.7,8.6-2.1,11.6c-0.3,0.6-0.7,0.8-1.2,0.8C0.6,23.2,0,22.7,0,22c0-0.2,0-0.4,0.2-0.6
			c1.3-2.7,1.9-6.1,1.9-10.8v-4c0-1.8,0.9-2.7,3.2-2.7h5.5V2.8z M11.3,17.3c-0.4,0.6-0.7,1.1-1.1,1.6c0.2,0,0.4,0,0.5,0h7
			c2,0,2.6,0.6,2.6,2.2v1.1c0,1.8-1,2.1-2.6,2.1h-7c-2,0-2.6-0.6-2.6-2.1v-1.1c-0.8,0.7-1.6,1.4-2.4,1.9c-0.2,0.2-0.5,0.2-0.7,0.2
			c-0.6,0-1.1-0.5-1.1-1.1c0-0.3,0.2-0.7,0.6-1c1.7-1,3.1-2.3,4.2-3.9H5.9c-0.6,0-0.8-0.5-0.8-1c0-0.5,0.3-1,0.8-1h15.2
			c0.6,0,0.8,0.5,0.8,1c0,0.5-0.3,1-0.8,1H11.3z M6.1,9.7c-0.5,0-0.7-0.5-0.7-0.9s0.3-0.9,0.7-0.9h2.2V7.1c0-0.6,0.6-0.8,1.1-0.8
			c0.6,0,1.1,0.3,1.1,0.8v0.7H12c0.5,0,0.8,0.5,0.8,0.9S12.5,9.7,12,9.7h-1.6v0.6c0.5,0.2,1,0.5,1.6,0.9c0.4,0.2,0.5,0.5,0.5,0.8
			c0,0.5-0.4,0.9-0.9,0.9c-0.2,0-0.4-0.1-0.6-0.2c-0.2-0.1-0.4-0.3-0.6-0.4v1.7c0,0.6-0.5,0.9-1.1,0.9c-0.5,0-1.1-0.3-1.1-0.9v-0.7
			l0-1.4c-0.5,0.6-1.1,1.2-1.7,1.7c-0.3,0.2-0.5,0.3-0.7,0.3c-0.5,0-0.9-0.4-0.9-0.9c0-0.3,0.1-0.6,0.5-0.9c0.8-0.6,1.6-1.4,2.2-2.3
			H6.1z M17.4,22.4c0.4,0,0.6-0.1,0.6-0.5v-0.8c0-0.4-0.1-0.5-0.6-0.5h-6.4c-0.4,0-0.6,0.1-0.6,0.5V22c0,0.4,0.2,0.5,0.6,0.5H17.4z
			 M14.1,9.7c-0.5,0-0.7-0.5-0.7-0.9s0.3-0.9,0.7-0.9h2V7.1c0-0.6,0.6-0.8,1.1-0.8c0.6,0,1.1,0.3,1.1,0.8v0.7h2.4
			c0.5,0,0.8,0.5,0.8,0.9s-0.3,0.9-0.8,0.9h-1.8c0.9,0.8,1.9,1.5,3,2.1c0.4,0.2,0.6,0.6,0.6,0.9c0,0.5-0.4,1.1-1,1.1
			c-0.2,0-0.4-0.1-0.6-0.2c-1-0.6-1.9-1.4-2.6-2.2l0.1,1.7v0.6c0,0.6-0.5,0.9-1.1,0.9c-0.5,0-1.1-0.3-1.1-0.9v-0.6l0.1-1.6
			c-0.5,0.6-1.2,1.2-1.8,1.7c-0.3,0.2-0.5,0.3-0.7,0.3c-0.5,0-0.9-0.4-0.9-0.9c0-0.3,0.1-0.6,0.4-0.8c0.9-0.7,1.7-1.4,2.4-2.2H14.1z
			"/>
		<path class="st0" d="M38.3,15.9c-0.5-0.7-1.2-1.7-1.8-2.7c-2.4,0.4-4.8,0.6-6.6,0.8c-0.3,0-0.8,0-0.9,0c-0.7,0-1.2-0.6-1.2-1.2
			c0-0.6,0.4-1.2,1.1-1.2c2.1-0.1,4.3-0.4,6.4-0.7c-0.4-0.8-0.7-1.5-1-2.3c-1.8,0.3-3.1,0.5-4.7,0.6c-0.1,0-0.3,0-0.5,0
			c-0.7,0-1.1-0.6-1.1-1.2c0-0.6,0.3-1.1,1-1.2c1.3-0.1,2.9-0.2,4.4-0.5c-0.3-0.8-0.5-1.6-0.7-2.4c0-0.1,0-0.2,0-0.3
			c0-0.7,0.7-1.1,1.3-1.1c0.6,0,1.1,0.3,1.2,0.9c0.2,0.8,0.5,1.7,0.7,2.5c1.6-0.3,3.1-0.6,4.2-1C40.4,5,40.6,5,40.7,5
			c0.7,0,1.2,0.6,1.2,1.2c0,0.4-0.2,0.9-0.8,1c-1.2,0.4-2.6,0.7-4.2,1c0.3,0.8,0.6,1.5,1,2.3c1.7-0.3,3.3-0.7,4.6-1.1
			c0.1,0,0.3-0.1,0.4-0.1c0.7,0,1.2,0.6,1.2,1.3c0,0.4-0.3,0.9-0.9,1.1c-1.2,0.4-2.6,0.7-4.2,1.1c0.8,1.3,1.8,2.7,2.8,3.9
			c0.3,0.3,0.4,0.6,0.4,1c0,0.7-0.5,1.3-1.3,1.3c-0.2,0-0.4,0-0.6-0.1c-1.7-0.6-3.5-0.9-5.2-0.9c-3,0-3.8,0.9-3.8,1.9
			c0,1.2,1,1.9,4.5,1.9c1,0,1.3,0,2.1-0.1c0.1,0,0.4,0,0.5,0c0.9,0,1.3,0.6,1.3,1.2c0,0.6-0.4,1.2-1.2,1.2c-0.7,0.1-1.5,0.1-2.6,0.1
			c-5.1,0-7.3-1.6-7.3-4.4c0-2.5,2.1-4.2,6.5-4.2C36.3,15.6,37.4,15.8,38.3,15.9L38.3,15.9z"/>
		<path class="st0" d="M54.2,9.1c1.7,0,2.5,0.6,2.5,2c0,0.1,0,0.3,0,0.4c-0.5,4.8-2.7,9.4-5.9,12.4c-0.3,0.3-0.6,0.4-0.9,0.4
			c-0.6,0-1.2-0.5-1.2-1.2c0-0.3,0.1-0.7,0.5-1c1.4-1.4,2.7-3.1,3.6-5.1c-0.5-0.4-0.9-0.7-1.3-1c-0.3-0.2-0.4-0.5-0.4-0.8
			c0-0.6,0.5-1.2,1.2-1.2c0.2,0,0.4,0,0.6,0.2c0.2,0.1,0.5,0.4,0.8,0.6c0.3-1,0.5-2,0.6-3v-0.2c0-0.3-0.1-0.4-0.5-0.4h-1.4
			c-0.5,1.6-1.2,3.1-1.9,4.3c-0.3,0.4-0.7,0.6-1.1,0.6c-0.6,0-1.2-0.4-1.2-1.1c0-0.2,0.1-0.5,0.2-0.7c1.3-2.1,2.3-5.1,2.7-8.2h-1.7
			c-0.6,0-1-0.6-1-1.2c0-0.6,0.3-1.2,1-1.2h7.5c0.6,0,1,0.6,1,1.2c0,0.6-0.3,1.2-1,1.2h-3.4c-0.1,0.9-0.3,1.9-0.6,2.8H54.2z
			 M64.7,15.8c0.1,0.7,0.3,1.3,0.5,1.8c0,0.1,0.1,0.2,0.1,0.3c0.6-0.4,1.1-0.9,1.5-1.4c0.3-0.3,0.6-0.4,0.9-0.4
			c0.6,0,1.2,0.5,1.2,1.1c0,0.3-0.1,0.6-0.4,0.8c-0.7,0.7-1.5,1.4-2.4,2.1c0.7,1.3,1.3,1.7,1.6,1.7c0.4,0,0.6-0.2,0.8-1.6
			c0.1-0.6,0.6-1,1.1-1c0.6,0,1.2,0.4,1.2,1.1v0.2c-0.4,2.7-1.3,3.8-3,3.8c-1.4,0-2.6-0.8-3.8-2.9c-2.2,1.3-4.5,2.3-6.7,3
			c-0.1,0-0.3,0.1-0.4,0.1c-0.7,0-1.2-0.6-1.2-1.2c0-0.5,0.3-0.9,0.9-1.1c2.2-0.7,4.4-1.7,6.4-2.9c-0.1-0.3-0.2-0.6-0.4-1
			c-0.2-0.7-0.5-1.5-0.6-2.3l-3.8,0.3h-0.1c-0.6,0-1-0.6-1-1.2c0-0.5,0.3-1,0.9-1.1l3.6-0.3l-0.2-1.5l-2.4,0.2H59
			c-0.6,0-1-0.6-1-1.1c0-0.5,0.3-1,0.9-1l2.4-0.2c0-0.5-0.1-1-0.1-1.5l-2.9,0.2h-0.1c-0.6,0-1-0.6-1-1.2c0-0.5,0.3-1,0.9-1l3-0.3
			c0-0.9,0-1.8,0-2.8c0-0.7,0.6-1.1,1.3-1.1c0.6,0,1.3,0.4,1.3,1.1c0,0.9,0,1.8,0,2.6l5-0.4h0.1c0.6,0,1,0.6,1,1.2
			c0,0.5-0.3,1-0.9,1.1l-5.2,0.4c0,0.5,0,1,0.1,1.5l4-0.4H68c0.6,0,1,0.6,1,1.1c0,0.5-0.3,1-0.9,1l-4,0.4c0,0.5,0.1,1,0.2,1.5
			l5.1-0.5h0.1c0.6,0,1,0.6,1,1.2c0,0.5-0.3,1-0.9,1.1L64.7,15.8z M67.4,3.5c0.4,0.3,0.6,0.7,0.6,1c0,0.6-0.5,1.1-1.1,1.1
			c-0.2,0-0.5-0.1-0.7-0.3c-0.5-0.4-0.8-0.6-1.3-0.9c-0.4-0.2-0.6-0.6-0.6-0.9c0-0.5,0.5-1,1.1-1c0.2,0,0.4,0,0.6,0.2
			C66.6,3,67,3.3,67.4,3.5z"/>
		<path class="st0" d="M77.4,4.6c0-0.8,0.7-1.2,1.4-1.2c0.7,0,1.4,0.4,1.4,1.2c0,0.3,0,0.9-0.1,1.2c-0.2,3.6-0.4,7.2-0.4,10.8
			c0,3.2,1,4.1,2.7,4.1c2.2,0,4.3-0.9,6.5-3.6c0.3-0.4,0.8-0.6,1.2-0.6c0.7,0,1.4,0.6,1.4,1.3c0,0.3-0.1,0.6-0.3,0.9
			c-2.7,3.4-5.6,4.7-8.8,4.7c-3.6,0-5.5-1.8-5.5-6.8C76.9,12.7,77.1,8.2,77.4,4.6z"/>
		<path class="st0" d="M98.8,22.4c-0.3,0.6-0.8,0.8-1.3,0.8c-0.7,0-1.3-0.5-1.3-1.2c0-0.2,0.1-0.5,0.2-0.7c1.5-2.7,2.8-6,3.7-9.4
			c-1,0.1-1.9,0.3-2.9,0.5c-0.1,0-0.2,0-0.3,0c-0.7,0-1.2-0.6-1.2-1.2c0-0.6,0.3-1.1,1.1-1.2c1.2-0.2,2.5-0.4,3.8-0.6
			c0.3-1.5,0.5-3,0.7-4.4c0.1-0.8,0.7-1.1,1.3-1.1c0.7,0,1.3,0.4,1.3,1.2v0.2c-0.1,1.3-0.4,2.6-0.6,4c0.5,0,0.9,0,1.3,0
			c3.1,0,4.2,1.4,4.2,5.2c0,2.3-0.2,4.3-0.6,5.7c-0.8,2.8-1.8,3.7-4.3,3.7c-0.6,0-1.2,0-1.6-0.1c-0.8-0.1-1.2-0.7-1.2-1.3
			c0-0.7,0.4-1.3,1.2-1.3c0,0,0.1,0,0.2,0c0.5,0,0.8,0.1,1.3,0.1c0.8,0,1.3-0.3,1.7-1.7c0.4-1.4,0.6-3.2,0.6-5.2
			c0-2.2-0.4-2.7-1.6-2.7c-0.5,0-1.1,0-1.8,0.1C101.9,15.5,100.5,19.4,98.8,22.4z M116.2,12.7c0.1,0.3,0.2,0.6,0.2,0.8
			c0,0.8-0.7,1.4-1.4,1.4c-0.5,0-1-0.3-1.3-0.9c-0.9-1.7-2.1-3.6-3.4-4.9c-0.3-0.3-0.4-0.6-0.4-0.9c0-0.7,0.7-1.2,1.4-1.2
			c0.4,0,0.8,0.1,1.1,0.5C113.9,8.8,115.4,11.1,116.2,12.7z M111.8,4.4c0-0.5,0.5-0.9,1-0.9c0.2,0,0.5,0.1,0.7,0.3
			c0.6,0.6,1.4,1.3,1.9,2.1c0.2,0.2,0.2,0.4,0.2,0.6c0,0.5-0.5,1-1,1c-0.3,0-0.6-0.1-0.8-0.5c-0.6-0.8-1.2-1.5-1.8-2
			C111.9,4.7,111.8,4.5,111.8,4.4z M114.2,2.5c0-0.5,0.5-0.9,1-0.9c0.2,0,0.5,0.1,0.7,0.3c0.6,0.5,1.3,1.3,1.8,2
			c0.2,0.2,0.3,0.5,0.3,0.7c0,0.5-0.5,0.9-1,0.9c-0.3,0-0.6-0.1-0.8-0.4c-0.6-0.7-1.2-1.4-1.8-2C114.3,2.8,114.2,2.7,114.2,2.5z"/>
		<path class="st0" d="M139.4,4.5c0.6,0,0.9,0.6,0.9,1.1s-0.3,1.1-0.9,1.1H125c-0.9,1.2-1.8,2.4-2.7,3.3c-0.3,0.3-0.7,0.4-1,0.4
			c-0.7,0-1.2-0.5-1.2-1.2c0-0.3,0.1-0.6,0.5-0.9c1.5-1.4,3-3.5,4-5.4c0.3-0.5,0.7-0.7,1.2-0.7c0.6,0,1.3,0.4,1.3,1
			c0,0.2,0,0.4-0.1,0.6c-0.1,0.2-0.3,0.5-0.4,0.7H139.4z M133.3,20.3c0.4,0.3,0.6,0.7,0.6,1.2c0,0.7-0.6,1.3-1.3,1.3
			c-0.3,0-0.6-0.1-0.9-0.3c-1-0.8-2.1-1.6-3.3-2.3c-1.8,1.6-3.9,2.9-6,3.9c-0.2,0.1-0.5,0.2-0.7,0.2c-0.7,0-1.2-0.6-1.2-1.2
			c0-0.5,0.3-0.9,0.9-1.2c1.7-0.8,3.4-1.9,4.8-3.1c-0.9-0.5-1.8-1-2.6-1.4c-0.5-0.2-0.7-0.6-0.7-1c0-0.6,0.5-1.2,1.2-1.2
			c0.2,0,0.4,0,0.7,0.1c1.1,0.5,2.2,1,3.4,1.7c0.7-0.8,1.4-1.6,2-2.4c0.3-0.4,0.7-0.6,1.1-0.6c0.7,0,1.3,0.5,1.3,1.2
			c0,0.2-0.1,0.5-0.2,0.7c-0.6,0.8-1.2,1.6-1.9,2.4C131.4,18.9,132.4,19.6,133.3,20.3z M135.2,10.9c2.2,0,3,0.8,3,2.6
			c0.1,2.5,0.5,5.2,1,6.8c0.4,1.2,0.6,1.3,0.7,1.3c0.2,0,0.4-0.3,0.4-1.4c0-0.6,0.5-0.9,1-0.9c0.6,0,1.2,0.4,1.2,1
			c0,0.6-0.2,1.8-0.6,2.6c-0.4,0.9-1,1.4-2,1.4c-1.4,0-2.4-0.8-3.2-3.2c-0.6-1.8-1.1-4.6-1.1-7.2c0-0.6-0.2-0.8-1.1-0.8h-12.5
			c-0.6,0-0.9-0.6-0.9-1.1c0-0.6,0.3-1.1,0.9-1.1H135.2z M125.8,9.9c-0.6,0-0.9-0.5-0.9-1.1s0.3-1.1,0.9-1.1h10.7
			c0.6,0,0.9,0.5,0.9,1.1s-0.3,1.1-0.9,1.1H125.8z"/>
		<path class="st0" d="M149.4,4.4c0.7,0,1.4,0.4,1.4,1.2c0,0.1,0,0.2,0,0.3c-0.8,3.9-1.1,7.2-1.1,10.6c0,2,0.3,4.2,0.4,5.6
			c0,0.1,0,0.1,0,0.2c0,0.8-0.7,1.3-1.4,1.3c-0.6,0-1.3-0.4-1.4-1.2c-0.2-1.5-0.4-3.9-0.4-5.9c0-3.6,0.3-6.8,1.1-11.1
			C148.2,4.7,148.8,4.4,149.4,4.4z M160.3,19.1c1.1,0,2.4-0.1,3.6-0.4c0.1,0,0.2,0,0.3,0c0.8,0,1.3,0.7,1.3,1.3
			c0,0.6-0.3,1.1-1.1,1.3c-1.4,0.3-2.8,0.4-4.2,0.4c-4.4,0-6.3-1.3-6.6-4.2v-0.1c0-0.9,0.7-1.3,1.4-1.3c0.6,0,1.1,0.3,1.2,1
			C156.6,18.6,157.3,19.1,160.3,19.1z M162.8,6.5c0.8,0,1.3,0.6,1.3,1.3c0,0.6-0.4,1.2-1.2,1.3c-2.1,0.3-4.5,0.5-6.8,0.5
			c-0.9,0-1.4-0.6-1.4-1.3c0-0.6,0.4-1.3,1.3-1.3c2.2,0,4.5-0.2,6.6-0.5H162.8z"/>
		<path class="st0" d="M175.4,3.8c0.1-0.7,0.7-1,1.3-1c0.7,0,1.3,0.4,1.3,1.2c0,0.1,0,0.2,0,0.3c-0.2,0.9-0.4,1.9-0.7,2.8
			c0.7-0.1,1.4-0.2,2.1-0.4c0.1,0,0.2,0,0.3,0c0.8,0,1.2,0.6,1.2,1.3c0,0.5-0.3,1.1-1.1,1.2c-1,0.2-2.2,0.4-3.4,0.6
			c-1,2.9-2.3,5.8-3.7,8.1c-0.4,0.6-0.9,0.9-1.3,0.9c-0.7,0-1.3-0.6-1.3-1.3c0-0.3,0.1-0.6,0.3-0.8c1.2-1.9,2.3-4.2,3.2-6.5
			c-0.9,0.1-1.8,0.1-2.5,0.2c-0.8,0-1.2-0.6-1.2-1.3c0-0.6,0.4-1.2,1.2-1.2c1.1,0,2.3-0.1,3.5-0.2C174.8,6.2,175.1,5,175.4,3.8z
			 M179.7,23.9c-2.9,0-4.6-1.2-4.6-3.5c0-1.9,1.6-3.5,4.7-3.5c0.4,0,0.8,0,1.2,0.1c-0.2-1.1-0.2-1.9-0.2-2.5c0-1,0-1.6,0.2-2.3
			c0.1-0.7,0.7-1,1.2-1c0.7,0,1.3,0.4,1.3,1.1c0,0.1,0,0.1,0,0.2c-0.1,0.7-0.2,1.3-0.2,2s0.1,1.6,0.3,3.1c1.5,0.5,3.1,1.2,4.5,2.1
			c0.5,0.3,0.6,0.7,0.6,1.1c0,0.7-0.6,1.3-1.3,1.3c-0.2,0-0.5-0.1-0.8-0.3c-0.9-0.6-1.8-1.2-2.7-1.5C183.9,22.9,182,23.9,179.7,23.9
			z M181.4,20c0-0.2,0-0.4,0-0.6c-0.5-0.1-1-0.1-1.5-0.1c-1.7,0-2.2,0.5-2.2,1.2c0,0.7,0.5,1.1,2,1.1C180.8,21.5,181.4,21,181.4,20z
			 M188.8,8.7c0.6,0.3,0.8,0.8,0.8,1.2c0,0.7-0.6,1.3-1.3,1.3c-0.2,0-0.5-0.1-0.7-0.2c-1.1-0.6-2.4-1.3-3.4-1.7
			c-0.6-0.2-0.9-0.6-0.9-1.1c0-0.6,0.6-1.3,1.4-1.3c0.1,0,0.3,0,0.5,0.1C186.3,7.4,187.7,8.1,188.8,8.7z"/>
		<path class="st0" d="M200.7,12c1-0.4,2.1-0.6,3-0.6c3.7,0,6.2,2,6.2,5.4c0,4.2-3,6.9-7.7,6.9c-3.3,0-5.4-1.7-5.4-3.8
			c0-1.8,1.2-3.1,3.3-3.1c2.3,0,3.9,1.5,4.6,3.9c1.5-0.7,2.3-2.1,2.3-3.9c0-1.7-1.3-3.1-3.6-3.1c-2.4,0-4.8,0.8-7.7,3.1
			c-0.3,0.3-0.7,0.4-1,0.4c-0.7,0-1.3-0.6-1.3-1.3c0-0.4,0.2-0.8,0.6-1.1c2.8-2.2,5.9-5.4,8.1-8.1c-1.2,0.2-2.7,0.4-3.9,0.5
			c-0.1,0-0.7,0.1-1,0.1c-0.8,0-1.2-0.6-1.2-1.3c0-0.6,0.4-1.2,1.2-1.2c1.9-0.1,4.5-0.4,6.8-0.8c0.1,0,0.2,0,0.3,0
			c1,0,1.7,0.7,1.7,1.5c0,0.4-0.1,0.7-0.4,1.1C204,8.3,202.2,10.4,200.7,12L200.7,12z M202.2,21.2c-0.4-1.5-1.1-2.4-2.1-2.4
			c-0.5,0-0.9,0.4-0.9,0.9c0,0.8,0.9,1.4,2.8,1.4H202.2z"/>
	</g>
</g>
<g>
	<circle class="st1" cx="239.5" cy="15" r="15"/>
	<polygon class="st2" points="239.5,20 244.5,12 234.5,12 	"/>
</g>
</svg>
