<!-- Generator: Adobe Illustrator 22.1.0, SVG Export Plug-In  -->
<svg version="1.1"
	 xmlns="http://www.w3.org/2000/svg" xmlns:xlink="http://www.w3.org/1999/xlink" xmlns:a="http://ns.adobe.com/AdobeSVGViewerExtensions/3.0/"
	 x="0px" y="0px" width="253.6px" height="30px" viewBox="0 0 253.6 30" style="enable-background:new 0 0 253.6 30;"
	 xml:space="preserve">
<style type="text/css">
	.st0{fill:#EF7800;}
	.st1{fill:#FFEABD;}
	.st2{fill:#000333;}
</style>
<defs>
</defs>
<g>
	<g>
		<path class="st0" d="M0.9,19C0.3,19,0,18.5,0,18c0-0.5,0.3-1,0.9-1h1.6V7.8c0-2.1,0.7-3.1,3.4-3.1h2.4C8.5,4.1,8.8,3.6,9,3
			c0.2-0.6,0.8-0.9,1.3-0.9c0.7,0,1.3,0.4,1.3,1.1c0,0.2,0,0.3-0.1,0.5c-0.2,0.4-0.3,0.7-0.5,1h4.6c2.7,0,3.3,1,3.3,3.1V17h1.5
			c0.6,0,0.9,0.5,0.9,1c0,0.5-0.3,1-0.9,1h-8.2c1.9,1.4,4.6,2.6,7.9,3c0.8,0.1,1.1,0.6,1.1,1.2c0,0.6-0.4,1.2-1.2,1.2
			c-0.1,0-0.1,0-0.2,0c-3.9-0.5-7.3-2.2-9.6-4.4c-1.7,2.4-4.7,3.8-8.9,4.5c-0.1,0-0.2,0-0.2,0C0.5,24.6,0,24,0,23.4
			c0-0.5,0.3-1,1.1-1.1c3.6-0.6,5.8-1.7,7.1-3.3H0.9z M16.5,17V8.1c0-0.9-0.1-1.3-1.3-1.3H6.1C5,6.8,4.9,7.2,4.9,8.1V17h4.3
			c0.1-0.3,0.2-0.6,0.2-0.8c0.1-0.6,0.6-0.8,1.2-0.8c0.6,0,1.2,0.3,1.2,1c0,0,0,0.1,0,0.2c0,0.2-0.1,0.3-0.1,0.5H16.5z M9.6,13.1
			c-0.9,0.9-1.9,1.7-2.9,2.4c-0.2,0.1-0.4,0.2-0.6,0.2c-0.5,0-0.9-0.4-0.9-0.9c0-0.3,0.2-0.6,0.5-0.8c0.9-0.5,1.7-1.2,2.5-1.9h-2
			c-0.5,0-0.8-0.4-0.8-0.9c0-0.4,0.3-0.9,0.8-0.9h1.4c-0.2-0.1-0.4-0.2-0.5-0.4C6.9,9.6,6.7,9.3,6.5,9C6.3,8.8,6.3,8.6,6.3,8.5
			c0-0.5,0.5-0.8,1-0.8C7.5,7.6,7.8,7.7,8,8c0.3,0.3,0.5,0.6,0.7,0.9c0.1,0.2,0.2,0.4,0.2,0.6c0,0.4-0.3,0.7-0.6,0.8h1.3V8
			c0-0.6,0.5-0.9,1-0.9c0.5,0,1,0.3,1,0.9v2.4h1c-0.2-0.1-0.4-0.4-0.4-0.6c0-0.2,0.1-0.4,0.3-0.6c0.3-0.3,0.5-0.7,0.7-1
			c0.2-0.3,0.5-0.5,0.8-0.5c0.5,0,0.9,0.3,0.9,0.8c0,0.1,0,0.3-0.2,0.5c-0.3,0.4-0.6,0.8-0.9,1.2c-0.1,0.1-0.2,0.2-0.3,0.2H15
			c0.5,0,0.8,0.4,0.8,0.9c0,0.4-0.3,0.9-0.8,0.9h-3.5v0.2c1.1,0.3,2.3,0.8,3.4,1.4c0.4,0.2,0.5,0.5,0.5,0.8c0,0.5-0.4,0.9-0.9,0.9
			c-0.2,0-0.4,0-0.6-0.2c-0.9-0.5-1.6-0.9-2.4-1.3v0.4c0,0.5-0.5,0.8-1,0.8c-0.5,0-1-0.3-1-0.8V14L9.6,13.1z"/>
		<path class="st0" d="M34.5,3.2c0-0.7,0.6-1.1,1.3-1.1c0.6,0,1.3,0.4,1.3,1.1v0.9h5.2c0.7,0,1,0.5,1,1.1c0,0.5-0.3,1.1-1,1.1h-5.2
			v1.2h8.4c0.7,0,1,0.6,1,1.1s-0.3,1.1-1,1.1H25.3c-0.6,0-1-0.6-1-1.1s0.3-1.1,1-1.1h3.6V4.2c0-0.7,0.6-1.1,1.3-1.1
			c0.6,0,1.3,0.4,1.3,1.1v3.2h3V3.2z M42,11.5c0-0.7,0.6-1.1,1.3-1.1c0.6,0,1.3,0.4,1.3,1.1v9.8c0,2-0.8,3-3.4,3H29.5
			c-2.6,0-3.4-1-3.4-3v-9.8c0-0.7,0.6-1,1.3-1c0.6,0,1.3,0.3,1.3,1V21c0,0.9,0.3,1.2,1.2,1.2h10.8c1,0,1.2-0.3,1.2-1.2V11.5z
			 M36.5,19.7v1.2c0,0.6-0.6,0.9-1.2,0.9s-1.2-0.3-1.2-0.9v-1.2l0.1-1.6c-0.9,1-2.1,1.9-3.4,2.7c-0.2,0.1-0.5,0.2-0.7,0.2
			c-0.6,0-1-0.5-1-1c0-0.3,0.2-0.6,0.6-0.9c1.2-0.7,2.4-1.6,3.4-2.7h-2.7c-0.6,0-0.9-0.5-0.9-1c0-0.5,0.3-0.9,0.9-0.9h3.7v-3.4
			c0-0.6,0.6-0.9,1.2-0.9s1.2,0.3,1.2,0.9v3.4h3.8c0.6,0,0.9,0.5,0.9,0.9c0,0.5-0.3,1-0.9,1h-2.9c1,0.8,2.1,1.5,3.4,2.2
			c0.5,0.2,0.7,0.6,0.7,1c0,0.6-0.5,1.1-1.1,1.1c-0.2,0-0.4-0.1-0.6-0.2c-1.3-0.7-2.4-1.6-3.4-2.5L36.5,19.7z M30.2,11.8
			c0-0.6,0.6-1,1.1-1c0.3,0,0.6,0.1,0.9,0.4c0.3,0.3,0.6,0.7,0.9,1.2c0.1,0.2,0.2,0.4,0.2,0.6c0,0.6-0.6,1.1-1.2,1.1
			c-0.3,0-0.6-0.1-0.9-0.5c-0.2-0.4-0.5-0.8-0.9-1.3C30.3,12.2,30.2,12,30.2,11.8z M39.4,10.8c0.6,0,1.1,0.4,1.1,1
			c0,0.1,0,0.3-0.1,0.5c-0.4,0.6-0.7,1.1-1.1,1.6c-0.2,0.3-0.5,0.4-0.8,0.4c-0.6,0-1.1-0.5-1.1-1c0-0.2,0.1-0.4,0.2-0.6
			c0.3-0.4,0.6-0.8,0.9-1.3C38.7,10.9,39.1,10.8,39.4,10.8z"/>
		<path class="st0" d="M53.2,22.4c-0.3,0.6-0.8,0.8-1.3,0.8c-0.7,0-1.3-0.5-1.3-1.2c0-0.2,0.1-0.5,0.2-0.7c1.5-2.7,2.8-6,3.7-9.4
			c-1,0.1-1.9,0.3-2.9,0.5c-0.1,0-0.2,0-0.3,0c-0.7,0-1.2-0.6-1.2-1.2c0-0.6,0.3-1.1,1.1-1.2c1.2-0.2,2.5-0.4,3.8-0.6
			c0.3-1.5,0.5-3,0.7-4.4c0.1-0.8,0.7-1.1,1.3-1.1c0.7,0,1.3,0.4,1.3,1.2v0.2c-0.1,1.3-0.4,2.6-0.6,4c0.5,0,0.9,0,1.3,0
			c3.1,0,4.2,1.4,4.2,5.2c0,2.3-0.2,4.3-0.6,5.7c-0.8,2.8-1.8,3.7-4.3,3.7c-0.6,0-1.2,0-1.6-0.1c-0.8-0.1-1.2-0.7-1.2-1.3
			c0-0.7,0.4-1.3,1.2-1.3c0,0,0.1,0,0.2,0c0.5,0,0.8,0.1,1.3,0.1c0.8,0,1.3-0.3,1.7-1.7c0.4-1.4,0.6-3.2,0.6-5.2
			c0-2.2-0.4-2.7-1.6-2.7c-0.5,0-1.1,0-1.8,0.1C56.3,15.5,54.9,19.4,53.2,22.4z M70.6,12.7c0.1,0.3,0.2,0.6,0.2,0.8
			c0,0.8-0.7,1.4-1.4,1.4c-0.5,0-1-0.3-1.3-0.9c-0.9-1.7-2.1-3.6-3.4-4.9c-0.3-0.3-0.4-0.6-0.4-0.9c0-0.7,0.7-1.2,1.4-1.2
			c0.4,0,0.8,0.1,1.1,0.5C68.3,8.8,69.8,11.1,70.6,12.7z M66.2,4.4c0-0.5,0.5-0.9,1-0.9c0.2,0,0.5,0.1,0.7,0.3
			c0.6,0.6,1.4,1.3,1.9,2.1C69.9,6,70,6.3,70,6.5c0,0.5-0.5,1-1,1c-0.3,0-0.6-0.1-0.8-0.5c-0.6-0.8-1.2-1.5-1.8-2
			C66.3,4.7,66.2,4.5,66.2,4.4z M68.6,2.5c0-0.5,0.5-0.9,1-0.9c0.2,0,0.5,0.1,0.7,0.3c0.6,0.5,1.3,1.3,1.8,2
			c0.2,0.2,0.3,0.5,0.3,0.7c0,0.5-0.5,0.9-1,0.9c-0.3,0-0.6-0.1-0.8-0.4c-0.6-0.7-1.2-1.4-1.8-2C68.6,2.8,68.6,2.7,68.6,2.5z"/>
		<path class="st0" d="M85.1,2.8c0-0.6,0.6-0.9,1.3-0.9c0.6,0,1.3,0.3,1.3,0.9v1h7.8c0.6,0,0.9,0.5,0.9,1.1s-0.3,1.1-0.9,1.1H80
			c-0.8,0-1.1,0.2-1.1,0.9v3.9c0,5-0.7,8.6-2.1,11.6c-0.3,0.6-0.7,0.8-1.2,0.8c-0.6,0-1.3-0.5-1.3-1.2c0-0.2,0-0.4,0.2-0.6
			c1.3-2.7,1.9-6.1,1.9-10.8v-4c0-1.8,0.9-2.7,3.2-2.7h5.5V2.8z M85.6,17.3c-0.4,0.6-0.7,1.1-1.1,1.6c0.2,0,0.4,0,0.5,0h7
			c2,0,2.6,0.6,2.6,2.2v1.1c0,1.8-1,2.1-2.6,2.1h-7c-2,0-2.6-0.6-2.6-2.1v-1.1c-0.8,0.7-1.6,1.4-2.4,1.9c-0.2,0.2-0.5,0.2-0.7,0.2
			c-0.6,0-1.1-0.5-1.1-1.1c0-0.3,0.2-0.7,0.6-1c1.7-1,3.1-2.3,4.2-3.9h-2.8c-0.6,0-0.8-0.5-0.8-1c0-0.5,0.3-1,0.8-1h15.2
			c0.6,0,0.8,0.5,0.8,1c0,0.5-0.3,1-0.8,1H85.6z M80.4,9.7c-0.5,0-0.7-0.5-0.7-0.9s0.3-0.9,0.7-0.9h2.2V7.1c0-0.6,0.6-0.8,1.1-0.8
			c0.6,0,1.1,0.3,1.1,0.8v0.7h1.6c0.5,0,0.8,0.5,0.8,0.9s-0.3,0.9-0.8,0.9h-1.6v0.6c0.5,0.2,1,0.5,1.6,0.9c0.4,0.2,0.5,0.5,0.5,0.8
			c0,0.5-0.4,0.9-0.9,0.9c-0.2,0-0.4-0.1-0.6-0.2c-0.2-0.1-0.4-0.3-0.6-0.4v1.7c0,0.6-0.5,0.9-1.1,0.9c-0.5,0-1.1-0.3-1.1-0.9v-0.7
			l0-1.4c-0.5,0.6-1.1,1.2-1.7,1.7c-0.3,0.2-0.5,0.3-0.7,0.3c-0.5,0-0.9-0.4-0.9-0.9c0-0.3,0.1-0.6,0.5-0.9c0.8-0.6,1.6-1.4,2.2-2.3
			H80.4z M91.7,22.4c0.4,0,0.6-0.1,0.6-0.5v-0.8c0-0.4-0.1-0.5-0.6-0.5h-6.4c-0.4,0-0.6,0.1-0.6,0.5V22c0,0.4,0.2,0.5,0.6,0.5H91.7z
			 M88.4,9.7c-0.5,0-0.7-0.5-0.7-0.9s0.3-0.9,0.7-0.9h2V7.1c0-0.6,0.6-0.8,1.1-0.8c0.6,0,1.1,0.3,1.1,0.8v0.7H95
			c0.5,0,0.8,0.5,0.8,0.9S95.5,9.7,95,9.7h-1.8c0.9,0.8,1.9,1.5,3,2.1c0.4,0.2,0.6,0.6,0.6,0.9c0,0.5-0.4,1.1-1,1.1
			c-0.2,0-0.4-0.1-0.6-0.2c-1-0.6-1.9-1.4-2.6-2.2l0.1,1.7v0.6c0,0.6-0.5,0.9-1.1,0.9c-0.5,0-1.1-0.3-1.1-0.9v-0.6l0.1-1.6
			c-0.5,0.6-1.2,1.2-1.8,1.7c-0.3,0.2-0.5,0.3-0.7,0.3c-0.5,0-0.9-0.4-0.9-0.9c0-0.3,0.1-0.6,0.4-0.8c0.9-0.7,1.7-1.4,2.4-2.2H88.4z
			"/>
		<path class="st0" d="M112.6,15.9c-0.5-0.7-1.2-1.7-1.8-2.7c-2.4,0.4-4.8,0.6-6.6,0.8c-0.3,0-0.8,0-0.9,0c-0.7,0-1.2-0.6-1.2-1.2
			c0-0.6,0.4-1.2,1.1-1.2c2.1-0.1,4.3-0.4,6.4-0.7c-0.4-0.8-0.7-1.5-1-2.3c-1.8,0.3-3.1,0.5-4.7,0.6c-0.1,0-0.3,0-0.5,0
			c-0.7,0-1.1-0.6-1.1-1.2c0-0.6,0.3-1.1,1-1.2c1.3-0.1,2.9-0.2,4.4-0.5c-0.3-0.8-0.5-1.6-0.7-2.4c0-0.1,0-0.2,0-0.3
			c0-0.7,0.7-1.1,1.3-1.1c0.6,0,1.1,0.3,1.2,0.9c0.2,0.8,0.5,1.7,0.7,2.5c1.6-0.3,3.1-0.6,4.2-1c0.1,0,0.3-0.1,0.4-0.1
			c0.7,0,1.2,0.6,1.2,1.2c0,0.4-0.2,0.9-0.8,1c-1.2,0.4-2.6,0.7-4.2,1c0.3,0.8,0.6,1.5,1,2.3c1.7-0.3,3.3-0.7,4.6-1.1
			c0.1,0,0.3-0.1,0.4-0.1c0.7,0,1.2,0.6,1.2,1.3c0,0.4-0.3,0.9-0.9,1.1c-1.2,0.4-2.6,0.7-4.2,1.1c0.8,1.3,1.8,2.7,2.8,3.9
			c0.3,0.3,0.4,0.6,0.4,1c0,0.7-0.5,1.3-1.3,1.3c-0.2,0-0.4,0-0.6-0.1c-1.7-0.6-3.5-0.9-5.2-0.9c-3,0-3.8,0.9-3.8,1.9
			c0,1.2,1,1.9,4.5,1.9c1,0,1.3,0,2.1-0.1c0.1,0,0.4,0,0.5,0c0.9,0,1.3,0.6,1.3,1.2c0,0.6-0.4,1.2-1.2,1.2c-0.7,0.1-1.5,0.1-2.6,0.1
			c-5.1,0-7.3-1.6-7.3-4.4c0-2.5,2.1-4.2,6.5-4.2C110.6,15.6,111.7,15.8,112.6,15.9L112.6,15.9z"/>
		<path class="st0" d="M126.8,4.4c0.7,0,1.4,0.4,1.4,1.2c0,0.1,0,0.2,0,0.3c-0.8,3.9-1.1,7.2-1.1,10.6c0,2,0.3,4.2,0.4,5.6
			c0,0.1,0,0.1,0,0.2c0,0.8-0.7,1.3-1.4,1.3c-0.6,0-1.3-0.4-1.4-1.2c-0.2-1.5-0.4-3.9-0.4-5.9c0-3.6,0.3-6.8,1.1-11.1
			C125.6,4.7,126.2,4.4,126.8,4.4z M137.7,19.1c1.1,0,2.4-0.1,3.6-0.4c0.1,0,0.2,0,0.3,0c0.8,0,1.3,0.7,1.3,1.3
			c0,0.6-0.3,1.1-1.1,1.3c-1.4,0.3-2.8,0.4-4.2,0.4c-4.4,0-6.3-1.3-6.6-4.2v-0.1c0-0.9,0.7-1.3,1.4-1.3c0.6,0,1.1,0.3,1.2,1
			C134,18.6,134.7,19.1,137.7,19.1z M140.2,6.5c0.8,0,1.3,0.6,1.3,1.3c0,0.6-0.4,1.2-1.2,1.3c-2.1,0.3-4.5,0.5-6.8,0.5
			c-0.9,0-1.4-0.6-1.4-1.3c0-0.6,0.4-1.3,1.3-1.3c2.2,0,4.5-0.2,6.6-0.5H140.2z"/>
		<path class="st0" d="M155.5,3c0.7,0,1.4,0.6,1.4,1.3c0,0.3-0.1,0.6-0.3,0.9c-1.5,2.2-3.6,4.8-5.4,6.8c-0.4,0.4-0.5,0.7-0.5,1.1
			c0,0.4,0.2,0.7,0.6,1.1c2.1,2.3,4.3,4.9,6.1,7.5c0.2,0.4,0.4,0.7,0.4,1c0,0.8-0.7,1.4-1.5,1.4c-0.5,0-1-0.2-1.3-0.8
			c-1.5-2.4-3.7-5.3-5.7-7.5c-0.9-1-1.3-1.8-1.3-2.7c0-0.8,0.3-1.6,1.1-2.5c1.8-1.9,3.8-4.6,5.3-6.9C154.6,3.2,155,3,155.5,3z"/>
		<path class="st0" d="M166.3,5.4c0.7,0,1.4,0.4,1.4,1.3c0,0.3-0.1,1.5-0.1,2.3c0,8.4,1.7,10.6,2.7,10.6c0.6,0,1.1-0.4,1.6-2.2
			c0.2-0.7,0.7-1,1.2-1c0.7,0,1.4,0.5,1.4,1.3c0,0.1,0,0.3,0,0.4c-0.9,3.2-2.4,4.4-4,4.4c-3.5,0-5.6-4.3-5.6-13.4
			c0-1.1,0-1.8,0.1-2.4C165,5.8,165.7,5.4,166.3,5.4z M184.4,15.6c0.1,0.2,0.1,0.4,0.1,0.5c0,0.8-0.7,1.3-1.3,1.3
			c-0.5,0-1-0.3-1.3-0.9c-0.9-2.2-2.4-4.7-4.2-6.5c-0.3-0.3-0.4-0.6-0.4-0.9c0-0.7,0.6-1.2,1.4-1.2c0.3,0,0.7,0.1,1.1,0.5
			C181.8,10.1,183.6,13.1,184.4,15.6z"/>
	</g>
</g>
<g>
	<circle class="st1" cx="238.6" cy="15" r="15"/>
	<polygon class="st2" points="238.6,20 243.6,12 233.6,12 	"/>
</g>
</svg>
