<!-- Generator: Adobe Illustrator 22.1.0, SVG Export Plug-In  -->
<svg version="1.1"
	 xmlns="http://www.w3.org/2000/svg" xmlns:xlink="http://www.w3.org/1999/xlink" xmlns:a="http://ns.adobe.com/AdobeSVGViewerExtensions/3.0/"
	 x="0px" y="0px" width="254.1px" height="30px" viewBox="0 0 254.1 30" style="enable-background:new 0 0 254.1 30;"
	 xml:space="preserve">
<style type="text/css">
	.st0{fill:#EF7800;}
	.st1{fill:#FFEABD;}
	.st2{fill:#000333;}
</style>
<defs>
</defs>
<g>
	<g>
		<path class="st0" d="M10.2,3.2c0-0.7,0.6-1.1,1.3-1.1c0.6,0,1.3,0.4,1.3,1.1v0.9H18c0.7,0,1,0.5,1,1.1c0,0.5-0.3,1.1-1,1.1h-5.2
			v1.2h8.4c0.7,0,1,0.6,1,1.1s-0.3,1.1-1,1.1H1c-0.6,0-1-0.6-1-1.1s0.3-1.1,1-1.1h3.6V4.2c0-0.7,0.6-1.1,1.3-1.1
			c0.6,0,1.3,0.4,1.3,1.1v3.2h3V3.2z M17.7,11.5c0-0.7,0.6-1.1,1.3-1.1c0.6,0,1.3,0.4,1.3,1.1v9.8c0,2-0.8,3-3.4,3H5.2
			c-2.6,0-3.4-1-3.4-3v-9.8c0-0.7,0.6-1,1.3-1c0.6,0,1.3,0.3,1.3,1V21c0,0.9,0.3,1.2,1.2,1.2h10.8c1,0,1.2-0.3,1.2-1.2V11.5z
			 M12.2,19.7v1.2c0,0.6-0.6,0.9-1.2,0.9s-1.2-0.3-1.2-0.9v-1.2l0.1-1.6C9,19,7.8,20,6.6,20.8C6.3,20.9,6.1,21,5.9,21
			c-0.6,0-1-0.5-1-1c0-0.3,0.2-0.6,0.6-0.9c1.2-0.7,2.4-1.6,3.4-2.7H6.1c-0.6,0-0.9-0.5-0.9-1c0-0.5,0.3-0.9,0.9-0.9h3.7v-3.4
			c0-0.6,0.6-0.9,1.2-0.9s1.2,0.3,1.2,0.9v3.4H16c0.6,0,0.9,0.5,0.9,0.9c0,0.5-0.3,1-0.9,1h-2.9c1,0.8,2.1,1.5,3.4,2.2
			c0.5,0.2,0.7,0.6,0.7,1c0,0.6-0.5,1.1-1.1,1.1c-0.2,0-0.4-0.1-0.6-0.2c-1.3-0.7-2.4-1.6-3.4-2.5L12.2,19.7z M5.9,11.8
			c0-0.6,0.6-1,1.1-1c0.3,0,0.6,0.1,0.9,0.4c0.3,0.3,0.6,0.7,0.9,1.2C9,12.7,9,12.9,9,13.1c0,0.6-0.6,1.1-1.2,1.1
			c-0.3,0-0.6-0.1-0.9-0.5c-0.2-0.4-0.5-0.8-0.9-1.3C6,12.2,5.9,12,5.9,11.8z M15.1,10.8c0.6,0,1.1,0.4,1.1,1c0,0.1,0,0.3-0.1,0.5
			c-0.4,0.6-0.7,1.1-1.1,1.6c-0.2,0.3-0.5,0.4-0.8,0.4c-0.6,0-1.1-0.5-1.1-1c0-0.2,0.1-0.4,0.2-0.6c0.3-0.4,0.6-0.8,0.9-1.3
			C14.4,10.9,14.8,10.8,15.1,10.8z"/>
		<path class="st0" d="M42.1,3.3c2.3,0,3.2,1.1,3.2,3v14.6c0,2.3-1,3.2-3.1,3.2c-0.6,0-1.2,0-1.8-0.1c-0.7-0.1-1-0.7-1-1.2
			c0-0.6,0.4-1.2,1.2-1.2c0.1,0,0.2,0,0.3,0c0.3,0.1,0.7,0.1,1.1,0.1c0.5,0,0.7-0.2,0.7-1V6.8c0-0.9-0.3-1.2-1.3-1.2h-4.2v1.8H40
			c0.6,0,0.9,0.5,0.9,1c0,0.5-0.3,1-0.9,1h-2.8v1.6h3.9c0.6,0,0.9,0.5,0.9,1c0,0.5-0.3,1-0.9,1h-9.6c-0.6,0-0.9-0.5-0.9-1
			c0-0.5,0.3-1,0.9-1h3.4V9.5h-2.5c-0.6,0-0.9-0.5-0.9-1c0-0.5,0.3-1,0.9-1h2.5V5.6h-3.7c-1,0-1.3,0.3-1.3,1.2v4.8
			c0,5.5-0.9,9.2-2.4,11.9c-0.3,0.6-0.8,0.8-1.2,0.8c-0.7,0-1.3-0.5-1.3-1.2c0-0.2,0-0.5,0.2-0.7c1.4-2.5,2.1-5.7,2.1-10.9V6.4
			c0-1.9,1.1-3,3.3-3H42.1z M34.1,21.1c-2,0-2.6-0.6-2.6-2.3V17c0-1.7,0.6-2.4,2.6-2.4H38c2,0,2.6,0.7,2.6,2.4v1.7
			c0,1.9-0.8,2.3-2.6,2.3H34.1z M37.4,19.1c0.6,0,0.7-0.2,0.7-0.6v-1.3c0-0.4-0.2-0.6-0.7-0.6h-2.6c-0.6,0-0.7,0.2-0.7,0.6v1.3
			c0,0.5,0.3,0.6,0.7,0.6H37.4z"/>
		<path class="st0" d="M61.7,3.1c0-0.7,0.6-1,1.3-1c0.6,0,1.3,0.3,1.3,1v1.6h7.2c0.6,0,0.9,0.5,0.9,1.1s-0.3,1.1-0.9,1.1H57.3
			c-0.9,0-1.2,0.2-1.2,1v3.5c0,4.9-1.1,9.1-3,12c-0.3,0.5-0.8,0.7-1.2,0.7c-0.6,0-1.2-0.5-1.2-1.2c0-0.2,0.1-0.5,0.3-0.8
			c1.1-1.6,1.9-3.5,2.3-5.8c-0.5,0.3-1.1,0.6-1.6,0.9c-0.2,0.1-0.4,0.2-0.6,0.2c-0.7,0-1.2-0.6-1.2-1.2c0-0.4,0.2-0.8,0.8-1.1
			c1.1-0.5,2.1-1,3-1.6c0-0.7,0.1-1.5,0.1-2.3v-0.5c-0.1,0.6-0.6,1.1-1.2,1.1c-0.4,0-0.7-0.2-1-0.6c-0.3-0.6-0.7-1.1-1-1.7
			c-0.1-0.2-0.2-0.4-0.2-0.6c0-0.6,0.6-1.1,1.2-1.1c0.3,0,0.7,0.1,1,0.5c0.4,0.6,0.8,1.2,1.1,1.8c0.1,0.1,0.1,0.3,0.1,0.4v-3
			c0-1.9,0.9-2.8,3.3-2.8h4.7V3.1z M68.4,12.5c2.1,0,2.9,0.8,2.9,2.4v6.8c0,2.1-0.9,2.8-2.9,2.8c-0.4,0-0.9-0.1-1.3-0.1
			c-0.7-0.1-1-0.6-1-1.2c0-0.6,0.4-1.2,1.1-1.2c0.1,0,0.1,0,0.2,0c0.3,0,0.7,0.1,0.9,0.1c0.4,0,0.5-0.1,0.5-0.6v-6.3
			c0-0.6-0.2-0.8-0.8-0.8h-2.7l-0.2,0.9c1.2,0.8,2.2,1.7,3,2.6c0.2,0.3,0.3,0.6,0.3,0.8c0,0.6-0.5,1.1-1.1,1.1c-0.3,0-0.7-0.2-1-0.5
			c-0.6-0.7-1.2-1.4-2-2.1c-0.5,1-1.2,1.8-2,2.7c-0.3,0.3-0.6,0.4-0.9,0.4c-0.6,0-1.1-0.5-1.1-1c0-0.3,0.1-0.6,0.4-0.9
			c1.2-1.2,1.8-2.3,2.2-4.1h-2.1c-0.6,0-0.8,0.2-0.8,0.8v8.4c0,0.7-0.6,1-1.2,1c-0.6,0-1.2-0.3-1.2-1V15c0-1.7,0.8-2.4,2.9-2.4h2.8
			c0-0.6,0.1-1.3,0.1-1.9h-5.2c-0.6,0-0.9-0.6-0.9-1.1c0-0.6,0.3-1.1,0.9-1.1h13c0.6,0,0.9,0.5,0.9,1.1c0,0.5-0.3,1.1-0.9,1.1h-5.4
			c0,0.6,0,1.3-0.1,1.9H68.4z"/>
		<path class="st0" d="M79.3,22.4c-0.3,0.6-0.8,0.8-1.3,0.8c-0.7,0-1.3-0.5-1.3-1.2c0-0.2,0.1-0.5,0.2-0.7c1.5-2.7,2.8-6,3.7-9.4
			c-1,0.1-1.9,0.3-2.9,0.5c-0.1,0-0.2,0-0.3,0c-0.7,0-1.2-0.6-1.2-1.2c0-0.6,0.3-1.1,1.1-1.2c1.2-0.2,2.5-0.4,3.8-0.6
			c0.3-1.5,0.5-3,0.7-4.4c0.1-0.8,0.7-1.1,1.3-1.1c0.7,0,1.3,0.4,1.3,1.2v0.2c-0.1,1.3-0.4,2.6-0.6,4c0.5,0,0.9,0,1.3,0
			c3.1,0,4.2,1.4,4.2,5.2c0,2.3-0.2,4.3-0.6,5.7c-0.8,2.8-1.8,3.7-4.3,3.7c-0.6,0-1.2,0-1.6-0.1c-0.8-0.1-1.2-0.7-1.2-1.3
			c0-0.7,0.4-1.3,1.2-1.3c0,0,0.1,0,0.2,0c0.5,0,0.8,0.1,1.3,0.1c0.8,0,1.3-0.3,1.7-1.7c0.4-1.4,0.6-3.2,0.6-5.2
			c0-2.2-0.4-2.7-1.6-2.7c-0.5,0-1.1,0-1.8,0.1C82.4,15.5,81,19.4,79.3,22.4z M96.7,12.7c0.1,0.3,0.2,0.6,0.2,0.8
			c0,0.8-0.7,1.4-1.4,1.4c-0.5,0-1-0.3-1.3-0.9c-0.9-1.7-2.1-3.6-3.4-4.9c-0.3-0.3-0.4-0.6-0.4-0.9c0-0.7,0.7-1.2,1.4-1.2
			c0.4,0,0.8,0.1,1.1,0.5C94.4,8.8,95.9,11.1,96.7,12.7z M92.3,4.4c0-0.5,0.5-0.9,1-0.9c0.2,0,0.5,0.1,0.7,0.3
			c0.6,0.6,1.4,1.3,1.9,2.1C96,6,96.1,6.3,96.1,6.5c0,0.5-0.5,1-1,1c-0.3,0-0.6-0.1-0.8-0.5c-0.6-0.8-1.2-1.5-1.8-2
			C92.4,4.7,92.3,4.5,92.3,4.4z M94.7,2.5c0-0.5,0.5-0.9,1-0.9c0.2,0,0.5,0.1,0.7,0.3c0.6,0.5,1.3,1.3,1.8,2
			c0.2,0.2,0.3,0.5,0.3,0.7c0,0.5-0.5,0.9-1,0.9c-0.3,0-0.6-0.1-0.8-0.4c-0.6-0.7-1.2-1.4-1.8-2C94.8,2.8,94.7,2.7,94.7,2.5z"/>
		<path class="st0" d="M119.9,4.5c0.6,0,0.9,0.6,0.9,1.1s-0.3,1.1-0.9,1.1h-14.4c-0.9,1.2-1.8,2.4-2.7,3.3c-0.3,0.3-0.7,0.4-1,0.4
			c-0.7,0-1.2-0.5-1.2-1.2c0-0.3,0.1-0.6,0.5-0.9c1.5-1.4,3-3.5,4-5.4c0.3-0.5,0.7-0.7,1.2-0.7c0.6,0,1.3,0.4,1.3,1
			c0,0.2,0,0.4-0.1,0.6c-0.1,0.2-0.3,0.5-0.4,0.7H119.9z M113.8,20.3c0.4,0.3,0.6,0.7,0.6,1.2c0,0.7-0.6,1.3-1.3,1.3
			c-0.3,0-0.6-0.1-0.9-0.3c-1-0.8-2.1-1.6-3.3-2.3c-1.8,1.6-3.9,2.9-6,3.9c-0.2,0.1-0.5,0.2-0.7,0.2c-0.7,0-1.2-0.6-1.2-1.2
			c0-0.5,0.3-0.9,0.9-1.2c1.7-0.8,3.4-1.9,4.8-3.1c-0.9-0.5-1.8-1-2.6-1.4c-0.5-0.2-0.7-0.6-0.7-1c0-0.6,0.5-1.2,1.2-1.2
			c0.2,0,0.4,0,0.7,0.1c1.1,0.5,2.2,1,3.4,1.7c0.7-0.8,1.4-1.6,2-2.4c0.3-0.4,0.7-0.6,1.1-0.6c0.7,0,1.3,0.5,1.3,1.2
			c0,0.2-0.1,0.5-0.2,0.7c-0.6,0.8-1.2,1.6-1.9,2.4C111.9,18.9,112.9,19.6,113.8,20.3z M115.7,10.9c2.2,0,3,0.8,3,2.6
			c0.1,2.5,0.5,5.2,1,6.8c0.4,1.2,0.6,1.3,0.7,1.3c0.2,0,0.4-0.3,0.4-1.4c0-0.6,0.5-0.9,1-0.9c0.6,0,1.2,0.4,1.2,1
			c0,0.6-0.2,1.8-0.6,2.6c-0.4,0.9-1,1.4-2,1.4c-1.4,0-2.4-0.8-3.2-3.2c-0.6-1.8-1.1-4.6-1.1-7.2c0-0.6-0.2-0.8-1.1-0.8h-12.5
			c-0.6,0-0.9-0.6-0.9-1.1c0-0.6,0.3-1.1,0.9-1.1H115.7z M106.4,9.9c-0.6,0-0.9-0.5-0.9-1.1s0.3-1.1,0.9-1.1h10.7
			c0.6,0,0.9,0.5,0.9,1.1s-0.3,1.1-0.9,1.1H106.4z"/>
		<path class="st0" d="M129.9,4.4c0.7,0,1.4,0.4,1.4,1.2c0,0.1,0,0.2,0,0.3c-0.8,3.9-1.1,7.2-1.1,10.6c0,2,0.3,4.2,0.4,5.6
			c0,0.1,0,0.1,0,0.2c0,0.8-0.7,1.3-1.4,1.3c-0.6,0-1.3-0.4-1.4-1.2c-0.2-1.5-0.4-3.9-0.4-5.9c0-3.6,0.3-6.8,1.1-11.1
			C128.7,4.7,129.3,4.4,129.9,4.4z M140.8,19.1c1.1,0,2.4-0.1,3.6-0.4c0.1,0,0.2,0,0.3,0c0.8,0,1.3,0.7,1.3,1.3
			c0,0.6-0.3,1.1-1.1,1.3c-1.4,0.3-2.8,0.4-4.2,0.4c-4.4,0-6.3-1.3-6.6-4.2v-0.1c0-0.9,0.7-1.3,1.4-1.3c0.6,0,1.1,0.3,1.2,1
			C137.1,18.6,137.8,19.1,140.8,19.1z M143.3,6.5c0.8,0,1.3,0.6,1.3,1.3c0,0.6-0.4,1.2-1.2,1.3c-2.1,0.3-4.5,0.5-6.8,0.5
			c-0.9,0-1.4-0.6-1.4-1.3c0-0.6,0.4-1.3,1.3-1.3c2.2,0,4.5-0.2,6.6-0.5H143.3z"/>
		<path class="st0" d="M155.9,3.8c0.1-0.7,0.7-1,1.3-1c0.7,0,1.3,0.4,1.3,1.2c0,0.1,0,0.2,0,0.3c-0.2,0.9-0.4,1.9-0.7,2.8
			c0.7-0.1,1.4-0.2,2.1-0.4c0.1,0,0.2,0,0.3,0c0.8,0,1.2,0.6,1.2,1.3c0,0.5-0.3,1.1-1.1,1.2c-1,0.2-2.2,0.4-3.4,0.6
			c-1,2.9-2.3,5.8-3.7,8.1c-0.4,0.6-0.9,0.9-1.3,0.9c-0.7,0-1.3-0.6-1.3-1.3c0-0.3,0.1-0.6,0.3-0.8c1.2-1.9,2.3-4.2,3.2-6.5
			c-0.9,0.1-1.8,0.1-2.5,0.2c-0.8,0-1.2-0.6-1.2-1.3c0-0.6,0.4-1.2,1.2-1.2c1.1,0,2.3-0.1,3.5-0.2C155.3,6.2,155.6,5,155.9,3.8z
			 M160.2,23.9c-2.9,0-4.6-1.2-4.6-3.5c0-1.9,1.6-3.5,4.7-3.5c0.4,0,0.8,0,1.2,0.1c-0.2-1.1-0.2-1.9-0.2-2.5c0-1,0-1.6,0.2-2.3
			c0.1-0.7,0.7-1,1.2-1c0.7,0,1.3,0.4,1.3,1.1c0,0.1,0,0.1,0,0.2c-0.1,0.7-0.2,1.3-0.2,2s0.1,1.6,0.3,3.1c1.5,0.5,3.1,1.2,4.5,2.1
			c0.5,0.3,0.6,0.7,0.6,1.1c0,0.7-0.6,1.3-1.3,1.3c-0.2,0-0.5-0.1-0.8-0.3c-0.9-0.6-1.8-1.2-2.7-1.5
			C164.5,22.9,162.5,23.9,160.2,23.9z M161.9,20c0-0.2,0-0.4,0-0.6c-0.5-0.1-1-0.1-1.5-0.1c-1.7,0-2.2,0.5-2.2,1.2
			c0,0.7,0.5,1.1,2,1.1C161.3,21.5,161.9,21,161.9,20z M169.3,8.7c0.6,0.3,0.8,0.8,0.8,1.2c0,0.7-0.6,1.3-1.3,1.3
			c-0.2,0-0.5-0.1-0.7-0.2c-1.1-0.6-2.4-1.3-3.4-1.7c-0.6-0.2-0.9-0.6-0.9-1.1c0-0.6,0.6-1.3,1.4-1.3c0.1,0,0.3,0,0.5,0.1
			C166.8,7.4,168.2,8.1,169.3,8.7z"/>
		<path class="st0" d="M181.2,12c1-0.4,2.1-0.6,3-0.6c3.7,0,6.2,2,6.2,5.4c0,4.2-3,6.9-7.7,6.9c-3.3,0-5.4-1.7-5.4-3.8
			c0-1.8,1.2-3.1,3.3-3.1c2.3,0,3.9,1.5,4.6,3.9c1.5-0.7,2.3-2.1,2.3-3.9c0-1.7-1.3-3.1-3.6-3.1c-2.4,0-4.8,0.8-7.7,3.1
			c-0.3,0.3-0.7,0.4-1,0.4c-0.7,0-1.3-0.6-1.3-1.3c0-0.4,0.2-0.8,0.6-1.1c2.8-2.2,5.9-5.4,8.1-8.1c-1.2,0.2-2.7,0.4-3.9,0.5
			c-0.1,0-0.7,0.1-1,0.1c-0.8,0-1.2-0.6-1.2-1.3c0-0.6,0.4-1.2,1.2-1.2c1.9-0.1,4.5-0.4,6.8-0.8c0.1,0,0.2,0,0.3,0
			c1,0,1.7,0.7,1.7,1.5c0,0.4-0.1,0.7-0.4,1.1C184.5,8.3,182.7,10.4,181.2,12L181.2,12z M182.8,21.2c-0.4-1.5-1.1-2.4-2.1-2.4
			c-0.5,0-0.9,0.4-0.9,0.9c0,0.8,0.9,1.4,2.8,1.4H182.8z"/>
	</g>
</g>
<g>
	<circle class="st1" cx="239.1" cy="15" r="15"/>
	<polygon class="st2" points="239.1,20 244.1,12 234.1,12 	"/>
</g>
</svg>
