<!-- Generator: Adobe Illustrator 22.1.0, SVG Export Plug-In  -->
<svg version="1.1"
	 xmlns="http://www.w3.org/2000/svg" xmlns:xlink="http://www.w3.org/1999/xlink" xmlns:a="http://ns.adobe.com/AdobeSVGViewerExtensions/3.0/"
	 x="0px" y="0px" width="253.8px" height="30px" viewBox="0 0 253.8 30" style="enable-background:new 0 0 253.8 30;"
	 xml:space="preserve">
<style type="text/css">
	.st0{fill:#EF7800;}
	.st1{fill:#FFEABD;}
	.st2{fill:#000333;}
</style>
<defs>
</defs>
<g>
	<g>
		<path class="st0" d="M4.6,3.4c0-0.7,0.6-1.1,1.3-1.1c0.6,0,1.3,0.3,1.3,1.1v2.4h3.3c0.7,0,1,0.6,1,1.2c0,0.6-0.3,1.2-1,1.2H1
			c-0.6,0-1-0.6-1-1.2c0-0.6,0.3-1.2,1-1.2h3.6V3.4z M6.7,13.7c0.2-0.6,0.7-0.8,1.1-0.8c0.6,0,1.3,0.5,1.3,1.2c0,0.1,0,0.3-0.1,0.5
			c-0.4,1.1-0.9,2.1-1.5,3.2c0.6,0.6,1.2,1.3,1.7,2c0.2,0.3,0.3,0.6,0.3,0.9c0,0.7-0.6,1.3-1.3,1.3c-0.4,0-0.7-0.2-1-0.6
			c-0.4-0.5-0.7-1-1.2-1.5c-1.2,1.6-2.6,2.9-4,3.9C1.8,23.9,1.5,24,1.3,24C0.6,24,0,23.5,0,22.8c0-0.4,0.2-0.8,0.7-1.1
			c1.3-1,2.6-2.3,3.7-3.8c-0.6-0.7-1.2-1.3-1.9-1.9c-0.3-0.3-0.4-0.6-0.4-0.9c0-0.6,0.6-1.2,1.2-1.2c0.3,0,0.6,0.1,1,0.4
			c0.5,0.4,1,0.9,1.5,1.4C6.1,15.1,6.5,14.4,6.7,13.7z M3.5,8.8c0.6,0,1.3,0.5,1.3,1.2c0,0.2,0,0.4-0.2,0.6c-0.6,1-1.3,2.1-2.2,3
			c-0.3,0.3-0.6,0.4-1,0.4c-0.6,0-1.3-0.5-1.3-1.2c0-0.3,0.1-0.6,0.4-0.9c0.6-0.7,1.4-1.7,1.9-2.6C2.7,9,3.1,8.8,3.5,8.8z
			 M10.8,11.1c0.2,0.2,0.2,0.5,0.2,0.7c0,0.7-0.6,1.3-1.2,1.3c-0.3,0-0.7-0.2-0.9-0.6c-0.5-0.7-1.2-1.5-1.7-2C7,10.2,6.9,10,6.9,9.8
			c0-0.6,0.6-1.1,1.2-1.1C8.4,8.7,8.7,8.8,9,9C9.6,9.5,10.3,10.4,10.8,11.1z M16.6,10.5c0,2.2-0.3,4.4-1,6.5
			c-0.6,1.9-1.4,3.7-2.5,5.3c-0.5,0.6-1,1.2-1.5,1.7c-0.3,0.3-0.7,0.5-1,0.5c-0.7,0-1.3-0.5-1.3-1.2c0-0.3,0.1-0.7,0.5-1
			c2.7-2.8,4.1-6.4,4.2-11.7l-1.7,0c-0.7,0-1.1-0.6-1.1-1.2c0-0.6,0.3-1.1,1-1.1l1.7,0V3.6c0-0.7,0.6-1.1,1.3-1.1
			c0.6,0,1.3,0.3,1.3,1.1v4.7l1.8,0h0.2c2,0,2.6,0.9,2.6,2.6c0,4.1-0.2,7.7-0.6,10.4c-0.3,2.3-1.4,3.1-3,3.1c-0.6,0-1.1,0-1.6-0.1
			c-0.8-0.2-1.1-0.7-1.1-1.3c0-0.6,0.5-1.3,1.2-1.3c0.1,0,0.2,0,0.3,0c0.3,0,0.6,0.1,0.9,0.1c0.4,0,0.7-0.2,0.8-0.9
			c0.4-2.4,0.6-5.9,0.6-9.6c0-0.5-0.1-0.6-0.7-0.6L16.6,10.5z"/>
		<path class="st0" d="M36.7,6.6C36.9,6.8,37,6.9,37,7.2c0,0.1,0,0.3-0.1,0.5c-0.5,0.8-1,1.5-1.6,2.2c0.3,0.3,0.6,0.6,0.9,0.9
			c0.5-0.7,1-1.3,1.4-2c0.3-0.4,0.6-0.6,1-0.6c0.6,0,1.2,0.5,1.2,1c0,0.2-0.1,0.4-0.2,0.6c-1,1.4-2.2,3-3.5,4.3
			c0.8-0.1,1.6-0.1,2.4-0.2c-0.1-0.2-0.2-0.3-0.3-0.5c-0.1-0.2-0.2-0.3-0.2-0.5c0-0.5,0.5-0.9,1-0.9c0.4,0,0.7,0.2,1,0.6
			c0.5,0.7,1.2,1.8,1.7,2.5c0.1,0.2,0.2,0.4,0.2,0.6c0,0.6-0.5,1-1.1,1c-0.4,0-0.8-0.2-1-0.6c0-0.1-0.1-0.2-0.2-0.3
			c-0.7,0.1-1.4,0.2-2.1,0.3v1.8h8.8c0.7,0,1,0.5,1,1.1c0,0.5-0.3,1.1-1,1.1h-8.8v4c0,0.7-0.6,1-1.3,1c-0.7,0-1.3-0.3-1.3-1v-4h-8.7
			c-0.6,0-1-0.6-1-1.1c0-0.6,0.3-1.1,1-1.1h8.7v-1.6c-1,0.1-1.9,0.1-2.7,0.1c-0.8,0-1.2-0.5-1.2-1.1c0-0.5,0.3-1,1-1
			c0.4,0,0.7,0,1.1,0c0.6-0.6,1.2-1.2,1.7-1.8c-0.9-0.9-1.7-1.6-2.4-2.1c-0.4-0.3-0.5-0.6-0.5-0.9c0-0.6,0.5-1,1.1-1
			c0.2,0,0.5,0,0.7,0.2c0.4-0.5,0.8-1.1,1.2-1.8c0-0.1,0.1-0.2,0.2-0.2h-8.4c-0.6,0-0.9-0.5-0.9-1.1c0-0.5,0.3-1.1,0.9-1.1h8.2V3.1
			c0-0.7,0.6-1,1.3-1c0.6,0,1.3,0.3,1.3,1v1.4h8.4c0.6,0,0.9,0.5,0.9,1.1c0,0.5-0.3,1.1-0.9,1.1H36.7z M26.6,16.5
			c-0.6,0-1.1-0.6-1.1-1.1c0-0.4,0.2-0.8,0.7-1c1.3-0.6,2.9-1.4,4-2.2c0.2-0.1,0.5-0.2,0.7-0.2c0.6,0,1.1,0.5,1.1,1.1
			c0,0.3-0.1,0.6-0.5,0.8c-1.2,0.9-3,1.9-4.4,2.5C27,16.4,26.8,16.5,26.6,16.5z M26.9,8.4c0-0.6,0.6-1.1,1.2-1.1
			c0.2,0,0.5,0.1,0.8,0.3c0.6,0.5,1.3,1.2,1.7,1.6C30.8,9.4,31,9.7,31,10c0,0.6-0.6,1.2-1.2,1.2c-0.3,0-0.6-0.1-0.9-0.5
			c-0.4-0.4-1.1-1.1-1.6-1.6C27,8.9,26.9,8.6,26.9,8.4z M41.7,11.5c-0.6,0-1.1-0.5-1.1-1.1c0-0.3,0.1-0.6,0.5-0.9
			c0.8-0.6,1.8-1.4,2.4-2.1c0.2-0.3,0.6-0.4,0.8-0.4c0.6,0,1.2,0.5,1.2,1.1c0,0.2-0.1,0.5-0.3,0.7c-0.7,0.8-1.8,1.7-2.7,2.4
			C42.2,11.5,42,11.5,41.7,11.5z M41.5,13.2c0-0.6,0.5-1.1,1.2-1.1c0.2,0,0.5,0,0.7,0.2c0.9,0.5,2,1.4,2.9,2.1
			c0.3,0.3,0.5,0.6,0.5,0.9c0,0.6-0.6,1.1-1.2,1.1c-0.3,0-0.6-0.1-0.9-0.4c-0.6-0.6-1.8-1.4-2.7-2.1C41.6,13.7,41.5,13.5,41.5,13.2z
			"/>
		<path class="st0" d="M61.9,5.7c0,0.8,0,1.7,0,2.4c1.7-0.1,3.3-0.3,4.7-0.6c0.1,0,0.2,0,0.3,0c0.8,0,1.2,0.6,1.2,1.3
			c0,0.6-0.3,1.1-1.1,1.3c-1.5,0.3-3.3,0.6-5.1,0.7c0.1,1.9,0.2,3.9,0.5,5.8c2.1,0.6,4.2,1.7,6.1,2.9c0.5,0.3,0.7,0.8,0.7,1.2
			c0,0.7-0.6,1.4-1.4,1.4c-0.3,0-0.6-0.1-1-0.4c-1.3-0.9-2.8-1.8-4.3-2.4c-0.3,2.4-2.2,4.1-5.5,4.1c-3,0-5.1-1.4-5.1-3.8
			c0-2.1,1.9-3.9,5.2-3.9c0.8,0,1.7,0.1,2.5,0.2c-0.3-2.8-0.5-6.1-0.5-10.2V4.1c0-0.8,0.7-1.1,1.4-1.1c0.7,0,1.4,0.4,1.4,1.1V5.7z
			 M59.9,18.5c-0.9-0.2-1.8-0.3-2.7-0.3c-1.6,0-2.3,0.6-2.3,1.4c0,0.9,0.7,1.3,2.3,1.3S59.9,20,59.9,18.5z"/>
		<path class="st0" d="M83.1,3c0.7,0,1.4,0.6,1.4,1.3c0,0.3-0.1,0.6-0.3,0.9c-1.5,2.2-3.6,4.8-5.4,6.8c-0.4,0.4-0.5,0.7-0.5,1.1
			c0,0.4,0.2,0.7,0.6,1.1c2.1,2.3,4.3,4.9,6.1,7.5c0.2,0.4,0.4,0.7,0.4,1c0,0.8-0.7,1.4-1.5,1.4c-0.5,0-1-0.2-1.3-0.8
			c-1.5-2.4-3.7-5.3-5.7-7.5c-0.9-1-1.3-1.8-1.3-2.7c0-0.8,0.3-1.6,1.1-2.5c1.8-1.9,3.8-4.6,5.3-6.9C82.3,3.2,82.7,3,83.1,3z"/>
		<path class="st0" d="M103.1,2.8c0-0.6,0.6-0.9,1.3-0.9c0.6,0,1.3,0.3,1.3,0.9v1h7.8c0.6,0,0.9,0.5,0.9,1.1s-0.3,1.1-0.9,1.1H98
			c-0.8,0-1.1,0.2-1.1,0.9v3.9c0,5-0.7,8.6-2.1,11.6c-0.3,0.6-0.7,0.8-1.2,0.8c-0.6,0-1.3-0.5-1.3-1.2c0-0.2,0-0.4,0.2-0.6
			c1.3-2.7,1.9-6.1,1.9-10.8v-4c0-1.8,0.9-2.7,3.2-2.7h5.5V2.8z M103.5,17.3c-0.4,0.6-0.7,1.1-1.1,1.6c0.2,0,0.4,0,0.5,0h7
			c2,0,2.6,0.6,2.6,2.2v1.1c0,1.8-1,2.1-2.6,2.1h-7c-2,0-2.6-0.6-2.6-2.1v-1.1c-0.8,0.7-1.6,1.4-2.4,1.9c-0.2,0.2-0.5,0.2-0.7,0.2
			c-0.6,0-1.1-0.5-1.1-1.1c0-0.3,0.2-0.7,0.6-1c1.7-1,3.1-2.3,4.2-3.9h-2.8c-0.6,0-0.8-0.5-0.8-1c0-0.5,0.3-1,0.8-1h15.2
			c0.6,0,0.8,0.5,0.8,1c0,0.5-0.3,1-0.8,1H103.5z M98.4,9.7c-0.5,0-0.7-0.5-0.7-0.9s0.3-0.9,0.7-0.9h2.2V7.1c0-0.6,0.6-0.8,1.1-0.8
			c0.6,0,1.1,0.3,1.1,0.8v0.7h1.6c0.5,0,0.8,0.5,0.8,0.9s-0.3,0.9-0.8,0.9h-1.6v0.6c0.5,0.2,1,0.5,1.6,0.9c0.4,0.2,0.5,0.5,0.5,0.8
			c0,0.5-0.4,0.9-0.9,0.9c-0.2,0-0.4-0.1-0.6-0.2c-0.2-0.1-0.4-0.3-0.6-0.4v1.7c0,0.6-0.5,0.9-1.1,0.9c-0.5,0-1.1-0.3-1.1-0.9v-0.7
			l0-1.4c-0.5,0.6-1.1,1.2-1.7,1.7c-0.3,0.2-0.5,0.3-0.7,0.3c-0.5,0-0.9-0.4-0.9-0.9c0-0.3,0.1-0.6,0.5-0.9c0.8-0.6,1.6-1.4,2.2-2.3
			H98.4z M109.6,22.4c0.4,0,0.6-0.1,0.6-0.5v-0.8c0-0.4-0.1-0.5-0.6-0.5h-6.4c-0.4,0-0.6,0.1-0.6,0.5V22c0,0.4,0.2,0.5,0.6,0.5
			H109.6z M106.4,9.7c-0.5,0-0.7-0.5-0.7-0.9s0.3-0.9,0.7-0.9h2V7.1c0-0.6,0.6-0.8,1.1-0.8c0.6,0,1.1,0.3,1.1,0.8v0.7h2.4
			c0.5,0,0.8,0.5,0.8,0.9s-0.3,0.9-0.8,0.9h-1.8c0.9,0.8,1.9,1.5,3,2.1c0.4,0.2,0.6,0.6,0.6,0.9c0,0.5-0.4,1.1-1,1.1
			c-0.2,0-0.4-0.1-0.6-0.2c-1-0.6-1.9-1.4-2.6-2.2l0.1,1.7v0.6c0,0.6-0.5,0.9-1.1,0.9c-0.5,0-1.1-0.3-1.1-0.9v-0.6l0.1-1.6
			c-0.5,0.6-1.2,1.2-1.8,1.7c-0.3,0.2-0.5,0.3-0.7,0.3c-0.5,0-0.9-0.4-0.9-0.9c0-0.3,0.1-0.6,0.4-0.8c0.9-0.7,1.7-1.4,2.4-2.2H106.4
			z"/>
		<path class="st0" d="M130.5,15.9c-0.5-0.7-1.2-1.7-1.8-2.7c-2.4,0.4-4.8,0.6-6.6,0.8c-0.3,0-0.8,0-0.9,0c-0.7,0-1.2-0.6-1.2-1.2
			c0-0.6,0.4-1.2,1.1-1.2c2.1-0.1,4.3-0.4,6.4-0.7c-0.4-0.8-0.7-1.5-1-2.3c-1.8,0.3-3.1,0.5-4.7,0.6c-0.1,0-0.3,0-0.5,0
			c-0.7,0-1.1-0.6-1.1-1.2c0-0.6,0.3-1.1,1-1.2c1.3-0.1,2.9-0.2,4.4-0.5c-0.3-0.8-0.5-1.6-0.7-2.4c0-0.1,0-0.2,0-0.3
			c0-0.7,0.7-1.1,1.3-1.1c0.6,0,1.1,0.3,1.2,0.9c0.2,0.8,0.5,1.7,0.7,2.5c1.6-0.3,3.1-0.6,4.2-1c0.1,0,0.3-0.1,0.4-0.1
			c0.7,0,1.2,0.6,1.2,1.2c0,0.4-0.2,0.9-0.8,1c-1.2,0.4-2.6,0.7-4.2,1c0.3,0.8,0.6,1.5,1,2.3c1.7-0.3,3.3-0.7,4.6-1.1
			c0.1,0,0.3-0.1,0.4-0.1c0.7,0,1.2,0.6,1.2,1.3c0,0.4-0.3,0.9-0.9,1.1c-1.2,0.4-2.6,0.7-4.2,1.1c0.8,1.3,1.8,2.7,2.8,3.9
			c0.3,0.3,0.4,0.6,0.4,1c0,0.7-0.5,1.3-1.3,1.3c-0.2,0-0.4,0-0.6-0.1c-1.7-0.6-3.5-0.9-5.2-0.9c-3,0-3.8,0.9-3.8,1.9
			c0,1.2,1,1.9,4.5,1.9c1,0,1.3,0,2.1-0.1c0.1,0,0.4,0,0.5,0c0.9,0,1.3,0.6,1.3,1.2c0,0.6-0.4,1.2-1.2,1.2c-0.7,0.1-1.5,0.1-2.6,0.1
			c-5.1,0-7.3-1.6-7.3-4.4c0-2.5,2.1-4.2,6.5-4.2C128.5,15.6,129.7,15.8,130.5,15.9L130.5,15.9z"/>
		<path class="st0" d="M143,10.6c-0.8,0-1.2-0.6-1.2-1.2c0-0.6,0.4-1.3,1.2-1.3c1,0,2.1-0.2,3.4-0.4c0.2-1.3,0.3-2.4,0.5-3.7
			c0.1-0.7,0.7-1.1,1.3-1.1c0.7,0,1.3,0.4,1.3,1.2v0.1c-0.1,1.2-0.2,2-0.4,2.9c0.7-0.1,1.4-0.3,2.1-0.5c0.1,0,0.2,0,0.4,0
			c0.7,0,1.2,0.6,1.2,1.3c0,0.5-0.3,1-0.9,1.2c-1.1,0.3-2.2,0.6-3.1,0.8c-0.9,4.7-2,9.1-3.4,12.6c-0.3,0.7-0.9,1.1-1.5,1.1
			c-0.7,0-1.3-0.5-1.3-1.2c0-0.2,0-0.4,0.1-0.7c1.3-3.3,2.4-7.1,3.2-11.3C145,10.5,144,10.6,143,10.6z M152.1,17.3
			c0.6,0,1.1,0.3,1.2,1c0.2,1.5,1,2,3.6,2c1.2,0,2.3-0.1,3.2-0.2c0.1,0,0.2,0,0.3,0c0.8,0,1.3,0.7,1.3,1.3c0,0.6-0.4,1.2-1.1,1.3
			c-1,0.2-2.2,0.3-3.6,0.3c-3.4,0-4.8-0.9-5.6-2.1c-0.4-0.6-0.6-1.6-0.6-2.2C150.8,17.7,151.5,17.3,152.1,17.3z M159.3,10.1
			c0.9,0,1.3,0.6,1.3,1.3c0,0.6-0.4,1.2-1.2,1.2c-1.9,0-4.2,0.3-5.9,0.6c-0.1,0-0.2,0-0.3,0c-0.7,0-1.2-0.6-1.2-1.2
			c0-0.6,0.3-1.1,1.1-1.3C155.1,10.3,157.4,10.1,159.3,10.1z"/>
		<path class="st0" d="M167.8,5.4c0.7,0,1.4,0.4,1.4,1.3c0,0.3-0.1,1.5-0.1,2.3c0,8.4,1.7,10.6,2.7,10.6c0.6,0,1.1-0.4,1.6-2.2
			c0.2-0.7,0.7-1,1.2-1c0.7,0,1.4,0.5,1.4,1.3c0,0.1,0,0.3,0,0.4c-0.9,3.2-2.4,4.4-4,4.4c-3.5,0-5.6-4.3-5.6-13.4
			c0-1.1,0-1.8,0.1-2.4C166.5,5.8,167.1,5.4,167.8,5.4z M185.9,15.6c0.1,0.2,0.1,0.4,0.1,0.5c0,0.8-0.7,1.3-1.3,1.3
			c-0.5,0-1-0.3-1.3-0.9c-0.9-2.2-2.4-4.7-4.2-6.5c-0.3-0.3-0.4-0.6-0.4-0.9c0-0.7,0.6-1.2,1.4-1.2c0.3,0,0.7,0.1,1.1,0.5
			C183.3,10.1,185.1,13.1,185.9,15.6z"/>
	</g>
</g>
<g>
	<circle class="st1" cx="238.8" cy="15" r="15"/>
	<polygon class="st2" points="238.8,20 243.8,12 233.8,12 	"/>
</g>
</svg>
