<!-- Generator: Adobe Illustrator 22.1.0, SVG Export Plug-In  -->
<svg version="1.1"
	 xmlns="http://www.w3.org/2000/svg" xmlns:xlink="http://www.w3.org/1999/xlink" xmlns:a="http://ns.adobe.com/AdobeSVGViewerExtensions/3.0/"
	 x="0px" y="0px" width="251.4px" height="30px" viewBox="0 0 251.4 30" style="enable-background:new 0 0 251.4 30;"
	 xml:space="preserve">
<style type="text/css">
	.st0{fill:#EF7800;}
	.st1{fill:#FFEABD;}
	.st2{fill:#000333;}
</style>
<defs>
</defs>
<g>
	<g>
		<path class="st0" d="M2.1,6.6c-0.5,0-0.8-0.5-0.8-0.9c0-0.5,0.3-0.9,0.8-0.9h5C6.8,4.4,6.6,4,6.3,3.7C6.1,3.5,6,3.3,6,3.1
			c0-0.6,0.6-1,1.2-1c0.3,0,0.6,0.1,0.9,0.4c0.3,0.3,0.7,0.7,1,1.1C9.3,3.8,9.3,4,9.3,4.2c0,0.2,0,0.4-0.1,0.5h3
			c0.5-0.7,0.8-1.3,1.2-2C13.6,2.2,14,2,14.5,2c0.6,0,1.2,0.4,1.2,1c0,0.2,0,0.3-0.2,0.5c-0.2,0.4-0.5,0.8-0.7,1.2h5.4
			c0.6,0,0.8,0.5,0.8,0.9c0,0.5-0.3,0.9-0.8,0.9h-8.1v1.1h6.1c0.5,0,0.8,0.5,0.8,0.9c0,0.5-0.3,0.9-0.8,0.9h-6.1v1.1h8.8
			c0.6,0,0.8,0.5,0.8,0.9c0,0.5-0.3,1-0.8,1h-13c-0.2,0.5-0.4,1-0.6,1.5c0.4-0.1,0.9-0.1,1.4-0.1h7c2.3,0,3,0.7,3,2.4v5.9
			c0,1.7-0.8,2.4-3,2.4h-7c-2.3,0-3-0.7-3-2.4v-5c-1,1.7-2.2,3.1-3.5,4.3c-0.3,0.3-0.6,0.4-1,0.4c-0.7,0-1.3-0.6-1.3-1.2
			c0-0.3,0.1-0.6,0.5-0.9c2.1-1.9,3.7-4.3,4.8-7.2H0.9c-0.5,0-0.8-0.5-0.8-1c0-0.5,0.3-0.9,0.8-0.9h8.7V9.5H3.7
			C3.2,9.5,2.9,9,2.9,8.6c0-0.5,0.3-0.9,0.8-0.9h5.9V6.6H2.1z M16.3,16.3c0-0.5-0.1-0.6-0.8-0.6H9c-0.6,0-0.8,0.1-0.8,0.6v0.6h8.1
			V16.3z M8.2,19.7h8.1v-1.2H8.2V19.7z M15.5,22.6c0.6,0,0.8-0.1,0.8-0.6v-0.6H8.2V22c0,0.5,0.2,0.6,0.8,0.6H15.5z"/>
		<path class="st0" d="M42.4,9.1c1.9,0,2.9,0.9,2.9,2.4v3c0,1.6-1,2.2-2.9,2.2h-11v3.8c0,1.1,0.4,1.3,6.2,1.3c6.7,0,7.5-0.2,7.7-2.4
			c0.1-0.7,0.7-1,1.2-1c0.7,0,1.3,0.4,1.3,1.1v0.1c-0.4,3.8-1.8,4.6-10.2,4.6c-7.8,0-8.8-0.6-8.8-3.3v-9.3c0-1.5,1.2-2.6,3-2.6h4.3
			c0.5-0.6,1-1.3,1.3-1.9c0.1-0.1,0.1-0.2,0.1-0.3c0-0.1-0.1-0.2-0.5-0.2h-4.6c-1.5,1.7-3.3,3.3-4.8,4.3c-0.3,0.2-0.6,0.3-0.8,0.3
			c-0.7,0-1.2-0.6-1.2-1.2c0-0.4,0.2-0.8,0.7-1.1c2.3-1.4,4.5-3.7,6-6.3c0.3-0.4,0.7-0.6,1.1-0.6c0.7,0,1.4,0.5,1.4,1.2
			c0,0.2,0,0.4-0.2,0.6c-0.1,0.2-0.2,0.4-0.4,0.6h4.1c1.5,0,2.4,0.6,2.4,1.7c0,0.4-0.1,0.8-0.4,1.3c-0.3,0.5-0.6,1.1-1.1,1.7H42.4z
			 M32.4,11.3c-0.8,0-1,0.2-1,0.9v2.3h4.4v-3.1H32.4z M38.3,14.5h3.6c0.8,0,1-0.2,1-0.8v-1.6c0-0.6-0.2-0.8-0.9-0.8h-3.6V14.5z"/>
		<path class="st0" d="M50.8,9.8c0-0.6,0.6-1.2,1.3-1.2c0.3,0,0.6,0.1,0.8,0.3c0.7,0.5,1.7,1.2,2.3,1.9c0.3,0.3,0.4,0.7,0.4,1
			c0,0.7-0.6,1.3-1.3,1.3c-0.3,0-0.6-0.1-0.9-0.4c-0.6-0.6-1.6-1.5-2.1-1.9C51,10.4,50.8,10.1,50.8,9.8z M55.9,15.2
			c0.7,0,1.4,0.5,1.4,1.2c0,0.1,0,0.3-0.1,0.4c-0.7,2.2-1.9,4.8-3,6.4c-0.3,0.5-0.8,0.7-1.3,0.7c-0.7,0-1.4-0.5-1.4-1.2
			c0-0.2,0.1-0.5,0.3-0.8c1.1-1.6,2.1-3.9,2.8-6C54.9,15.5,55.4,15.2,55.9,15.2z M52.7,4c0-0.6,0.6-1.2,1.3-1.2
			c0.3,0,0.6,0.1,0.8,0.3C55.5,3.6,56.3,4.4,57,5c0.4,0.3,0.5,0.7,0.5,1c0,0.7-0.6,1.2-1.3,1.2c-0.3,0-0.6-0.1-1-0.5
			c-0.7-0.7-1.4-1.4-2-1.8C52.8,4.7,52.7,4.4,52.7,4z M64.9,6c-0.2,0.9-0.4,1.8-0.6,2.7h7.5c0.6,0,0.9,0.6,0.9,1.1
			c0,0.6-0.3,1.2-0.9,1.2h-8.1c-0.2,0.8-0.4,1.7-0.6,2.5h4.3c2.2,0,3.1,0.8,3.1,2.5c0,1.4-0.3,3.5-0.7,5.2c-0.6,2.3-1.8,3-3.7,3
			c-0.6,0-1.2,0-1.8-0.2c-0.8-0.1-1.1-0.7-1.1-1.3c0-0.6,0.4-1.3,1.2-1.3c0.1,0,0.2,0,0.3,0c0.5,0.1,1,0.1,1.4,0.1
			c0.6,0,0.9-0.2,1.2-1c0.4-1.4,0.7-2.9,0.7-4.4c0-0.4-0.2-0.6-0.8-0.6h-4.6c-0.1,0.3-0.1,0.5-0.2,0.8c-0.2,0.7-0.8,1-1.4,1
			c-0.7,0-1.3-0.4-1.3-1.1c0-0.1,0-0.3,0.1-0.5c0.6-1.4,1.1-3.1,1.5-4.8h-2.8c-0.6,0-0.9-0.6-0.9-1.2c0-0.6,0.3-1.1,0.9-1.1h3.3
			c0.2-0.9,0.4-1.8,0.6-2.7h-2.6c-0.6,0-0.9-0.6-0.9-1.2c0-0.6,0.3-1.1,0.9-1.1h10.8c0.6,0,0.9,0.6,0.9,1.1c0,0.6-0.3,1.2-0.9,1.2
			H64.9z"/>
		<path class="st0" d="M83.8,11c3.3-3.3,5.2-4.6,6.9-4.6c2.1,0,3,1.4,3,3.2V10l-0.5,8.4v0.1c0,0.5,0.2,0.6,0.6,0.6
			c0.5,0,1.2-0.2,2.3-1.4c0.3-0.4,0.7-0.5,1.1-0.5c0.7,0,1.3,0.6,1.3,1.3c0,0.3-0.1,0.7-0.4,1c-1.5,1.7-3,2.4-4.5,2.4
			c-2,0-3.2-0.9-3.2-3v-0.3l0.4-8.2v-0.2c0-0.7-0.2-1-0.8-1c-1,0-2.8,1.4-6.5,5.2l0,8.1c0,0.8-0.6,1.2-1.3,1.2
			c-0.6,0-1.3-0.4-1.3-1.2l0.1-5.4L79.4,20c-0.3,0.4-0.6,0.6-1,0.6c-0.7,0-1.3-0.6-1.3-1.2c0-0.2,0.1-0.5,0.2-0.7
			c1.2-1.7,2.6-4,4-6.7l0-1.5L78.5,11c-0.1,0-0.1,0-0.2,0c-0.7,0-1.1-0.6-1.1-1.2c0-0.6,0.3-1.1,0.9-1.2L81.4,8l0-3.8
			c0-0.7,0.7-1.1,1.3-1.1c0.6,0,1.3,0.4,1.3,1.1l-0.1,3.4c0.6,0,0.8,0.4,0.8,0.8c0,0.4-0.2,0.9-0.9,1.6L83.8,11z"/>
		<path class="st0" d="M104.7,22.4c-0.3,0.6-0.8,0.8-1.3,0.8c-0.7,0-1.3-0.5-1.3-1.2c0-0.2,0.1-0.5,0.2-0.7c1.5-2.7,2.8-6,3.7-9.4
			c-1,0.1-1.9,0.3-2.9,0.5c-0.1,0-0.2,0-0.3,0c-0.7,0-1.2-0.6-1.2-1.2c0-0.6,0.3-1.1,1.1-1.2c1.2-0.2,2.5-0.4,3.8-0.6
			c0.3-1.5,0.5-3,0.7-4.4c0.1-0.8,0.7-1.1,1.3-1.1c0.7,0,1.3,0.4,1.3,1.2v0.2c-0.1,1.3-0.4,2.6-0.6,4c0.5,0,0.9,0,1.3,0
			c3.1,0,4.2,1.4,4.2,5.2c0,2.3-0.2,4.3-0.6,5.7c-0.8,2.8-1.8,3.7-4.3,3.7c-0.6,0-1.2,0-1.6-0.1c-0.8-0.1-1.2-0.7-1.2-1.3
			c0-0.7,0.4-1.3,1.2-1.3c0,0,0.1,0,0.2,0c0.5,0,0.8,0.1,1.3,0.1c0.8,0,1.3-0.3,1.7-1.7c0.4-1.4,0.6-3.2,0.6-5.2
			c0-2.2-0.4-2.7-1.6-2.7c-0.5,0-1.1,0-1.8,0.1C107.8,15.5,106.5,19.4,104.7,22.4z M122.2,12.7c0.1,0.3,0.2,0.6,0.2,0.8
			c0,0.8-0.7,1.4-1.4,1.4c-0.5,0-1-0.3-1.3-0.9c-0.9-1.7-2.1-3.6-3.4-4.9c-0.3-0.3-0.4-0.6-0.4-0.9c0-0.7,0.7-1.2,1.4-1.2
			c0.4,0,0.8,0.1,1.1,0.5C119.9,8.8,121.4,11.1,122.2,12.7z M117.8,4.4c0-0.5,0.5-0.9,1-0.9c0.2,0,0.5,0.1,0.7,0.3
			c0.6,0.6,1.4,1.3,1.9,2.1c0.2,0.2,0.2,0.4,0.2,0.6c0,0.5-0.5,1-1,1c-0.3,0-0.6-0.1-0.8-0.5c-0.6-0.8-1.2-1.5-1.8-2
			C117.9,4.7,117.8,4.5,117.8,4.4z M120.2,2.5c0-0.5,0.5-0.9,1-0.9c0.2,0,0.5,0.1,0.7,0.3c0.6,0.5,1.3,1.3,1.8,2
			c0.2,0.2,0.3,0.5,0.3,0.7c0,0.5-0.5,0.9-1,0.9c-0.3,0-0.6-0.1-0.8-0.4c-0.6-0.7-1.2-1.4-1.8-2C120.2,2.8,120.2,2.7,120.2,2.5z"/>
		<path class="st0" d="M145.4,4.5c0.6,0,0.9,0.6,0.9,1.1s-0.3,1.1-0.9,1.1H131c-0.9,1.2-1.8,2.4-2.7,3.3c-0.3,0.3-0.7,0.4-1,0.4
			c-0.7,0-1.2-0.5-1.2-1.2c0-0.3,0.1-0.6,0.5-0.9c1.5-1.4,3-3.5,4-5.4c0.3-0.5,0.7-0.7,1.2-0.7c0.6,0,1.3,0.4,1.3,1
			c0,0.2,0,0.4-0.1,0.6c-0.1,0.2-0.3,0.5-0.4,0.7H145.4z M139.3,20.3c0.4,0.3,0.6,0.7,0.6,1.2c0,0.7-0.6,1.3-1.3,1.3
			c-0.3,0-0.6-0.1-0.9-0.3c-1-0.8-2.1-1.6-3.3-2.3c-1.8,1.6-3.9,2.9-6,3.9c-0.2,0.1-0.5,0.2-0.7,0.2c-0.7,0-1.2-0.6-1.2-1.2
			c0-0.5,0.3-0.9,0.9-1.2c1.7-0.8,3.4-1.9,4.8-3.1c-0.9-0.5-1.8-1-2.6-1.4c-0.5-0.2-0.7-0.6-0.7-1c0-0.6,0.5-1.2,1.2-1.2
			c0.2,0,0.4,0,0.7,0.1c1.1,0.5,2.2,1,3.4,1.7c0.7-0.8,1.4-1.6,2-2.4c0.3-0.4,0.7-0.6,1.1-0.6c0.7,0,1.3,0.5,1.3,1.2
			c0,0.2-0.1,0.5-0.2,0.7c-0.6,0.8-1.2,1.6-1.9,2.4C137.4,18.9,138.3,19.6,139.3,20.3z M141.2,10.9c2.2,0,3,0.8,3,2.6
			c0.1,2.5,0.5,5.2,1,6.8c0.4,1.2,0.6,1.3,0.7,1.3c0.2,0,0.4-0.3,0.4-1.4c0-0.6,0.5-0.9,1-0.9c0.6,0,1.2,0.4,1.2,1
			c0,0.6-0.2,1.8-0.6,2.6c-0.4,0.9-1,1.4-2,1.4c-1.4,0-2.4-0.8-3.2-3.2c-0.6-1.8-1.1-4.6-1.1-7.2c0-0.6-0.2-0.8-1.1-0.8h-12.5
			c-0.6,0-0.9-0.6-0.9-1.1c0-0.6,0.3-1.1,0.9-1.1H141.2z M131.8,9.9c-0.6,0-0.9-0.5-0.9-1.1s0.3-1.1,0.9-1.1h10.7
			c0.6,0,0.9,0.5,0.9,1.1s-0.3,1.1-0.9,1.1H131.8z"/>
		<path class="st0" d="M155.4,4.4c0.7,0,1.4,0.4,1.4,1.2c0,0.1,0,0.2,0,0.3c-0.8,3.9-1.1,7.2-1.1,10.6c0,2,0.3,4.2,0.4,5.6
			c0,0.1,0,0.1,0,0.2c0,0.8-0.7,1.3-1.4,1.3c-0.6,0-1.3-0.4-1.4-1.2c-0.2-1.5-0.4-3.9-0.4-5.9c0-3.6,0.3-6.8,1.1-11.1
			C154.2,4.7,154.8,4.4,155.4,4.4z M166.3,19.1c1.1,0,2.4-0.1,3.6-0.4c0.1,0,0.2,0,0.3,0c0.8,0,1.3,0.7,1.3,1.3
			c0,0.6-0.3,1.1-1.1,1.3c-1.4,0.3-2.8,0.4-4.2,0.4c-4.4,0-6.3-1.3-6.6-4.2v-0.1c0-0.9,0.7-1.3,1.4-1.3c0.6,0,1.1,0.3,1.2,1
			C162.5,18.6,163.3,19.1,166.3,19.1z M168.8,6.5c0.8,0,1.3,0.6,1.3,1.3c0,0.6-0.4,1.2-1.2,1.3c-2.1,0.3-4.5,0.5-6.8,0.5
			c-0.9,0-1.4-0.6-1.4-1.3c0-0.6,0.4-1.3,1.3-1.3c2.2,0,4.5-0.2,6.6-0.5H168.8z"/>
		<path class="st0" d="M181.3,3.8c0.1-0.7,0.7-1,1.3-1c0.7,0,1.3,0.4,1.3,1.2c0,0.1,0,0.2,0,0.3c-0.2,0.9-0.4,1.9-0.7,2.8
			c0.7-0.1,1.4-0.2,2.1-0.4c0.1,0,0.2,0,0.3,0c0.8,0,1.2,0.6,1.2,1.3c0,0.5-0.3,1.1-1.1,1.2c-1,0.2-2.2,0.4-3.4,0.6
			c-1,2.9-2.3,5.8-3.7,8.1c-0.4,0.6-0.9,0.9-1.3,0.9c-0.7,0-1.3-0.6-1.3-1.3c0-0.3,0.1-0.6,0.3-0.8c1.2-1.9,2.3-4.2,3.2-6.5
			c-0.9,0.1-1.8,0.1-2.5,0.2c-0.8,0-1.2-0.6-1.2-1.3c0-0.6,0.4-1.2,1.2-1.2c1.1,0,2.3-0.1,3.5-0.2C180.8,6.2,181.1,5,181.3,3.8z
			 M185.6,23.9c-2.9,0-4.6-1.2-4.6-3.5c0-1.9,1.6-3.5,4.7-3.5c0.4,0,0.8,0,1.2,0.1c-0.2-1.1-0.2-1.9-0.2-2.5c0-1,0-1.6,0.2-2.3
			c0.1-0.7,0.7-1,1.2-1c0.7,0,1.3,0.4,1.3,1.1c0,0.1,0,0.1,0,0.2c-0.1,0.7-0.2,1.3-0.2,2s0.1,1.6,0.3,3.1c1.5,0.5,3.1,1.2,4.5,2.1
			c0.5,0.3,0.6,0.7,0.6,1.1c0,0.7-0.6,1.3-1.3,1.3c-0.2,0-0.5-0.1-0.8-0.3c-0.9-0.6-1.8-1.2-2.7-1.5
			C189.9,22.9,187.9,23.9,185.6,23.9z M187.3,20c0-0.2,0-0.4,0-0.6c-0.5-0.1-1-0.1-1.5-0.1c-1.7,0-2.2,0.5-2.2,1.2
			c0,0.7,0.5,1.1,2,1.1C186.7,21.5,187.3,21,187.3,20z M194.7,8.7c0.6,0.3,0.8,0.8,0.8,1.2c0,0.7-0.6,1.3-1.3,1.3
			c-0.2,0-0.5-0.1-0.7-0.2c-1.1-0.6-2.4-1.3-3.4-1.7c-0.6-0.2-0.9-0.6-0.9-1.1c0-0.6,0.6-1.3,1.4-1.3c0.1,0,0.3,0,0.5,0.1
			C192.2,7.4,193.7,8.1,194.7,8.7z"/>
		<path class="st0" d="M206.6,12c1-0.4,2.1-0.6,3-0.6c3.7,0,6.2,2,6.2,5.4c0,4.2-3,6.9-7.7,6.9c-3.3,0-5.4-1.7-5.4-3.8
			c0-1.8,1.2-3.1,3.3-3.1c2.3,0,3.9,1.5,4.6,3.9c1.5-0.7,2.3-2.1,2.3-3.9c0-1.7-1.3-3.1-3.6-3.1c-2.4,0-4.8,0.8-7.7,3.1
			c-0.3,0.3-0.7,0.4-1,0.4c-0.7,0-1.3-0.6-1.3-1.3c0-0.4,0.2-0.8,0.6-1.1c2.8-2.2,5.9-5.4,8.1-8.1c-1.2,0.2-2.7,0.4-3.9,0.5
			c-0.1,0-0.7,0.1-1,0.1c-0.8,0-1.2-0.6-1.2-1.3c0-0.6,0.4-1.2,1.2-1.2c1.9-0.1,4.5-0.4,6.8-0.8c0.1,0,0.2,0,0.3,0
			c1,0,1.7,0.7,1.7,1.5c0,0.4-0.1,0.7-0.4,1.1C210,8.3,208.2,10.4,206.6,12L206.6,12z M208.2,21.2c-0.4-1.5-1.1-2.4-2.1-2.4
			c-0.5,0-0.9,0.4-0.9,0.9c0,0.8,0.9,1.4,2.8,1.4H208.2z"/>
	</g>
</g>
<g>
	<circle class="st1" cx="236.4" cy="15" r="15"/>
	<polygon class="st2" points="236.4,20 241.4,12 231.4,12 	"/>
</g>
</svg>
