<!-- Generator: Adobe Illustrator 22.1.0, SVG Export Plug-In  -->
<svg version="1.1"
	 xmlns="http://www.w3.org/2000/svg" xmlns:xlink="http://www.w3.org/1999/xlink" xmlns:a="http://ns.adobe.com/AdobeSVGViewerExtensions/3.0/"
	 x="0px" y="0px" width="254.1px" height="30px" viewBox="0 0 254.1 30" style="enable-background:new 0 0 254.1 30;"
	 xml:space="preserve">
<style type="text/css">
	.st0{fill:#EF7800;}
	.st1{fill:#FFEABD;}
	.st2{fill:#000333;}
</style>
<defs>
</defs>
<g>
	<g>
		<path class="st0" d="M10.2,3.2c0-0.7,0.6-1.1,1.3-1.1c0.6,0,1.3,0.4,1.3,1.1v0.9H18c0.7,0,1,0.5,1,1.1c0,0.5-0.3,1.1-1,1.1h-5.2
			v1.2h8.4c0.7,0,1,0.6,1,1.1s-0.3,1.1-1,1.1H1c-0.6,0-1-0.6-1-1.1s0.3-1.1,1-1.1h3.6V4.2c0-0.7,0.6-1.1,1.3-1.1
			c0.6,0,1.3,0.4,1.3,1.1v3.2h3V3.2z M17.7,11.5c0-0.7,0.6-1.1,1.3-1.1s1.3,0.4,1.3,1.1v9.8c0,2-0.8,3-3.4,3H5.2c-2.6,0-3.4-1-3.4-3
			v-9.8c0-0.7,0.6-1,1.3-1c0.6,0,1.3,0.3,1.3,1V21c0,0.9,0.3,1.2,1.2,1.2h10.8c1,0,1.2-0.3,1.2-1.2V11.5z M12.2,19.7v1.2
			c0,0.6-0.6,0.9-1.2,0.9c-0.6,0-1.2-0.3-1.2-0.9v-1.2l0.1-1.6C9,19,7.8,20,6.6,20.8C6.3,20.9,6.1,21,5.9,21c-0.6,0-1-0.5-1-1
			c0-0.3,0.2-0.6,0.6-0.9c1.2-0.7,2.4-1.6,3.4-2.7H6.1c-0.6,0-0.9-0.5-0.9-1c0-0.5,0.3-0.9,0.9-0.9h3.7v-3.4c0-0.6,0.6-0.9,1.2-0.9
			c0.6,0,1.2,0.3,1.2,0.9v3.4H16c0.6,0,0.9,0.5,0.9,0.9c0,0.5-0.3,1-0.9,1h-2.9c1,0.8,2.1,1.5,3.4,2.2c0.5,0.2,0.7,0.6,0.7,1
			c0,0.6-0.5,1.1-1.1,1.1c-0.2,0-0.4-0.1-0.6-0.2c-1.3-0.7-2.4-1.6-3.4-2.5L12.2,19.7z M5.9,11.8c0-0.6,0.6-1,1.1-1
			c0.3,0,0.6,0.1,0.9,0.4c0.3,0.3,0.6,0.7,0.9,1.2C9,12.7,9,12.9,9,13.1c0,0.6-0.6,1.1-1.2,1.1c-0.3,0-0.6-0.1-0.9-0.5
			c-0.2-0.4-0.5-0.8-0.9-1.3C6,12.2,5.9,12,5.9,11.8z M15.1,10.8c0.6,0,1.1,0.4,1.1,1c0,0.1,0,0.3-0.1,0.5c-0.4,0.6-0.7,1.1-1.1,1.6
			c-0.2,0.3-0.5,0.4-0.8,0.4c-0.6,0-1.1-0.5-1.1-1c0-0.2,0.1-0.4,0.2-0.6c0.3-0.4,0.6-0.8,0.9-1.3C14.4,10.9,14.8,10.8,15.1,10.8z"
			/>
		<path class="st0" d="M28.7,10.6H27c-0.6,0-1-0.6-1-1.2c0-0.6,0.3-1.2,1-1.2h1.7V3.8c0-0.7,0.6-1,1.3-1c0.6,0,1.3,0.3,1.3,1v4.6
			h1.4c0.6,0,1,0.6,1,1.2c0,0.6-0.3,1.2-1,1.2h-1.4v4.9c0.3-0.1,0.6-0.2,0.9-0.4c0.2-0.1,0.3-0.1,0.5-0.1c0.6,0,1.1,0.6,1.1,1.2
			c0,0.4-0.2,0.7-0.6,1c-1.9,0.9-4,1.7-5.8,2.3c-0.1,0-0.3,0.1-0.4,0.1c-0.7,0-1.2-0.7-1.2-1.3c0-0.5,0.2-0.9,0.8-1.1
			c0.7-0.2,1.4-0.4,2.1-0.7V10.6z M35,5.5c0-0.7,0.6-1.1,1.3-1.1c0.4,0,0.7,0.1,1,0.3c2.6-0.5,5.1-1.2,7-1.8
			c0.2-0.1,0.4-0.1,0.5-0.1c0.8,0,1.2,0.6,1.2,1.3c0,0.5-0.3,1-0.9,1.2c-2,0.6-4.5,1.3-7.5,1.8v2.6h9.1c0.7,0,1,0.6,1,1.2
			c0,0.6-0.3,1.2-1,1.2h-9.2c-0.3,4.4-1.5,8-3.9,10.8c-0.3,0.4-0.8,0.6-1.2,0.6c-0.7,0-1.3-0.5-1.3-1.2c0-0.3,0.1-0.6,0.4-0.9
			c2.4-2.9,3.5-6.4,3.5-11.6V5.5z M40.1,24c-1.9,0-2.7-0.7-2.7-2.4v-4.1c0-1.7,0.8-2.4,2.7-2.4h3.8c1.9,0,2.7,0.7,2.7,2.4v4.1
			c0,1.9-1,2.4-2.7,2.4H40.1z M43.4,21.8c0.6,0,0.7-0.2,0.7-0.6v-3.4c0-0.4-0.1-0.6-0.7-0.6h-2.8c-0.6,0-0.7,0.2-0.7,0.6v3.4
			c0,0.5,0.2,0.6,0.7,0.6H43.4z"/>
		<path class="st0" d="M56.3,3c1.7,0,2.5,0.7,2.5,2c0,0.3,0,0.7-0.1,1.1c-0.4,1.6-1,3.3-1.7,4.6c1.3,1.7,2,3.3,2,5.1
			c0,2.7-1.1,3.7-3,3.7c-0.3,0-0.5,0-0.7-0.1c-0.4-0.1-0.7-0.3-0.8-0.6v5.1c0,0.6-0.6,1-1.2,1c-0.6,0-1.3-0.3-1.3-1V5.3
			C52,3.7,52.7,3,54.5,3H56.3z M55,5.3c-0.4,0-0.5,0.1-0.5,0.6v11.9c0.2-0.4,0.5-0.7,0.9-0.7h0.1c0.1,0,0.3,0,0.4,0
			c0.5,0,0.6-0.2,0.6-1.2c0-1.2-0.6-2.6-1.4-3.7c-0.3-0.4-0.4-0.7-0.4-1.1c0-0.3,0.1-0.6,0.3-1c0.5-1.1,1-2.7,1.3-4.1
			c0-0.1,0-0.2,0-0.3c0-0.2-0.1-0.3-0.4-0.3H55z M62.3,17.4c0.6,0,1.2,0.5,1.2,1.1c0,0.2,0,0.4-0.1,0.6c-0.7,1.2-1.5,2.3-2.5,3.3
			c-0.3,0.3-0.6,0.4-0.9,0.4c-0.6,0-1.2-0.5-1.2-1.1c0-0.3,0.1-0.6,0.5-0.9c0.8-0.8,1.5-1.7,2.2-2.8C61.6,17.6,61.9,17.4,62.3,17.4z
			 M72.7,9.2c0.5,0.3,0.7,0.7,0.7,1.2c0,0.7-0.6,1.3-1.3,1.3c-0.3,0-0.6-0.1-0.8-0.3c-1.9-1.3-4-3.2-5.5-5.1c-1.4,2-3.1,3.9-4.9,5.4
			C60.6,11.9,60.3,12,60,12c-0.7,0-1.2-0.5-1.2-1.2c0-0.3,0.2-0.7,0.6-1.1c2-1.7,4-4,5.4-6.4c0.3-0.5,0.7-0.7,1.2-0.7
			c0.7,0,1.3,0.5,1.3,1.1c0,0.1,0,0.3-0.1,0.5C68.6,6.1,70.7,7.9,72.7,9.2z M64.6,12.5h-1.4c-0.6,0-0.9-0.6-0.9-1.1
			c0-0.6,0.3-1.1,0.9-1.1h5.5c0.6,0,0.9,0.5,0.9,1.1c0,0.5-0.3,1.1-0.9,1.1h-1.7v1.8h4.5c0.6,0,0.9,0.6,0.9,1.1s-0.3,1.1-0.9,1.1
			h-4.5V22c0,1.8-0.8,2.6-2.7,2.6c-0.5,0-1,0-1.4-0.1c-0.7-0.1-1-0.6-1-1.2c0-0.6,0.4-1.2,1.1-1.2c0.1,0,0.2,0,0.3,0
			c0.2,0,0.6,0.1,0.8,0.1c0.4,0,0.6-0.1,0.6-0.5v-5.2h-4c-0.6,0-0.9-0.6-0.9-1.1s0.3-1.1,0.9-1.1h4V12.5z M72.2,20.7
			c0.2,0.3,0.3,0.5,0.3,0.8c0,0.7-0.6,1.2-1.3,1.2c-0.3,0-0.7-0.1-0.9-0.5c-0.7-1-1.4-2.1-2-3.2c-0.1-0.2-0.1-0.4-0.1-0.6
			c0-0.6,0.6-1,1.2-1c0.4,0,0.8,0.2,1.1,0.6C70.9,18.9,71.5,19.9,72.2,20.7z"/>
		<path class="st0" d="M87.2,14.6c-0.5,1.2-1,2.3-1.6,3.4c-0.5,1-1.1,1.9-1.7,2.9c2.5-0.2,5.1-0.5,7.6-0.8c-0.6-0.6-1.1-1.3-1.7-1.8
			c-0.2-0.2-0.4-0.5-0.4-0.8c0-0.6,0.6-1.1,1.3-1.1c0.3,0,0.7,0.1,1,0.4c1.6,1.5,3.4,3.6,4.6,5.3c0.2,0.3,0.3,0.6,0.3,0.9
			c0,0.7-0.6,1.3-1.4,1.3c-0.4,0-0.9-0.2-1.2-0.7c-0.3-0.5-0.7-1-1.1-1.5c-4.5,0.9-8.5,1.3-13.5,1.6c-0.2,0-0.7,0-0.8,0
			c-0.8,0-1.2-0.7-1.2-1.3c0-0.6,0.4-1.2,1.2-1.2c0.6,0,1.3-0.1,1.9-0.1c0.7-1.1,1.4-2.2,2-3.4c0.6-1,1.1-2.1,1.5-3.1h-6.7
			c-0.7,0-1-0.6-1-1.2s0.3-1.2,1-1.2H86V8.8h-5.9c-0.7,0-1.1-0.6-1.1-1.2s0.4-1.2,1.1-1.2H86v-3c0-0.7,0.7-1.1,1.3-1.1
			c0.7,0,1.3,0.3,1.3,1.1v3h6.4c0.7,0,1.1,0.6,1.1,1.2s-0.4,1.2-1.1,1.2h-6.4v3.4h8.6c0.7,0,1,0.6,1,1.2s-0.3,1.2-1,1.2H87.2z"/>
		<path class="st0" d="M105.2,4.6c0-0.8,0.7-1.2,1.4-1.2c0.7,0,1.4,0.4,1.4,1.2c0,0.3,0,0.9-0.1,1.2c-0.2,3.6-0.4,7.2-0.4,10.8
			c0,3.2,1,4.1,2.7,4.1c2.2,0,4.3-0.9,6.5-3.6c0.3-0.4,0.8-0.6,1.2-0.6c0.7,0,1.4,0.6,1.4,1.3c0,0.3-0.1,0.6-0.3,0.9
			c-2.7,3.4-5.6,4.7-8.8,4.7c-3.6,0-5.5-1.8-5.5-6.8C104.7,12.7,104.9,8.2,105.2,4.6z"/>
		<path class="st0" d="M124.8,10.6c-0.8,0-1.2-0.6-1.2-1.2c0-0.6,0.4-1.3,1.2-1.3c1,0,2.1-0.2,3.4-0.4c0.2-1.3,0.3-2.4,0.5-3.7
			c0.1-0.7,0.7-1.1,1.3-1.1c0.7,0,1.3,0.4,1.3,1.2v0.1c-0.1,1.2-0.2,2-0.4,2.9c0.7-0.1,1.4-0.3,2.1-0.5c0.1,0,0.2,0,0.4,0
			c0.7,0,1.2,0.6,1.2,1.3c0,0.5-0.3,1-0.9,1.2c-1.1,0.3-2.2,0.6-3.1,0.8c-0.9,4.7-2,9.1-3.4,12.6c-0.3,0.7-0.9,1.1-1.5,1.1
			c-0.7,0-1.3-0.5-1.3-1.2c0-0.2,0-0.4,0.1-0.7c1.3-3.3,2.4-7.1,3.2-11.3C126.8,10.5,125.8,10.6,124.8,10.6z M133.9,17.3
			c0.6,0,1.1,0.3,1.2,1c0.2,1.5,1,2,3.6,2c1.2,0,2.3-0.1,3.2-0.2c0.1,0,0.2,0,0.3,0c0.8,0,1.3,0.7,1.3,1.3c0,0.6-0.4,1.2-1.1,1.3
			c-1,0.2-2.2,0.3-3.6,0.3c-3.4,0-4.8-0.9-5.6-2.1c-0.4-0.6-0.6-1.6-0.6-2.2C132.6,17.7,133.2,17.3,133.9,17.3z M141.1,10.1
			c0.9,0,1.3,0.6,1.3,1.3c0,0.6-0.4,1.2-1.2,1.2c-1.9,0-4.2,0.3-5.9,0.6c-0.1,0-0.2,0-0.3,0c-0.7,0-1.2-0.6-1.2-1.2
			c0-0.6,0.3-1.1,1.1-1.3C136.8,10.3,139.2,10.1,141.1,10.1z"/>
		<path class="st0" d="M149.6,5.4c0.7,0,1.4,0.4,1.4,1.3c0,0.3-0.1,1.5-0.1,2.3c0,8.4,1.7,10.6,2.7,10.6c0.6,0,1.1-0.4,1.6-2.2
			c0.2-0.7,0.7-1,1.2-1c0.7,0,1.4,0.5,1.4,1.3c0,0.1,0,0.3,0,0.4c-0.9,3.2-2.4,4.4-4,4.4c-3.5,0-5.6-4.3-5.6-13.4
			c0-1.1,0-1.8,0.1-2.4C148.3,5.8,148.9,5.4,149.6,5.4z M167.7,15.6c0.1,0.2,0.1,0.4,0.1,0.5c0,0.8-0.7,1.3-1.3,1.3
			c-0.5,0-1-0.3-1.3-0.9c-0.9-2.2-2.4-4.7-4.2-6.5c-0.3-0.3-0.4-0.6-0.4-0.9c0-0.7,0.6-1.2,1.4-1.2c0.3,0,0.7,0.1,1.1,0.5
			C165,10.1,166.9,13.1,167.7,15.6z"/>
	</g>
</g>
<g>
	<circle class="st1" cx="239.1" cy="15" r="15"/>
	<polygon class="st2" points="239.1,20 244.1,12 234.1,12 	"/>
</g>
</svg>
