<!-- Generator: Adobe Illustrator 22.1.0, SVG Export Plug-In  -->
<svg version="1.1"
	 xmlns="http://www.w3.org/2000/svg" xmlns:xlink="http://www.w3.org/1999/xlink" xmlns:a="http://ns.adobe.com/AdobeSVGViewerExtensions/3.0/"
	 x="0px" y="0px" width="24px" height="19px" viewBox="0 0 24 19" style="enable-background:new 0 0 24 19;" xml:space="preserve">
<style type="text/css">
	.st0{fill:#1DA1F2;}
</style>
<defs>
</defs>
<path class="st0" d="M7.5,19c9.1,0,14-7.3,14-13.7c0-0.2,0-0.4,0-0.6c1-0.7,1.8-1.5,2.5-2.5c-0.9,0.4-1.9,0.6-2.8,0.8
	c1-0.6,1.8-1.5,2.2-2.7c-1,0.6-2,1-3.1,1.2c-1.9-1.9-5-2-7-0.2c-1.3,1.2-1.8,2.9-1.4,4.6c-4-0.2-7.6-2-10.1-5C0.4,3.1,1,5.9,3.2,7.3
	C2.4,7.3,1.6,7.1,1,6.7c0,0,0,0,0,0.1c0,2.3,1.7,4.3,4,4.7c-0.7,0.2-1.5,0.2-2.2,0.1c0.6,2,2.5,3.3,4.6,3.3
	c-1.7,1.3-3.9,2.1-6.1,2.1c-0.4,0-0.8,0-1.2-0.1C2.3,18.3,4.9,19,7.5,19"/>
</svg>
