<!-- Generator: Adobe Illustrator 22.1.0, SVG Export Plug-In  -->
<svg version="1.1"
	 xmlns="http://www.w3.org/2000/svg" xmlns:xlink="http://www.w3.org/1999/xlink" xmlns:a="http://ns.adobe.com/AdobeSVGViewerExtensions/3.0/"
	 x="0px" y="0px" width="90px" height="17.5px" viewBox="0 0 90 17.5" style="enable-background:new 0 0 90 17.5;"
	 xml:space="preserve">
<style type="text/css">
	.st0{fill:#333333;}
</style>
<defs>
</defs>
<g>
	<g>
		<path class="st0" d="M8.8,13.8c-2.8,0-5.1-2.3-5.1-5.1c0-2.8,2.3-5.1,5.1-5.1c2.8,0,5.1,2.3,5.1,5.1C13.8,11.6,11.6,13.8,8.8,13.8
			 M8.8,17.5c4.8,0,8.7-3.9,8.7-8.8c0-4.8-3.9-8.7-8.7-8.7C3.9,0,0,3.9,0,8.7C0,13.6,3.9,17.5,8.8,17.5"/>
		<path class="st0" d="M65.5,17.5c-4.8,0-8.7-3.9-8.7-8.7c0-4.8,3.9-8.8,8.7-8.8c4.8,0,8.8,3.9,8.8,8.8
			C74.2,13.6,70.3,17.5,65.5,17.5 M65.5,13.8c2.8,0,5.1-2.3,5.1-5.1c0-2.8-2.3-5.1-5.1-5.1c-2.8,0-5.1,2.3-5.1,5.1
			C60.4,11.6,62.7,13.8,65.5,13.8"/>
		<g>
			<path class="st0" d="M19.4,0.5l0,16.6h3.7V3.6h4v13.5h3.7V3.6h1.4c1.4,0,2.6,1.2,2.6,2.6v10.9h3.7V6.3c0-3.2-2.6-5.8-5.8-5.8
				h-9.5C21.9,0.4,20.6,0.5,19.4,0.5z"/>
		</g>
		<g>
			<path class="st0" d="M76,0.5l0,16.6h3.7V3.6h4.1c1.4,0,2.6,1.2,2.6,2.6v10.9H90V6.3c0-3.2-2.6-5.8-5.8-5.8h-4.5
				C78.4,0.4,77.2,0.5,76,0.5z"/>
		</g>
		<g>
			<path class="st0" d="M41.3,0.5l0,16.6h3.7V3.6h4.3c1.4,0,2.6,1.2,2.6,2.6c0,1.4-1.2,2.6-2.6,2.6h-3.2l5.7,8.3h4.5l-4.1-6
				c2-0.8,3.3-2.7,3.3-4.9c0-3.2-2.6-5.8-5.7-5.8h-4.8C43.7,0.4,42.5,0.5,41.3,0.5z"/>
		</g>
	</g>
</g>
</svg>
