<!-- Generator: Adobe Illustrator 22.1.0, SVG Export Plug-In  -->
<svg version="1.1"
	 xmlns="http://www.w3.org/2000/svg" xmlns:xlink="http://www.w3.org/1999/xlink" xmlns:a="http://ns.adobe.com/AdobeSVGViewerExtensions/3.0/"
	 x="0px" y="0px" width="122px" height="122px" viewBox="0 0 122 122" style="enable-background:new 0 0 122 122;"
	 xml:space="preserve">
<style type="text/css">
	.st0{fill:#5CBDE7;}
</style>
<defs>
</defs>
<g>
	<path class="st0" d="M61,4c31.4,0,57,25.6,57,57s-25.6,57-57,57S4,92.4,4,61S29.6,4,61,4 M61,0C27.3,0,0,27.3,0,61s27.3,61,61,61
		s61-27.3,61-61S94.7,0,61,0L61,0z"/>
</g>
<g>
	<g>
		<g>
			<path class="st0" d="M42.3,43c0.9-0.2,1.8-0.3,2.7-0.3c2.6,0,4.2,1.2,4.2,3.2c0,2.1-1.4,3.4-3.7,3.7c-0.1,0-0.1,0-0.2,0
				c-0.5,0-0.8-0.4-0.8-0.9c0-0.4,0.2-0.7,0.7-0.8c1.6-0.3,2.2-1,2.2-2c0-0.9-0.8-1.6-2.3-1.6c-1,0-1.9,0.2-2.8,0.4v2.8
				c0,1.7-0.7,2.3-2.2,2.3c-1.4,0-3-1.1-3-2.5c0-1.2,0.7-2.4,3.5-3.7v-2.7C39.8,41,39,41,38.4,41c-0.5,0-0.8-0.4-0.8-0.8
				c0-0.4,0.3-0.8,0.8-0.8c0.6,0,1.4-0.1,2.2-0.2v-2.4c0-0.5,0.4-0.8,0.9-0.8s0.9,0.3,0.9,0.8V39c0.5-0.1,1.1-0.2,1.5-0.3
				c0.1,0,0.2,0,0.3,0c0.5,0,0.8,0.4,0.8,0.8c0,0.3-0.2,0.7-0.7,0.8c-0.6,0.1-1.3,0.3-2,0.4V43z M40.6,45.3
				c-1.4,0.8-1.7,1.3-1.7,1.9c0,0.5,0.6,0.8,1.2,0.8c0.5,0,0.5-0.3,0.5-0.7V45.3z M49.9,39.8c0.3,0.2,0.4,0.5,0.4,0.8
				c0,0.5-0.4,0.9-0.9,0.9c-0.2,0-0.4-0.1-0.7-0.3c-0.5-0.5-1.3-1.1-1.9-1.4c-0.3-0.2-0.4-0.4-0.4-0.7c0-0.5,0.4-0.9,0.9-0.9
				c0.1,0,0.3,0,0.4,0.1C48.3,38.7,49.2,39.3,49.9,39.8z"/>
			<path class="st0" d="M53.9,39.3c0.3,0,0.6,0.2,0.6,0.6c0,0.4-0.2,1.6-0.4,2.4c-0.1,0.4-0.4,0.5-0.6,0.5c-0.3,0-0.6-0.2-0.6-0.6
				c0-0.1,0-0.1,0-0.2c0.2-0.6,0.4-1.5,0.4-2.2C53.4,39.5,53.6,39.3,53.9,39.3z M56.5,50.1c0,0.5-0.4,0.7-0.8,0.7
				c-0.4,0-0.9-0.2-0.9-0.7V36.5c0-0.5,0.4-0.7,0.9-0.7c0.4,0,0.8,0.2,0.8,0.7V50.1z M58.1,40.9V41c0,0.4-0.3,0.6-0.6,0.6
				c-0.3,0-0.5-0.2-0.6-0.5c-0.1-0.4-0.2-1.1-0.3-1.4c0-0.1,0-0.1,0-0.2c0-0.3,0.3-0.5,0.6-0.5c0.2,0,0.5,0.1,0.6,0.4
				C57.9,39.8,58.1,40.4,58.1,40.9z M60.8,39.5c0.1,0.2,0.1,0.3,0.1,0.5c0,0.5-0.4,0.8-0.9,0.8c-0.3,0-0.7-0.2-0.9-0.7
				c-0.2-0.6-0.6-1.4-1-2C58,38.1,58,37.9,58,37.8c0-0.4,0.4-0.8,0.9-0.8c0.3,0,0.5,0.1,0.8,0.4C60.1,38.1,60.5,38.9,60.8,39.5z
				 M60.2,50.1c-1.5,0-2.1-0.5-2.1-1.8v-5c0-0.5,0.4-0.7,0.9-0.7s0.9,0.2,0.9,0.7v4.7c0,0.4,0.2,0.5,0.5,0.5H65
				c0.3,0,0.5-0.1,0.5-0.5v-4.6c0-0.5,0.4-0.7,0.9-0.7s0.9,0.2,0.9,0.7v4.9c0,1.3-0.6,1.8-2.1,1.8H60.2z M64.8,46.4
				c0.2,0.2,0.3,0.4,0.3,0.6c0,0.4-0.4,0.8-0.8,0.8c-0.2,0-0.4-0.1-0.6-0.3c-0.2-0.3-0.5-0.5-0.8-0.8c-0.4,0.5-0.9,1-1.4,1.4
				c-0.2,0.2-0.4,0.2-0.6,0.2c-0.4,0-0.8-0.4-0.8-0.8c0-0.2,0.1-0.4,0.3-0.6c0.4-0.4,0.9-0.8,1.3-1.3c-0.3-0.3-0.7-0.5-1-0.8
				c-0.3-0.2-0.4-0.4-0.4-0.6c0-0.4,0.4-0.8,0.8-0.8c0.1,0,0.3,0,0.4,0.1c0.4,0.2,0.7,0.5,1.1,0.8c0.3-0.5,0.6-0.9,0.8-1.4
				c0.2-0.4,0.5-0.5,0.8-0.5c0.4,0,0.8,0.3,0.8,0.7c0,0.1,0,0.2-0.1,0.4c-0.3,0.6-0.7,1.2-1.1,1.9C64.2,45.7,64.5,46,64.8,46.4z
				 M63.6,39c0,0.1,0.1,0.2,0.1,0.3c0,0.5-0.4,0.9-0.9,0.9c-0.3,0-0.6-0.2-0.8-0.6c-0.2-0.7-0.6-1.6-0.9-2.2
				c-0.1-0.1-0.1-0.3-0.1-0.4c0-0.4,0.4-0.7,0.8-0.7c0.3,0,0.6,0.1,0.8,0.4C62.9,37.4,63.3,38.3,63.6,39z M65.4,41.5
				c-0.2,0.3-0.5,0.5-0.8,0.5c-0.4,0-0.9-0.3-0.9-0.8c0-0.2,0-0.3,0.2-0.5c0.6-1,1.2-2.3,1.7-3.6c0.1-0.4,0.4-0.6,0.8-0.6
				c0.4,0,0.9,0.3,0.9,0.8c0,0.1,0,0.2-0.1,0.4C66.7,39,66,40.4,65.4,41.5z"/>
			<path class="st0" d="M75.8,37c0.2,0,0.3,0,0.5,0c1,0,1.6,0.6,1.6,1.4c0,0.1,0,0.3,0,0.4c-0.2,1.2-0.5,2.4-0.8,3.5
				c1.1,0.1,2.1,0.4,3.1,0.8c0.2-0.8,0.3-1.6,0.3-2.4c0-0.5,0.4-0.8,0.9-0.8c0.5,0,0.9,0.3,0.9,0.8c0,0.9-0.2,2-0.4,3
				c0.8,0.4,1.6,0.8,2.4,1.3c0.3,0.2,0.4,0.5,0.4,0.8c0,0.5-0.4,1-0.9,1c-0.2,0-0.4,0-0.6-0.2c-0.6-0.4-1.3-0.8-1.9-1.1
				c-0.6,1.6-1.5,3-2.6,4.1c-0.3,0.3-0.5,0.4-0.8,0.4c-0.5,0-0.9-0.4-0.9-0.9c0-0.2,0.1-0.4,0.3-0.6c1-1,1.8-2.2,2.3-3.7
				c-1-0.4-2.1-0.7-3.2-0.9c-0.3,0.8-0.7,1.6-1,2.3c-0.8,1.6-1.6,2.1-2.8,2.1c-1.3,0-2.3-0.9-2.3-2.5c0-2,1.8-3.6,4.5-3.6h0.4
				c0.3-1,0.6-2.1,0.8-3.1c0,0,0-0.1,0-0.1c0-0.1-0.1-0.2-0.3-0.1l-2.2,0.4c-0.1,0-0.1,0-0.2,0c-0.5,0-0.8-0.4-0.8-0.9
				c0-0.4,0.2-0.8,0.8-0.8L75.8,37z M73.8,45.6c0.3-0.5,0.6-1.2,0.8-1.9c-1.7,0-2.5,1-2.5,2c0,0.6,0.3,0.8,0.6,0.8
				C73.1,46.5,73.4,46.4,73.8,45.6z"/>
		</g>
	</g>
	<g>
		<g>
			<path class="st0" d="M55.2,85.1c-0.4,1-1,1.8-1.7,2.5s-1.6,1.3-2.5,1.7c-1,0.4-2,0.6-3.1,0.6h-1.4c-1.1,0-2.1-0.2-3.1-0.6
				s-1.8-1-2.5-1.7s-1.3-1.6-1.7-2.5c-0.4-1-0.6-2-0.6-3.1V64.7c0-1.1,0.2-2.1,0.6-3.1c0.4-1,1-1.8,1.7-2.5s1.6-1.3,2.5-1.7
				c1-0.4,2-0.6,3.1-0.6h1.4c1.1,0,2.1,0.2,3.1,0.6c1,0.4,1.8,1,2.5,1.7s1.3,1.6,1.7,2.5c0.4,1,0.6,2,0.6,3.1V82
				C55.8,83.1,55.6,84.1,55.2,85.1z M52.9,64.7c0-0.7-0.1-1.4-0.4-2c-0.3-0.6-0.6-1.2-1.1-1.6c-0.5-0.5-1-0.8-1.6-1.1
				c-0.6-0.3-1.3-0.4-2-0.4h-1.1c-0.7,0-1.4,0.1-2,0.4c-0.6,0.3-1.2,0.6-1.6,1.1c-0.5,0.5-0.8,1-1.1,1.6c-0.3,0.6-0.4,1.3-0.4,2V82
				c0,0.7,0.1,1.4,0.4,2c0.3,0.6,0.6,1.2,1.1,1.6s1,0.8,1.6,1.1c0.6,0.3,1.3,0.4,2,0.4h1.1c0.7,0,1.4-0.1,2-0.4
				c0.6-0.3,1.2-0.6,1.6-1.1c0.5-0.5,0.8-1,1.1-1.6c0.3-0.6,0.4-1.3,0.4-2V64.7z"/>
			<path class="st0" d="M72.8,59.6c-0.7,0-1.4,0.1-2,0.4c-0.6,0.3-1.2,0.6-1.6,1.1c-0.5,0.5-0.8,1-1.1,1.6c-0.3,0.6-0.4,1.3-0.4,2
				V66l-2.9-0.5v-0.8c0-1.1,0.2-2.1,0.6-3.1c0.4-1,1-1.8,1.7-2.5s1.6-1.3,2.5-1.7c1-0.4,2-0.6,3.1-0.6H74c1.1,0,2.1,0.2,3.1,0.6
				c1,0.4,1.8,1,2.5,1.7c0.7,0.7,1.3,1.6,1.7,2.6c0.4,1,0.6,2.2,0.6,3.5c0,1.3-0.2,2.6-0.6,3.8c-0.4,1.3-0.9,2.6-1.5,3.8
				c-0.6,1.2-1.3,2.4-2.1,3.6c-0.8,1.2-1.6,2.3-2.5,3.3c-2,2.4-4.2,4.7-6.7,7h13.6v2.8H64v-2.3c2.8-2.3,5.3-4.7,7.5-7.2
				c0.9-1.1,1.9-2.2,2.8-3.4c0.9-1.2,1.7-2.4,2.4-3.7c0.7-1.3,1.3-2.6,1.7-3.9c0.4-1.3,0.6-2.6,0.6-3.9c0-0.9-0.1-1.8-0.4-2.5
				C78.3,62,78,61.4,77.5,61c-0.5-0.5-1-0.8-1.7-1c-0.6-0.2-1.3-0.3-1.9-0.3H72.8z"/>
		</g>
	</g>
</g>
</svg>
