<!-- Generator: Adobe Illustrator 22.1.0, SVG Export Plug-In  -->
<svg version="1.1"
	 xmlns="http://www.w3.org/2000/svg" xmlns:xlink="http://www.w3.org/1999/xlink" xmlns:a="http://ns.adobe.com/AdobeSVGViewerExtensions/3.0/"
	 x="0px" y="0px" width="275.1px" height="135.2px" viewBox="0 0 275.1 135.2"
	 style="overflow:inherit;enable-background:new 0 0 275.1 135.2;" xml:space="preserve">
<style type="text/css">
	.st0{fill:#FFFFFF;}
</style>
<defs>
</defs>
<g>
	<g>
		<g>
			<path class="st0" d="M18.5,1.8c0-1.2,1.1-1.8,2.3-1.8C21.8,0,23,0.6,23,1.8v1.6h9c1.2,0,1.8,0.9,1.8,1.9c0,0.9-0.6,1.9-1.8,1.9
				h-9v2.2h14.7c1.2,0,1.8,1,1.8,1.9c0,1-0.6,1.9-1.8,1.9H2.3c-1.1,0-1.7-1-1.7-1.9c0-1,0.6-1.9,1.7-1.9h6.4V3.7
				c0-1.2,1.1-1.8,2.3-1.8c1.1,0,2.2,0.6,2.2,1.8v5.7h5.3V1.8z M31.5,16.4c0-1.2,1.1-1.8,2.3-1.8s2.3,0.6,2.3,1.8v17.2
				c0,3.5-1.5,5.3-6,5.3H9.7c-4.5,0-6-1.8-6-5.3V16.5c0-1.2,1.1-1.8,2.3-1.8s2.3,0.6,2.3,1.8v16.6c0,1.6,0.5,2,2.2,2h18.9
				c1.7,0,2.2-0.5,2.2-2V16.4z M21.8,30.7v2c0,1.1-1,1.6-2,1.6c-1,0-2-0.5-2-1.6v-2l0.1-2.8c-1.6,1.7-3.7,3.4-5.9,4.7
				c-0.4,0.3-0.8,0.4-1.2,0.4c-1,0-1.8-0.9-1.8-1.8c0-0.5,0.3-1.1,1-1.5c2.1-1.2,4.1-2.8,5.9-4.7h-4.7c-1,0-1.5-0.8-1.5-1.7
				c0-0.8,0.5-1.6,1.5-1.6h6.6v-6c0-1.1,1-1.6,2-1.6c1,0,2,0.5,2,1.6v6h6.7c1.1,0,1.6,0.8,1.6,1.6c0,0.8-0.5,1.7-1.6,1.7h-5.1
				c1.8,1.4,3.7,2.7,6,3.8c0.8,0.4,1.2,1.1,1.2,1.8c0,1-0.8,2-1.9,2c-0.3,0-0.7-0.1-1.1-0.3c-2.4-1.3-4.2-2.8-5.9-4.5L21.8,30.7z
				 M10.9,17.1c0-1,1-1.7,2-1.7c0.5,0,1.1,0.2,1.6,0.7c0.5,0.5,1.1,1.3,1.6,2.1c0.2,0.3,0.3,0.7,0.3,1c0,1.1-1,1.9-2.1,1.9
				c-0.5,0-1.1-0.3-1.5-0.9c-0.4-0.7-0.9-1.3-1.6-2.2C11,17.7,10.9,17.3,10.9,17.1z M27,15.2c1,0,1.9,0.7,1.9,1.7
				c0,0.3,0,0.5-0.2,0.8c-0.6,1.1-1.2,1.9-1.8,2.7c-0.4,0.5-0.9,0.7-1.4,0.7c-1,0-1.9-0.8-1.9-1.7c0-0.3,0.1-0.7,0.4-1
				c0.5-0.7,1-1.4,1.6-2.4C25.8,15.4,26.4,15.2,27,15.2z"/>
			<path class="st0" d="M50.1,23.1c0-9.6,7.9-17.4,19.5-17.4c10.2,0,16.2,6.4,16.2,14.8c0,7.6-4.5,13.2-11.7,15.5
				c-0.3,0.1-0.7,0.2-1,0.2c-1.4,0-2.4-1.2-2.4-2.4c0-0.9,0.5-1.8,1.8-2.3c6-2.1,8.4-5.8,8.4-11c0-5.5-3.7-10-10.1-10.5
				c-0.4,7-2.1,13.3-4.7,17.9c-2.3,4.1-4.8,5.3-8,5.3C53.7,33.1,50.1,29.6,50.1,23.1z M55,23.1c0,3.9,1.5,5.3,3,5.3
				c1.3,0,2.4-0.7,3.7-2.8c2.1-3.7,3.7-9.2,4.2-15.3C59.6,11.4,55,16.8,55,23.1z"/>
			<path class="st0" d="M117.3,28.7c-0.8,0.7-1.8,1.1-3.1,1.1c-4.1,0-7.1-2.8-7.1-7.6c0-4.1,2.6-7,6.5-7c0.9,0,1.7,0.1,2.5,0.3
				l-0.1-3.4c-3.1,0.2-10.2,0.5-14.5,0.8c-0.5,0-1.4,0.1-1.9,0.1c-1.4,0-2.2-1.2-2.2-2.4c0-1.1,0.7-2.2,2.1-2.3
				c5-0.3,10.7-0.6,16.5-0.8c0-1.5,0-3.2,0-5.1c0-1.3,1.2-2.1,2.4-2.1c1.1,0,2.3,0.7,2.3,2v5c4.4-0.1,8.6-0.2,12.3-0.2
				c1.5,0,2.2,1.1,2.2,2.3c0,1.1-0.7,2.2-2,2.2c-3.7,0-8,0.1-12.4,0.3c0,2.4,0.1,4.8,0.3,7.3c0.9,1.5,1.4,3.4,1.4,5.6
				c0,6.6-3.4,11.2-9.5,14c-0.4,0.2-0.8,0.3-1.1,0.3c-1.4,0-2.4-1.1-2.4-2.4c0-0.8,0.5-1.6,1.6-2.1c3.4-1.5,5.7-3.9,6.5-5.9
				L117.3,28.7z M111.5,22.3c0,2.1,1.5,3.3,2.9,3.3c1.4,0,2.5-1,2.5-2.9c0-1.9-1.1-3.4-2.9-3.4C112.5,19.4,111.5,20.5,111.5,22.3z"
				/>
			<path class="st0" d="M167.4,24.2c-0.9-1.3-2-2.9-3.1-4.7c-4.2,0.7-8.3,1.1-11.5,1.4c-0.6,0-1.3,0.1-1.6,0.1c-1.3,0-2-1.1-2-2.1
				c0-1,0.6-2,1.9-2.1c3.7-0.2,7.5-0.6,11.2-1.2c-0.6-1.3-1.2-2.7-1.7-4c-3.1,0.5-5.5,0.8-8.1,1c-0.1,0-0.5,0-0.8,0
				c-1.2,0-2-1-2-2.1c0-1,0.6-2,1.8-2c2.3-0.1,5-0.4,7.7-0.8c-0.5-1.4-0.9-2.9-1.2-4.2c0-0.2-0.1-0.4-0.1-0.5c0-1.2,1.2-1.8,2.3-1.8
				c1,0,1.9,0.5,2.2,1.6c0.4,1.4,0.8,2.9,1.2,4.3c2.8-0.5,5.4-1.1,7.3-1.7c0.3-0.1,0.5-0.1,0.8-0.1c1.3,0,2.1,1.1,2.1,2.1
				c0,0.8-0.4,1.5-1.4,1.8c-2.1,0.6-4.6,1.3-7.4,1.8c0.5,1.3,1.1,2.7,1.7,4c3-0.6,5.8-1.3,8.1-2c0.3-0.1,0.5-0.1,0.7-0.1
				c1.3,0,2.1,1.1,2.1,2.2c0,0.8-0.5,1.6-1.6,1.9c-2.1,0.7-4.6,1.3-7.3,1.8c1.4,2.4,3.1,4.7,4.9,6.8c0.5,0.5,0.6,1.1,0.6,1.7
				c0,1.2-0.9,2.2-2.3,2.2c-0.3,0-0.7-0.1-1.1-0.2c-2.9-1.1-6.1-1.6-9.1-1.6c-5.2,0-6.6,1.5-6.6,3.3c0,2,1.8,3.4,7.9,3.4
				c1.7,0,2.4,0,3.6-0.1c0.3,0,0.6,0,0.8,0c1.5,0,2.2,1.1,2.2,2.1c0,1-0.7,2-2.1,2.1c-1.2,0.1-2.7,0.2-4.5,0.2
				c-8.9,0-12.8-2.8-12.8-7.6c0-4.3,3.6-7.3,11.4-7.3C163.9,23.7,165.9,23.9,167.4,24.2L167.4,24.2z"/>
			<path class="st0" d="M196.7,16.7v21c0,1.2-1.1,1.8-2.3,1.8c-1.2,0-2.3-0.6-2.3-1.8V6.6c0-3.1,1.1-4.6,5.5-4.6h4.5
				c4.4,0,5.5,1.4,5.5,4.5v5.8c0,1.3-0.2,2.7-1.3,3.5c-1.2,0.8-2.8,0.9-4.2,0.9H196.7z M203.2,6.6c0-0.8-0.3-1-1.3-1h-3.8
				c-1.1,0-1.3,0.3-1.3,1v1.2h6.5V6.6z M201.9,13.2c1.1,0,1.3-0.2,1.3-1.1V11h-6.5v2.3H201.9z M206.3,34.4c-3.4,0-4.8-1.3-4.8-4.3
				v-6.6c0-3,1.3-4.3,4.8-4.3h6.4c3.4,0,4.8,1.3,4.8,4.3v6.6c0,3.4-1.7,4.3-4.8,4.3H206.3z M213.3,23.6c0-0.7-0.2-0.9-1.1-0.9h-5.3
				c-0.9,0-1.1,0.2-1.1,0.9v1.5h7.6V23.6z M212.2,30.9c0.9,0,1.1-0.2,1.1-0.9v-1.5h-7.6V30c0,0.8,0.4,0.9,1.1,0.9H212.2z M217,16.7
				c-4.4,0-5.5-1.3-5.5-4.4V6.5c0-3.1,1.1-4.5,5.5-4.5h4.9c4.4,0,5.5,1.6,5.5,4.6v27c0,3.9-1.8,5.5-5.3,5.5c-1.1,0-2.1-0.1-3.1-0.3
				c-1.3-0.2-1.9-1.2-1.9-2.3c0-1.1,0.8-2.3,2.2-2.3c0.1,0,0.3,0,0.4,0c0.7,0.1,1.2,0.2,1.8,0.2c1,0,1.3-0.3,1.3-1.3V16.7H217z
				 M222.9,6.6c0-0.8-0.3-1-1.4-1h-4.2c-1.1,0-1.3,0.3-1.3,1v1.2h6.9V6.6z M222.9,11H216v1.2c0,0.8,0.3,1.1,1.3,1.1h5.5V11z"/>
			<path class="st0" d="M246.9,4c1.2,0,2.4,0.7,2.4,2.1c0,0.1,0,0.3,0,0.5c-1.4,6.9-1.9,12.6-1.9,18.6c0,3.5,0.5,7.4,0.8,9.9
				c0,0.1,0,0.3,0,0.3c0,1.4-1.2,2.2-2.4,2.2c-1.1,0-2.2-0.6-2.4-2.1c-0.3-2.7-0.7-6.8-0.7-10.4c0-6.3,0.5-11.9,2-19.4
				C244.8,4.5,245.9,4,246.9,4z M266,29.8c1.9,0,4.2-0.2,6.3-0.6c0.2,0,0.3,0,0.5,0c1.4,0,2.2,1.2,2.2,2.4c0,1-0.5,2-1.8,2.2
				c-2.5,0.5-5,0.7-7.3,0.7c-7.8,0-11-2.4-11.5-7.4v-0.2c0-1.5,1.2-2.4,2.4-2.4c1,0,2,0.6,2.1,1.8C259.4,28.9,260.7,29.8,266,29.8z
				 M270.4,7.7c1.5,0,2.3,1.1,2.3,2.2c0,1.1-0.7,2.1-2.1,2.3c-3.7,0.5-7.9,0.8-11.8,0.9c-1.6,0-2.4-1.1-2.4-2.3
				c0-1.1,0.8-2.2,2.3-2.3c3.9-0.1,7.9-0.4,11.6-0.9H270.4z"/>
			<path class="st0" d="M38.2,59.6c1.1,0.4,1.6,1.3,1.6,2.2c0,1.1-0.9,2.2-2.2,2.2c-0.4,0-0.8-0.1-1.2-0.3
				c-5.8-2.4-12.2-6.5-16.8-10.9C15,57.5,8.9,61.7,3,64.3c-0.3,0.1-0.6,0.2-0.9,0.2c-1.1,0-2.1-1-2.1-2.1c0-0.8,0.4-1.5,1.4-2
				c6.2-2.8,12.4-7.2,16.8-12c0.5-0.6,1.2-0.8,1.8-0.8c1.1,0,2.2,0.8,2.2,1.8c0,0.2,0,0.4-0.1,0.5C26.4,53.9,32.4,57.4,38.2,59.6z
				 M22.6,74.7c0.9,1.1,1.9,2.1,3,3.1c2.6-1.4,5.4-3.3,7.4-5c0.5-0.4,1.1-0.6,1.6-0.6c1.2,0,2.2,1,2.2,2.1c0,0.6-0.3,1.2-1,1.7
				c-1.8,1.4-4.4,2.9-6.8,4.2c2.3,1.3,4.8,2.4,7.7,3.2c1.3,0.3,1.8,1.2,1.8,2c0,1-0.8,2.1-2,2.1c-0.2,0-0.4,0-0.6-0.1
				c-7.2-1.8-13.9-6.3-17.9-12.5h-4.5v7.1c1.9-0.3,3.8-0.6,5.7-1.1c0.2,0,0.3,0,0.5,0c1.1,0,1.8,1,1.8,1.9c0,0.7-0.4,1.4-1.3,1.7
				c-4.6,1.2-10.3,2-15.2,2.4c-0.1,0-0.6,0-1,0c-1.3,0-1.9-1-1.9-1.9c0-0.9,0.6-1.9,1.8-2c1.5-0.1,3.2-0.3,5-0.5V64.3
				c0-2.8,1.4-4.2,5.3-4.2h3.3v-2.7c0-1.2,1.1-1.7,2.2-1.7c1.1,0,2.2,0.5,2.2,1.7v2.7h3.2c3.9,0,5.3,1.5,5.3,4.2v6.2
				c0,3.5-2.2,4.2-5.3,4.2H22.6z M26,64.6c0-0.8-0.3-1.1-1.5-1.1H15c-1.3,0-1.5,0.3-1.5,1.1v1.2H26V64.6z M24.5,71.3
				c0.9,0,1.5-0.1,1.5-1.1V69H13.4v2.3H24.5z"/>
			<path class="st0" d="M59.9,61.4c1.1-0.8,2.3-1.2,3.4-1.2c1.2,0,2.3,0.5,3.4,1.4c4.6,4.1,12.1,9.4,18.2,12.7
				c1.1,0.6,1.6,1.5,1.6,2.4c0,1.3-1.1,2.6-2.6,2.6c-0.5,0-1-0.2-1.6-0.5c-6.3-3.6-13.8-9.3-18-13.2c-0.4-0.4-0.8-0.6-1.2-0.6
				c-0.4,0-0.7,0.2-1.1,0.5c-2,1.6-5.3,4.2-8.1,6.6c-0.6,0.5-1.2,0.7-1.7,0.7c-1.3,0-2.4-1.1-2.4-2.4c0-0.7,0.3-1.4,1.1-2
				C54.1,65.8,57.3,63.3,59.9,61.4z M72.2,58.7c0-0.8,0.8-1.6,1.8-1.6c0.4,0,0.8,0.1,1.2,0.5c1.1,1,2.4,2.4,3.3,3.7
				c0.3,0.4,0.4,0.8,0.4,1.1c0,0.9-0.8,1.7-1.7,1.7c-0.5,0-1-0.3-1.4-0.8c-1-1.4-2.1-2.6-3.1-3.6C72.3,59.3,72.2,59,72.2,58.7z
				 M76.3,55.3c0-0.8,0.8-1.6,1.8-1.6c0.4,0,0.8,0.2,1.3,0.5c1.1,0.9,2.4,2.2,3.2,3.4c0.3,0.4,0.5,0.8,0.5,1.3
				c0,0.9-0.8,1.6-1.7,1.6c-0.5,0-1.1-0.2-1.5-0.8c-1-1.2-2.1-2.5-3.1-3.5C76.5,56,76.3,55.6,76.3,55.3z"/>
			<path class="st0" d="M111,57.9c1.1,0,1.6,1,1.6,2c0,1-0.5,2-1.6,2h-2.4v6c0.6-0.3,1.2-0.5,1.8-0.8c0.3-0.2,0.7-0.3,1-0.3
				c1.2,0,2,1,2,2.1c0,0.7-0.3,1.4-1.2,1.8c-1.1,0.5-2.4,1.1-3.6,1.7v13.4c0,1.2-1.1,1.8-2.2,1.8c-1.1,0-2.2-0.6-2.2-1.8V74.2
				c-1.5,0.5-2.9,0.9-4.1,1.3c-0.2,0-0.4,0.1-0.6,0.1c-1.3,0-2-1.1-2-2.3c0-0.9,0.5-1.8,1.6-2.1c1.6-0.4,3.4-1,5.1-1.6v-7.7h-2.5
				c-0.3,0.8-0.5,1.6-0.8,2.3c-0.4,1-1.2,1.5-1.9,1.5c-0.9,0-1.8-0.7-1.8-1.7c0-0.2,0-0.5,0.1-0.7c0.9-2.3,1.7-5.8,2.1-8.5
				c0.1-1,1-1.5,1.8-1.5c0.9,0,1.8,0.6,1.8,1.6v0.3c-0.1,0.8-0.3,1.8-0.4,2.6h1.6v-7.7c0-1.2,1.1-1.7,2.2-1.7c1.1,0,2.2,0.5,2.2,1.7
				v7.7H111z M123.9,61c-1.5,7.9-5,14.2-9.8,18.8c-0.5,0.5-1.1,0.7-1.6,0.7c-1.1,0-2.1-1-2.1-2.1c0-0.6,0.2-1.2,0.8-1.8
				c4.2-3.9,7.1-9,8.6-15.7h-1.5c-0.6,1.3-1.3,2.6-2,3.7c-0.6,0.9-1.4,1.3-2.1,1.3c-1.1,0-2.1-0.8-2.1-2c0-0.4,0.1-0.9,0.4-1.3
				c2.1-3.5,3.9-7.9,5-12.3c0.3-1.1,1.3-1.7,2.2-1.7c1.2,0,2.3,0.8,2.3,2c0,0.2,0,0.3-0.1,0.5c-0.5,2-1.2,3.9-1.9,5.9h10.6
				c3.7,0,5.1,1.5,5.1,4.7c0,7.4-0.6,14.3-1.7,19.7c-0.8,3.9-2.9,5.3-5.8,5.3c-0.9,0-1.9-0.1-3.1-0.3c-1.3-0.3-1.8-1.3-1.8-2.3
				c0-1.1,0.8-2.2,2.1-2.2c0.2,0,0.3,0,0.5,0c0.8,0.1,1.6,0.2,2.1,0.2c0.8,0,1.5-0.4,1.7-1.6c1.1-5,1.7-11.6,1.8-18.7
				c0-0.8-0.3-1-1.1-1h-0.5c-0.8,9.8-4.4,18.2-10.3,23.9c-0.6,0.5-1.2,0.8-1.8,0.8c-1.1,0-2.1-0.9-2.1-2c0-0.6,0.3-1.3,0.9-1.9
				c5.2-5,8.2-11.9,9.1-20.8H123.9z"/>
			<path class="st0" d="M153.8,83.5c-0.5,1-1.4,1.3-2.3,1.3c-1.2,0-2.3-0.8-2.3-2.1c0-0.4,0.1-0.8,0.4-1.3
				c2.6-4.7,4.8-10.4,6.4-16.4c-1.7,0.2-3.4,0.5-5,0.8c-0.2,0-0.4,0-0.5,0c-1.3,0-2-1.1-2-2.1c0-1,0.6-1.9,1.9-2.2
				c2.1-0.4,4.5-0.7,6.7-1c0.5-2.6,0.9-5.2,1.2-7.7c0.2-1.3,1.2-2,2.3-2c1.2,0,2.4,0.8,2.4,2.1v0.3c-0.3,2.3-0.6,4.6-1.1,6.9
				c0.8,0,1.6,0,2.3,0c5.4,0,7.4,2.4,7.4,9c0,3.9-0.4,7.5-1.1,10c-1.3,4.8-3.2,6.6-7.5,6.6c-1,0-2.1-0.1-2.9-0.2
				c-1.4-0.2-2.1-1.3-2.1-2.3c0-1.2,0.8-2.3,2.1-2.3c0.1,0,0.2,0,0.3,0c0.8,0.1,1.4,0.2,2.3,0.2c1.5,0,2.2-0.5,2.9-2.9
				c0.7-2.4,1.1-5.7,1.1-9.1c0-3.8-0.7-4.8-2.7-4.8c-0.9,0-2,0-3.1,0.1C159.2,71.4,156.8,78.2,153.8,83.5z M184.3,66.5
				c0.3,0.5,0.3,1,0.3,1.4c0,1.5-1.2,2.4-2.4,2.4c-0.8,0-1.7-0.5-2.3-1.6c-1.5-3-3.7-6.3-6-8.7c-0.5-0.5-0.7-1.1-0.7-1.5
				c0-1.2,1.2-2.1,2.4-2.1c0.7,0,1.3,0.3,1.9,0.8C180.2,59.8,182.8,63.7,184.3,66.5z M176.6,52c0-0.8,0.8-1.6,1.8-1.6
				c0.4,0,0.8,0.1,1.2,0.5c1.1,1,2.4,2.4,3.3,3.7c0.3,0.4,0.4,0.8,0.4,1.1c0,0.9-0.8,1.7-1.7,1.7c-0.5,0-1-0.3-1.4-0.8
				c-1-1.4-2.1-2.6-3.1-3.6C176.7,52.6,176.6,52.3,176.6,52z M180.7,48.6c0-0.8,0.8-1.6,1.8-1.6c0.4,0,0.8,0.2,1.3,0.5
				c1.1,0.9,2.4,2.2,3.2,3.4c0.3,0.4,0.5,0.8,0.5,1.3c0,0.9-0.8,1.6-1.7,1.6c-0.5,0-1.1-0.2-1.5-0.8c-1-1.2-2.1-2.5-3.1-3.5
				C180.9,49.3,180.7,49,180.7,48.6z"/>
			<path class="st0" d="M1.8,108.3c-1.1,0-1.7-1.1-1.7-2.1c0-1.1,0.6-2.1,1.7-2.1H15c1.1,0,1.7,1,1.7,2.1c0,1-0.6,2.1-1.7,2.1H1.8z
				 M6.9,134.4c-3.3,0-4.3-1.3-4.3-3.9v-4.7c0-2.6,1-3.9,4.3-3.9h4.5c3.3,0,4.3,1.3,4.3,3.9v4.7c0,3-1.4,3.9-4.3,3.9H6.9z
				 M4.4,102.2c-1.1,0-1.6-1-1.6-2c0-1,0.5-2,1.6-2h9.1c1.1,0,1.6,1,1.6,2c0,1-0.5,2-1.6,2H4.4z M4.4,114.2c-1.1,0-1.6-1-1.6-2
				c0-1,0.5-2,1.6-2h9.1c1.1,0,1.6,1,1.6,2c0,1-0.5,2-1.6,2H4.4z M4.4,120c-1.1,0-1.6-1-1.6-2c0-1,0.5-2,1.6-2h9.1
				c1.1,0,1.6,1,1.6,2c0,1-0.5,2-1.6,2H4.4z M10.5,130.6c0.8,0,1-0.3,1-1v-2.9c0-0.8-0.2-1-1-1H7.8c-0.8,0-1,0.3-1,1v2.9
				c0,0.8,0.3,1,1,1H10.5z M26.1,98.6c0-1.3,1.1-1.9,2.3-1.9c1.1,0,2.2,0.6,2.2,1.9v4.7h7.2c1.1,0,1.7,1,1.7,2c0,1-0.6,2-1.7,2h-7.2
				v4.5h5.9c1.1,0,1.7,1,1.7,2c0,1-0.6,2-1.7,2H20.6c-1.1,0-1.7-1-1.7-2c0-1,0.6-2,1.7-2h5.5v-4.5h-6.6c-1.1,0-1.7-1-1.7-2
				c0-1,0.6-2,1.7-2h6.6V98.6z M24.7,134.5c-3.5,0-4.9-1.4-4.9-4.4v-6.1c0-3,1.3-4.4,4.9-4.4H32c3.5,0,4.9,1.4,4.9,4.4v6.1
				c0,3.4-1.6,4.4-4.9,4.4H24.7z M31,130.5c1,0,1.3-0.3,1.3-1.2v-4.7c0-0.9-0.3-1.2-1.3-1.2h-5.5c-1,0-1.3,0.3-1.3,1.2v4.7
				c0,1,0.4,1.2,1.3,1.2H31z"/>
			<path class="st0" d="M70,102.8h2.7c2.4,0,4.7,0,6.9,0.1c1.4,0,2.1,1.1,2.1,2.3c0,1.1-0.7,2.1-2.1,2.1c-1.6,0-3.4-0.1-5.3-0.1
				c-1.3,0-2.7,0-4.2,0c0,1.5,0,2.9,0.1,4.4c2.8-0.2,5.5-0.4,7.9-0.7h0.3c1.5,0,2.2,1.1,2.2,2.1c0,1-0.7,2.1-2.1,2.2
				c-2.6,0.3-5.3,0.5-8.1,0.7c0.1,1.8,0.3,3.7,0.4,5.5c3.6,0.9,7.1,2.5,10.5,4.6c1,0.6,1.4,1.5,1.4,2.3c0,1.3-1.1,2.5-2.5,2.5
				c-0.5,0-0.9-0.1-1.4-0.5c-2.6-1.7-5.2-3.1-7.8-4v0.3c0,4.5-3.9,6.7-8.8,6.7c-5.3,0-8.6-2.6-8.6-6.5c0-3.7,3-6.5,9-6.5
				c1.1,0,2.2,0.1,3.4,0.2c-0.1-1.5-0.3-3-0.3-4.5h-2.4c-2.5,0-5.1-0.1-6.6-0.3c-1.4-0.2-2-1.2-2-2.2c0-1.1,0.8-2.2,2.1-2.2h0.3
				c1.6,0.2,3.7,0.3,6,0.3h2.3c-0.1-1.5-0.1-3-0.2-4.5c-3.6,0.1-7.1,0.2-10,0.3c-1.4,0-2.2-1.1-2.2-2.2c0-1.1,0.7-2.1,2.1-2.2
				c2.9-0.1,6.4-0.3,10-0.3v-4.2c0-1.3,1.2-1.9,2.4-1.9c1.1,0,2.3,0.6,2.3,1.9V102.8z M66.5,126.1v-0.9c-1.3-0.3-2.5-0.4-3.8-0.4
				c-3.3,0-4.2,1-4.2,2.3c0,1.1,1.1,2.1,3.8,2.1C65.1,129.2,66.5,127.9,66.5,126.1z"/>
			<path class="st0" d="M104.2,116c0.4-1,0.7-1.8,1.1-2.9c0.3-0.9,1.1-1.3,1.8-1.3c1,0,1.9,0.7,1.9,1.7c0,0.2,0,0.3-0.1,0.5
				c-0.7,2.4-1.8,5-2.9,6.9c-0.7,1.1-1.8,1.7-2.9,1.7c-1.2,0-2.3-0.7-2.7-2c-0.5-1.8-1-4.8-1-7.2c0-3.4,0.5-8,1.6-12.3
				c0.3-1.2,1.4-1.7,2.4-1.7c1.2,0,2.3,0.7,2.3,1.9c0,0.2,0,0.3-0.1,0.5c-0.9,3.9-1.6,8.7-1.6,11.2C104,114.2,104.1,115.1,104.2,116
				L104.2,116z M115.1,100.5c0-1.4,1.3-2.1,2.5-2.1c1.1,0,2.3,0.6,2.5,2c0.6,4.4,0.9,9,0.9,13.5c0,9.1-3.3,15.5-9.2,20
				c-0.6,0.5-1.2,0.7-1.8,0.7c-1.3,0-2.4-1.1-2.4-2.4c0-0.7,0.3-1.5,1.1-2.1c4.8-3.9,7.1-9.1,7.1-16.2c0-4.3-0.3-8.7-0.8-13.1V100.5
				z"/>
			<path class="st0" d="M146.6,114.7c-1.9,0.8-3.9,1.6-6.2,2.7c-0.4,0.2-0.7,0.3-1.1,0.3c-1.3,0-2.1-1.1-2.1-2.3
				c0-0.8,0.4-1.6,1.4-2.1c2.4-1.1,4.5-2,6.6-2.8l-2.4-7c-0.1-0.3-0.1-0.5-0.1-0.7c0-1.3,1.3-2,2.5-2c0.9,0,1.8,0.4,2.1,1.3l2.3,6.7
				c6-2.1,10.2-2.7,14-2.7c6.6,0,10.4,3,10.4,7.6c0,5.3-3.7,8.3-9,8.3c-1.7,0-2.9-0.1-4.2-0.4c-1.5-0.4-2.1-1.4-2.1-2.4
				c0-1.2,0.9-2.3,2.4-2.3c0.3,0,0.5,0,0.8,0.1c0.8,0.2,1.9,0.4,2.9,0.4c2.7,0,4.3-1.4,4.3-3.7c0-1.9-1.6-3.3-5.5-3.3
				c-3.3,0-7.1,0.7-12.5,2.6l6.3,18.5c0.1,0.3,0.1,0.5,0.1,0.8c0,1.3-1.2,2.2-2.4,2.2c-0.8,0-1.7-0.5-2.1-1.5L146.6,114.7z
				 M162.4,102.8c0,1.3-1.1,2.4-2.4,2.4c-0.5,0-1.1-0.2-1.7-0.7c-1.3-1.1-2.6-2-4.1-2.9c-0.8-0.5-1.1-1.2-1.1-1.8
				c0-1.2,1-2.3,2.4-2.3c0.5,0,1,0.1,1.5,0.4c1.6,0.8,2.8,1.6,4.5,3.1C162.1,101.6,162.4,102.2,162.4,102.8z"/>
			<path class="st0" d="M205.2,124.7c-0.8,0.7-1.8,1.1-3.1,1.1c-4.1,0-7.1-2.8-7.1-7.6c0-4.1,2.6-7,6.5-7c0.9,0,1.7,0.1,2.5,0.3
				l-0.1-3.4c-3.1,0.2-10.2,0.5-14.5,0.8c-0.5,0-1.4,0.1-1.9,0.1c-1.4,0-2.2-1.2-2.2-2.4c0-1.1,0.7-2.2,2.1-2.3
				c5-0.3,10.7-0.6,16.5-0.8c0-1.5,0-3.2,0-5.1c0-1.3,1.2-2.1,2.4-2.1c1.1,0,2.3,0.7,2.3,2v5c4.4-0.1,8.6-0.2,12.3-0.2
				c1.5,0,2.2,1.1,2.2,2.3c0,1.1-0.7,2.2-2,2.2c-3.7,0-8,0.1-12.4,0.3c0,2.4,0.1,4.8,0.3,7.3c0.9,1.5,1.4,3.4,1.4,5.6
				c0,6.6-3.4,11.2-9.5,14c-0.4,0.2-0.8,0.3-1.1,0.3c-1.4,0-2.4-1.1-2.4-2.4c0-0.8,0.5-1.6,1.6-2.1c3.4-1.5,5.7-3.9,6.5-5.9
				L205.2,124.7z M199.4,118.3c0,2.1,1.5,3.3,2.9,3.3c1.4,0,2.5-1,2.5-2.9c0-1.9-1.1-3.4-2.9-3.4
				C200.4,115.4,199.4,116.5,199.4,118.3z"/>
			<path class="st0" d="M238.7,101.8c1.3,0,2.5,0.8,2.5,2.2c0,0.6-0.2,2.6-0.2,3.9c0,14.7,3,18.6,4.7,18.6c1,0,1.9-0.7,2.7-3.8
				c0.3-1.3,1.2-1.8,2.1-1.8c1.2,0,2.4,0.9,2.4,2.3c0,0.3,0,0.5-0.1,0.7c-1.6,5.6-4.2,7.7-7.1,7.7c-6.1,0-9.8-7.5-9.8-23.5
				c0-1.9,0.1-3.2,0.2-4.3C236.3,102.4,237.5,101.8,238.7,101.8z M270.3,119.6c0.1,0.3,0.2,0.6,0.2,0.9c0,1.4-1.2,2.2-2.4,2.2
				c-0.9,0-1.8-0.5-2.2-1.6c-1.5-3.9-4.2-8.3-7.3-11.4c-0.5-0.5-0.7-1.1-0.7-1.6c0-1.2,1.1-2.1,2.4-2.1c0.6,0,1.3,0.3,1.8,0.8
				C265.7,110,268.9,115.3,270.3,119.6z"/>
		</g>
	</g>
</g>
</svg>
