<!-- Generator: Adobe Illustrator 22.1.0, SVG Export Plug-In  -->
<svg version="1.1"
	 xmlns="http://www.w3.org/2000/svg" xmlns:xlink="http://www.w3.org/1999/xlink" xmlns:a="http://ns.adobe.com/AdobeSVGViewerExtensions/3.0/"
	 x="0px" y="0px" width="368.9px" height="135.9px" viewBox="0 0 368.9 135.9" style="enable-background:new 0 0 368.9 135.9;"
	 xml:space="preserve">
<style type="text/css">
	.st0{fill:#5CBDE7;}
</style>
<defs>
</defs>
<g>
	<path class="st0" d="M36.3,17.1c1.3,0,2,1.1,2,2.3c0,1.1-0.6,2.3-2,2.3H2.5c-1.3,0-2-1.2-2-2.3c0-1.2,0.7-2.3,2-2.3H36.3z"/>
	<path class="st0" d="M83.1,4.1c1.1,0,1.6,1,1.6,1.9c0,1-0.5,1.9-1.6,1.9H57.9c-1.5,2.1-3.2,4.2-4.8,5.7c-0.6,0.5-1.2,0.8-1.8,0.8
		c-1.2,0-2.2-0.9-2.2-2.1c0-0.5,0.3-1.1,0.8-1.6c2.6-2.4,5.3-6.1,7-9.5C57.4,0.4,58.2,0,59.1,0c1.1,0,2.2,0.7,2.2,1.8
		c0,0.3,0,0.6-0.3,1c-0.2,0.4-0.5,0.9-0.7,1.3H83.1z M72.4,31.8c0.8,0.5,1.1,1.3,1.1,2c0,1.2-1,2.3-2.2,2.3c-0.5,0-1-0.2-1.5-0.5
		c-1.8-1.4-3.7-2.7-5.7-4c-3.2,2.7-6.8,5.1-10.5,6.9c-0.4,0.2-0.8,0.3-1.2,0.3c-1.2,0-2.1-1-2.1-2.1c0-0.8,0.5-1.6,1.5-2.1
		c3-1.4,5.9-3.3,8.4-5.4c-1.6-0.9-3.2-1.8-4.6-2.5c-0.9-0.4-1.3-1.1-1.3-1.8c0-1,0.9-2.1,2.2-2.1c0.4,0,0.8,0.1,1.2,0.3
		c1.8,0.8,3.9,1.8,5.9,3c1.3-1.4,2.5-2.8,3.5-4.2c0.5-0.7,1.2-1,1.9-1c1.2,0,2.3,0.9,2.3,2.1c0,0.4-0.1,0.8-0.4,1.3
		c-1,1.5-2.1,2.9-3.4,4.2C69.1,29.4,70.8,30.6,72.4,31.8z M75.7,15.4c3.9,0,5.2,1.3,5.3,4.5c0.1,4.5,0.8,9.2,1.7,11.8
		c0.7,2.1,1,2.4,1.3,2.4c0.3,0,0.6-0.5,0.8-2.4c0.1-1.1,0.9-1.6,1.8-1.6c1,0,2,0.6,2,1.8c0,1-0.4,3.2-1,4.5
		c-0.7,1.5-1.8,2.5-3.5,2.5c-2.5,0-4.3-1.4-5.7-5.6c-1-3.2-1.9-8.1-1.9-12.5c0-1.1-0.3-1.4-1.8-1.4H52.9c-1,0-1.6-1-1.6-2
		c0-1,0.5-2,1.6-2H75.7z M59.3,13.5c-1,0-1.6-0.9-1.6-1.8c0-0.9,0.5-1.8,1.6-1.8h18.7c1.1,0,1.6,0.9,1.6,1.8c0,0.9-0.5,1.8-1.6,1.8
		H59.3z"/>
	<path class="st0" d="M105.6,3.9c1.2,0,2.4,0.7,2.4,2.1c0,0.1,0,0.3,0,0.5c-1.4,6.9-1.9,12.6-1.9,18.6c0,3.5,0.5,7.4,0.8,9.9
		c0,0.1,0,0.3,0,0.3c0,1.4-1.2,2.2-2.4,2.2c-1.1,0-2.2-0.6-2.4-2.1c-0.3-2.7-0.7-6.8-0.7-10.4c0-6.3,0.5-11.9,2-19.4
		C103.5,4.5,104.5,3.9,105.6,3.9z M124.6,29.8c1.9,0,4.2-0.2,6.3-0.6c0.2,0,0.3,0,0.5,0c1.4,0,2.2,1.2,2.2,2.4c0,1-0.5,2-1.8,2.2
		c-2.5,0.5-5,0.7-7.3,0.7c-7.8,0-11-2.4-11.5-7.4v-0.2c0-1.5,1.2-2.4,2.4-2.4c1,0,2,0.6,2.1,1.8C118.1,28.8,119.4,29.8,124.6,29.8z
		 M129,7.6c1.5,0,2.3,1.1,2.3,2.2c0,1.1-0.7,2.1-2.1,2.3c-3.7,0.5-7.9,0.8-11.8,0.9c-1.6,0-2.4-1.1-2.4-2.3c0-1.1,0.8-2.2,2.3-2.3
		c3.9-0.1,7.9-0.4,11.6-0.9H129z"/>
	<path class="st0" d="M17.9,49.8c0-1.2,1.1-1.8,2.3-1.8c1.1,0,2.2,0.6,2.2,1.8v1.6h9c1.2,0,1.8,0.9,1.8,1.9c0,0.9-0.6,1.9-1.8,1.9
		h-9v2.2h14.7c1.2,0,1.8,1,1.8,1.9c0,1-0.6,1.9-1.8,1.9H1.7c-1.1,0-1.7-1-1.7-1.9c0-1,0.6-1.9,1.7-1.9h6.4v-5.7
		c0-1.2,1.1-1.8,2.3-1.8c1.1,0,2.2,0.6,2.2,1.8v5.7h5.3V49.8z M31,64.4c0-1.2,1.1-1.8,2.3-1.8s2.3,0.6,2.3,1.8v17.2
		c0,3.5-1.5,5.3-6,5.3H9.2c-4.5,0-6-1.8-6-5.3V64.4c0-1.2,1.1-1.8,2.3-1.8s2.3,0.6,2.3,1.8v16.6c0,1.6,0.5,2,2.2,2h18.9
		c1.7,0,2.2-0.5,2.2-2V64.4z M21.3,78.7v2c0,1.1-1,1.6-2,1.6c-1,0-2-0.5-2-1.6v-2l0.1-2.8c-1.6,1.7-3.7,3.4-5.9,4.7
		c-0.4,0.3-0.8,0.4-1.2,0.4c-1,0-1.8-0.9-1.8-1.8c0-0.5,0.3-1.1,1-1.5c2.1-1.2,4.1-2.8,5.9-4.7h-4.7c-1,0-1.5-0.8-1.5-1.7
		c0-0.8,0.5-1.6,1.5-1.6h6.6v-6c0-1.1,1-1.6,2-1.6c1,0,2,0.5,2,1.6v6H28c1.1,0,1.6,0.8,1.6,1.6c0,0.8-0.5,1.7-1.6,1.7h-5.1
		c1.8,1.4,3.7,2.7,6,3.8c0.8,0.4,1.2,1.1,1.2,1.8c0,1-0.8,2-1.9,2c-0.3,0-0.7-0.1-1.1-0.3c-2.4-1.3-4.2-2.8-5.9-4.5L21.3,78.7z
		 M10.3,65c0-1,1-1.7,2-1.7c0.5,0,1.1,0.2,1.6,0.7c0.5,0.5,1.1,1.3,1.6,2.1c0.2,0.3,0.3,0.7,0.3,1c0,1.1-1,1.9-2.1,1.9
		c-0.5,0-1.1-0.3-1.5-0.9c-0.4-0.7-0.9-1.3-1.6-2.2C10.4,65.6,10.3,65.3,10.3,65z M26.4,63.1c1,0,1.9,0.7,1.9,1.7
		c0,0.3,0,0.5-0.2,0.8c-0.6,1.1-1.2,1.9-1.8,2.7c-0.4,0.5-0.9,0.7-1.4,0.7c-1,0-1.9-0.8-1.9-1.7c0-0.3,0.1-0.7,0.4-1
		c0.5-0.7,1-1.4,1.6-2.4C25.3,63.4,25.8,63.1,26.4,63.1z"/>
	<path class="st0" d="M49.6,71c0-9.6,7.9-17.4,19.5-17.4c10.2,0,16.2,6.4,16.2,14.8c0,7.6-4.5,13.2-11.7,15.5
		c-0.3,0.1-0.7,0.2-1,0.2c-1.4,0-2.4-1.2-2.4-2.4c0-0.9,0.5-1.8,1.8-2.3c6-2.1,8.4-5.8,8.4-11c0-5.5-3.7-10-10.1-10.5
		c-0.4,7-2.1,13.3-4.7,17.9c-2.3,4.1-4.8,5.3-8,5.3C53.2,81,49.6,77.6,49.6,71z M54.4,71c0,3.9,1.5,5.3,3,5.3c1.3,0,2.4-0.7,3.7-2.8
		c2.1-3.7,3.7-9.2,4.2-15.3C59,59.4,54.4,64.8,54.4,71z"/>
	<path class="st0" d="M116.7,76.7c-0.8,0.7-1.8,1.1-3.1,1.1c-4.1,0-7.1-2.8-7.1-7.6c0-4.1,2.6-7,6.5-7c0.9,0,1.7,0.1,2.5,0.3
		l-0.1-3.4c-3.1,0.2-10.2,0.5-14.5,0.8c-0.5,0-1.4,0.1-1.9,0.1c-1.4,0-2.2-1.2-2.2-2.4c0-1.1,0.7-2.2,2.1-2.3
		c5-0.3,10.7-0.6,16.5-0.8c0-1.5,0-3.2,0-5.1c0-1.3,1.2-2.1,2.4-2.1c1.1,0,2.3,0.7,2.3,2v5c4.4-0.1,8.6-0.2,12.3-0.2
		c1.5,0,2.2,1.1,2.2,2.3c0,1.1-0.7,2.2-2,2.2c-3.7,0-8,0.1-12.4,0.3c0,2.4,0.1,4.8,0.3,7.3c0.9,1.5,1.4,3.4,1.4,5.6
		c0,6.6-3.4,11.2-9.5,14c-0.4,0.2-0.8,0.3-1.1,0.3c-1.4,0-2.4-1.1-2.4-2.4c0-0.8,0.5-1.6,1.6-2.1c3.4-1.5,5.7-3.9,6.5-5.9
		L116.7,76.7z M110.9,70.3c0,2.1,1.5,3.3,2.9,3.3c1.4,0,2.5-1,2.5-2.9c0-1.9-1.1-3.4-2.9-3.4C111.9,67.3,110.9,68.5,110.9,70.3z"/>
	<path class="st0" d="M158.2,51.4c0.4-0.1,0.8-0.1,1.3-0.1c2.6,0,4.1,1.5,4.1,3.7c0,0.3,0,0.7-0.1,1.1c-0.5,3.1-1.3,6.2-2.2,9.1
		c2.8,0.4,5.5,1.1,8.2,2c0.4-2,0.7-4.1,0.8-6.4c0-1.3,1.2-2,2.4-2c1.2,0,2.4,0.8,2.4,2.2c0,2.4-0.5,5.3-1.1,8c2.1,1,4.2,2.1,6.2,3.4
		c0.8,0.5,1.2,1.3,1.2,2.1c0,1.3-1,2.5-2.4,2.5c-0.5,0-1-0.1-1.5-0.5c-1.7-1.1-3.3-2.1-5-2.9c-1.6,4.3-3.9,7.9-6.7,10.7
		c-0.7,0.7-1.4,1-2.1,1c-1.3,0-2.4-1.1-2.4-2.4c0-0.5,0.2-1.1,0.7-1.6c2.6-2.6,4.7-5.8,6.1-9.7c-2.7-1.1-5.4-1.9-8.3-2.4
		c-0.8,2.2-1.7,4.3-2.6,6c-2.1,4.2-4.3,5.6-7.4,5.6c-3.5,0-6-2.3-6-6.6c0-5.3,4.7-9.6,11.8-9.6h1c0.8-2.7,1.6-5.5,2-8.1
		c0-0.1,0-0.3,0-0.3c0-0.4-0.3-0.4-0.8-0.3l-5.9,1c-0.2,0-0.3,0-0.5,0c-1.3,0-2.1-1.1-2.1-2.3c0-1,0.6-2,2-2.2L158.2,51.4z
		 M153,73.9c0.8-1.4,1.5-3.1,2.1-4.9c-4.4,0-6.7,2.5-6.7,5.2c0,1.5,0.7,2.2,1.5,2.2C151.2,76.4,151.9,76,153,73.9z"/>
	<path class="st0" d="M209.6,77.5c-0.8,0.7-1.8,1-3.1,1c-4.1,0-7.1-2.8-7.1-7.6c0-4.1,2.6-7,6.5-7c0.9,0,1.7,0.1,2.5,0.3l-0.1-3.4
		c-5.8,0.3-10.2,0.5-15,0.8c-0.4,0-1.2,0.1-1.7,0.1c-1.4,0-2.2-1.2-2.2-2.4c0-1.1,0.7-2.2,2.1-2.3c5-0.3,10.8-0.6,16.7-0.8
		c0-1.5,0-3.2,0-5.1c0-1.3,1.2-2.1,2.4-2.1c1.1,0,2.3,0.7,2.3,2v5c4.3-0.1,8.4-0.2,12.1-0.2c1.5,0,2.2,1.1,2.2,2.3
		c0,1.1-0.7,2.2-2,2.2c-3.7,0-7.9,0.1-12.2,0.3c0,2.4,0.1,4.8,0.3,7.3c0.9,1.5,1.4,3.4,1.4,5.6c0,6.6-3.2,11-9.2,13.8
		c-0.4,0.2-0.8,0.3-1.2,0.3c-1.3,0-2.4-1.2-2.4-2.4c0-0.8,0.5-1.7,1.6-2.2c3.3-1.5,5.4-3.7,6.2-5.7L209.6,77.5z M203.8,71.1
		c0,2.1,1.5,3.3,2.9,3.3c1.4,0,2.5-1,2.5-2.9c0-1.9-1.1-3.4-2.9-3.4C204.8,68.2,203.8,69.3,203.8,71.1z M217.8,49.5
		c0-0.8,0.8-1.4,1.7-1.4c0.6,0,1.3,0.3,1.6,0.9c0.8,1.3,1.4,2.7,1.9,4.1c0.1,0.2,0.1,0.4,0.1,0.6c0,1-0.9,1.7-1.8,1.7
		c-0.7,0-1.3-0.4-1.6-1.3c-0.5-1.3-1-2.5-1.7-3.9C217.8,49.9,217.8,49.7,217.8,49.5z M223.3,48.4c0-0.8,0.8-1.4,1.6-1.4
		c0.6,0,1.2,0.3,1.6,0.9c0.8,1.2,1.5,2.6,2,3.9c0.1,0.3,0.2,0.6,0.2,0.8c0,1-0.8,1.6-1.7,1.6c-0.7,0-1.3-0.4-1.7-1.2
		c-0.5-1.4-1.2-2.7-1.8-3.9C223.4,48.9,223.3,48.6,223.3,48.4z"/>
	<path class="st0" d="M252.2,51.4c0.4-0.1,0.8-0.1,1.3-0.1c2.6,0,4.1,1.5,4.1,3.7c0,0.3,0,0.7-0.1,1.1c-0.5,3.1-1.3,6.2-2.2,9.1
		c2.8,0.4,5.5,1.1,8.2,2c0.4-2,0.7-4.1,0.8-6.4c0-1.3,1.2-2,2.4-2c1.2,0,2.4,0.8,2.4,2.2c0,2.4-0.5,5.3-1.1,8c2.1,1,4.2,2.1,6.2,3.4
		c0.8,0.5,1.2,1.3,1.2,2.1c0,1.3-1,2.5-2.4,2.5c-0.5,0-1-0.1-1.5-0.5c-1.7-1.1-3.3-2.1-5-2.9c-1.6,4.3-3.9,7.9-6.7,10.7
		c-0.7,0.7-1.4,1-2.1,1c-1.3,0-2.4-1.1-2.4-2.4c0-0.5,0.2-1.1,0.7-1.6c2.6-2.6,4.7-5.8,6.1-9.7c-2.7-1.1-5.4-1.9-8.3-2.4
		c-0.8,2.2-1.7,4.3-2.6,6c-2.1,4.2-4.3,5.6-7.4,5.6c-3.5,0-6-2.3-6-6.6c0-5.3,4.7-9.6,11.8-9.6h1c0.8-2.7,1.6-5.5,2-8.1
		c0-0.1,0-0.3,0-0.3c0-0.4-0.3-0.4-0.8-0.3l-5.9,1c-0.2,0-0.3,0-0.5,0c-1.3,0-2.1-1.1-2.1-2.3c0-1,0.6-2,2-2.2L252.2,51.4z
		 M246.9,73.9c0.8-1.4,1.5-3.1,2.1-4.9c-4.4,0-6.7,2.5-6.7,5.2c0,1.5,0.7,2.2,1.5,2.2C245.1,76.4,245.8,76,246.9,73.9z"/>
	<path class="st0" d="M305,54.8h2.7c2.4,0,4.7,0,6.9,0.1c1.4,0,2.1,1.1,2.1,2.3c0,1.1-0.7,2.1-2.1,2.1c-1.6,0-3.4-0.1-5.3-0.1
		c-1.3,0-2.7,0-4.2,0c0,1.5,0,2.9,0.1,4.4c2.8-0.2,5.5-0.4,7.9-0.7h0.3c1.5,0,2.2,1.1,2.2,2.1c0,1-0.7,2.1-2.1,2.2
		c-2.6,0.3-5.3,0.5-8.1,0.7c0.1,1.8,0.3,3.7,0.4,5.5c3.6,0.9,7.1,2.5,10.5,4.6c1,0.6,1.4,1.5,1.4,2.3c0,1.3-1.1,2.5-2.5,2.5
		c-0.5,0-0.9-0.1-1.4-0.5c-2.6-1.7-5.2-3.1-7.8-4v0.3c0,4.5-3.9,6.7-8.8,6.7c-5.3,0-8.6-2.6-8.6-6.5c0-3.7,3-6.5,9-6.5
		c1.1,0,2.2,0.1,3.4,0.2c-0.1-1.5-0.3-3-0.3-4.5h-2.4c-2.5,0-5.1-0.1-6.6-0.3c-1.4-0.2-2-1.2-2-2.2c0-1.1,0.8-2.2,2.1-2.2h0.3
		c1.6,0.2,3.7,0.3,6,0.3h2.3c-0.1-1.5-0.1-3-0.2-4.5c-3.6,0.1-7.1,0.2-10,0.3c-1.4,0-2.2-1.1-2.2-2.2c0-1.1,0.7-2.1,2.1-2.2
		c2.9-0.1,6.4-0.3,10-0.3v-4.2c0-1.3,1.2-1.9,2.4-1.9c1.1,0,2.3,0.6,2.3,1.9V54.8z M301.5,78.1v-0.9c-1.3-0.3-2.5-0.4-3.8-0.4
		c-3.3,0-4.2,1-4.2,2.3c0,1.1,1.1,2.1,3.8,2.1C300.1,81.1,301.5,79.8,301.5,78.1z"/>
	<path class="st0" d="M351.9,58.6c-5,0.7-11.7,1.7-17.8,2.6c-0.2,0-0.3,0-0.4,0c-1.5,0-2.4-1.2-2.4-2.4c0-1.1,0.7-2.1,2.2-2.3
		c8.7-1.1,19.6-2.3,28.3-3.1h0.3c1.5,0,2.3,1.1,2.3,2.2c0,1-0.6,2-1.9,2.3c-1.5,0.3-3.1,0.8-4.6,1.7c-6.6,3.7-7.9,8.1-7.9,12.1
		c0,4.7,3.2,7.5,9.1,8.2c1.6,0.2,2.3,1.3,2.3,2.5c0,1.3-0.8,2.5-2.5,2.5c-0.3,0-1.2,0-1.9-0.2c-7.6-1.4-11.9-6.6-11.9-12.9
		C345,67.4,347.1,62.5,351.9,58.6L351.9,58.6z M358,65.4c0-0.8,0.8-1.6,1.8-1.6c0.4,0,0.8,0.1,1.2,0.5c1.1,1,2.4,2.4,3.3,3.7
		c0.3,0.4,0.4,0.8,0.4,1.1c0,0.9-0.8,1.7-1.7,1.7c-0.5,0-1-0.3-1.4-0.8c-1-1.4-2.1-2.6-3.1-3.6C358.2,66,358,65.7,358,65.4z
		 M362.2,62c0-0.8,0.8-1.6,1.8-1.6c0.4,0,0.8,0.2,1.3,0.5c1.1,0.9,2.4,2.2,3.2,3.4c0.3,0.4,0.5,0.8,0.5,1.3c0,0.9-0.8,1.6-1.7,1.6
		c-0.5,0-1.1-0.2-1.5-0.8c-1-1.2-2.1-2.5-3.1-3.5C362.3,62.7,362.2,62.4,362.2,62z"/>
	<path class="st0" d="M8.4,98.3c0-1.3,1.1-1.8,2.2-1.8c1.1,0,2.2,0.6,2.2,1.8v4.2h5.8c1.2,0,1.7,1,1.7,2c0,1.1-0.5,2.1-1.7,2.1H2.2
		c-1.1,0-1.7-1-1.7-2.1c0-1,0.6-2,1.7-2h6.3V98.3z M12.2,116.2c0.4-1,1.2-1.4,2-1.4c1.1,0,2.2,0.8,2.2,2.1c0,0.3,0,0.5-0.1,0.8
		c-0.6,1.9-1.6,3.7-2.6,5.5c1,1.1,2,2.4,2.9,3.5c0.4,0.5,0.6,1.1,0.6,1.6c0,1.3-1.1,2.3-2.3,2.3c-0.6,0-1.3-0.3-1.8-1
		c-0.6-0.9-1.3-1.7-2-2.6c-2.1,2.7-4.5,5.1-7,6.8c-0.5,0.3-1,0.5-1.4,0.5c-1.2,0-2.1-1-2.1-2.1c0-0.6,0.3-1.3,1.2-1.9
		c2.4-1.7,4.6-4,6.5-6.6c-1.1-1.2-2.2-2.3-3.3-3.3c-0.5-0.5-0.8-1.1-0.8-1.6c0-1.1,1-2.1,2.1-2.1c0.5,0,1.1,0.2,1.7,0.7
		c0.8,0.7,1.7,1.6,2.6,2.4C11.2,118.7,11.8,117.4,12.2,116.2z M6.5,107.7c1.1,0,2.2,0.8,2.2,2c0,0.3-0.1,0.7-0.3,1.1
		c-1,1.8-2.3,3.7-3.8,5.3c-0.5,0.5-1.1,0.8-1.7,0.8c-1.1,0-2.2-0.9-2.2-2.1c0-0.5,0.2-1,0.7-1.5c1.1-1.2,2.4-2.9,3.4-4.5
		C5.2,108,5.8,107.7,6.5,107.7z M19.4,111.7c0.3,0.4,0.4,0.8,0.4,1.2c0,1.2-1.1,2.2-2.1,2.2c-0.6,0-1.2-0.3-1.6-1
		c-0.9-1.2-2-2.6-3-3.6c-0.4-0.4-0.5-0.8-0.5-1.2c0-1,1-1.9,2.1-1.9c0.5,0,1.1,0.2,1.5,0.6C17.2,108.9,18.5,110.4,19.4,111.7z
		 M29.5,110.7c-0.1,3.9-0.6,7.7-1.7,11.4c-1,3.3-2.4,6.4-4.5,9.2c-0.8,1.1-1.7,2.1-2.6,3c-0.5,0.5-1.2,0.8-1.8,0.8
		c-1.2,0-2.3-0.9-2.3-2.1c0-0.5,0.3-1.2,0.8-1.8c4.8-4.8,7.1-11.2,7.4-20.5l-2.9,0c-1.2,0-1.9-1-1.9-2c0-1,0.6-2,1.8-2l3,0v-8.3
		c0-1.3,1.1-1.8,2.3-1.8c1.1,0,2.2,0.6,2.2,1.8v8.2l3.2-0.1h0.3c3.4,0,4.5,1.5,4.5,4.5c0,7.2-0.4,13.5-1.1,18.2
		c-0.6,4-2.4,5.4-5.2,5.4c-1,0-2-0.1-2.9-0.3c-1.3-0.3-1.9-1.3-1.9-2.3c0-1.1,0.8-2.3,2.1-2.3c0.2,0,0.3,0,0.5,0
		c0.5,0.1,1.1,0.2,1.6,0.2c0.8,0,1.2-0.3,1.4-1.6c0.7-4.2,1.1-10.4,1.1-16.8c0-0.8-0.3-1.1-1.3-1.1L29.5,110.7z"/>
	<path class="st0" d="M69.7,103.8c0.3,0.3,0.5,0.6,0.5,1c0,0.3-0.1,0.5-0.3,0.8c-0.9,1.5-1.8,2.7-2.8,3.9c0.5,0.5,1.1,1,1.6,1.6
		c0.9-1.2,1.8-2.4,2.5-3.5c0.5-0.7,1.1-1,1.7-1c1,0,2.1,0.8,2.1,1.8c0,0.3-0.1,0.7-0.4,1.1c-1.8,2.5-3.9,5.2-6.2,7.6
		c1.4-0.1,2.9-0.2,4.3-0.4c-0.2-0.3-0.4-0.6-0.6-0.9s-0.3-0.6-0.3-0.9c0-0.8,0.8-1.5,1.7-1.5c0.6,0,1.3,0.3,1.8,1
		c0.9,1.2,2.2,3.1,2.9,4.3c0.2,0.4,0.3,0.8,0.3,1.1c0,1-0.9,1.7-1.9,1.7c-0.7,0-1.3-0.3-1.7-1.1c-0.1-0.2-0.2-0.4-0.3-0.6
		c-1.2,0.2-2.4,0.3-3.7,0.5v3.2h15.5c1.2,0,1.7,0.9,1.7,1.9c0,0.9-0.5,1.9-1.7,1.9H70.9v6.9c0,1.2-1.1,1.8-2.3,1.8
		c-1.2,0-2.3-0.6-2.3-1.8v-6.9H51.1c-1.1,0-1.7-1-1.7-1.9c0-1,0.5-1.9,1.7-1.9h15.2v-2.7c-1.7,0.1-3.3,0.2-4.8,0.3
		c-1.3,0-2-0.9-2-1.8c0-0.9,0.6-1.8,1.8-1.8c0.6,0,1.3,0,2,0c1-1.1,2.1-2.1,3-3.2c-1.5-1.5-2.9-2.8-4.2-3.7c-0.6-0.5-0.9-1-0.9-1.6
		c0-1,0.8-1.8,1.9-1.8c0.4,0,0.8,0.1,1.3,0.4c0.8-0.9,1.4-1.9,2.1-3.1c0.1-0.2,0.2-0.3,0.3-0.4H52c-1.1,0-1.6-0.9-1.6-1.8
		c0-0.9,0.5-1.8,1.6-1.8h14.3v-2.4c0-1.2,1.1-1.8,2.3-1.8c1.1,0,2.3,0.6,2.3,1.8v2.4h14.7c1.1,0,1.6,0.9,1.6,1.8
		c0,0.9-0.5,1.8-1.6,1.8H69.7z M52.1,121.1c-1.1,0-1.9-1-1.9-2c0-0.7,0.4-1.4,1.3-1.8c2.3-1,5-2.4,7-3.8c0.4-0.3,0.8-0.4,1.2-0.4
		c1.1,0,2,0.9,2,1.9c0,0.5-0.3,1-0.8,1.4c-2.1,1.6-5.3,3.3-7.7,4.4C52.6,121,52.4,121.1,52.1,121.1z M52.5,106.9c0-1,1-1.9,2.1-1.9
		c0.4,0,0.9,0.1,1.3,0.5c1.1,0.8,2.4,2.1,3,2.8c0.5,0.5,0.7,1,0.7,1.5c0,1.1-1,2-2.1,2c-0.5,0-1.1-0.3-1.6-0.8c-0.7-0.7-2-2-2.8-2.7
		C52.7,107.8,52.5,107.3,52.5,106.9z M78.5,112.5c-1.1,0-2-0.9-2-1.9c0-0.5,0.3-1.1,0.8-1.5c1.4-1,3.1-2.5,4.1-3.6
		c0.4-0.5,1-0.7,1.5-0.7c1.1,0,2.1,0.9,2.1,1.9c0,0.4-0.1,0.8-0.5,1.2c-1.3,1.5-3.1,3-4.8,4.2C79.3,112.3,78.9,112.5,78.5,112.5z
		 M78.1,115.3c0-1,0.9-2,2.1-2c0.4,0,0.8,0.1,1.2,0.3c1.5,0.9,3.5,2.4,5,3.7c0.6,0.5,0.8,1.1,0.8,1.6c0,1.1-1,2-2.1,2
		c-0.5,0-1.1-0.2-1.6-0.6c-1.1-1-3.1-2.5-4.7-3.7C78.3,116.3,78.1,115.8,78.1,115.3z"/>
	<path class="st0" d="M118.8,102.3c0,1.5,0,2.9,0,4.3c2.9-0.2,5.8-0.6,8.3-1.1c0.2,0,0.3,0,0.5,0c1.4,0,2.2,1.1,2.2,2.3
		c0,1-0.5,1.9-1.8,2.2c-2.6,0.6-5.8,1-9,1.2c0.2,3.4,0.4,6.8,0.8,10.1c3.7,1.1,7.4,2.9,10.7,5.1c0.9,0.6,1.2,1.4,1.2,2.1
		c0,1.3-1,2.5-2.4,2.5c-0.5,0-1.1-0.2-1.8-0.6c-2.3-1.6-4.9-3.1-7.6-4.2c-0.5,4.2-3.8,7.1-9.6,7.1c-5.3,0-8.9-2.4-8.9-6.7
		c0-3.7,3.4-6.8,9.1-6.8c1.4,0,2.9,0.1,4.4,0.3c-0.5-4.9-0.9-10.7-0.9-17.9v-2.6c0-1.3,1.2-2,2.4-2c1.2,0,2.4,0.6,2.4,2V102.3z
		 M115.2,124.6c-1.6-0.4-3.2-0.6-4.7-0.6c-2.7,0-4.1,1-4.1,2.5c0,1.5,1.2,2.3,3.9,2.3C113.1,128.8,115.2,127.2,115.2,124.6z"/>
	<path class="st0" d="M160.6,97.5c1.3,0,2.5,1,2.5,2.4c0,0.5-0.2,1-0.5,1.5c-2.6,3.8-6.3,8.4-9.5,11.8c-0.7,0.7-0.9,1.2-0.9,1.8
		c0,0.7,0.3,1.2,1,2c3.7,3.9,7.5,8.7,10.7,13.1c0.4,0.6,0.6,1.2,0.6,1.7c0,1.4-1.3,2.4-2.6,2.4c-0.9,0-1.7-0.4-2.4-1.4
		c-2.7-4.2-6.6-9.3-10-13.1c-1.5-1.7-2.2-3.2-2.2-4.7c0-1.4,0.5-2.8,2-4.4c3.2-3.3,6.7-8.1,9.3-12.1
		C159.1,97.8,159.9,97.5,160.6,97.5z"/>
	<path class="st0" d="M200.4,97.2c0-1,1.1-1.6,2.2-1.6c1.1,0,2.2,0.5,2.2,1.6V99h13.7c1.1,0,1.6,0.9,1.6,1.8c0,0.9-0.5,1.8-1.6,1.8
		h-27.1c-1.5,0-1.9,0.4-1.9,1.6v6.9c0,8.7-1.3,15.1-3.7,20.3c-0.5,1-1.3,1.4-2.1,1.4c-1.1,0-2.3-0.8-2.3-2.1c0-0.3,0.1-0.7,0.3-1.1
		c2.2-4.7,3.4-10.8,3.4-18.9v-6.9c0-3.1,1.6-4.8,5.6-4.8h9.6V97.2z M201.2,122.6c-0.6,1-1.3,1.8-2,2.8c0.3,0,0.6,0,0.9,0h12.2
		c3.5,0,4.6,1,4.6,3.8v2c0,3.2-1.7,3.7-4.6,3.7h-12.2c-3.5,0-4.6-1-4.6-3.7v-1.8c-1.3,1.3-2.8,2.4-4.2,3.3c-0.4,0.3-0.9,0.4-1.3,0.4
		c-1.1,0-1.9-0.9-1.9-1.8c0-0.6,0.3-1.2,1.1-1.7c2.9-1.8,5.4-4.1,7.4-6.8h-4.9c-1,0-1.5-0.9-1.5-1.8c0-0.9,0.5-1.8,1.5-1.8h26.6
		c1,0,1.5,0.9,1.5,1.8c0,0.9-0.5,1.8-1.5,1.8H201.2z M192.1,109.2c-0.8,0-1.3-0.8-1.3-1.6c0-0.8,0.5-1.6,1.3-1.6h3.9v-1.3
		c0-1,1-1.5,1.9-1.5c1,0,1.9,0.5,1.9,1.5v1.3h2.7c0.9,0,1.3,0.8,1.3,1.6c0,0.8-0.5,1.6-1.3,1.6h-2.7v1c0.9,0.4,1.8,0.9,2.8,1.6
		c0.6,0.4,0.9,0.9,0.9,1.4c0,0.8-0.6,1.5-1.5,1.5c-0.3,0-0.7-0.1-1.1-0.4c-0.3-0.3-0.7-0.5-1.1-0.8v3c0,1.1-0.9,1.6-1.9,1.6
		c-0.9,0-1.9-0.5-1.9-1.6v-1.3l0.1-2.5c-0.9,1.1-1.9,2.1-3,3c-0.5,0.3-0.9,0.5-1.3,0.5c-0.9,0-1.6-0.8-1.6-1.6
		c0-0.5,0.3-1.1,0.8-1.5c1.4-1.1,2.7-2.5,3.9-3.9H192.1z M211.9,131.5c0.7,0,1-0.2,1-0.8v-1.3c0-0.6-0.3-0.8-1-0.8h-11.3
		c-0.7,0-1,0.2-1,0.8v1.3c0,0.6,0.4,0.8,1,0.8H211.9z M206.1,109.2c-0.8,0-1.3-0.8-1.3-1.6c0-0.8,0.5-1.6,1.3-1.6h3.6v-1.3
		c0-1,1-1.5,1.9-1.5c1,0,1.9,0.5,1.9,1.5v1.3h4.2c0.9,0,1.3,0.8,1.3,1.6c0,0.8-0.5,1.6-1.3,1.6h-3.2c1.5,1.4,3.4,2.7,5.3,3.7
		c0.7,0.4,1,1,1,1.6c0,0.9-0.8,1.8-1.7,1.8c-0.3,0-0.7-0.1-1.1-0.3c-1.8-1.1-3.4-2.4-4.6-3.8l0.1,3v1.1c0,1.1-0.9,1.6-1.9,1.6
		c-0.9,0-1.9-0.5-1.9-1.6v-1.1l0.1-2.7c-0.9,1.1-2,2.1-3.2,3c-0.5,0.3-0.9,0.5-1.3,0.5c-0.9,0-1.6-0.8-1.6-1.6c0-0.5,0.2-1,0.7-1.3
		c1.6-1.2,2.9-2.4,4.1-3.9H206.1z"/>
	<path class="st0" d="M253.4,120.2c-0.9-1.3-2-2.9-3.1-4.7c-4.2,0.7-8.3,1.1-11.5,1.4c-0.6,0-1.3,0.1-1.6,0.1c-1.3,0-2-1.1-2-2.1
		c0-1,0.6-2,1.9-2.1c3.7-0.2,7.5-0.6,11.2-1.2c-0.6-1.3-1.2-2.7-1.7-4c-3.1,0.5-5.5,0.8-8.1,1c-0.1,0-0.5,0-0.8,0c-1.2,0-2-1-2-2.1
		c0-1,0.6-2,1.8-2c2.3-0.1,5-0.4,7.7-0.8c-0.5-1.4-0.9-2.9-1.2-4.2c0-0.2-0.1-0.4-0.1-0.5c0-1.2,1.2-1.8,2.3-1.8
		c1,0,1.9,0.5,2.2,1.6c0.4,1.4,0.8,2.9,1.2,4.3c2.8-0.5,5.4-1.1,7.3-1.7c0.3-0.1,0.5-0.1,0.8-0.1c1.3,0,2.1,1.1,2.1,2.1
		c0,0.8-0.4,1.5-1.4,1.8c-2.1,0.6-4.6,1.3-7.4,1.8c0.5,1.3,1.1,2.7,1.7,4c3-0.6,5.8-1.3,8.1-2c0.3-0.1,0.5-0.1,0.7-0.1
		c1.3,0,2.1,1.1,2.1,2.2c0,0.8-0.5,1.6-1.6,1.9c-2.1,0.7-4.6,1.3-7.3,1.8c1.4,2.4,3.1,4.7,4.9,6.8c0.5,0.5,0.6,1.1,0.6,1.7
		c0,1.2-0.9,2.2-2.3,2.2c-0.3,0-0.7-0.1-1.1-0.2c-2.9-1.1-6.1-1.6-9.1-1.6c-5.2,0-6.6,1.5-6.6,3.3c0,2,1.8,3.4,7.9,3.4
		c1.7,0,2.4,0,3.6-0.1c0.3,0,0.6,0,0.8,0c1.5,0,2.2,1.1,2.2,2.1c0,1-0.7,2-2.1,2.1c-1.2,0.1-2.7,0.2-4.5,0.2
		c-8.9,0-12.8-2.8-12.8-7.6c0-4.3,3.6-7.3,11.4-7.3C249.9,119.6,251.9,119.9,253.4,120.2L253.4,120.2z"/>
	<path class="st0" d="M280.1,110.9c-1.4,0-2.1-1.1-2.1-2.2c0-1.1,0.7-2.2,2.1-2.3c1.7-0.1,3.7-0.3,6-0.7c0.4-2.3,0.5-4.2,0.8-6.5
		c0.1-1.3,1.2-1.9,2.3-1.9c1.2,0,2.4,0.8,2.4,2.1v0.3c-0.2,2-0.4,3.5-0.7,5.1c1.2-0.3,2.4-0.5,3.6-0.8c0.2,0,0.4-0.1,0.6-0.1
		c1.3,0,2.1,1.1,2.1,2.2c0,0.9-0.5,1.8-1.6,2.1c-1.9,0.5-3.8,1-5.5,1.4c-1.5,8.2-3.5,16-5.9,22.1c-0.5,1.3-1.6,1.8-2.6,1.8
		c-1.2,0-2.3-0.8-2.3-2.1c0-0.4,0.1-0.8,0.3-1.2c2.3-5.7,4.2-12.4,5.6-19.7C283.6,110.6,281.8,110.9,280.1,110.9z M296.1,122.5
		c1,0,1.9,0.5,2,1.8c0.3,2.7,1.8,3.4,6.4,3.4c2.1,0,3.9-0.2,5.6-0.4c0.1,0,0.3,0,0.5,0c1.4,0,2.2,1.2,2.2,2.4c0,1-0.6,2-1.9,2.2
		c-1.8,0.3-3.9,0.5-6.3,0.5c-5.9,0-8.5-1.5-9.8-3.7c-0.7-1-1-2.7-1-3.9C293.7,123.3,294.9,122.5,296.1,122.5z M308.7,109.9
		c1.5,0,2.3,1.1,2.3,2.3c0,1.1-0.7,2.1-2.1,2.1c-3.4,0-7.3,0.5-10.2,1.1c-0.2,0-0.4,0-0.5,0c-1.3,0-2.1-1-2.1-2.2
		c0-1,0.6-1.9,1.9-2.2C301.2,110.4,305.4,109.9,308.7,109.9z"/>
	<path class="st0" d="M328.4,101.7c1.3,0,2.5,0.8,2.5,2.2c0,0.6-0.2,2.6-0.2,3.9c0,14.7,3,18.6,4.7,18.6c1,0,1.9-0.7,2.7-3.8
		c0.3-1.3,1.2-1.8,2.1-1.8c1.2,0,2.4,0.9,2.4,2.3c0,0.3,0,0.5-0.1,0.7c-1.6,5.6-4.2,7.7-7.1,7.7c-6.1,0-9.8-7.5-9.8-23.5
		c0-1.9,0.1-3.2,0.2-4.3C326.1,102.4,327.3,101.7,328.4,101.7z M360.1,119.5c0.1,0.3,0.2,0.6,0.2,0.9c0,1.4-1.2,2.2-2.4,2.2
		c-0.9,0-1.8-0.5-2.2-1.6c-1.5-3.9-4.2-8.3-7.3-11.4c-0.5-0.5-0.7-1.1-0.7-1.6c0-1.2,1.1-2.1,2.4-2.1c0.6,0,1.3,0.3,1.8,0.8
		C355.5,110,358.7,115.2,360.1,119.5z"/>
</g>
</svg>
