<!-- Generator: Adobe Illustrator 22.1.0, SVG Export Plug-In  -->
<svg version="1.1"
	 xmlns="http://www.w3.org/2000/svg" xmlns:xlink="http://www.w3.org/1999/xlink" xmlns:a="http://ns.adobe.com/AdobeSVGViewerExtensions/3.0/"
	 x="0px" y="0px" width="367.9px" height="87.5px" viewBox="0 0 367.9 87.5" style="enable-background:new 0 0 367.9 87.5;"
	 xml:space="preserve">
<style type="text/css">
	.st0{fill:#5CBDE7;}
</style>
<defs>
</defs>
<g>
	<g>
		<path class="st0" d="M17.9,1.8c0-1.2,1.1-1.8,2.3-1.8c1.1,0,2.2,0.6,2.2,1.8v1.6h9c1.2,0,1.8,0.9,1.8,1.9c0,0.9-0.6,1.9-1.8,1.9
			h-9v2.2h14.7c1.2,0,1.8,1,1.8,1.9c0,1-0.6,1.9-1.8,1.9H1.7c-1.1,0-1.7-1-1.7-1.9c0-1,0.6-1.9,1.7-1.9h6.4V3.7
			c0-1.2,1.1-1.8,2.3-1.8c1.1,0,2.2,0.6,2.2,1.8v5.7h5.3V1.8z M31,16.4c0-1.2,1.1-1.8,2.3-1.8s2.3,0.6,2.3,1.8v17.2
			c0,3.5-1.5,5.3-6,5.3H9.2c-4.5,0-6-1.8-6-5.3V16.5c0-1.2,1.1-1.8,2.3-1.8s2.3,0.6,2.3,1.8v16.6c0,1.6,0.5,2,2.2,2h18.9
			c1.7,0,2.2-0.5,2.2-2V16.4z M21.3,30.7v2c0,1.1-1,1.6-2,1.6c-1,0-2-0.5-2-1.6v-2l0.1-2.8c-1.6,1.7-3.7,3.4-5.9,4.7
			c-0.4,0.3-0.8,0.4-1.2,0.4c-1,0-1.8-0.9-1.8-1.8c0-0.5,0.3-1.1,1-1.5c2.1-1.2,4.1-2.8,5.9-4.7h-4.7c-1,0-1.5-0.8-1.5-1.7
			c0-0.8,0.5-1.6,1.5-1.6h6.6v-6c0-1.1,1-1.6,2-1.6c1,0,2,0.5,2,1.6v6H28c1.1,0,1.6,0.8,1.6,1.6c0,0.8-0.5,1.7-1.6,1.7h-5.1
			c1.8,1.4,3.7,2.7,6,3.8c0.8,0.4,1.2,1.1,1.2,1.8c0,1-0.8,2-1.9,2c-0.3,0-0.7-0.1-1.1-0.3c-2.4-1.3-4.2-2.8-5.9-4.5L21.3,30.7z
			 M10.3,17.1c0-1,1-1.7,2-1.7c0.5,0,1.1,0.2,1.6,0.7c0.5,0.5,1.1,1.3,1.6,2.1c0.2,0.3,0.3,0.7,0.3,1c0,1.1-1,1.9-2.1,1.9
			c-0.5,0-1.1-0.3-1.5-0.9c-0.4-0.7-0.9-1.3-1.6-2.2C10.4,17.7,10.3,17.3,10.3,17.1z M26.4,15.2c1,0,1.9,0.7,1.9,1.7
			c0,0.3,0,0.5-0.2,0.8c-0.6,1.1-1.2,1.9-1.8,2.7c-0.4,0.5-0.9,0.7-1.4,0.7c-1,0-1.9-0.8-1.9-1.7c0-0.3,0.1-0.7,0.4-1.1
			c0.5-0.7,1-1.4,1.6-2.4C25.3,15.4,25.8,15.2,26.4,15.2z"/>
		<path class="st0" d="M66.1,1.6c1.3,0,2.5,1,2.5,2.4c0,0.5-0.2,1-0.5,1.5c-2.6,3.8-6.3,8.4-9.5,11.8c-0.7,0.7-0.9,1.2-0.9,1.8
			c0,0.7,0.3,1.2,1,2c3.7,3.9,7.5,8.7,10.7,13.1c0.4,0.6,0.6,1.2,0.6,1.7c0,1.4-1.3,2.4-2.6,2.4c-0.9,0-1.7-0.4-2.4-1.4
			c-2.7-4.2-6.6-9.3-10-13.1c-1.5-1.7-2.2-3.2-2.2-4.7c0-1.4,0.5-2.8,2-4.4c3.2-3.3,6.7-8.1,9.3-12.1C64.7,1.9,65.4,1.6,66.1,1.6z
			 M68.2,14.1c0-0.8,0.8-1.6,1.8-1.6c0.4,0,0.8,0.1,1.2,0.5c1.1,1,2.4,2.4,3.3,3.7c0.3,0.4,0.4,0.8,0.4,1.1c0,0.9-0.8,1.7-1.7,1.7
			c-0.5,0-1-0.3-1.4-0.8c-1-1.4-2.1-2.6-3.1-3.6C68.4,14.7,68.2,14.4,68.2,14.1z M72.4,10.8c0-0.8,0.8-1.6,1.8-1.6
			c0.4,0,0.8,0.2,1.3,0.5c1.1,0.9,2.4,2.2,3.2,3.4c0.3,0.4,0.5,0.8,0.5,1.3c0,0.9-0.8,1.6-1.7,1.6c-0.5,0-1.1-0.2-1.5-0.8
			c-1-1.2-2.1-2.5-3.1-3.5C72.5,11.4,72.4,11.1,72.4,10.8z"/>
		<path class="st0" d="M112.4,24.2c-0.9-1.3-2-2.9-3.1-4.7c-4.2,0.7-8.3,1.1-11.5,1.4c-0.6,0-1.3,0.1-1.6,0.1c-1.3,0-2-1.1-2-2.1
			c0-1,0.6-2,1.9-2.1c3.7-0.2,7.5-0.6,11.2-1.2c-0.6-1.3-1.2-2.7-1.7-4c-3.1,0.5-5.5,0.8-8.1,1c-0.1,0-0.5,0-0.8,0c-1.2,0-2-1-2-2.1
			c0-1,0.6-2,1.8-2c2.3-0.1,5-0.4,7.7-0.8c-0.5-1.4-0.9-2.9-1.2-4.2c0-0.2-0.1-0.4-0.1-0.5c0-1.2,1.2-1.8,2.3-1.8
			c1,0,1.9,0.5,2.2,1.6c0.4,1.4,0.8,2.9,1.2,4.3c2.8-0.5,5.4-1.1,7.3-1.7c0.3-0.1,0.5-0.1,0.8-0.1c1.3,0,2.1,1.1,2.1,2.1
			c0,0.8-0.4,1.5-1.4,1.8c-2.1,0.6-4.6,1.3-7.4,1.8c0.5,1.3,1.1,2.7,1.7,4c3-0.6,5.8-1.3,8.1-2c0.3-0.1,0.5-0.1,0.7-0.1
			c1.3,0,2.1,1.1,2.1,2.2c0,0.8-0.5,1.6-1.6,1.9c-2.1,0.7-4.6,1.3-7.3,1.8c1.4,2.4,3.1,4.7,4.9,6.8c0.5,0.5,0.6,1.1,0.6,1.7
			c0,1.2-0.9,2.2-2.3,2.2c-0.3,0-0.7-0.1-1.1-0.2c-2.9-1.1-6.1-1.6-9.1-1.6c-5.2,0-6.6,1.5-6.6,3.3c0,2,1.8,3.4,7.9,3.4
			c1.7,0,2.4,0,3.6-0.1c0.3,0,0.6,0,0.8,0c1.5,0,2.2,1.1,2.2,2.1c0,1-0.7,2-2.1,2.1c-1.2,0.1-2.7,0.2-4.5,0.2
			c-8.9,0-12.8-2.8-12.8-7.6c0-4.3,3.6-7.3,11.4-7.3C109,23.7,110.9,23.9,112.4,24.2L112.4,24.2z"/>
		<path class="st0" d="M136.2,23.1c0-9.6,7.9-17.4,19.5-17.4c10.2,0,16.2,6.4,16.2,14.8c0,7.6-4.5,13.2-11.7,15.5
			c-0.3,0.1-0.7,0.2-1,0.2c-1.4,0-2.4-1.2-2.4-2.4c0-0.9,0.5-1.8,1.8-2.3c6-2.1,8.4-5.8,8.4-11c0-5.5-3.7-10-10.1-10.5
			c-0.4,7-2.1,13.3-4.7,17.9c-2.3,4.1-4.8,5.3-8,5.3C139.8,33.1,136.2,29.6,136.2,23.1z M141.1,23.1c0,3.9,1.5,5.3,3,5.3
			c1.3,0,2.4-0.7,3.7-2.8c2.1-3.7,3.7-9.2,4.2-15.3C145.7,11.4,141.1,16.8,141.1,23.1z"/>
		<path class="st0" d="M206.2,23.9c1,1.5,2.2,2.9,3.5,4.1c2.1-1.2,4.1-2.6,5.4-3.7c0.5-0.4,1-0.6,1.4-0.6c1.1,0,2.1,0.9,2.1,2
			c0,0.5-0.3,1.1-0.9,1.6c-1.3,1.1-3,2.2-5,3.3c2.4,1.8,5.2,3.3,8.1,4.3c1.2,0.4,1.6,1.2,1.6,2c0,1.1-0.9,2.1-2.1,2.1
			c-0.3,0-0.7-0.1-1.1-0.2c-6.5-2.5-12.7-7.4-16.3-13.3c-1.6,1.2-3.3,2.3-5,3.3c0.7,0.2,1.3,0.7,1.3,1.5v4.3
			c2.2-0.3,4.5-0.7,6.6-1.2c0.2,0,0.4-0.1,0.5-0.1c1.2,0,1.9,1,1.9,2c0,0.8-0.5,1.5-1.5,1.8c-4,1-10.2,1.9-14.5,2.3
			c-0.5,0-1.1,0.1-1.4,0.1c-1.3,0-2-1-2-1.9c0-0.9,0.6-1.8,1.8-1.9c1.3-0.1,2.7-0.2,4.1-0.4v-4.8c-2.8,1.3-5.7,2.5-8.4,3.3
			c-0.3,0.1-0.5,0.1-0.7,0.1c-1.2,0-2-1-2-2c0-0.7,0.4-1.4,1.4-1.7c4.8-1.4,9.7-3.6,13.5-6.1h-2.6c-3.4,0-4.9-1.2-4.9-3.9v-1.5h-5.3
			c-1.1,0-1.6-0.8-1.6-1.7c0-0.8,0.5-1.6,1.6-1.6h5.3v-1.4c0-2.7,1.5-3.9,4.9-3.9h14.7c3.4,0,4.9,1.2,4.9,3.9v1.4h5
			c1.1,0,1.6,0.8,1.6,1.6c0,0.8-0.5,1.7-1.6,1.7h-5V20c0,3.2-2.1,3.9-4.9,3.9H206.2z M200.9,1.9c0-1.2,1.1-1.8,2.3-1.8
			c1.1,0,2.3,0.6,2.3,1.8v2.4h15.1c1.1,0,1.6,0.9,1.6,1.8c0,0.9-0.5,1.8-1.6,1.8h-34.4c-1.1,0-1.6-0.9-1.6-1.8
			c0-0.9,0.5-1.8,1.6-1.8h14.7V1.9z M211.4,15.2v-1.1c0-0.8-0.3-1.1-1.4-1.1h-13c-1.1,0-1.4,0.3-1.4,1.1v1.1H211.4z M210,20.8
			c1.1,0,1.4-0.3,1.4-1.1v-1.2h-15.9v1.2c0,1,0.6,1.1,1.4,1.1H210z"/>
		<path class="st0" d="M255,10.3c0.2,0,0.4,0,0.6,0c1.9,0,3.1,1.4,3.1,2.9c0,0.7-0.3,1.4-0.8,2.1l-7,7.2l0.1,0.1
			c0.7-0.2,1.3-0.3,1.9-0.3c2.7,0,4.4,1.7,4.5,5.3l0,0.9c0.1,2.6,0.6,3.4,2.7,3.4c2.1,0,4.5-0.4,6.8-0.8c0.3,0,0.5-0.1,0.7-0.1
			c1.4,0,2.2,1.2,2.2,2.4c0,1-0.5,2-1.7,2.2c-2.9,0.6-5.5,0.9-7.9,0.9c-4.9,0-7.2-2-7.4-7.3l0-1c-0.1-1.6-0.6-2.2-1.6-2.2
			c-1.3,0-2.7,0.5-4.6,2c-1.5,1.2-3.9,3.6-7.3,7.4c-0.6,0.6-1.2,0.9-1.9,0.9c-1.3,0-2.4-1-2.4-2.2c0-0.6,0.2-1.2,0.8-1.8l16-16.9
			l0-0.1l-11,1.9c-0.2,0-0.3,0-0.5,0c-1.4,0-2.2-1.2-2.2-2.3c0-1,0.6-2,2-2.2L255,10.3z M255.9,3.8c1.2,0.4,1.7,1.3,1.7,2.2
			c0,1.2-0.9,2.3-2.2,2.3c-0.3,0-0.6,0-0.9-0.2c-2.4-0.8-5.6-1.6-8.1-2c-1.4-0.2-2-1.1-2-2.1c0-1.1,0.9-2.3,2.4-2.3
			c0.1,0,0.3,0,0.4,0C250,2.1,253.5,3,255.9,3.8z"/>
		<path class="st0" d="M286.5,18.7c-1.9,0.8-3.9,1.6-6.2,2.7c-0.4,0.2-0.7,0.3-1.1,0.3c-1.3,0-2.1-1.1-2.1-2.3
			c0-0.8,0.4-1.6,1.4-2.1c2.4-1.1,4.5-2,6.6-2.8l-2.4-7c-0.1-0.3-0.1-0.5-0.1-0.7c0-1.3,1.3-2,2.5-2c0.9,0,1.8,0.4,2.1,1.3l2.3,6.7
			c6-2.1,10.2-2.7,14-2.7c6.6,0,10.4,3,10.4,7.6c0,5.3-3.7,8.3-9,8.3c-1.7,0-2.9-0.1-4.2-0.4c-1.5-0.4-2.1-1.4-2.1-2.4
			c0-1.2,0.9-2.3,2.4-2.3c0.3,0,0.5,0,0.8,0.1c0.8,0.2,1.9,0.4,2.9,0.4c2.7,0,4.3-1.4,4.3-3.7c0-1.9-1.6-3.3-5.5-3.3
			c-3.3,0-7.1,0.7-12.5,2.6l6.3,18.5c0.1,0.3,0.1,0.5,0.1,0.8c0,1.3-1.2,2.2-2.4,2.2c-0.8,0-1.7-0.5-2.1-1.5L286.5,18.7z M302.3,6.8
			c0,1.3-1.1,2.4-2.4,2.4c-0.5,0-1.1-0.2-1.7-0.7c-1.3-1.1-2.6-2-4.1-2.9c-0.8-0.5-1.1-1.2-1.1-1.8c0-1.2,1-2.3,2.4-2.3
			c0.5,0,1,0.1,1.5,0.4c1.6,0.8,2.8,1.6,4.5,3.1C302,5.6,302.3,6.2,302.3,6.8z"/>
		<path class="st0" d="M17.9,49.8c0-1.2,1.1-1.8,2.3-1.8c1.1,0,2.2,0.6,2.2,1.8v1.6h9c1.2,0,1.8,0.9,1.8,1.9c0,0.9-0.6,1.9-1.8,1.9
			h-9v2.2h14.7c1.2,0,1.8,1,1.8,1.9c0,1-0.6,1.9-1.8,1.9H1.7c-1.1,0-1.7-1-1.7-1.9c0-1,0.6-1.9,1.7-1.9h6.4v-5.7
			c0-1.2,1.1-1.8,2.3-1.8c1.1,0,2.2,0.6,2.2,1.8v5.7h5.3V49.8z M31,64.4c0-1.2,1.1-1.8,2.3-1.8s2.3,0.6,2.3,1.8v17.2
			c0,3.5-1.5,5.3-6,5.3H9.2c-4.5,0-6-1.8-6-5.3V64.5c0-1.2,1.1-1.8,2.3-1.8s2.3,0.6,2.3,1.8v16.6c0,1.6,0.5,2,2.2,2h18.9
			c1.7,0,2.2-0.5,2.2-2V64.4z M21.3,78.7v2c0,1.1-1,1.6-2,1.6c-1,0-2-0.5-2-1.6v-2l0.1-2.8c-1.6,1.7-3.7,3.4-5.9,4.7
			c-0.4,0.3-0.8,0.4-1.2,0.4c-1,0-1.8-0.9-1.8-1.8c0-0.5,0.3-1.1,1-1.5c2.1-1.2,4.1-2.8,5.9-4.7h-4.7c-1,0-1.5-0.8-1.5-1.7
			c0-0.8,0.5-1.6,1.5-1.6h6.6v-6c0-1.1,1-1.6,2-1.6c1,0,2,0.5,2,1.6v6H28c1.1,0,1.6,0.8,1.6,1.6c0,0.8-0.5,1.7-1.6,1.7h-5.1
			c1.8,1.4,3.7,2.7,6,3.8c0.8,0.4,1.2,1.1,1.2,1.8c0,1-0.8,2-1.9,2c-0.3,0-0.7-0.1-1.1-0.3c-2.4-1.3-4.2-2.8-5.9-4.5L21.3,78.7z
			 M10.3,65.1c0-1,1-1.7,2-1.7c0.5,0,1.1,0.2,1.6,0.7c0.5,0.5,1.1,1.3,1.6,2.1c0.2,0.3,0.3,0.7,0.3,1c0,1.1-1,1.9-2.1,1.9
			c-0.5,0-1.1-0.3-1.5-0.9c-0.4-0.7-0.9-1.3-1.6-2.2C10.4,65.7,10.3,65.3,10.3,65.1z M26.4,63.2c1,0,1.9,0.7,1.9,1.7
			c0,0.3,0,0.5-0.2,0.8c-0.6,1.1-1.2,1.9-1.8,2.7c-0.4,0.5-0.9,0.7-1.4,0.7c-1,0-1.9-0.8-1.9-1.7c0-0.3,0.1-0.7,0.4-1.1
			c0.5-0.7,1-1.4,1.6-2.4C25.3,63.4,25.8,63.2,26.4,63.2z"/>
		<path class="st0" d="M78.7,50.2c3.9,0,5.7,1.8,5.7,5.2V81c0,3.9-1.7,5.6-5.4,5.6c-1.1,0-2.1,0-3.1-0.2c-1.2-0.2-1.8-1.2-1.8-2.2
			c0-1.1,0.8-2.2,2.1-2.2c0.1,0,0.3,0,0.5,0c0.5,0.1,1.2,0.2,1.9,0.2c0.8,0,1.3-0.4,1.3-1.8V56.2c0-1.6-0.5-2.1-2.3-2.1h-7.4v3.2H75
			c1.1,0,1.6,0.9,1.6,1.8c0,0.9-0.5,1.8-1.6,1.8h-4.9v2.8h6.8c1.1,0,1.6,0.9,1.6,1.8c0,0.9-0.5,1.8-1.6,1.8H60c-1,0-1.6-0.9-1.6-1.8
			c0-0.9,0.5-1.8,1.6-1.8h5.9v-2.8h-4.3c-1,0-1.5-0.9-1.5-1.8c0-0.9,0.5-1.8,1.5-1.8h4.3v-3.2h-6.5c-1.8,0-2.3,0.5-2.3,2.1v8.4
			c0,9.6-1.5,16.1-4.2,20.8c-0.5,1-1.3,1.4-2.1,1.4c-1.2,0-2.3-0.9-2.3-2.1c0-0.4,0.1-0.8,0.3-1.2c2.4-4.3,3.7-10,3.7-19v-8.9
			c0-3.4,1.8-5.3,5.8-5.3H78.7z M64.7,81.2c-3.4,0-4.5-1.1-4.5-4.1v-3c0-2.9,1.1-4.2,4.5-4.2h6.8c3.4,0,4.5,1.2,4.5,4.2v3
			c0,3.3-1.3,4.1-4.5,4.1H64.7z M70.4,77.7c1,0,1.3-0.3,1.3-1v-2.4c0-0.7-0.3-1-1.3-1h-4.6c-1,0-1.3,0.3-1.3,1v2.4
			c0,0.8,0.5,1,1.3,1H70.4z"/>
		<path class="st0" d="M117.9,49.7c0-1.2,1.1-1.7,2.3-1.7c1.1,0,2.2,0.5,2.2,1.7v2.9h12.7c1.1,0,1.6,0.9,1.6,1.8s-0.5,1.8-1.6,1.8
			h-24.8c-1.6,0-2.1,0.4-2.1,1.7V64c0,8.6-1.9,15.9-5.3,21c-0.6,0.9-1.4,1.3-2.1,1.3c-1.1,0-2.2-0.9-2.2-2.1c0-0.4,0.2-0.9,0.5-1.4
			c1.9-2.9,3.3-6.1,4-10.1c-0.9,0.5-1.8,1.1-2.9,1.6c-0.4,0.2-0.8,0.3-1.1,0.3c-1.2,0-2-1.1-2-2.1c0-0.7,0.4-1.5,1.4-1.9
			c1.8-0.8,3.6-1.8,5.2-2.7c0.1-1.3,0.1-2.6,0.1-3.9v-0.8c-0.1,1-1.1,1.8-2.1,1.8c-0.6,0-1.3-0.3-1.7-1.1c-0.5-1-1.2-2-1.8-3
			c-0.3-0.4-0.3-0.7-0.3-1.1c0-1.1,1-1.8,2.1-1.8c0.6,0,1.2,0.3,1.7,0.9c0.8,1,1.4,2.1,2,3.2c0.1,0.3,0.2,0.5,0.2,0.8v-5.3
			c0-3.4,1.6-4.9,5.8-4.9h8.2V49.7z M129.7,66.2c3.7,0,5.1,1.3,5.1,4.3v11.9c0,3.6-1.6,4.9-5,4.9c-0.8,0-1.6-0.1-2.4-0.3
			c-1.2-0.2-1.7-1.1-1.7-2.1c0-1,0.7-2.1,1.9-2.1c0.1,0,0.3,0,0.4,0c0.5,0.1,1.2,0.2,1.6,0.2c0.7,0,0.9-0.2,0.9-1.1v-11
			c0-1-0.3-1.3-1.5-1.3h-4.7l-0.4,1.6c2.1,1.4,3.8,2.9,5.3,4.6c0.4,0.5,0.6,1,0.6,1.5c0,1.1-0.9,2-1.9,2c-0.6,0-1.2-0.3-1.8-0.9
			c-1.1-1.2-2.1-2.4-3.5-3.6c-0.9,1.8-2,3.2-3.4,4.7c-0.5,0.5-1.1,0.7-1.6,0.7c-1,0-1.9-0.8-1.9-1.8c0-0.5,0.2-1,0.7-1.5
			c2-2,3.2-4,3.9-7.2h-3.7c-1.1,0-1.5,0.4-1.5,1.3v14.6c0,1.2-1.1,1.8-2.1,1.8c-1,0-2.1-0.6-2.1-1.8V70.5c0-2.9,1.4-4.3,5.1-4.3h4.8
			c0.1-1.1,0.1-2.2,0.1-3.3h-9.2c-1.1,0-1.6-1-1.6-1.9c0-1,0.5-1.9,1.6-1.9h22.7c1.1,0,1.6,0.9,1.6,1.9c0,0.9-0.5,1.9-1.6,1.9h-9.5
			c0,1.1-0.1,2.2-0.2,3.3H129.7z"/>
		<path class="st0" d="M153.7,83.5c-0.5,1-1.4,1.3-2.3,1.3c-1.2,0-2.3-0.8-2.3-2.1c0-0.4,0.1-0.8,0.4-1.3c2.6-4.7,4.8-10.4,6.4-16.4
			c-1.7,0.2-3.4,0.5-5,0.8c-0.2,0-0.4,0-0.5,0c-1.3,0-2-1.1-2-2.1c0-1,0.6-1.9,1.9-2.2c2.1-0.4,4.5-0.7,6.7-1
			c0.5-2.6,0.9-5.2,1.2-7.7c0.2-1.3,1.2-2,2.3-2c1.2,0,2.4,0.8,2.4,2.1v0.3c-0.3,2.3-0.6,4.6-1.1,6.9c0.8,0,1.6,0,2.3,0
			c5.4,0,7.4,2.4,7.4,9c0,3.9-0.4,7.5-1.1,10c-1.3,4.8-3.2,6.6-7.5,6.6c-1,0-2.1-0.1-2.9-0.2c-1.4-0.2-2.1-1.3-2.1-2.3
			c0-1.2,0.8-2.3,2.1-2.3c0.1,0,0.2,0,0.3,0c0.8,0.1,1.4,0.2,2.3,0.2c1.5,0,2.2-0.5,2.9-2.9c0.7-2.4,1.1-5.7,1.1-9.1
			c0-3.8-0.7-4.8-2.7-4.8c-0.9,0-2,0-3.1,0.1C159.1,71.4,156.7,78.2,153.7,83.5z M184.2,66.5c0.3,0.5,0.3,1,0.3,1.4
			c0,1.5-1.2,2.4-2.4,2.4c-0.8,0-1.7-0.5-2.3-1.6c-1.5-3-3.7-6.3-6-8.7c-0.5-0.5-0.7-1.1-0.7-1.5c0-1.2,1.2-2.1,2.4-2.1
			c0.7,0,1.3,0.3,1.9,0.8C180.2,59.8,182.8,63.7,184.2,66.5z M176.5,52c0-0.8,0.8-1.6,1.8-1.6c0.4,0,0.8,0.1,1.2,0.5
			c1.1,1,2.4,2.4,3.3,3.7c0.3,0.4,0.4,0.8,0.4,1.1c0,0.9-0.8,1.7-1.7,1.7c-0.5,0-1-0.3-1.4-0.8c-1-1.4-2.1-2.6-3.1-3.6
			C176.7,52.6,176.5,52.3,176.5,52z M180.7,48.6c0-0.8,0.8-1.6,1.8-1.6c0.4,0,0.8,0.2,1.3,0.5c1.1,0.9,2.4,2.2,3.2,3.4
			c0.3,0.4,0.5,0.8,0.5,1.3c0,0.9-0.8,1.6-1.7,1.6c-0.5,0-1.1-0.2-1.5-0.8c-1-1.2-2.1-2.5-3.1-3.5C180.8,49.3,180.7,49,180.7,48.6z"
			/>
		<path class="st0" d="M229.8,52.2c1.1,0,1.6,1,1.6,1.9c0,1-0.5,1.9-1.6,1.9h-25.2c-1.5,2.1-3.2,4.2-4.8,5.7
			c-0.6,0.5-1.2,0.8-1.8,0.8c-1.2,0-2.2-0.9-2.2-2.1c0-0.5,0.3-1.1,0.8-1.6c2.6-2.4,5.3-6.1,7-9.5c0.5-0.9,1.3-1.3,2.1-1.3
			c1.1,0,2.2,0.7,2.2,1.8c0,0.3,0,0.6-0.3,1c-0.2,0.4-0.5,0.9-0.7,1.3H229.8z M219.1,79.8c0.8,0.5,1.1,1.3,1.1,2
			c0,1.2-1,2.3-2.2,2.3c-0.5,0-1-0.2-1.5-0.5c-1.8-1.4-3.7-2.7-5.7-4c-3.2,2.7-6.8,5.1-10.5,6.9c-0.4,0.2-0.8,0.3-1.2,0.3
			c-1.2,0-2.1-1.1-2.1-2.1c0-0.8,0.5-1.6,1.5-2.1c3-1.4,5.9-3.3,8.4-5.4c-1.6-0.9-3.2-1.8-4.6-2.5c-0.9-0.4-1.3-1.1-1.3-1.8
			c0-1.1,0.9-2.1,2.2-2.1c0.4,0,0.8,0.1,1.2,0.3c1.8,0.8,3.9,1.8,5.9,3c1.3-1.4,2.5-2.8,3.5-4.2c0.5-0.7,1.2-1,1.9-1
			c1.2,0,2.3,0.9,2.3,2.1c0,0.4-0.1,0.8-0.4,1.3c-1,1.5-2.1,2.9-3.4,4.2C215.7,77.4,217.5,78.6,219.1,79.8z M222.4,63.5
			c3.9,0,5.2,1.3,5.3,4.5c0.1,4.5,0.8,9.2,1.7,11.8c0.7,2.1,1,2.4,1.3,2.4c0.3,0,0.6-0.5,0.8-2.4c0.1-1.1,0.9-1.6,1.8-1.6
			c1,0,2,0.6,2,1.8c0,1-0.4,3.2-1,4.5c-0.7,1.5-1.8,2.5-3.5,2.5c-2.5,0-4.3-1.4-5.7-5.6c-1-3.2-1.9-8.1-1.9-12.5
			c0-1.1-0.3-1.4-1.8-1.4h-21.8c-1,0-1.6-1-1.6-2c0-1,0.5-2,1.6-2H222.4z M206,61.6c-1,0-1.6-0.9-1.6-1.8s0.5-1.8,1.6-1.8h18.7
			c1.1,0,1.6,0.9,1.6,1.8s-0.5,1.8-1.6,1.8H206z"/>
		<path class="st0" d="M252.3,52c1.2,0,2.4,0.7,2.4,2.1c0,0.1,0,0.3,0,0.5c-1.4,6.9-1.9,12.6-1.9,18.6c0,3.5,0.5,7.4,0.8,9.9
			c0,0.1,0,0.3,0,0.3c0,1.4-1.2,2.2-2.4,2.2c-1.1,0-2.2-0.6-2.4-2.1c-0.3-2.7-0.7-6.8-0.7-10.4c0-6.3,0.5-11.9,2-19.4
			C250.2,52.5,251.2,52,252.3,52z M271.3,77.8c1.9,0,4.2-0.2,6.3-0.6c0.2,0,0.3,0,0.5,0c1.4,0,2.2,1.2,2.2,2.4c0,1-0.5,2-1.8,2.2
			c-2.5,0.5-5,0.7-7.3,0.7c-7.8,0-11-2.4-11.5-7.4v-0.2c0-1.5,1.2-2.4,2.4-2.4c1,0,2,0.6,2.1,1.8C264.8,76.9,266.1,77.8,271.3,77.8z
			 M275.7,55.7c1.5,0,2.3,1.1,2.3,2.2c0,1.1-0.7,2.1-2.1,2.3c-3.7,0.5-7.9,0.8-11.8,0.9c-1.6,0-2.4-1.1-2.4-2.3
			c0-1.1,0.8-2.2,2.3-2.3c3.9-0.1,7.9-0.4,11.6-0.9H275.7z"/>
		<path class="st0" d="M302.6,50.9c0.3-1.3,1.3-1.8,2.3-1.8c1.2,0,2.3,0.7,2.3,2.1c0,0.2,0,0.4,0,0.5c-0.3,1.6-0.8,3.3-1.2,5
			c1.3-0.2,2.5-0.4,3.7-0.6c0.2,0,0.3,0,0.5,0c1.3,0,2.2,1.1,2.2,2.2c0,0.9-0.5,1.8-1.9,2.1c-1.8,0.4-3.9,0.7-5.9,1
			c-1.8,5.1-4,10.1-6.5,14.2c-0.6,1.1-1.5,1.5-2.4,1.5c-1.3,0-2.4-1-2.4-2.2c0-0.5,0.1-1,0.5-1.5c2.1-3.4,4.1-7.3,5.7-11.4
			c-1.6,0.2-3.1,0.3-4.4,0.3c-1.4,0-2.2-1.1-2.2-2.3c0-1.1,0.7-2.1,2-2.2c1.9-0.1,4-0.2,6.1-0.4C301.6,55.1,302.2,53,302.6,50.9z
			 M310.1,86.1c-5,0-8-2.2-8-6.1c0-3.4,2.9-6.1,8.2-6.1c0.7,0,1.3,0,2.1,0.1c-0.3-1.9-0.4-3.4-0.4-4.5c0-1.8,0.1-2.7,0.3-4.1
			c0.2-1.2,1.2-1.7,2.2-1.7c1.2,0,2.4,0.7,2.4,1.9c0,0.1,0,0.2,0,0.3c-0.2,1.2-0.3,2.3-0.3,3.4c0,1.2,0.1,2.8,0.6,5.5
			c2.7,0.8,5.5,2,7.9,3.7c0.8,0.5,1.1,1.3,1.1,2c0,1.2-1,2.3-2.2,2.3c-0.4,0-0.9-0.2-1.4-0.5c-1.6-1.1-3.2-2-4.8-2.7
			C317.6,84.4,314.2,86.1,310.1,86.1z M313.1,79.3c0-0.4,0-0.7,0-1.1c-0.9-0.2-1.8-0.3-2.6-0.3c-2.9,0-3.9,0.9-3.9,2.1
			c0,1.2,0.8,1.9,3.6,1.9C312.1,81.9,313.1,81.1,313.1,79.3z M326.1,59.6c1,0.6,1.4,1.4,1.4,2.2c0,1.2-1,2.3-2.2,2.3
			c-0.4,0-0.8-0.1-1.3-0.4c-2-1.1-4.2-2.2-6-2.9c-1-0.4-1.5-1.1-1.5-1.9c0-1.1,1-2.3,2.4-2.3c0.3,0,0.5,0,0.8,0.1
			C321.6,57.3,324.2,58.5,326.1,59.6z"/>
		<path class="st0" d="M351.7,65.3c1.8-0.7,3.7-1.1,5.3-1.1c6.6,0,10.8,3.6,10.8,9.4c0,7.4-5.3,12.1-13.5,12.1
			c-5.8,0-9.4-2.9-9.4-6.7c0-3.2,2.1-5.4,5.8-5.4c4,0,6.8,2.7,8.1,6.9c2.6-1.3,4.1-3.7,4.1-6.8c0-3-2.4-5.4-6.4-5.4
			c-4.2,0-8.4,1.5-13.5,5.5c-0.6,0.5-1.2,0.7-1.8,0.7c-1.3,0-2.4-1.1-2.4-2.3c0-0.7,0.3-1.4,1-2c4.9-3.8,10.3-9.4,14.2-14.2
			c-2.1,0.3-4.8,0.6-6.9,0.8c-0.2,0-1.3,0.1-1.8,0.1c-1.3,0-2.1-1.1-2.1-2.3c0-1.1,0.7-2.1,2.1-2.2c3.4-0.2,7.9-0.7,11.9-1.3
			c0.2,0,0.4,0,0.6,0c1.7,0,2.9,1.2,2.9,2.6c0,0.6-0.3,1.3-0.8,2c-2.5,3.2-5.7,6.8-8.4,9.5L351.7,65.3z M354.5,81.5
			c-0.7-2.7-2-4.1-3.7-4.1c-0.9,0-1.5,0.7-1.5,1.6c0,1.4,1.6,2.5,4.9,2.5H354.5z"/>
	</g>
</g>
</svg>
