<!-- Generator: Adobe Illustrator 22.1.0, SVG Export Plug-In  -->
<svg version="1.1"
	 xmlns="http://www.w3.org/2000/svg" xmlns:xlink="http://www.w3.org/1999/xlink" xmlns:a="http://ns.adobe.com/AdobeSVGViewerExtensions/3.0/"
	 x="0px" y="0px" width="308.8px" height="135.8px" viewBox="0 0 308.8 135.8" style="enable-background:new 0 0 308.8 135.8;"
	 xml:space="preserve">
<style type="text/css">
	.st0{fill:#FFFFFF;}
</style>
<defs>
</defs>
<g>
	<g>
		<g>
			<path class="st0" d="M12,35.3c-4.8,0-6.6-1.8-6.6-5.6V13.5c0-3.8,1.8-5.6,6.6-5.6h16.2c4.8,0,6.6,1.8,6.6,5.6v16.2
				c0,4.5-2.6,5.6-6.6,5.6H12z M27.4,31c2.1,0,2.7-0.6,2.7-2.3V14.5c0-1.7-0.6-2.3-2.7-2.3H12.8c-2.1,0-2.7,0.6-2.7,2.3v14.3
				c0,1.9,0.9,2.3,2.7,2.3H27.4z"/>
			<path class="st0" d="M54.6,36.4c-0.5,1-1.4,1.3-2.3,1.3c-1.2,0-2.3-0.8-2.3-2.1c0-0.4,0.1-0.8,0.4-1.3c2.6-4.7,4.8-10.4,6.4-16.4
				c-1.7,0.2-3.4,0.5-5,0.8c-0.2,0-0.4,0-0.5,0c-1.3,0-2-1.1-2-2.1c0-1,0.6-1.9,1.9-2.2c2.1-0.4,4.5-0.7,6.7-1
				c0.5-2.6,0.9-5.2,1.2-7.7c0.2-1.3,1.2-2,2.3-2c1.2,0,2.4,0.8,2.4,2.1v0.3c-0.3,2.3-0.6,4.6-1.1,6.9c0.8,0,1.6,0,2.3,0
				c5.4,0,7.4,2.4,7.4,9c0,3.9-0.4,7.5-1.1,10c-1.3,4.8-3.2,6.6-7.5,6.6c-1,0-2.1-0.1-2.9-0.2c-1.4-0.2-2.1-1.3-2.1-2.3
				c0-1.2,0.8-2.3,2.1-2.3c0.1,0,0.2,0,0.3,0c0.8,0.1,1.4,0.2,2.3,0.2c1.5,0,2.2-0.5,2.9-2.9c0.7-2.4,1.1-5.7,1.1-9.1
				c0-3.8-0.7-4.8-2.7-4.8c-0.9,0-2,0-3.1,0.1C60,24.3,57.5,31.1,54.6,36.4z M85.1,19.4c0.3,0.5,0.3,1,0.3,1.4
				c0,1.5-1.2,2.4-2.4,2.4c-0.8,0-1.7-0.5-2.3-1.6c-1.5-3-3.7-6.3-6-8.7C74.2,12.5,74,12,74,11.5c0-1.2,1.2-2.1,2.4-2.1
				c0.7,0,1.3,0.3,1.9,0.8C81,12.7,83.6,16.6,85.1,19.4z M77.4,4.9c0-0.8,0.8-1.6,1.8-1.6c0.4,0,0.8,0.1,1.2,0.5
				c1.1,1,2.4,2.4,3.3,3.7C83.9,7.8,84,8.2,84,8.6c0,0.9-0.8,1.7-1.7,1.7c-0.5,0-1-0.3-1.4-0.8c-1-1.4-2.1-2.6-3.1-3.6
				C77.5,5.5,77.4,5.2,77.4,4.9z M81.5,1.6c0-0.8,0.8-1.6,1.8-1.6c0.4,0,0.8,0.2,1.3,0.5c1.1,0.9,2.4,2.2,3.2,3.4
				c0.3,0.4,0.5,0.8,0.5,1.3c0,0.9-0.8,1.6-1.7,1.6c-0.5,0-1.1-0.2-1.5-0.8c-1-1.2-2.1-2.5-3.1-3.5C81.7,2.2,81.5,1.9,81.5,1.6z"/>
			<path class="st0" d="M106,12.5c1.2,0,2.4,0.8,2.4,2.2c0,0.3,0,0.6-0.2,0.9c-1.8,4.7-5,9.8-8.4,13.4c-0.6,0.6-1.2,0.8-1.8,0.8
				c-1.2,0-2.4-1-2.4-2.2c0-0.5,0.3-1.2,0.8-1.8c2.9-3,5.6-7.6,7.4-11.8C104.2,12.9,105.1,12.5,106,12.5z M117.7,34.7
				c0,3.5-1.7,5.3-5.7,5.3c-1.1,0-2.3-0.1-3.7-0.4c-1.1-0.3-1.6-1.2-1.6-2.1c0-1.2,0.8-2.4,2.2-2.4c0.2,0,0.3,0,0.5,0
				c0.8,0.2,1.6,0.3,2.1,0.3c1.1,0,1.4-0.3,1.4-1.6V3.5c0-1.3,1.2-2,2.4-2s2.4,0.7,2.4,2V34.7z M133.8,23.9c0.7,0.7,0.9,1.4,0.9,2
				c0,1.3-1.1,2.4-2.4,2.4c-0.6,0-1.3-0.2-1.8-0.8c-3.1-3.2-6.6-8-8.6-12.1c-0.2-0.4-0.3-0.7-0.3-1c0-1.2,1.1-2.1,2.3-2.1
				c0.8,0,1.6,0.4,2.1,1.3C127.8,16.8,130.9,21,133.8,23.9z"/>
			<path class="st0" d="M166.5,22.9c-1.9-2.2-3.4-4.5-4.9-7.4c-4.7,0.8-10.9,1.6-13.1,1.6c-1.4,0-2.2-1.2-2.2-2.3c0-1,0.6-2.1,2-2.1
				c3.5-0.2,7.6-0.6,11.4-1.3c-0.8-2.2-1.6-4.4-2.2-6.5c0-0.2-0.1-0.3-0.1-0.5c0-1.3,1.3-2.1,2.5-2.1c0.9,0,1.8,0.5,2.1,1.6
				c0.5,2.1,1.2,4.5,2.1,6.6c3.2-0.7,6.1-1.5,8.4-2.3c0.3-0.1,0.6-0.2,0.9-0.2c1.3,0,2.3,1.1,2.3,2.3c0,0.8-0.5,1.7-1.7,2.1
				c-2.2,0.8-5,1.5-8,2.1c1.6,2.9,3.7,6,6.9,9.5c0.5,0.5,0.7,1.2,0.7,1.8c0,1.3-1,2.4-2.3,2.4c-0.3,0-0.5-0.1-0.8-0.2
				c-3.2-1.1-6.3-1.6-9.7-1.6c-5.1,0-6.8,1.6-6.8,3.9c0,2.4,1.9,4,8.1,4c1.7,0,3.1-0.1,4.4-0.2h0.3c1.5,0,2.2,1.1,2.2,2.3
				c0,1-0.6,2-2.1,2.2c-1.4,0.2-2.9,0.3-4.8,0.3c-8.6,0-13.1-3.2-13.1-8.5c0-4.5,3.5-7.9,11.6-7.9C163.1,22.4,164.8,22.6,166.5,22.9
				L166.5,22.9z"/>
			<path class="st0" d="M205.5,2.5c1.3,0,2.5,1,2.5,2.4c0,0.5-0.2,1-0.5,1.5c-2.6,3.8-6.3,8.4-9.5,11.8c-0.7,0.7-0.9,1.2-0.9,1.8
				c0,0.7,0.3,1.2,1,2c3.7,3.9,7.5,8.7,10.7,13.1c0.4,0.6,0.6,1.2,0.6,1.7c0,1.4-1.3,2.4-2.6,2.4c-0.9,0-1.7-0.4-2.4-1.4
				c-2.7-4.2-6.6-9.3-10-13.1c-1.5-1.7-2.2-3.2-2.2-4.7c0-1.4,0.5-2.8,2-4.4c3.2-3.3,6.7-8.1,9.3-12.1C204,2.8,204.8,2.5,205.5,2.5z
				"/>
			<path class="st0" d="M3,78.5c-1,0-1.5-0.9-1.5-1.8C1.5,75.9,2,75,3,75h2.7V58.9c0-3.7,1.2-5.4,5.9-5.4h4.3c0.5-1,1-2,1.3-3
				c0.4-1.1,1.3-1.6,2.2-1.6c1.2,0,2.3,0.8,2.3,1.9c0,0.3,0,0.6-0.2,0.9c-0.3,0.7-0.5,1.3-0.8,1.8h8.1c4.7,0,5.8,1.8,5.8,5.4V75h2.6
				c1,0,1.5,0.9,1.5,1.8c0,0.9-0.5,1.8-1.5,1.8H22.9c3.3,2.5,8,4.5,13.8,5.3c1.3,0.2,2,1.1,2,2.1c0,1-0.8,2.1-2.1,2.1
				c-0.1,0-0.3,0-0.4,0c-6.8-0.9-12.7-3.8-16.7-7.6c-3,4.1-8.2,6.7-15.5,7.9c-0.1,0-0.3,0-0.4,0c-1.3,0-2-1-2-2
				c0-0.9,0.5-1.7,1.8-1.9c6.4-1,10.2-2.9,12.4-5.8H3z M30.4,75V59.4c0-1.6-0.2-2.4-2.2-2.4H12.2c-2,0-2.2,0.8-2.2,2.4V75h7.5
				c0.2-0.5,0.3-1,0.4-1.5c0.2-1,1.1-1.5,2-1.5c1.1,0,2.1,0.6,2.1,1.7c0,0.1,0,0.2,0,0.3c0,0.3-0.1,0.6-0.2,0.9H30.4z M18.4,68.2
				c-1.6,1.6-3.3,3-5,4.1c-0.3,0.2-0.7,0.3-1,0.3c-0.9,0-1.6-0.8-1.6-1.6c0-0.5,0.3-1,0.9-1.4c1.5-0.9,3-2.1,4.4-3.4h-3.6
				c-0.9,0-1.3-0.8-1.3-1.5c0-0.8,0.5-1.5,1.3-1.5h2.4c-0.3-0.1-0.7-0.4-0.9-0.8c-0.3-0.5-0.7-1.1-1.1-1.6c-0.3-0.3-0.4-0.6-0.4-0.9
				c0-0.8,0.8-1.4,1.7-1.4c0.5,0,1,0.2,1.3,0.6c0.5,0.5,0.9,1.1,1.3,1.6c0.3,0.3,0.3,0.7,0.3,1c0,0.7-0.5,1.3-1.1,1.5h2.2v-4.2
				c0-1.1,0.9-1.6,1.8-1.6c0.9,0,1.8,0.5,1.8,1.6v4.2h1.7c-0.4-0.3-0.7-0.6-0.7-1.1c0-0.3,0.1-0.7,0.5-1.1c0.5-0.6,0.9-1.2,1.3-1.8
				c0.4-0.6,0.9-0.8,1.5-0.8c0.8,0,1.6,0.6,1.6,1.4c0,0.3-0.1,0.5-0.3,0.9c-0.5,0.8-1.1,1.5-1.6,2.1c-0.2,0.2-0.4,0.3-0.5,0.4h2.7
				c0.9,0,1.4,0.8,1.4,1.5c0,0.8-0.5,1.5-1.4,1.5h-6v0.4c1.9,0.5,4.1,1.4,5.9,2.4c0.6,0.3,0.9,0.9,0.9,1.4c0,0.8-0.6,1.6-1.6,1.6
				c-0.3,0-0.7-0.1-1-0.3c-1.5-0.9-2.9-1.6-4.2-2.3v0.7c0,0.9-0.9,1.3-1.8,1.3c-0.9,0-1.8-0.5-1.8-1.3v-0.6L18.4,68.2z"/>
			<path class="st0" d="M66.9,50.8c0-1.2,1.1-1.8,2.3-1.8c1.1,0,2.2,0.6,2.2,1.8v1.6h9c1.2,0,1.8,0.9,1.8,1.9c0,0.9-0.6,1.9-1.8,1.9
				h-9v2.2h14.7c1.2,0,1.8,1,1.8,1.9c0,1-0.6,1.9-1.8,1.9H50.7c-1.1,0-1.7-1-1.7-1.9c0-1,0.6-1.9,1.7-1.9h6.4v-5.7
				c0-1.2,1.1-1.8,2.3-1.8c1.1,0,2.2,0.6,2.2,1.8v5.7h5.3V50.8z M80,65.3c0-1.2,1.1-1.8,2.3-1.8s2.3,0.6,2.3,1.8v17.2
				c0,3.5-1.5,5.3-6,5.3H58.2c-4.5,0-6-1.8-6-5.3V65.4c0-1.2,1.1-1.8,2.3-1.8s2.3,0.6,2.3,1.8V82c0,1.6,0.5,2,2.2,2h18.9
				c1.7,0,2.2-0.5,2.2-2V65.3z M70.3,79.7v2c0,1.1-1,1.6-2,1.6c-1,0-2-0.5-2-1.6v-2l0.1-2.8c-1.6,1.7-3.7,3.4-5.9,4.7
				c-0.4,0.3-0.8,0.4-1.2,0.4c-1,0-1.8-0.9-1.8-1.8c0-0.5,0.3-1.1,1-1.5c2.1-1.2,4.1-2.8,5.9-4.7h-4.7c-1,0-1.5-0.8-1.5-1.7
				c0-0.8,0.5-1.6,1.5-1.6h6.6v-6c0-1.1,1-1.6,2-1.6c1,0,2,0.5,2,1.6v6H77c1.1,0,1.6,0.8,1.6,1.6c0,0.8-0.5,1.7-1.6,1.7h-5.1
				c1.8,1.4,3.7,2.7,6,3.8c0.8,0.4,1.2,1.1,1.2,1.8c0,1-0.8,2-1.9,2c-0.3,0-0.7-0.1-1.1-0.3c-2.4-1.3-4.2-2.8-5.9-4.5L70.3,79.7z
				 M59.3,66c0-1,1-1.7,2-1.7c0.5,0,1.1,0.2,1.6,0.7c0.5,0.5,1,1.3,1.6,2.1c0.2,0.3,0.3,0.7,0.3,1c0,1.1-1,1.9-2.1,1.9
				c-0.5,0-1.1-0.3-1.5-0.9c-0.4-0.7-0.9-1.3-1.6-2.2C59.4,66.6,59.3,66.3,59.3,66z M75.4,64.1c1,0,1.9,0.7,1.9,1.7
				c0,0.3,0,0.5-0.2,0.8c-0.6,1.1-1.2,1.9-1.8,2.7c-0.4,0.5-0.9,0.7-1.4,0.7c-1,0-1.9-0.8-1.9-1.7c0-0.3,0.1-0.7,0.4-1
				c0.5-0.7,1-1.4,1.6-2.4C74.3,64.3,74.8,64.1,75.4,64.1z"/>
			<path class="st0" d="M104.5,84.4c-0.5,1-1.4,1.3-2.3,1.3c-1.2,0-2.3-0.8-2.3-2.1c0-0.4,0.1-0.8,0.4-1.3
				c2.6-4.7,4.8-10.4,6.4-16.4c-1.7,0.2-3.4,0.5-5,0.8c-0.2,0-0.4,0-0.5,0c-1.3,0-2-1.1-2-2.1c0-1,0.6-1.9,1.9-2.2
				c2.1-0.4,4.5-0.7,6.7-1c0.5-2.6,0.9-5.2,1.2-7.7c0.2-1.3,1.2-2,2.3-2c1.2,0,2.4,0.8,2.4,2.1v0.3c-0.3,2.3-0.6,4.6-1.1,6.9
				c0.8,0,1.6,0,2.3,0c5.4,0,7.4,2.4,7.4,9c0,3.9-0.4,7.5-1.1,10c-1.3,4.8-3.2,6.6-7.5,6.6c-1,0-2.1-0.1-2.9-0.2
				c-1.4-0.2-2.1-1.3-2.1-2.3c0-1.2,0.8-2.3,2.1-2.3c0.1,0,0.2,0,0.3,0c0.8,0.1,1.4,0.2,2.3,0.2c1.5,0,2.2-0.5,2.9-2.9
				c0.7-2.4,1.1-5.7,1.1-9.1c0-3.8-0.7-4.8-2.7-4.8c-0.9,0-2,0-3.1,0.1C109.9,72.3,107.5,79.1,104.5,84.4z M135,67.4
				c0.3,0.5,0.3,1,0.3,1.4c0,1.5-1.2,2.4-2.4,2.4c-0.8,0-1.7-0.5-2.3-1.6c-1.5-3-3.7-6.3-6-8.7c-0.5-0.5-0.7-1.1-0.7-1.5
				c0-1.2,1.2-2.1,2.4-2.1c0.7,0,1.3,0.3,1.9,0.8C131,60.7,133.6,64.6,135,67.4z M127.3,52.9c0-0.8,0.8-1.6,1.8-1.6
				c0.4,0,0.8,0.1,1.2,0.5c1.1,1,2.4,2.4,3.3,3.7c0.3,0.4,0.4,0.8,0.4,1.1c0,0.9-0.8,1.7-1.7,1.7c-0.5,0-1-0.3-1.4-0.8
				c-1-1.4-2.1-2.6-3.1-3.6C127.4,53.5,127.3,53.2,127.3,52.9z M131.5,49.6c0-0.8,0.8-1.6,1.8-1.6c0.4,0,0.8,0.2,1.3,0.5
				c1.1,0.9,2.4,2.2,3.2,3.4c0.3,0.4,0.5,0.8,0.5,1.3c0,0.9-0.8,1.6-1.7,1.6c-0.5,0-1.1-0.2-1.5-0.8c-1-1.2-2.1-2.5-3.1-3.5
				C131.6,50.2,131.5,49.9,131.5,49.6z"/>
			<path class="st0" d="M153.7,53.4c0.1-1.4,1.3-2.1,2.4-2.1c1.3,0,2.4,0.7,2.4,2.1c0,0.5-0.1,1.6-0.1,2c-0.4,6.2-0.8,12.6-0.8,18.9
				c0,5.6,1.7,7.1,4.7,7.1c3.9,0,7.6-1.6,11.4-6.4c0.6-0.8,1.3-1.1,2-1.1c1.3,0,2.5,1,2.5,2.3c0,0.5-0.2,1-0.6,1.6
				c-4.8,6-9.9,8.2-15.3,8.2c-6.3,0-9.6-3.1-9.6-11.8C152.8,67.5,153.3,59.6,153.7,53.4z"/>
			<path class="st0" d="M221.7,73c0,6.6-4.9,11.2-14.3,12.5c-0.1,0-0.3,0-0.4,0c-1.3,0-1.9-1.1-1.9-2.1c0-0.9,0.5-1.8,1.7-2
				c8-1.4,10.7-4.1,10.7-8.5c0-2.7-1.9-4.8-6.1-4.8c-4.3,0-9.7,1.4-15.9,4.1c-0.3,0.2-0.7,0.2-1,0.2c-1.2,0-2-1-2-2
				c0-0.8,0.4-1.6,1.4-2c6.2-2.7,12.5-4.2,17.5-4.2C217.5,64.3,221.7,67.7,221.7,73z"/>
			<path class="st0" d="M240.6,83.5c-0.5,1-1.4,1.3-2.3,1.3c-1.2,0-2.3-0.8-2.3-2.1c0-0.4,0.1-0.8,0.4-1.3
				c2.6-4.7,4.8-10.4,6.4-16.4c-1.7,0.2-3.4,0.5-5,0.8c-0.2,0-0.4,0-0.5,0c-1.3,0-2-1-2-2.1c0-1,0.6-1.9,1.9-2.2
				c2.1-0.4,4.5-0.7,6.7-1c0.5-2.6,0.9-5.2,1.2-7.7c0.2-1.3,1.2-2,2.3-2c1.2,0,2.4,0.8,2.4,2.1v0.3c-0.3,2.3-0.6,4.6-1.1,6.9
				c0.8,0,1.6,0,2.3,0c5.4,0,7.4,2.4,7.4,9c0,3.9-0.4,7.5-1.1,10c-1.3,4.8-3.2,6.6-7.5,6.6c-1,0-2.1-0.1-2.9-0.2
				c-1.4-0.2-2.1-1.3-2.1-2.3c0-1.2,0.8-2.3,2.1-2.3c0.1,0,0.2,0,0.3,0c0.8,0.1,1.4,0.2,2.3,0.2c1.5,0,2.2-0.5,2.9-2.9
				c0.7-2.4,1.1-5.7,1.1-9.1c0-3.8-0.7-4.8-2.7-4.8c-0.9,0-2,0-3.1,0.1C246,71.5,243.6,78.3,240.6,83.5z M271.5,66.6
				c0.3,0.5,0.3,1,0.3,1.4c0,1.5-1.2,2.4-2.4,2.4c-0.8,0-1.7-0.5-2.3-1.6c-1.5-3-3.7-6.3-6-8.7c-0.5-0.5-0.7-1-0.7-1.5
				c0-1.2,1.2-2.1,2.4-2.1c0.7,0,1.3,0.3,1.9,0.8C267.5,59.9,270.1,63.8,271.5,66.6z"/>
			<path class="st0" d="M292.1,68.9c0.4-1,0.7-1.8,1.1-2.9c0.3-0.9,1.1-1.3,1.8-1.3c1,0,1.9,0.7,1.9,1.7c0,0.2,0,0.3-0.1,0.5
				c-0.7,2.4-1.8,5-2.9,6.9c-0.7,1.1-1.8,1.7-2.9,1.7c-1.2,0-2.3-0.7-2.7-2c-0.5-1.8-1-4.8-1-7.2c0-3.4,0.5-8,1.6-12.3
				c0.3-1.2,1.4-1.7,2.4-1.7c1.2,0,2.3,0.7,2.3,1.9c0,0.2,0,0.3-0.1,0.5c-0.9,3.9-1.6,8.7-1.6,11.2C291.9,67.2,292,68,292.1,68.9
				L292.1,68.9z M303,53.4c0-1.4,1.3-2.1,2.5-2.1c1.1,0,2.3,0.6,2.5,2c0.6,4.4,0.9,9,0.9,13.5c0,9.1-3.3,15.5-9.2,20
				c-0.6,0.5-1.2,0.7-1.8,0.7c-1.3,0-2.4-1.1-2.4-2.4c0-0.7,0.3-1.5,1.1-2.1c4.8-3.9,7.1-9.1,7.1-16.2c0-4.3-0.3-8.7-0.8-13.1V53.4z
				"/>
			<path class="st0" d="M18.9,98.1c0-1,1.1-1.6,2.2-1.6c1.1,0,2.2,0.5,2.2,1.6v1.8h13.7c1.1,0,1.6,0.9,1.6,1.8
				c0,0.9-0.5,1.8-1.6,1.8H10c-1.5,0-1.9,0.4-1.9,1.6v6.9c0,8.7-1.3,15.1-3.7,20.3c-0.5,1-1.3,1.4-2.1,1.4c-1.1,0-2.3-0.8-2.3-2.1
				c0-0.3,0.1-0.7,0.3-1.1c2.2-4.7,3.4-10.8,3.4-18.9v-6.9c0-3.1,1.6-4.8,5.6-4.8h9.6V98.1z M19.7,123.6c-0.6,1-1.3,1.8-2,2.8
				c0.3,0,0.6,0,0.9,0h12.2c3.5,0,4.6,1,4.6,3.8v2c0,3.2-1.7,3.7-4.6,3.7H18.7c-3.5,0-4.6-1-4.6-3.7v-1.8c-1.3,1.3-2.8,2.4-4.2,3.3
				c-0.4,0.3-0.9,0.4-1.3,0.4c-1.1,0-1.9-0.9-1.9-1.8c0-0.6,0.3-1.2,1.1-1.7c2.9-1.8,5.4-4.1,7.4-6.8h-4.9c-1,0-1.5-0.9-1.5-1.8
				c0-0.9,0.5-1.8,1.5-1.8H37c1,0,1.5,0.9,1.5,1.8c0,0.9-0.5,1.8-1.5,1.8H19.7z M10.7,110.2c-0.8,0-1.3-0.8-1.3-1.6
				c0-0.8,0.5-1.6,1.3-1.6h3.9v-1.3c0-1,1-1.5,1.9-1.5c1,0,1.9,0.5,1.9,1.5v1.3H21c0.9,0,1.3,0.8,1.3,1.6c0,0.8-0.5,1.6-1.3,1.6
				h-2.7v1c0.9,0.4,1.8,0.9,2.8,1.6c0.6,0.4,0.9,0.9,0.9,1.4c0,0.8-0.6,1.5-1.5,1.5c-0.3,0-0.7-0.1-1.1-0.4
				c-0.3-0.3-0.7-0.5-1.1-0.8v3c0,1.1-0.9,1.6-1.9,1.6c-0.9,0-1.9-0.5-1.9-1.6v-1.3l0.1-2.5c-0.9,1.1-1.9,2.1-3,3
				c-0.5,0.3-0.9,0.5-1.3,0.5c-0.9,0-1.6-0.8-1.6-1.6c0-0.5,0.3-1.1,0.8-1.5c1.4-1.1,2.7-2.5,3.9-3.9H10.7z M30.4,132.5
				c0.7,0,1-0.2,1-0.8v-1.3c0-0.6-0.3-0.8-1-0.8H19.2c-0.7,0-1,0.2-1,0.8v1.3c0,0.6,0.4,0.8,1,0.8H30.4z M24.7,110.2
				c-0.8,0-1.3-0.8-1.3-1.6c0-0.8,0.5-1.6,1.3-1.6h3.6v-1.3c0-1,1-1.5,1.9-1.5c1,0,1.9,0.5,1.9,1.5v1.3h4.2c0.9,0,1.3,0.8,1.3,1.6
				c0,0.8-0.5,1.6-1.3,1.6H33c1.5,1.4,3.4,2.7,5.3,3.7c0.7,0.4,1,1,1,1.6c0,0.9-0.8,1.8-1.7,1.8c-0.3,0-0.7-0.1-1.1-0.3
				c-1.8-1.1-3.4-2.4-4.6-3.8l0.1,3v1.1c0,1.1-0.9,1.6-1.9,1.6c-0.9,0-1.9-0.5-1.9-1.6v-1.1l0.1-2.7c-0.9,1.1-2,2.1-3.2,3
				c-0.5,0.3-0.9,0.5-1.3,0.5c-0.9,0-1.6-0.8-1.6-1.6c0-0.5,0.2-1,0.7-1.3c1.6-1.2,2.9-2.4,4.1-3.9H24.7z"/>
			<path class="st0" d="M71.9,121.2c-0.9-1.3-2-2.9-3.1-4.7c-4.2,0.7-8.3,1.1-11.5,1.4c-0.6,0-1.3,0.1-1.6,0.1c-1.3,0-2-1.1-2-2.1
				c0-1,0.6-2,1.9-2.1c3.7-0.2,7.5-0.6,11.2-1.2c-0.6-1.3-1.2-2.7-1.7-4c-3.1,0.5-5.5,0.8-8.1,1c-0.1,0-0.5,0-0.8,0
				c-1.2,0-2-1-2-2.1c0-1,0.6-2,1.8-2c2.3-0.1,5-0.4,7.7-0.8c-0.5-1.4-0.9-2.9-1.2-4.2c0-0.2-0.1-0.4-0.1-0.5c0-1.2,1.2-1.8,2.3-1.8
				c1,0,1.9,0.5,2.2,1.6c0.4,1.4,0.8,2.9,1.2,4.3c2.8-0.5,5.4-1.1,7.3-1.7c0.3-0.1,0.5-0.1,0.8-0.1c1.3,0,2.1,1.1,2.1,2.1
				c0,0.8-0.4,1.5-1.4,1.8c-2.1,0.6-4.6,1.3-7.4,1.8c0.5,1.3,1.1,2.7,1.7,4c3-0.6,5.8-1.3,8.1-2c0.3-0.1,0.5-0.1,0.7-0.1
				c1.3,0,2.1,1.1,2.1,2.2c0,0.8-0.5,1.6-1.6,1.9c-2.1,0.7-4.6,1.3-7.3,1.8c1.4,2.4,3.1,4.7,4.9,6.8c0.5,0.5,0.6,1.1,0.6,1.7
				c0,1.2-0.9,2.2-2.3,2.2c-0.3,0-0.7-0.1-1.1-0.2c-2.9-1.1-6.1-1.6-9.1-1.6c-5.2,0-6.6,1.5-6.6,3.3c0,2,1.8,3.4,7.9,3.4
				c1.7,0,2.4,0,3.6-0.1c0.3,0,0.6,0,0.8,0c1.5,0,2.2,1.1,2.2,2.1c0,1-0.7,2-2.1,2.1c-1.2,0.1-2.7,0.2-4.5,0.2
				c-8.9,0-12.8-2.8-12.8-7.6c0-4.3,3.6-7.3,11.4-7.3C68.4,120.6,70.4,120.8,71.9,121.2L71.9,121.2z"/>
			<path class="st0" d="M101.7,100.9c1.2,0,2.4,0.7,2.4,2.1c0,0.1,0,0.3,0,0.5c-1.4,6.9-1.9,12.6-1.9,18.6c0,3.5,0.5,7.4,0.8,9.9
				c0,0.1,0,0.3,0,0.3c0,1.4-1.2,2.2-2.4,2.2c-1.1,0-2.2-0.6-2.4-2.1c-0.3-2.7-0.7-6.8-0.7-10.4c0-6.3,0.5-11.9,2-19.4
				C99.6,101.5,100.6,100.9,101.7,100.9z M120.8,126.7c1.9,0,4.2-0.2,6.3-0.6c0.2,0,0.3,0,0.5,0c1.4,0,2.2,1.2,2.2,2.4
				c0,1-0.5,2-1.8,2.2c-2.5,0.5-5,0.7-7.3,0.7c-7.8,0-11-2.4-11.5-7.4v-0.2c0-1.5,1.2-2.4,2.4-2.4c1,0,2,0.6,2.1,1.8
				C114.2,125.8,115.5,126.7,120.8,126.7z M125.1,104.6c1.5,0,2.3,1.1,2.3,2.2c0,1.1-0.7,2.1-2.1,2.3c-3.7,0.5-7.9,0.8-11.8,0.9
				c-1.6,0-2.4-1.1-2.4-2.3c0-1.1,0.8-2.2,2.3-2.3c3.9-0.1,7.9-0.4,11.6-0.9H125.1z"/>
			<path class="st0" d="M156.6,98.5c1.3,0,2.5,1,2.5,2.4c0,0.5-0.2,1-0.5,1.5c-2.6,3.8-6.3,8.4-9.5,11.8c-0.7,0.7-0.9,1.2-0.9,1.8
				c0,0.7,0.3,1.2,1,2c3.7,3.9,7.5,8.7,10.7,13.1c0.4,0.6,0.6,1.2,0.6,1.7c0,1.4-1.3,2.4-2.6,2.4c-0.9,0-1.7-0.4-2.4-1.4
				c-2.7-4.2-6.6-9.3-10-13.1c-1.5-1.7-2.2-3.2-2.2-4.7c0-1.4,0.5-2.8,2-4.4c3.2-3.3,6.7-8.1,9.3-12.1
				C155.1,98.8,155.8,98.5,156.6,98.5z"/>
			<path class="st0" d="M180.3,102.7c1.3,0,2.5,0.8,2.5,2.2c0,0.6-0.2,2.6-0.2,3.9c0,14.7,3,18.6,4.7,18.6c1,0,1.9-0.7,2.7-3.8
				c0.3-1.3,1.2-1.8,2.1-1.8c1.2,0,2.4,0.9,2.4,2.3c0,0.3,0,0.5-0.1,0.7c-1.6,5.6-4.2,7.7-7.1,7.7c-6.1,0-9.8-7.5-9.8-23.5
				c0-1.9,0.1-3.2,0.2-4.3C178,103.4,179.2,102.7,180.3,102.7z M212,120.5c0.1,0.3,0.2,0.6,0.2,0.9c0,1.4-1.2,2.2-2.4,2.2
				c-0.9,0-1.8-0.5-2.2-1.6c-1.5-3.9-4.2-8.3-7.3-11.4c-0.5-0.5-0.7-1.1-0.7-1.6c0-1.2,1.1-2.1,2.4-2.1c0.6,0,1.3,0.3,1.8,0.8
				C207.4,111,210.6,116.2,212,120.5z"/>
		</g>
	</g>
</g>
</svg>
