<!-- Generator: Adobe Illustrator 22.1.0, SVG Export Plug-In  -->
<svg version="1.1"
	 xmlns="http://www.w3.org/2000/svg" xmlns:xlink="http://www.w3.org/1999/xlink" xmlns:a="http://ns.adobe.com/AdobeSVGViewerExtensions/3.0/"
	 x="0px" y="0px" width="417.4px" height="85.8px" viewBox="0 0 417.4 85.8"
	 style="overflow:inherit;enable-background:new 0 0 417.4 85.8;" xml:space="preserve">
<style type="text/css">
	.st0{fill:#5CBDE7;}
</style>
<defs>
</defs>
<g>
	<g>
		<path class="st0" d="M28.7,12.7c0-1.6-0.6-2-2.7-2H7.4c-1.4,0-2.1-1.2-2.1-2.4S6,6,7.4,6H27c4.8,0,6.6,1.8,6.6,5.6v15.5
			c0,3.8-1.8,5.6-6.6,5.6H6.9c-1.4,0-2.1-1.2-2.1-2.4c0-1.2,0.7-2.4,2.1-2.4H26c2.1,0,2.7-0.4,2.7-2V12.7z"/>
		<path class="st0" d="M81.7,16.4c1.5,0,2.3,1.2,2.3,2.4c0,1.2-0.8,2.4-2.3,2.4H51.1c-1.5,0-2.3-1.2-2.3-2.4c0-1.2,0.8-2.4,2.3-2.4
			H81.7z"/>
		<path class="st0" d="M105.4,15.5c5.5-1.5,11-3.8,15.2-6.3c0.5-0.3,1-0.4,1.4-0.4c1.4,0,2.4,1.1,2.4,2.4c0,0.7-0.4,1.5-1.3,2.1
			c-5,3-11.5,5.4-17.8,6.8v7.4c0,2.4,1.3,3,6.3,3c4.5,0,8.8-0.3,12.4-1.1c0.2,0,0.4-0.1,0.6-0.1c1.5,0,2.4,1.2,2.4,2.4
			c0,1-0.6,1.9-1.9,2.2c-3.9,0.8-8.6,1.1-13.1,1.1c-8.7,0-11.6-1.7-11.6-6.9V4c0-1.4,1.3-2.1,2.5-2.1c1.3,0,2.5,0.7,2.5,2.1V15.5z"
			/>
		<path class="st0" d="M171.1,16.4c1.5,0,2.3,1.2,2.3,2.4c0,1.2-0.8,2.4-2.3,2.4h-30.7c-1.5,0-2.3-1.2-2.3-2.4
			c0-1.2,0.8-2.4,2.3-2.4H171.1z"/>
		<path class="st0" d="M195.5,17.3c-1.9,0.8-3.9,1.6-6.2,2.7c-0.4,0.2-0.7,0.3-1.1,0.3c-1.3,0-2.1-1.1-2.1-2.3
			c0-0.8,0.4-1.6,1.4-2.1c2.4-1.1,4.5-2,6.6-2.8l-2.4-7c-0.1-0.3-0.1-0.5-0.1-0.7c0-1.3,1.3-2,2.5-2c0.9,0,1.8,0.4,2.1,1.3l2.3,6.7
			c6-2.1,10.2-2.7,14-2.7c6.6,0,10.4,3,10.4,7.6c0,5.3-3.7,8.3-9,8.3c-1.7,0-2.9-0.1-4.2-0.4c-1.5-0.4-2.1-1.4-2.1-2.4
			c0-1.2,0.9-2.3,2.4-2.3c0.3,0,0.5,0,0.8,0.1c0.8,0.2,1.9,0.4,2.9,0.4c2.7,0,4.3-1.4,4.3-3.7c0-1.9-1.6-3.3-5.5-3.3
			c-3.3,0-7.1,0.7-12.5,2.6l6.3,18.5c0.1,0.3,0.1,0.5,0.1,0.8c0,1.3-1.2,2.2-2.4,2.2c-0.8,0-1.7-0.5-2.1-1.5L195.5,17.3z M211.4,5.5
			c0,1.3-1.1,2.4-2.4,2.4c-0.5,0-1.1-0.2-1.7-0.7c-1.3-1.1-2.6-2-4.1-2.9C202.4,3.8,202,3,202,2.4c0-1.2,1-2.3,2.4-2.3
			c0.5,0,1,0.1,1.5,0.4c1.6,0.8,2.8,1.6,4.5,3.1C211.1,4.2,211.4,4.9,211.4,5.5z"/>
		<path class="st0" d="M259.8,6.6c3.5,0,5.3,1.3,5.3,3.9c0,0.7-0.1,1.4-0.4,2.2c-2.9,9.7-11.3,19.3-20.7,24.4
			c-0.5,0.3-1,0.4-1.4,0.4c-1.3,0-2.3-1.1-2.3-2.4c0-0.8,0.4-1.7,1.5-2.3c4-2.2,7.7-5.3,10.8-8.8c-1.8-1.7-3.5-3-4.9-3.9
			c-0.8-0.5-1.1-1.2-1.1-1.8c0-1.1,1-2.2,2.3-2.2c0.5,0,1,0.1,1.5,0.5c1.6,1.1,3.3,2.3,5,3.9c1.8-2.7,3.3-5.5,4.2-8.3
			c0.1-0.2,0.1-0.4,0.1-0.6c0-0.5-0.3-0.7-1.1-0.7l-10.2,0.1c-2.1,3.2-4.6,6.1-7.1,8.3c-0.6,0.5-1.3,0.8-1.8,0.8
			c-1.3,0-2.4-1-2.4-2.2c0-0.6,0.3-1.3,1-2c3.9-3.5,7.9-9.1,10.1-14.2c0.5-1.1,1.4-1.6,2.4-1.6c1.2,0,2.4,0.8,2.4,2.1
			c0,0.3,0,0.6-0.2,1c-0.5,1.2-1.1,2.4-1.8,3.6L259.8,6.6z"/>
		<path class="st0" d="M287.5,10.1c1.3,0,2.6,0.9,2.6,2.3c0,0.3,0,0.5-0.1,0.8c-1.8,6-5.5,12.9-9.4,17.2c-0.7,0.8-1.5,1-2.2,1
			c-1.4,0-2.6-1.1-2.6-2.4c0-0.6,0.3-1.3,0.8-1.9c3.4-3.7,6.8-9.8,8.5-15.3C285.5,10.6,286.5,10.1,287.5,10.1z M297.4,11.5
			c0-1.2,1.1-2.2,2.4-2.2c0.7,0,1.5,0.3,2.1,1c3.7,4.2,8.1,11.4,10.3,16.8c0.2,0.5,0.3,0.9,0.3,1.3c0,1.5-1.3,2.5-2.6,2.5
			c-1,0-2-0.5-2.5-1.8c-2.1-4.9-6-11.8-9.5-16.1C297.5,12.5,297.4,12,297.4,11.5z M302.9,6c0-0.8,0.8-1.6,1.8-1.6
			c0.4,0,0.8,0.1,1.2,0.5c1.1,1,2.4,2.4,3.3,3.7c0.3,0.4,0.4,0.8,0.4,1.1c0,0.9-0.8,1.7-1.7,1.7c-0.5,0-1-0.3-1.4-0.8
			c-1-1.4-2.1-2.6-3.1-3.6C303,6.6,302.9,6.3,302.9,6z M307,2.6c0-0.8,0.8-1.6,1.8-1.6c0.4,0,0.8,0.2,1.3,0.5
			c1.1,0.9,2.4,2.2,3.2,3.4c0.3,0.4,0.5,0.8,0.5,1.3c0,0.9-0.8,1.6-1.7,1.6c-0.5,0-1.1-0.2-1.5-0.8c-1-1.2-2.1-2.5-3.1-3.5
			C307.1,3.3,307,2.9,307,2.6z"/>
		<path class="st0" d="M351.3,12.7c0-1.6-0.6-2-2.7-2h-18.7c-1.4,0-2.1-1.2-2.1-2.4s0.7-2.4,2.1-2.4h19.6c4.8,0,6.6,1.8,6.6,5.6
			v15.5c0,3.8-1.8,5.6-6.6,5.6h-20.1c-1.4,0-2.1-1.2-2.1-2.4c0-1.2,0.7-2.4,2.1-2.4h19.2c2.1,0,2.7-0.4,2.7-2V12.7z"/>
		<path class="st0" d="M370.9,21.7c0-9.6,7.9-17.4,19.5-17.4c10.2,0,16.2,6.4,16.2,14.8c0,7.6-4.5,13.2-11.7,15.5
			c-0.3,0.1-0.7,0.2-1,0.2c-1.4,0-2.4-1.2-2.4-2.4c0-0.9,0.5-1.8,1.8-2.3c6-2.1,8.4-5.8,8.4-11c0-5.5-3.7-10-10.1-10.5
			c-0.4,7-2.1,13.3-4.7,17.9c-2.3,4.1-4.8,5.3-8,5.3C374.5,31.7,370.9,28.3,370.9,21.7z M375.8,21.7c0,3.9,1.5,5.3,3,5.3
			c1.3,0,2.4-0.7,3.7-2.8c2.1-3.7,3.7-9.2,4.2-15.3C380.4,10.1,375.8,15.5,375.8,21.7z"/>
		<path class="st0" d="M3.6,54.5c-0.9,0-1.4-0.8-1.4-1.6c0-0.8,0.5-1.6,1.4-1.6h8.7c-0.4-0.6-0.9-1.2-1.4-1.7
			c-0.3-0.4-0.4-0.7-0.4-1.1c0-1,1-1.8,2.1-1.8c0.5,0,1.1,0.2,1.6,0.7s1.2,1.3,1.7,1.9c0.3,0.4,0.4,0.8,0.4,1.1
			c0,0.3-0.1,0.6-0.3,0.9h5.2c0.8-1.2,1.5-2.3,2.1-3.5c0.4-0.9,1.2-1.2,2-1.2c1.1,0,2.1,0.7,2.1,1.7c0,0.3-0.1,0.6-0.3,0.9
			c-0.4,0.8-0.8,1.4-1.3,2.1h9.5c1,0,1.4,0.8,1.4,1.6c0,0.8-0.5,1.6-1.4,1.6H21.2v1.9h10.6c0.9,0,1.4,0.8,1.4,1.6
			c0,0.8-0.5,1.6-1.4,1.6H21.2v1.9h15.4c1,0,1.4,0.8,1.4,1.6c0,0.8-0.5,1.7-1.4,1.7H13.9c-0.3,0.9-0.7,1.7-1.1,2.6
			c0.7-0.2,1.5-0.3,2.5-0.3h12.3c4,0,5.3,1.3,5.3,4.2v10.2c0,2.9-1.3,4.2-5.3,4.2H15.3c-4,0-5.3-1.2-5.3-4.2v-8.8
			c-1.8,2.9-3.8,5.5-6,7.6c-0.5,0.5-1.1,0.7-1.7,0.7c-1.2,0-2.2-1-2.2-2.1c0-0.5,0.2-1.1,0.8-1.6c3.7-3.3,6.6-7.6,8.4-12.5H1.6
			c-0.9,0-1.4-0.8-1.4-1.7c0-0.8,0.5-1.6,1.4-1.6h15.2v-1.9H6.5c-0.9,0-1.4-0.8-1.4-1.6c0-0.8,0.5-1.6,1.4-1.6h10.3v-1.9H3.6z
			 M28.5,71.5c0-0.8-0.3-1.1-1.4-1.1H15.8c-1.1,0-1.3,0.3-1.3,1.1v1.1h14.1V71.5z M14.4,77.5h14.1v-2.1H14.4V77.5z M27.1,82.6
			c1.1,0,1.4-0.3,1.4-1.1v-1.1H14.4v1.1c0,0.9,0.3,1.1,1.3,1.1H27.1z"/>
		<path class="st0" d="M79.1,58.8c3.4,0,5.1,1.6,5.1,4.2v5.3c0,2.7-1.7,3.9-5.1,3.9H59.9v6.6c0,1.8,0.7,2.4,10.8,2.4
			c11.7,0,13.1-0.4,13.5-4.2c0.2-1.3,1.2-1.8,2.2-1.8c1.2,0,2.3,0.7,2.3,2v0.2c-0.6,6.7-3.2,8.1-17.9,8.1c-13.6,0-15.4-1-15.4-5.8
			V63.4c0-2.7,2.1-4.6,5.2-4.6h7.6c0.9-1.1,1.7-2.3,2.2-3.3c0.1-0.3,0.2-0.4,0.2-0.5c0-0.3-0.3-0.3-0.8-0.3h-8.1
			c-2.6,3-5.8,5.8-8.5,7.6c-0.5,0.3-1,0.5-1.5,0.5c-1.2,0-2.2-1-2.2-2.1c0-0.7,0.3-1.4,1.2-1.9c3.9-2.5,7.9-6.6,10.5-11
			c0.5-0.8,1.2-1.1,1.9-1.1c1.3,0,2.5,0.9,2.5,2.1c0,0.3-0.1,0.7-0.3,1.1c-0.2,0.3-0.4,0.7-0.7,1.1h7.1c2.7,0,4.3,1.1,4.3,2.9
			c0,0.7-0.3,1.4-0.7,2.2c-0.5,0.9-1.1,1.9-1.9,2.9H79.1z M61.7,62.8c-1.4,0-1.8,0.3-1.8,1.5v4h7.7v-5.5H61.7z M72,68.3h6.2
			c1.5,0,1.7-0.3,1.7-1.4v-2.7c0-1.1-0.3-1.4-1.6-1.4H72V68.3z"/>
		<path class="st0" d="M99,60.1c0-1.1,1.1-2.1,2.4-2.1c0.5,0,1,0.1,1.5,0.5c1.3,0.8,2.9,2.2,3.9,3.3c0.5,0.6,0.8,1.2,0.8,1.7
			c0,1.3-1.1,2.3-2.4,2.3c-0.5,0-1.1-0.2-1.6-0.7c-1.1-1.1-2.7-2.6-3.7-3.3C99.2,61.2,99,60.6,99,60.1z M107.8,69.6
			c1.2,0,2.5,0.8,2.5,2.1c0,0.3,0,0.5-0.1,0.8c-1.3,3.9-3.4,8.4-5.3,11.3c-0.6,0.9-1.5,1.3-2.3,1.3c-1.3,0-2.4-0.9-2.4-2.1
			c0-0.4,0.1-0.9,0.5-1.4c1.8-2.8,3.7-6.9,5-10.5C106.1,70.1,107,69.6,107.8,69.6z M102.2,50.1c0-1.1,1-2.1,2.3-2.1
			c0.5,0,1,0.2,1.5,0.5c1.2,0.8,2.6,2.1,3.7,3.2c0.6,0.6,0.9,1.2,0.9,1.8c0,1.2-1.1,2.2-2.4,2.2c-0.6,0-1.1-0.3-1.7-0.8
			c-1.2-1.2-2.5-2.4-3.5-3.2C102.5,51.2,102.2,50.6,102.2,50.1z M123.6,53.5c-0.3,1.6-0.6,3.2-1,4.8h13.2c1.1,0,1.6,1,1.6,2
			c0,1-0.5,2-1.6,2h-14.1c-0.3,1.4-0.7,2.9-1.1,4.3h7.6c3.8,0,5.4,1.4,5.4,4.4c0,2.5-0.5,6.1-1.3,9.2c-1.1,4.1-3.1,5.3-6.4,5.3
			c-1,0-2.2-0.1-3.2-0.3c-1.3-0.3-2-1.3-2-2.3c0-1.1,0.8-2.2,2.1-2.2c0.1,0,0.3,0,0.5,0c0.9,0.2,1.8,0.3,2.5,0.3
			c1.1,0,1.6-0.4,2.1-1.8c0.8-2.5,1.2-5.1,1.2-7.6c0-0.8-0.3-1-1.4-1h-8.1c-0.1,0.5-0.3,0.9-0.4,1.3c-0.4,1.2-1.4,1.7-2.4,1.7
			c-1.2,0-2.4-0.8-2.4-2c0-0.3,0-0.5,0.2-0.8c1-2.5,1.8-5.4,2.6-8.4h-4.9c-1.1,0-1.6-1-1.6-2c0-1,0.5-2,1.6-2h5.8
			c0.4-1.6,0.7-3.2,1-4.8h-4.6c-1.1,0-1.6-1-1.6-2c0-1,0.5-2,1.6-2h18.9c1.1,0,1.6,1,1.6,2c0,1-0.5,2-1.6,2H123.6z"/>
		<path class="st0" d="M161.6,62.3c5.8-5.8,9.1-8,12.1-8c3.7,0,5.3,2.4,5.3,5.6v0.6l-0.8,14.8v0.2c0,0.9,0.3,1.1,1,1.1
			c0.9,0,2.1-0.4,4-2.5c0.6-0.6,1.3-0.9,1.9-0.9c1.3,0,2.4,1,2.4,2.3c0,0.5-0.2,1.2-0.8,1.8c-2.7,3-5.3,4.2-7.9,4.2
			c-3.6,0-5.5-1.5-5.5-5.2v-0.6l0.8-14.3v-0.4c0-1.3-0.4-1.8-1.3-1.8c-1.8,0-4.8,2.4-11.3,9.1l0,14.2c0,1.4-1.1,2.1-2.3,2.1
			c-1.1,0-2.2-0.7-2.2-2.1l0.1-9.5l-3.2,4.9c-0.5,0.7-1.1,1.1-1.8,1.1c-1.2,0-2.3-1-2.3-2.2c0-0.4,0.1-0.8,0.4-1.2
			c2.1-2.9,4.5-7.1,7-11.8l0.1-2.6l-5,0.9c-0.1,0-0.3,0-0.4,0c-1.2,0-1.9-1.1-1.9-2.2c0-1,0.5-1.9,1.6-2.1l5.7-1l0.1-6.6
			c0-1.3,1.2-2,2.3-2c1.1,0,2.3,0.7,2.2,2l-0.1,6c1.1,0,1.4,0.8,1.4,1.3c0,0.8-0.3,1.5-1.5,2.9L161.6,62.3z"/>
		<path class="st0" d="M203.3,82.1c-0.5,1-1.4,1.3-2.3,1.3c-1.2,0-2.3-0.8-2.3-2.1c0-0.4,0.1-0.8,0.4-1.3c2.6-4.7,4.8-10.4,6.4-16.4
			c-1.7,0.2-3.4,0.5-5,0.8c-0.2,0-0.4,0-0.5,0c-1.3,0-2-1.1-2-2.1c0-1,0.6-1.9,1.9-2.2c2.1-0.4,4.5-0.7,6.7-1
			c0.5-2.6,0.9-5.2,1.2-7.7c0.2-1.3,1.2-2,2.3-2c1.2,0,2.4,0.8,2.4,2.1v0.3c-0.3,2.3-0.6,4.6-1.1,6.9c0.8,0,1.6,0,2.3,0
			c5.4,0,7.4,2.4,7.4,9c0,3.9-0.4,7.5-1.1,10c-1.3,4.8-3.2,6.6-7.5,6.6c-1,0-2.1-0.1-2.9-0.2c-1.4-0.2-2.1-1.3-2.1-2.3
			c0-1.2,0.8-2.3,2.1-2.3c0.1,0,0.2,0,0.3,0c0.8,0.1,1.4,0.2,2.3,0.2c1.5,0,2.2-0.5,2.9-2.9c0.7-2.4,1.1-5.7,1.1-9.1
			c0-3.8-0.7-4.8-2.7-4.8c-0.9,0-2,0-3.1,0.1C208.7,70.1,206.3,76.9,203.3,82.1z M233.8,65.1c0.3,0.5,0.3,1,0.3,1.4
			c0,1.5-1.2,2.4-2.4,2.4c-0.8,0-1.7-0.5-2.3-1.6c-1.5-3-3.7-6.3-6-8.7c-0.5-0.5-0.7-1.1-0.7-1.5c0-1.2,1.2-2.1,2.4-2.1
			c0.7,0,1.3,0.3,1.9,0.8C229.7,58.5,232.3,62.3,233.8,65.1z M226.1,50.6c0-0.8,0.8-1.6,1.8-1.6c0.4,0,0.8,0.1,1.2,0.5
			c1.1,1,2.4,2.4,3.3,3.7c0.3,0.4,0.4,0.8,0.4,1.1c0,0.9-0.8,1.7-1.7,1.7c-0.5,0-1-0.3-1.4-0.8c-1-1.4-2.1-2.6-3.1-3.6
			C226.2,51.3,226.1,50.9,226.1,50.6z M230.2,47.3c0-0.8,0.8-1.6,1.8-1.6c0.4,0,0.8,0.2,1.3,0.5c1.1,0.9,2.4,2.2,3.2,3.4
			c0.3,0.4,0.5,0.8,0.5,1.3c0,0.9-0.8,1.6-1.7,1.6c-0.5,0-1.1-0.2-1.5-0.8c-1-1.2-2.1-2.5-3.1-3.5C230.4,48,230.2,47.6,230.2,47.3z"
			/>
		<path class="st0" d="M279.3,50.8c1.1,0,1.6,1,1.6,1.9c0,1-0.5,1.9-1.6,1.9h-25.2c-1.5,2.1-3.2,4.2-4.8,5.7
			c-0.6,0.5-1.2,0.8-1.8,0.8c-1.2,0-2.2-0.9-2.2-2.1c0-0.5,0.3-1.1,0.8-1.6c2.6-2.4,5.3-6.1,7-9.5c0.5-0.9,1.3-1.3,2.1-1.3
			c1.1,0,2.2,0.7,2.2,1.8c0,0.3,0,0.6-0.3,1c-0.2,0.4-0.5,0.9-0.7,1.3H279.3z M268.6,78.5c0.8,0.5,1.1,1.3,1.1,2
			c0,1.2-1,2.3-2.2,2.3c-0.5,0-1-0.2-1.5-0.5c-1.8-1.4-3.7-2.7-5.7-4c-3.2,2.7-6.8,5.1-10.5,6.9c-0.4,0.2-0.8,0.3-1.2,0.3
			c-1.2,0-2.1-1-2.1-2.1c0-0.8,0.5-1.6,1.5-2.1c3-1.4,5.9-3.3,8.4-5.4c-1.6-0.9-3.2-1.8-4.6-2.5c-0.9-0.4-1.3-1.1-1.3-1.8
			c0-1,0.9-2.1,2.2-2.1c0.4,0,0.8,0.1,1.2,0.3c1.8,0.8,3.9,1.8,5.9,3c1.3-1.4,2.5-2.8,3.5-4.2c0.5-0.7,1.2-1,1.9-1
			c1.2,0,2.3,0.9,2.3,2.1c0,0.4-0.1,0.8-0.4,1.3c-1,1.5-2.1,2.9-3.4,4.2C265.3,76.1,267,77.3,268.6,78.5z M272,62.1
			c3.9,0,5.2,1.3,5.3,4.5c0.1,4.5,0.8,9.2,1.7,11.8c0.7,2.1,1,2.4,1.3,2.4c0.3,0,0.6-0.5,0.8-2.4c0.1-1.1,0.9-1.6,1.8-1.6
			c1,0,2,0.6,2,1.8c0,1-0.4,3.2-1,4.5c-0.7,1.5-1.8,2.5-3.5,2.5c-2.5,0-4.3-1.4-5.7-5.6c-1-3.2-1.9-8.1-1.9-12.5
			c0-1.1-0.3-1.4-1.8-1.4h-21.8c-1,0-1.6-1-1.6-2c0-1,0.5-2,1.6-2H272z M255.6,60.2c-1,0-1.6-0.9-1.6-1.8c0-0.9,0.5-1.8,1.6-1.8
			h18.7c1.1,0,1.6,0.9,1.6,1.8c0,0.9-0.5,1.8-1.6,1.8H255.6z"/>
		<path class="st0" d="M301.8,50.6c1.2,0,2.4,0.7,2.4,2.1c0,0.1,0,0.3,0,0.5c-1.4,6.9-1.9,12.6-1.9,18.6c0,3.5,0.5,7.4,0.8,9.9
			c0,0.1,0,0.3,0,0.3c0,1.4-1.2,2.2-2.4,2.2c-1.1,0-2.2-0.6-2.4-2.1c-0.3-2.7-0.7-6.8-0.7-10.4c0-6.3,0.5-11.9,2-19.4
			C299.7,51.2,300.8,50.6,301.8,50.6z M320.9,76.5c1.9,0,4.2-0.2,6.3-0.6c0.2,0,0.3,0,0.5,0c1.4,0,2.2,1.2,2.2,2.4
			c0,1-0.5,2-1.8,2.2c-2.5,0.5-5,0.7-7.3,0.7c-7.8,0-11-2.4-11.5-7.4v-0.2c0-1.5,1.2-2.4,2.4-2.4c1,0,2,0.6,2.1,1.8
			C314.3,75.5,315.6,76.5,320.9,76.5z M325.2,54.3c1.5,0,2.3,1.1,2.3,2.2c0,1.1-0.7,2.1-2.1,2.3c-3.7,0.5-7.9,0.8-11.8,0.9
			c-1.6,0-2.4-1.1-2.4-2.3c0-1.1,0.8-2.2,2.3-2.3c3.9-0.1,7.9-0.4,11.6-0.9H325.2z"/>
		<path class="st0" d="M352.2,49.6c0.3-1.3,1.3-1.8,2.3-1.8c1.2,0,2.3,0.7,2.3,2.1c0,0.2,0,0.4,0,0.5c-0.3,1.6-0.8,3.3-1.2,5
			c1.3-0.2,2.5-0.4,3.7-0.6c0.2,0,0.3,0,0.5,0c1.3,0,2.2,1.1,2.2,2.2c0,0.9-0.5,1.8-1.9,2.1c-1.8,0.4-3.9,0.7-5.9,1
			c-1.8,5.1-4,10.1-6.5,14.2c-0.6,1.1-1.5,1.5-2.4,1.5c-1.3,0-2.4-1-2.4-2.2c0-0.5,0.1-1,0.5-1.5c2.1-3.4,4.1-7.3,5.7-11.4
			c-1.6,0.2-3.1,0.3-4.4,0.3c-1.4,0-2.2-1.1-2.2-2.3c0-1.1,0.7-2.1,2-2.2c1.9-0.1,4-0.2,6.1-0.4C351.2,53.8,351.7,51.7,352.2,49.6z
			 M359.7,84.8c-5,0-8-2.2-8-6.1c0-3.4,2.9-6.1,8.2-6.1c0.7,0,1.3,0,2.1,0.1c-0.3-1.9-0.4-3.4-0.4-4.5c0-1.8,0.1-2.7,0.3-4.1
			c0.2-1.2,1.2-1.7,2.2-1.7c1.2,0,2.4,0.7,2.4,1.9c0,0.1,0,0.2,0,0.3c-0.2,1.2-0.3,2.3-0.3,3.4c0,1.2,0.1,2.8,0.6,5.5
			c2.7,0.8,5.5,2,7.9,3.7c0.8,0.5,1.1,1.3,1.1,2c0,1.2-1,2.3-2.2,2.3c-0.4,0-0.9-0.2-1.4-0.5c-1.6-1.1-3.2-2-4.8-2.7
			C367.2,83.1,363.7,84.8,359.7,84.8z M362.7,77.9c0-0.4,0-0.7,0-1.1c-0.9-0.2-1.8-0.3-2.6-0.3c-2.9,0-3.9,0.9-3.9,2.1
			c0,1.2,0.8,1.9,3.6,1.9C361.6,80.6,362.7,79.8,362.7,77.9z M375.6,58.3c1,0.6,1.4,1.4,1.4,2.2c0,1.2-1,2.3-2.2,2.3
			c-0.4,0-0.8-0.1-1.3-0.4c-2-1.1-4.2-2.2-6-2.9c-1-0.4-1.5-1.1-1.5-1.9c0-1.1,1-2.3,2.4-2.3c0.3,0,0.5,0,0.8,0.1
			C371.2,56,373.8,57.2,375.6,58.3z"/>
		<path class="st0" d="M401.2,63.9c1.8-0.7,3.7-1,5.3-1c6.6,0,10.8,3.6,10.8,9.4c0,7.4-5.3,12.1-13.5,12.1c-5.8,0-9.4-2.9-9.4-6.7
			c0-3.2,2.1-5.4,5.8-5.4c4,0,6.8,2.7,8.1,6.9c2.6-1.3,4.1-3.7,4.1-6.8c0-3-2.4-5.4-6.4-5.4c-4.2,0-8.4,1.5-13.5,5.5
			c-0.6,0.5-1.2,0.7-1.8,0.7c-1.3,0-2.4-1.1-2.4-2.3c0-0.7,0.3-1.4,1-2c4.9-3.8,10.3-9.4,14.2-14.2c-2.1,0.3-4.8,0.6-6.9,0.8
			c-0.2,0-1.3,0.1-1.8,0.1c-1.3,0-2.1-1.1-2.1-2.3c0-1,0.7-2.1,2.1-2.2c3.4-0.2,7.9-0.7,11.9-1.3c0.2,0,0.4,0,0.6,0
			c1.7,0,2.9,1.2,2.9,2.6c0,0.6-0.3,1.3-0.8,2c-2.5,3.2-5.7,6.8-8.4,9.5L401.2,63.9z M404,80.1c-0.7-2.7-2-4.1-3.7-4.1
			c-0.9,0-1.5,0.7-1.5,1.6c0,1.4,1.6,2.5,4.9,2.5H404z"/>
	</g>
</g>
</svg>
