<!-- Generator: Adobe Illustrator 22.1.0, SVG Export Plug-In  -->
<svg version="1.1"
	 xmlns="http://www.w3.org/2000/svg" xmlns:xlink="http://www.w3.org/1999/xlink" xmlns:a="http://ns.adobe.com/AdobeSVGViewerExtensions/3.0/"
	 x="0px" y="0px" width="122px" height="122px" viewBox="0 0 122 122" style="enable-background:new 0 0 122 122;"
	 xml:space="preserve">
<style type="text/css">
	.st0{fill:#FFFFFF;}
</style>
<defs>
</defs>
<g>
	<path class="st0" d="M61,4c31.4,0,57,25.6,57,57s-25.6,57-57,57S4,92.4,4,61S29.6,4,61,4 M61,0C27.3,0,0,27.3,0,61s27.3,61,61,61
		s61-27.3,61-61S94.7,0,61,0L61,0z"/>
</g>
<g>
	<g>
		<g>
			<path class="st0" d="M42.3,41c0.9-0.2,1.8-0.3,2.7-0.3c2.6,0,4.2,1.2,4.2,3.2c0,2.1-1.4,3.4-3.7,3.7c-0.1,0-0.1,0-0.2,0
				c-0.5,0-0.8-0.4-0.8-0.9c0-0.4,0.2-0.7,0.7-0.8c1.6-0.3,2.2-1,2.2-2c0-0.9-0.8-1.6-2.3-1.6c-1,0-1.9,0.2-2.8,0.4v2.8
				c0,1.7-0.7,2.3-2.2,2.3c-1.4,0-3-1.1-3-2.5c0-1.2,0.7-2.4,3.5-3.7v-2.7C39.8,39,39,39,38.4,39c-0.5,0-0.8-0.4-0.8-0.8
				s0.3-0.8,0.8-0.8c0.6,0,1.4-0.1,2.2-0.2v-2.4c0-0.5,0.4-0.8,0.9-0.8s0.9,0.3,0.9,0.8V37c0.5-0.1,1.1-0.2,1.5-0.3
				c0.1,0,0.2,0,0.3,0c0.5,0,0.8,0.4,0.8,0.8c0,0.3-0.2,0.7-0.7,0.8c-0.6,0.1-1.3,0.3-2,0.4V41z M40.6,43.3
				c-1.4,0.8-1.7,1.3-1.7,1.9c0,0.5,0.6,0.8,1.2,0.8c0.5,0,0.5-0.3,0.5-0.7V43.3z M49.9,37.8c0.3,0.2,0.4,0.5,0.4,0.8
				c0,0.5-0.4,0.9-0.9,0.9c-0.2,0-0.4-0.1-0.7-0.3c-0.5-0.5-1.3-1.1-1.9-1.4c-0.3-0.2-0.4-0.4-0.4-0.7c0-0.5,0.4-0.9,0.9-0.9
				c0.1,0,0.3,0,0.4,0.1C48.3,36.7,49.2,37.3,49.9,37.8z"/>
			<path class="st0" d="M53.9,37.3c0.3,0,0.6,0.2,0.6,0.6c0,0.4-0.2,1.6-0.4,2.4c-0.1,0.4-0.4,0.5-0.6,0.5c-0.3,0-0.6-0.2-0.6-0.6
				c0-0.1,0-0.1,0-0.2c0.2-0.6,0.4-1.5,0.4-2.2C53.4,37.5,53.6,37.3,53.9,37.3z M56.5,48.1c0,0.5-0.4,0.7-0.8,0.7
				c-0.4,0-0.9-0.2-0.9-0.7V34.5c0-0.5,0.4-0.7,0.9-0.7c0.4,0,0.8,0.2,0.8,0.7V48.1z M58.1,38.9V39c0,0.4-0.3,0.6-0.6,0.6
				c-0.3,0-0.5-0.2-0.6-0.5c-0.1-0.4-0.2-1.1-0.3-1.4c0-0.1,0-0.1,0-0.2c0-0.3,0.3-0.5,0.6-0.5c0.2,0,0.5,0.1,0.6,0.4
				C57.9,37.8,58.1,38.4,58.1,38.9z M60.8,37.5c0.1,0.2,0.1,0.3,0.1,0.5c0,0.5-0.4,0.8-0.9,0.8c-0.3,0-0.7-0.2-0.9-0.7
				c-0.2-0.6-0.6-1.4-1-2C58,36.1,58,35.9,58,35.8c0-0.4,0.4-0.8,0.9-0.8c0.3,0,0.5,0.1,0.8,0.4C60.1,36.1,60.5,36.9,60.8,37.5z
				 M60.2,48.1c-1.5,0-2.1-0.5-2.1-1.8v-5c0-0.5,0.4-0.7,0.9-0.7s0.9,0.2,0.9,0.7v4.7c0,0.4,0.2,0.5,0.5,0.5H65
				c0.3,0,0.5-0.1,0.5-0.5v-4.6c0-0.5,0.4-0.7,0.9-0.7s0.9,0.2,0.9,0.7v4.9c0,1.3-0.6,1.8-2.1,1.8H60.2z M64.8,44.4
				c0.2,0.2,0.3,0.4,0.3,0.6c0,0.4-0.4,0.8-0.8,0.8c-0.2,0-0.4-0.1-0.6-0.3c-0.2-0.3-0.5-0.5-0.8-0.8c-0.4,0.5-0.9,1-1.4,1.4
				c-0.2,0.2-0.4,0.2-0.6,0.2c-0.4,0-0.8-0.4-0.8-0.8c0-0.2,0.1-0.4,0.3-0.6c0.4-0.4,0.9-0.8,1.3-1.3c-0.3-0.3-0.7-0.5-1-0.8
				c-0.3-0.2-0.4-0.4-0.4-0.6c0-0.4,0.4-0.8,0.8-0.8c0.1,0,0.3,0,0.4,0.1c0.4,0.2,0.7,0.5,1.1,0.8c0.3-0.5,0.6-0.9,0.8-1.4
				c0.2-0.4,0.5-0.5,0.8-0.5c0.4,0,0.8,0.3,0.8,0.7c0,0.1,0,0.2-0.1,0.4c-0.3,0.6-0.7,1.2-1.1,1.9C64.2,43.7,64.5,44,64.8,44.4z
				 M63.6,37c0,0.1,0.1,0.2,0.1,0.3c0,0.5-0.4,0.9-0.9,0.9c-0.3,0-0.6-0.2-0.8-0.6c-0.2-0.7-0.6-1.6-0.9-2.2
				c-0.1-0.1-0.1-0.3-0.1-0.4c0-0.4,0.4-0.7,0.8-0.7c0.3,0,0.6,0.1,0.8,0.4C62.9,35.4,63.3,36.3,63.6,37z M65.4,39.5
				c-0.2,0.3-0.5,0.5-0.8,0.5c-0.4,0-0.9-0.3-0.9-0.8c0-0.2,0-0.3,0.2-0.5c0.6-1,1.2-2.3,1.7-3.6c0.1-0.4,0.4-0.6,0.8-0.6
				c0.4,0,0.9,0.3,0.9,0.8c0,0.1,0,0.2-0.1,0.4C66.7,37,66,38.4,65.4,39.5z"/>
			<path class="st0" d="M75.8,35c0.2,0,0.3,0,0.5,0c1,0,1.6,0.6,1.6,1.4c0,0.1,0,0.3,0,0.4c-0.2,1.2-0.5,2.4-0.8,3.5
				c1.1,0.1,2.1,0.4,3.1,0.8c0.2-0.8,0.3-1.6,0.3-2.4c0-0.5,0.4-0.8,0.9-0.8c0.5,0,0.9,0.3,0.9,0.8c0,0.9-0.2,2-0.4,3
				c0.8,0.4,1.6,0.8,2.4,1.3c0.3,0.2,0.4,0.5,0.4,0.8c0,0.5-0.4,1-0.9,1c-0.2,0-0.4,0-0.6-0.2c-0.6-0.4-1.3-0.8-1.9-1.1
				c-0.6,1.6-1.5,3-2.6,4.1c-0.3,0.3-0.5,0.4-0.8,0.4c-0.5,0-0.9-0.4-0.9-0.9c0-0.2,0.1-0.4,0.3-0.6c1-1,1.8-2.2,2.3-3.7
				c-1-0.4-2.1-0.7-3.2-0.9c-0.3,0.8-0.7,1.6-1,2.3c-0.8,1.6-1.6,2.1-2.8,2.1c-1.3,0-2.3-0.9-2.3-2.5c0-2,1.8-3.6,4.5-3.6h0.4
				c0.3-1,0.6-2.1,0.8-3.1c0,0,0-0.1,0-0.1c0-0.1-0.1-0.2-0.3-0.1l-2.2,0.4c-0.1,0-0.1,0-0.2,0c-0.5,0-0.8-0.4-0.8-0.9
				c0-0.4,0.2-0.8,0.8-0.8L75.8,35z M73.8,43.6c0.3-0.5,0.6-1.2,0.8-1.9c-1.7,0-2.5,1-2.5,2c0,0.6,0.3,0.8,0.6,0.8
				C73.1,44.5,73.4,44.4,73.8,43.6z"/>
		</g>
	</g>
	<g>
		<g>
			<path class="st0" d="M55.9,83.1c-0.4,1-1,1.8-1.7,2.5s-1.6,1.3-2.5,1.7c-1,0.4-2,0.6-3.1,0.6h-1.4c-1.1,0-2.1-0.2-3.1-0.6
				s-1.8-1-2.5-1.7s-1.3-1.6-1.7-2.5c-0.4-1-0.6-2-0.6-3.1V62.7c0-1.1,0.2-2.1,0.6-3.1c0.4-1,1-1.8,1.7-2.5s1.6-1.3,2.5-1.7
				c1-0.4,2-0.6,3.1-0.6h1.4c1.1,0,2.1,0.2,3.1,0.6c1,0.4,1.8,1,2.5,1.7s1.3,1.6,1.7,2.5c0.4,1,0.6,2,0.6,3.1V80
				C56.5,81.1,56.3,82.1,55.9,83.1z M53.6,62.7c0-0.7-0.1-1.4-0.4-2c-0.3-0.6-0.6-1.2-1.1-1.6c-0.5-0.5-1-0.8-1.6-1.1
				c-0.6-0.3-1.3-0.4-2-0.4h-1.1c-0.7,0-1.4,0.1-2,0.4c-0.6,0.3-1.2,0.6-1.6,1.1c-0.5,0.5-0.8,1-1.1,1.6c-0.3,0.6-0.4,1.3-0.4,2V80
				c0,0.7,0.1,1.4,0.4,2c0.3,0.6,0.6,1.2,1.1,1.6s1,0.8,1.6,1.1c0.6,0.3,1.3,0.4,2,0.4h1.1c0.7,0,1.4-0.1,2-0.4
				c0.6-0.3,1.2-0.6,1.6-1.1c0.5-0.5,0.8-1,1.1-1.6c0.3-0.6,0.4-1.3,0.4-2V62.7z"/>
			<path class="st0" d="M82.4,83.1c-0.4,1-1,1.8-1.7,2.5s-1.6,1.3-2.5,1.7c-1,0.4-2,0.6-3.1,0.6h-1.4c-1.1,0-2.1-0.2-3.1-0.6
				s-1.8-1-2.5-1.7s-1.3-1.6-1.7-2.5c-0.4-1-0.6-2-0.6-3.1v-0.5h2.9V80c0,0.7,0.1,1.4,0.4,2c0.3,0.6,0.6,1.2,1.1,1.6s1,0.8,1.6,1.1
				c0.6,0.3,1.3,0.4,2,0.4h1.1c0.7,0,1.4-0.1,2-0.4c0.6-0.3,1.2-0.6,1.6-1.1c0.5-0.5,0.8-1,1.1-1.6c0.3-0.6,0.4-1.3,0.4-2v-6.2
				c0-0.7-0.1-1.4-0.4-2c-0.3-0.6-0.6-1.2-1.1-1.6c-0.5-0.5-1-0.8-1.6-1.1c-0.6-0.3-1.3-0.4-2-0.4h-1.1c-0.7,0-1.4,0.1-2,0.4
				c-0.6,0.3-1.2,0.6-1.6,1.1s-0.8,1-1.1,1.6c-0.3,0.6-0.4,1.3-0.4,2h-2.9l1.8-18.5h13.8V58H70.3l-1.1,9.9c0.7-0.7,1.5-1.2,2.4-1.5
				c0.9-0.4,1.9-0.6,2.9-0.6h0.4c1.1,0,2.1,0.2,3.1,0.6c1,0.4,1.8,1,2.5,1.7s1.3,1.6,1.7,2.5c0.4,1,0.6,2,0.6,3.1V80
				C83,81.1,82.8,82.1,82.4,83.1z"/>
		</g>
	</g>
</g>
</svg>
