<!-- Generator: Adobe Illustrator 22.1.0, SVG Export Plug-In  -->
<svg version="1.1"
	 xmlns="http://www.w3.org/2000/svg" xmlns:xlink="http://www.w3.org/1999/xlink" xmlns:a="http://ns.adobe.com/AdobeSVGViewerExtensions/3.0/"
	 x="0px" y="0px" width="593.7px" height="96.5px" viewBox="0 0 593.7 96.5" style="enable-background:new 0 0 593.7 96.5;"
	 xml:space="preserve">
<style type="text/css">
	.st0{fill:#333333;}
</style>
<defs>
</defs>
<g>
	<path class="st0" d="M11.8,2.7c0.6,0,1,0.4,1,1c0,0.6-0.4,1-1,1H4.7C4,4.7,3.5,5.2,3.5,5.9v20.7c0,0.6-0.5,0.9-1.1,0.9
		c-0.6,0-1.1-0.4-1.1-0.9V5.5c0-1.6,1.2-2.8,2.8-2.8H11.8z"/>
	<path class="st0" d="M44.9,9.2c3.7,0,5.5,1.4,5.5,4c0,0.7-0.1,1.5-0.4,2.3c-3.1,10.2-11.9,20.2-21.7,25.5c-0.5,0.3-1,0.4-1.5,0.4
		c-1.4,0-2.4-1.2-2.4-2.5c0-0.9,0.4-1.8,1.6-2.4c4.2-2.3,8.1-5.5,11.4-9.2c-1.9-1.8-3.7-3.1-5.1-4.1c-0.8-0.6-1.1-1.2-1.1-1.9
		c0-1.2,1.1-2.3,2.4-2.3c0.5,0,1,0.1,1.5,0.5c1.7,1.1,3.5,2.4,5.3,4c1.9-2.8,3.5-5.8,4.4-8.7c0.1-0.2,0.1-0.4,0.1-0.6
		c0-0.5-0.4-0.7-1.2-0.7l-10.7,0.1c-2.2,3.3-4.8,6.4-7.4,8.7c-0.6,0.6-1.3,0.8-1.9,0.8c-1.4,0-2.5-1.1-2.5-2.3
		c0-0.7,0.3-1.4,1.1-2.1c4.1-3.7,8.3-9.5,10.6-14.9c0.5-1.2,1.5-1.7,2.5-1.7c1.3,0,2.5,0.9,2.5,2.2c0,0.3,0,0.7-0.2,1.1
		c-0.5,1.2-1.1,2.5-1.8,3.7L44.9,9.2z"/>
	<path class="st0" d="M76.3,19.6c-3.7,2.9-7.5,5.4-11.1,7.4c-0.5,0.3-1.1,0.4-1.5,0.4c-1.4,0-2.4-1.2-2.4-2.5c0-0.9,0.5-1.8,1.7-2.5
		c8-4.2,16-11,21.4-18c0.6-0.8,1.4-1.1,2.2-1.1c1.4,0,2.7,1.1,2.7,2.5c0,0.5-0.2,1.1-0.6,1.6c-2.6,3.4-5.8,6.7-9.3,9.8
		c1.2,0.1,2.3,0.9,2.3,2.3v19.3c0,1.5-1.3,2.3-2.6,2.3c-1.3,0-2.6-0.7-2.6-2.3V19.6z"/>
	<path class="st0" d="M126.2,8.4c4.6,0,6.4,1.6,6.4,4.6c0,0.7-0.1,1.6-0.3,2.5c-2.4,10.4-10.1,19.4-20.5,24.5
		c-0.5,0.3-1,0.4-1.5,0.4c-1.5,0-2.6-1.2-2.6-2.6c0-0.8,0.4-1.8,1.5-2.3c9.7-5.1,15.2-12.1,17.5-20c0.1-0.4,0.1-0.6,0.1-0.9
		c0-0.8-0.6-1.1-1.8-1.1L104,13.6c-1.7,0-2.6-1.3-2.6-2.6c0-1.2,0.8-2.4,2.3-2.4L126.2,8.4z M139.6,4.7c0,2.7-2.1,4.8-4.7,4.8
		c-2.7,0-4.8-2.1-4.8-4.8c0-2.6,2.1-4.7,4.8-4.7C137.6,0,139.6,2.1,139.6,4.7z M132.4,4.7c0,1.4,1.1,2.6,2.6,2.6s2.5-1.1,2.5-2.6
		s-1.1-2.5-2.5-2.5S132.4,3.3,132.4,4.7z"/>
	<path class="st0" d="M168.6,33.5c1.6,0,2.3,1,2.3,2.3c0,1.3-0.7,2.2-2.3,2.2h-16.2c-1.6,0-2.6-1.2-2.6-2.8c0-1.3,0.4-2.2,1.4-3
		c3.5-3.1,6.5-5.8,9.9-9.8c2.7-3.2,3.9-5.5,3.9-8.1c0-3.3-1.7-5-4.5-5c-1.8,0-3.8,0.8-5.9,2.9c-0.5,0.5-1.1,0.7-1.7,0.7
		c-1.5,0-2.6-1.1-2.6-2.5c0-0.7,0.2-1.1,0.9-1.8c2.3-2.3,5.9-3.9,9.2-3.9c6.3,0,9.8,3.8,9.8,9.4c0,4-1.4,6.8-5.4,11
		c-3.7,3.8-5.8,5.8-8.6,8.3H168.6z"/>
	<path class="st0" d="M180.8,40.8c-0.6,0-1-0.4-1-1c0-0.6,0.4-1,1-1h7.1c0.7,0,1.2-0.5,1.2-1.2V16.9c0-0.6,0.5-0.9,1.1-0.9
		c0.6,0,1.1,0.4,1.1,0.9V38c0,1.6-1.2,2.8-2.8,2.8H180.8z"/>
	<path class="st0" d="M203.7,25c0-10,8.3-18.3,20.4-18.3c10.7,0,16.9,6.7,16.9,15.5c0,8-4.7,13.8-12.3,16.2c-0.4,0.1-0.7,0.2-1,0.2
		c-1.5,0-2.5-1.2-2.5-2.5c0-1,0.5-1.9,1.8-2.4c6.2-2.2,8.8-6,8.8-11.5c0-5.8-3.9-10.5-10.6-11c-0.4,7.3-2.2,13.9-5,18.7
		c-2.4,4.3-5,5.5-8.4,5.5C207.4,35.5,203.7,31.9,203.7,25z M208.8,25c0,4,1.6,5.5,3.2,5.5c1.4,0,2.6-0.7,3.8-2.9
		c2.2-3.9,3.9-9.6,4.4-16.1C213.6,12.8,208.8,18.5,208.8,25z"/>
	<path class="st0" d="M9.4,59.9c0-0.8,0-1.7,0-2.6c0-1.2,1.1-1.8,2.2-1.8c1.1,0,2.2,0.6,2.2,1.8c0,0.9,0,1.8,0,2.6h3.7
		c1.1,0,1.5,0.9,1.5,1.8s-0.5,1.8-1.5,1.8h-3.9c-0.1,0.8-0.2,1.5-0.3,2.3h4.6c1.1,0,1.5,0.9,1.5,1.8s-0.5,1.8-1.5,1.8h-5.5l-0.3,0.8
		c1.7,1.1,3.5,2.6,4.8,3.8c0.6,0.6,0.8,1.1,0.8,1.7c0,1.2-1,2.1-2.2,2.1c-0.5,0-1.1-0.2-1.5-0.7c-1.1-1.1-2.6-2.4-3.9-3.4
		c-1.6,2.5-4,4.8-6.6,6.6C3,80.9,2.6,81,2.1,81C0.9,81,0,80,0,78.9c0-0.7,0.3-1.3,1.1-1.8c2.6-1.8,5-4.1,6.3-6.9
		c0.1-0.2,0.2-0.4,0.3-0.6H2.6c-1,0-1.5-0.9-1.5-1.8S1.5,66,2.6,66h6.2c0.1-0.8,0.3-1.5,0.4-2.3H4.6c-1,0-1.5-0.9-1.5-1.8
		s0.5-1.8,1.5-1.8H9.4z M13.2,95.6c-4,0-5.6-1.5-5.6-4.5v-7.7c0-2.9,1.5-4.4,5.6-4.4h14.8c4,0,5.6,1.5,5.6,4.4v7.7
		c0,3.7-2.3,4.5-5.6,4.5H13.2z M29.1,83.7c0-0.9-0.4-1.2-1.7-1.2H14c-1.4,0-1.7,0.3-1.7,1.2v1.8h16.9V83.7z M27.4,92.1
		c1.4,0,1.7-0.3,1.7-1.2v-1.9H12.2v1.9c0,1.1,0.7,1.2,1.7,1.2H27.4z M31.9,69.7c1.9,2.3,4.7,4.6,7.4,6.2c1.1,0.6,1.5,1.4,1.5,2.2
		c0,1.1-0.9,2.2-2.2,2.2c-0.4,0-0.9-0.1-1.4-0.4c-3.4-2.1-6.6-5-8.7-8c-1.4,2.3-3.2,4.1-5.5,5.8c-0.4,0.3-0.9,0.5-1.4,0.5
		c-1.2,0-2.2-1-2.2-2.1c0-0.6,0.3-1.2,1.1-1.7c1.9-1.4,3.4-2.8,4.4-4.8h-2.4c-1,0-1.5-0.9-1.5-1.8s0.5-1.8,1.5-1.8h3.7
		c0.2-0.7,0.3-1.5,0.4-2.3h-3.2c-1,0-1.5-0.9-1.5-1.8s0.5-1.8,1.5-1.8H27c0-0.8,0-1.7,0-2.6c0-1.2,1.1-1.8,2.2-1.8
		c1.1,0,2.2,0.6,2.2,1.8c0,0.9,0,1.8,0,2.6h5.1c1.1,0,1.5,0.9,1.5,1.8s-0.5,1.8-1.5,1.8h-5.4c-0.1,0.8-0.2,1.5-0.4,2.3h7.7
		c1.1,0,1.5,0.9,1.5,1.8s-0.5,1.8-1.5,1.8H31.9z"/>
	<path class="st0" d="M68.3,65.7c0.2,0,0.4,0,0.7,0c2,0,3.3,1.5,3.3,3c0,0.7-0.3,1.5-0.9,2.2L64,78.3l0.1,0.1c0.7-0.2,1.4-0.4,2-0.4
		c2.9,0,4.6,1.8,4.8,5.6l0,0.9c0.1,2.8,0.7,3.6,2.9,3.6c2.2,0,4.8-0.4,7.1-0.9c0.3,0,0.5-0.1,0.7-0.1c1.5,0,2.3,1.2,2.3,2.5
		c0,1.1-0.6,2.1-1.8,2.3c-3,0.7-5.8,0.9-8.3,0.9c-5.1,0-7.6-2.1-7.8-7.6l0-1c-0.1-1.6-0.7-2.3-1.6-2.3c-1.3,0-2.9,0.6-4.8,2.1
		c-1.6,1.3-4,3.8-7.6,7.7c-0.6,0.7-1.3,0.9-2,0.9c-1.3,0-2.5-1.1-2.5-2.3c0-0.6,0.2-1.3,0.8-1.9l16.8-17.7l0-0.1l-11.5,2
		c-0.2,0-0.4,0-0.5,0c-1.5,0-2.3-1.2-2.3-2.4c0-1.1,0.6-2.1,2.1-2.3L68.3,65.7z M69.3,58.8c1.2,0.4,1.8,1.4,1.8,2.3
		c0,1.2-0.9,2.4-2.3,2.4c-0.3,0-0.6,0-1-0.2c-2.6-0.8-5.9-1.6-8.5-2.1c-1.5-0.2-2.1-1.2-2.1-2.2c0-1.2,0.9-2.4,2.5-2.4
		c0.1,0,0.3,0,0.4,0C63.1,57.1,66.7,58,69.3,58.8z"/>
	<path class="st0" d="M114.9,62.5c4.6,0,6.4,1.6,6.4,4.6c0,0.7-0.1,1.6-0.3,2.5C118.5,80,110.9,89,100.5,94c-0.5,0.3-1,0.4-1.5,0.4
		c-1.5,0-2.6-1.2-2.6-2.6c0-0.8,0.4-1.8,1.5-2.3c9.7-5.1,15.2-12.1,17.5-20c0.1-0.4,0.1-0.6,0.1-0.9c0-0.8-0.6-1.1-1.8-1.1
		l-21.2,0.3c-1.7,0-2.6-1.3-2.6-2.6c0-1.2,0.8-2.4,2.3-2.4L114.9,62.5z M118.2,58.6c0-0.9,0.9-1.6,1.8-1.6c0.4,0,0.9,0.2,1.3,0.6
		c1.1,1.2,2.3,2.7,3.1,4.1c0.2,0.4,0.3,0.7,0.3,1.1c0,1-0.9,1.8-1.8,1.8c-0.6,0-1.1-0.3-1.5-1c-0.9-1.5-2-2.9-2.9-4
		C118.2,59.3,118.2,58.9,118.2,58.6z M122.8,55.5c0-0.9,0.9-1.5,1.8-1.5c0.5,0,1,0.2,1.5,0.6c1.1,1.1,2.2,2.6,3,3.9
		c0.3,0.4,0.4,0.8,0.4,1.2c0,1-0.8,1.7-1.8,1.7c-0.6,0-1.2-0.3-1.6-1c-0.9-1.4-2-2.8-2.9-4C123,56.2,122.8,55.8,122.8,55.5z"/>
	<path class="st0" d="M161.5,69.1c4,0,5.9,1.7,5.9,4.4c0,0.7-0.1,1.6-0.4,2.5c-2.7,8.1-9.9,14.7-18.5,18c-0.4,0.1-0.7,0.2-1.1,0.2
		c-1.5,0-2.6-1.3-2.6-2.6c0-0.9,0.5-1.8,1.8-2.4c7.7-3.1,13-8.1,15.2-13.9c0.1-0.4,0.2-0.7,0.2-0.9c0-0.5-0.4-0.7-1.4-0.7l-22.3,0.3
		c-1.5,0-2.2-1.2-2.2-2.4s0.7-2.4,2.2-2.4L161.5,69.1z M161.8,59.5c1.5,0,2.2,1.2,2.2,2.4c0,1.2-0.7,2.4-2.2,2.4h-19.2
		c-1.4,0-2.2-1.2-2.2-2.4c0-1.2,0.7-2.4,2.2-2.4H161.8z"/>
	<path class="st0" d="M189.4,72.9c0.7,0.6,0.9,1.3,0.9,1.9c0,1.4-1.2,2.7-2.6,2.7c-0.5,0-1.1-0.2-1.6-0.6c-1.5-1.2-3.9-2.9-5.4-3.7
		c-0.9-0.5-1.2-1.2-1.2-1.9c0-1.3,1.1-2.6,2.7-2.6c0.4,0,0.9,0.1,1.3,0.3C185.5,70,187.7,71.3,189.4,72.9z M210.4,68.3
		c1.3,0,2.6,1,2.6,2.4c0,0.4-0.1,0.9-0.4,1.4C206.8,83,196,90.3,184.5,93.6c-0.3,0.1-0.7,0.1-0.9,0.1c-1.5,0-2.5-1.2-2.5-2.5
		c0-1,0.6-2.1,2-2.5c10.9-3.3,19.5-9.3,25-19.1C208.7,68.7,209.5,68.3,210.4,68.3z M194.6,62.9c0.7,0.6,0.9,1.3,0.9,1.9
		c0,1.4-1.2,2.6-2.6,2.6c-0.5,0-1.1-0.2-1.6-0.6c-1.5-1.2-3.9-2.8-5.4-3.7c-0.9-0.5-1.2-1.2-1.2-1.9c0-1.3,1.2-2.6,2.7-2.6
		c0.4,0,0.9,0.1,1.3,0.4C190.7,60,192.9,61.4,194.6,62.9z"/>
	<path class="st0" d="M228.2,92c-0.6,1-1.5,1.4-2.4,1.4c-1.3,0-2.4-0.9-2.4-2.2c0-0.4,0.1-0.9,0.4-1.4c2.8-4.9,5.1-10.9,6.7-17.2
		c-1.8,0.2-3.6,0.5-5.2,0.9c-0.2,0-0.4,0-0.6,0c-1.4,0-2.1-1.1-2.1-2.2c0-1,0.6-2,2-2.3c2.2-0.4,4.7-0.7,7-1c0.5-2.7,1-5.4,1.3-8.1
		c0.2-1.4,1.3-2.1,2.4-2.1c1.2,0,2.5,0.8,2.5,2.2v0.3c-0.3,2.4-0.7,4.8-1.1,7.3c0.9,0,1.7,0,2.4,0c5.6,0,7.7,2.6,7.7,9.5
		c0,4.1-0.4,7.8-1.2,10.5c-1.4,5.1-3.4,6.9-7.8,6.9c-1.1,0-2.2-0.1-3-0.2c-1.5-0.2-2.2-1.3-2.2-2.4c0-1.2,0.8-2.4,2.2-2.4
		c0.1,0,0.2,0,0.4,0c0.8,0.1,1.5,0.2,2.4,0.2c1.5,0,2.3-0.5,3.1-3.1c0.7-2.5,1.1-5.9,1.1-9.5c0-4-0.7-5-2.9-5c-1,0-2.1,0-3.3,0.1
		C233.9,79.3,231.3,86.5,228.2,92z M260.2,74.2c0.3,0.5,0.4,1.1,0.4,1.5c0,1.5-1.2,2.6-2.6,2.6c-0.9,0-1.8-0.5-2.4-1.7
		c-1.6-3.2-3.9-6.6-6.2-9.1c-0.5-0.5-0.7-1.1-0.7-1.6c0-1.2,1.2-2.2,2.6-2.2c0.7,0,1.4,0.3,2,0.8C255.9,67.2,258.7,71.3,260.2,74.2z
		 M252.1,59c0-0.9,0.9-1.7,1.8-1.7c0.4,0,0.8,0.1,1.2,0.5c1.2,1.1,2.5,2.5,3.4,3.8c0.3,0.4,0.4,0.8,0.4,1.2c0,1-0.8,1.8-1.8,1.8
		c-0.5,0-1.1-0.3-1.5-0.8c-1.1-1.5-2.2-2.7-3.3-3.7C252.2,59.7,252.1,59.3,252.1,59z M256.5,55.5c0-0.9,0.8-1.6,1.8-1.6
		c0.4,0,0.9,0.2,1.3,0.5c1.1,1,2.5,2.3,3.4,3.6c0.4,0.4,0.5,0.9,0.5,1.3c0,1-0.8,1.7-1.8,1.7c-0.5,0-1.1-0.2-1.5-0.8
		c-1-1.3-2.2-2.6-3.3-3.7C256.6,56.2,256.5,55.8,256.5,55.5z"/>
	<path class="st0" d="M278.1,87.2c-1.5,2.1-3.3,4-5.1,5.4c-0.5,0.4-1.1,0.6-1.6,0.6c-1.2,0-2.2-1-2.2-2.1c0-0.6,0.3-1.2,0.9-1.7
		c2.3-1.8,4.7-4.4,6.6-7.3h-4.4c-1.1,0-1.6-1-1.6-2s0.6-2,1.6-2h5.5v-3.3h-6.6c-1.1,0-1.6-1-1.6-2s0.6-2,1.6-2h9.1
		c0.7-1.5,1.3-3,1.9-4.9c0.3-1.1,1.1-1.5,2-1.5c1.1,0,2.2,0.7,2.2,1.9c0,0.2,0,0.4-0.1,0.7c-0.5,1.5-1,2.8-1.5,3.9h4.4
		c1.1,0,1.6,1,1.6,2s-0.5,2-1.6,2h-6.8V78h5.4c1.1,0,1.6,1,1.6,2s-0.5,2-1.6,2h-5.4v1.8c1.7,0.7,3.6,1.8,5,2.8c0.7,0.5,1,1.2,1,1.8
		c0,1.1-0.9,2.1-2.1,2.1c-0.4,0-0.8-0.1-1.2-0.4c-0.8-0.6-1.8-1.2-2.7-1.8v6.3c0,1.3-1.1,1.9-2.2,1.9c-1.1,0-2.2-0.6-2.2-1.9v-2.2
		L278.1,87.2z M277.9,56.9c0-1.2,1.2-1.8,2.3-1.8c1.2,0,2.3,0.6,2.3,1.8v2.7h5.5c1.1,0,1.6,1,1.6,2s-0.5,2-1.6,2h-15.4
		c-1.1,0-1.6-1-1.6-2s0.6-2,1.6-2h5.2V56.9z M279.2,68.4c0,1.1-1.1,1.8-2.1,1.8c-0.8,0-1.5-0.4-1.9-1.3c-0.3-0.7-0.5-1.1-0.9-1.9
		c-0.2-0.3-0.2-0.6-0.2-0.9c0-1.1,1-1.8,2.1-1.8c0.7,0,1.5,0.4,2,1.2c0.4,0.7,0.6,1.2,0.9,2.1C279.1,67.9,279.2,68.2,279.2,68.4z
		 M292.5,61c0-1.3,1.2-1.9,2.3-1.9c0.6,0,1.1,0.1,1.5,0.4c3.1-0.8,5.9-1.8,8.4-2.9c0.4-0.2,0.8-0.3,1.1-0.3c1.3,0,2.2,1.1,2.2,2.3
		c0,0.8-0.4,1.5-1.3,2c-2.7,1.2-6,2.3-9.5,3.2v5.9h11.7c1.2,0,1.8,1,1.8,2c0,1.1-0.6,2.1-1.8,2.1h-3v20.2c0,1.3-1.1,2-2.3,2
		c-1.1,0-2.3-0.7-2.3-2V73.8h-4.1c-0.3,9.1-2.1,15.8-5.1,20.6c-0.6,0.9-1.4,1.3-2.2,1.3c-1.2,0-2.3-0.8-2.3-2.1c0-0.4,0.2-1,0.5-1.5
		c2.9-4.4,4.4-10.9,4.4-20.8V61z"/>
	<path class="st0" d="M323.3,59.5c0.1-1.5,1.3-2.2,2.6-2.2c1.3,0,2.6,0.7,2.6,2.2c0,0.5-0.1,1.6-0.1,2.1c-0.4,6.5-0.8,13.2-0.8,19.8
		c0,5.9,1.8,7.5,4.9,7.5c4.1,0,7.9-1.7,12-6.7c0.6-0.8,1.4-1.1,2.1-1.1c1.4,0,2.6,1.1,2.6,2.4c0,0.5-0.2,1.1-0.6,1.6
		c-5,6.2-10.3,8.6-16.1,8.6c-6.6,0-10-3.3-10-12.4C322.4,74.3,322.8,66,323.3,59.5z"/>
	<path class="st0" d="M375.3,56.5c1.3,0,2.6,1,2.6,2.5c0,0.5-0.2,1-0.5,1.6c-2.7,4-6.6,8.8-10,12.4c-0.7,0.7-0.9,1.2-0.9,1.9
		c0,0.7,0.4,1.3,1.1,2.1c3.9,4.1,7.9,9.1,11.2,13.7c0.4,0.7,0.7,1.3,0.7,1.8c0,1.5-1.4,2.6-2.8,2.6c-0.9,0-1.8-0.4-2.5-1.5
		c-2.8-4.4-6.9-9.8-10.4-13.7c-1.6-1.8-2.3-3.3-2.3-4.9c0-1.5,0.5-2.9,2.1-4.6c3.4-3.4,7-8.4,9.8-12.7
		C373.8,56.8,374.6,56.5,375.3,56.5z"/>
	<path class="st0" d="M401.3,57.9c0.3-1.3,1.3-1.9,2.4-1.9c1.2,0,2.4,0.7,2.4,2.2c0,0.2,0,0.4,0,0.6c-0.4,1.7-0.8,3.4-1.3,5.2
		c1.3-0.2,2.6-0.4,3.9-0.7c0.2,0,0.4,0,0.5,0c1.4,0,2.3,1.1,2.3,2.3c0,1-0.6,1.9-2,2.2c-1.9,0.4-4,0.7-6.2,1.1
		c-1.8,5.3-4.2,10.6-6.8,14.8c-0.7,1.1-1.6,1.6-2.5,1.6c-1.3,0-2.5-1-2.5-2.3c0-0.5,0.1-1,0.5-1.5c2.2-3.5,4.3-7.6,5.9-12
		c-1.6,0.2-3.2,0.3-4.6,0.3c-1.5,0-2.3-1.2-2.3-2.4c0-1.1,0.7-2.2,2.1-2.3c2-0.1,4.2-0.2,6.4-0.4C400.3,62.3,400.9,60.1,401.3,57.9z
		 M409.2,94.7c-5.2,0-8.4-2.3-8.4-6.4c0-3.5,3-6.4,8.6-6.4c0.7,0,1.4,0,2.2,0.1c-0.3-2-0.4-3.5-0.4-4.7c0-1.9,0.1-2.9,0.3-4.3
		c0.2-1.2,1.2-1.8,2.3-1.8c1.2,0,2.5,0.7,2.5,2c0,0.1,0,0.2,0,0.4c-0.2,1.3-0.3,2.4-0.3,3.6c0,1.2,0.1,2.9,0.6,5.7
		c2.8,0.8,5.7,2.1,8.3,3.8c0.8,0.6,1.2,1.3,1.2,2.1c0,1.2-1,2.4-2.3,2.4c-0.4,0-1-0.2-1.5-0.5c-1.6-1.1-3.3-2.1-5-2.8
		C417,93,413.4,94.7,409.2,94.7z M412.3,87.6c0-0.4,0-0.7,0-1.1c-1-0.2-1.9-0.3-2.8-0.3c-3.1,0-4,1-4,2.2c0,1.3,0.9,2,3.7,2
		C411.2,90.4,412.3,89.5,412.3,87.6z M425.9,67c1,0.6,1.5,1.5,1.5,2.3c0,1.3-1.1,2.4-2.3,2.4c-0.4,0-0.9-0.1-1.3-0.4
		c-2.1-1.2-4.4-2.3-6.3-3c-1.1-0.4-1.6-1.2-1.6-2c0-1.2,1-2.4,2.5-2.4c0.3,0,0.5,0,0.8,0.1C421.3,64.6,424,65.8,425.9,67z"/>
	<path class="st0" d="M445.1,75.7c0.4-1,0.7-1.8,1.1-3c0.4-1,1.1-1.4,1.9-1.4c1,0,2,0.7,2,1.8c0,0.2,0,0.4-0.1,0.5
		c-0.7,2.5-1.9,5.3-3.1,7.3c-0.7,1.2-1.9,1.8-3,1.8c-1.2,0-2.4-0.7-2.8-2.1c-0.6-1.9-1.1-5.1-1.1-7.6c0-3.5,0.5-8.4,1.6-12.9
		c0.3-1.2,1.5-1.8,2.5-1.8c1.2,0,2.4,0.7,2.4,2c0,0.2,0,0.4-0.1,0.6c-1,4.1-1.6,9.1-1.6,11.7C444.9,73.9,444.9,74.9,445.1,75.7
		L445.1,75.7z M456.5,59.5c0-1.5,1.3-2.2,2.6-2.2c1.2,0,2.4,0.7,2.6,2.1c0.6,4.6,0.9,9.4,0.9,14.2c0,9.5-3.4,16.2-9.6,20.9
		c-0.6,0.5-1.3,0.7-1.8,0.7c-1.4,0-2.5-1.1-2.5-2.5c0-0.7,0.4-1.5,1.1-2.2c5-4.1,7.5-9.5,7.5-16.9c0-4.5-0.3-9.1-0.9-13.8V59.5z"/>
	<path class="st0" d="M494.6,62h2.8c2.6,0,5,0,7.2,0.1c1.5,0,2.2,1.2,2.2,2.4c0,1.1-0.7,2.2-2.2,2.2c-1.7,0-3.6-0.1-5.6-0.1
		c-1.4,0-2.9,0-4.4,0c0,1.5,0,3.1,0.1,4.6c2.9-0.2,5.7-0.4,8.3-0.7h0.4c1.5,0,2.3,1.1,2.3,2.2c0,1.1-0.7,2.2-2.2,2.3
		c-2.7,0.4-5.6,0.6-8.5,0.7c0.1,1.9,0.3,3.9,0.4,5.8c3.7,1,7.5,2.6,11,4.8c1.1,0.7,1.5,1.5,1.5,2.4c0,1.4-1.1,2.6-2.6,2.6
		c-0.5,0-1-0.1-1.5-0.5c-2.7-1.8-5.4-3.2-8.1-4.2v0.3c0,4.8-4.1,7-9.2,7c-5.6,0-9-2.7-9-6.8c0-3.8,3.2-6.8,9.5-6.8
		c1.2,0,2.3,0.1,3.6,0.2c-0.1-1.6-0.3-3.2-0.4-4.7h-2.5c-2.6,0-5.3-0.1-6.9-0.3c-1.5-0.2-2.1-1.3-2.1-2.3c0-1.1,0.8-2.3,2.2-2.3h0.3
		c1.6,0.2,3.8,0.3,6.3,0.3h2.4c-0.1-1.6-0.1-3.1-0.2-4.7c-3.7,0.1-7.4,0.2-10.5,0.4c-1.5,0-2.3-1.1-2.3-2.3c0-1.1,0.7-2.2,2.2-2.3
		c3.1-0.1,6.7-0.3,10.5-0.4v-4.4c0-1.3,1.2-2,2.5-2c1.2,0,2.4,0.7,2.4,2V62z M491,86.4v-1c-1.4-0.3-2.6-0.4-4-0.4
		c-3.4,0-4.4,1.1-4.4,2.4c0,1.2,1.1,2.2,4,2.2C489.5,89.6,491,88.2,491,86.4z"/>
	<path class="st0" d="M522.8,59.5c0.1-1.5,1.3-2.2,2.6-2.2c1.3,0,2.6,0.7,2.6,2.2c0,0.5-0.1,1.6-0.1,2.1c-0.4,6.5-0.8,13.2-0.8,19.8
		c0,5.9,1.8,7.5,4.9,7.5c4.1,0,7.9-1.7,12-6.7c0.6-0.8,1.4-1.1,2.1-1.1c1.4,0,2.6,1.1,2.6,2.4c0,0.5-0.2,1.1-0.6,1.6
		c-5,6.2-10.3,8.6-16.1,8.6c-6.6,0-10-3.3-10-12.4C521.9,74.3,522.3,66,522.8,59.5z"/>
	<path class="st0" d="M559.4,70.5c-1.5,0-2.2-1.1-2.2-2.3s0.7-2.3,2.2-2.4c1.8-0.1,3.9-0.4,6.2-0.7c0.4-2.4,0.6-4.4,0.8-6.8
		c0.1-1.4,1.3-2,2.4-2c1.2,0,2.5,0.8,2.5,2.2v0.3c-0.2,2.1-0.4,3.7-0.7,5.4c1.2-0.3,2.5-0.6,3.8-0.9c0.2,0,0.4-0.1,0.7-0.1
		c1.4,0,2.2,1.1,2.2,2.3c0,0.9-0.5,1.8-1.7,2.2c-2,0.6-4,1.1-5.7,1.5c-1.6,8.6-3.7,16.8-6.2,23.1c-0.5,1.3-1.6,1.9-2.7,1.9
		c-1.2,0-2.4-0.9-2.4-2.2c0-0.4,0.1-0.8,0.3-1.2c2.4-6,4.4-13,5.9-20.7C563.1,70.2,561.3,70.5,559.4,70.5z M576.2,82.7
		c1,0,2,0.6,2.1,1.8c0.3,2.8,1.9,3.6,6.7,3.6c2.2,0,4.1-0.2,5.9-0.4c0.1,0,0.4,0,0.5,0c1.5,0,2.3,1.3,2.3,2.5c0,1.1-0.7,2.1-2,2.3
		c-1.9,0.3-4.1,0.5-6.6,0.5c-6.2,0-8.9-1.6-10.3-3.8c-0.7-1.1-1.1-2.9-1.1-4.1C573.7,83.5,574.9,82.7,576.2,82.7z M589.4,69.4
		c1.6,0,2.4,1.2,2.4,2.4c0,1.1-0.7,2.2-2.2,2.2c-3.5,0-7.6,0.5-10.7,1.1c-0.2,0-0.4,0-0.5,0c-1.4,0-2.2-1.1-2.2-2.3c0-1,0.6-2,2-2.3
		C581.5,69.9,585.9,69.4,589.4,69.4z"/>
</g>
</svg>
