<?xml version="1.0" encoding="utf-8"?>
<!-- Generator: Adobe Illustrator 22.1.0, SVG Export Plug-In . SVG Version: 6.00 Build 0)  -->
<svg version="1.1" id="レイヤー_1" xmlns="http://www.w3.org/2000/svg" xmlns:xlink="http://www.w3.org/1999/xlink" x="0px"
	 y="0px" viewBox="0 0 163.6 91.3" style="enable-background:new 0 0 163.6 91.3;" xml:space="preserve">
<style type="text/css">
	.st0{fill:#5CBDE7;}
	.st1{fill:#333333;}
	.st2{fill:#FFFFFF;}
</style>
<polygon class="st0" points="159.4,0 151.5,1.1 1,22.3 5.2,52 155.7,30.8 163.6,29.7 153.6,16 "/>
<rect x="4.8" y="21.9" transform="matrix(0.9903 -0.1392 0.1392 0.9903 -7.8387 1.3381)" class="st1" width="1.7" height="69.6"/>
<g>
	<path class="st2" d="M45.4,32c0.9-0.4,1.8-0.6,2.9-0.8c2.8-0.4,4.7,0.6,5,2.7c0.3,2.2-1,3.8-3.5,4.5c-0.1,0-0.1,0-0.2,0
		c-0.6,0.1-1-0.3-1-0.8c-0.1-0.4,0.1-0.8,0.7-1c1.6-0.5,2.2-1.4,2.1-2.5c-0.1-0.9-1.1-1.6-2.8-1.4c-1.1,0.1-2,0.5-2.9,0.9l0.4,3
		c0.2,1.8-0.4,2.5-2,2.7s-3.4-0.7-3.6-2.2c-0.2-1.2,0.4-2.7,3.2-4.5L43.2,30c-0.8,0.2-1.7,0.4-2.4,0.5c-0.6,0.1-0.9-0.3-1-0.7
		c-0.1-0.4,0.2-0.9,0.7-1c0.7-0.1,1.5-0.3,2.4-0.5l-0.4-2.6c-0.1-0.6,0.3-0.9,0.8-1s1,0.1,1,0.7l0.3,2.3c0.6-0.2,1.1-0.4,1.6-0.6
		c0.1,0,0.2-0.1,0.3-0.1c0.6-0.1,1,0.3,1,0.7c0,0.4-0.1,0.7-0.6,0.9c-0.6,0.2-1.3,0.5-2.1,0.7L45.4,32z M43.9,34.7
		c-1.4,1-1.6,1.6-1.5,2.3c0.1,0.5,0.7,0.8,1.4,0.7c0.5-0.1,0.5-0.4,0.4-0.8L43.9,34.7z M53,27.4c0.3,0.2,0.5,0.5,0.5,0.7
		c0.1,0.5-0.3,1-0.9,1.1c-0.2,0-0.5,0-0.7-0.2c-0.7-0.4-1.6-0.9-2.3-1.2c-0.4-0.1-0.5-0.4-0.6-0.7c-0.1-0.5,0.3-1.1,0.8-1.1
		c0.2,0,0.3,0,0.5,0.1C51.2,26.4,52.3,26.9,53,27.4z"/>
	<path class="st2" d="M65,24.1c0.5-0.1,0.8,0.3,0.8,0.7c0.1,0.4-0.1,0.8-0.6,0.9l-1.6,0.2l0.3,1.8c0,0.3,0.1,0.6,0.1,0.8l2.2-0.3
		c0.5-0.1,0.8,0.3,0.8,0.7c0.1,0.4-0.1,0.8-0.6,0.9l-2.3,0.3c0,0.7,0,1.4-0.1,2c1.1,0.5,2.4,1.4,3.2,2.1c0.2,0.2,0.3,0.4,0.4,0.6
		c0.1,0.5-0.3,1-0.8,1c-0.3,0-0.5,0-0.8-0.3c-0.6-0.5-1.5-1.2-2.3-1.7c-0.4,1.3-1,2.5-1.8,3.6c-0.2,0.3-0.5,0.4-0.7,0.4
		c-0.5,0.1-1-0.3-1-0.7c0-0.2,0-0.5,0.2-0.8c1.3-1.6,1.9-3.5,2-6l-2.5,0.3c-0.4,0.1-0.7-0.3-0.8-0.7s0.1-0.8,0.6-0.9l2.6-0.4
		c0-0.3-0.1-0.7-0.1-1L62,25.9l-1,0.3c-0.1,0.4-0.2,0.7-0.4,1.1s-0.5,0.5-0.8,0.6c-0.5,0.1-1-0.2-1-0.7c0-0.2,0-0.3,0.1-0.5
		c0.5-1.1,0.8-2.5,0.9-3.8c0-0.4,0.4-0.7,0.7-0.7c0.4-0.1,1,0.2,1,0.7c0,0.1,0,0.2,0,0.2c0,0.5-0.1,1-0.2,1.5L65,24.1z M70.8,35.4
		c-1.3,0.2-2.1-0.4-2.2-1.5l-1.2-8.6c-0.2-1.2,0.4-1.9,1.7-2.1l2.5-0.4c1.4-0.2,2.1,0.4,2.2,1.5l1.2,8.6c0.2,1.3-0.5,1.9-1.7,2.1
		L70.8,35.4z M72.6,33.4c0.4-0.1,0.5-0.2,0.4-0.6L72,25c-0.1-0.4-0.2-0.5-0.6-0.4l-1.7,0.2c-0.3,0-0.5,0.2-0.4,0.6l1.1,7.9
		c0.1,0.4,0.2,0.5,0.6,0.4L72.6,33.4z"/>
	<path class="st2" d="M83,27.7c1.2-1.3,3-2.3,4.7-2.5c2.7-0.4,4.6,0.8,4.8,2.8c0.4,2.6-1.6,4.8-5.6,5.8c-0.1,0-0.1,0-0.2,0
		c-0.6,0.1-1-0.3-1.1-0.8c-0.1-0.4,0.2-0.9,0.8-1c3.3-0.9,4.3-2.3,4.1-3.7c-0.1-0.9-0.9-1.6-2.6-1.4c-1.8,0.3-3.8,1.5-5,3.3
		c-0.2,0.3-0.5,0.5-0.8,0.5c-0.5,0.1-1.1-0.2-1.2-0.8c0-0.1,0-0.1,0-0.2c0-1.3,0.1-3.6,0.3-5.9c0-0.5,0.4-0.8,0.8-0.8
		c0.5-0.1,1,0.1,1.1,0.7c0,0.1,0,0.1,0,0.2C83.1,25.4,83,26.7,83,27.7L83,27.7z M87.3,20.1c0.5,0.2,0.7,0.5,0.7,0.8
		c0.1,0.5-0.2,1-0.8,1.1c-0.2,0-0.3,0-0.5,0c-1-0.3-2.1-0.5-3-0.7c-0.5-0.1-0.7-0.4-0.8-0.7c-0.1-0.5,0.3-1,0.9-1.1
		c0.1,0,0.2,0,0.3,0C85.1,19.5,86.3,19.7,87.3,20.1z"/>
	<path class="st2" d="M108.8,19.8l2.9-0.6h0.1c0.6-0.1,1,0.3,1.1,0.8c0.1,0.4-0.2,0.9-0.8,1c-1,0.2-2,0.4-3.1,0.6
		c0.1,1.1,0.2,1.8,0.1,2.3c-0.1,1.6-0.7,2.3-2.1,2.5c-0.4,0.1-0.9,0.1-1.2,0c-0.5,0-0.8-0.4-0.8-0.8c-0.1-0.5,0.2-1,0.7-1
		c0.1,0,0.1,0,0.2,0c0.2,0,0.5,0,0.8,0c0.4-0.1,0.5-0.2,0.6-0.7c0-0.5,0-1-0.1-1.9c-1.5,0.3-3,0.6-4.6,1v0.3c0.2,1.7,0.4,2.8,0.7,4
		c0.2,1.2,1,1.6,2.5,1.4c1.7-0.2,3.1-0.6,4.4-1c0.1,0,0.2-0.1,0.3-0.1c0.6-0.1,1,0.3,1.1,0.8c0.1,0.4-0.2,0.9-0.7,1.1
		c-1.4,0.5-2.8,0.8-4.7,1.1c-2.5,0.4-4.1-0.3-4.6-2.8c-0.2-1.2-0.4-2.4-0.7-4.2v-0.2c-0.9,0.2-1.8,0.4-2.8,0.6H98
		c-0.4,0.1-0.7-0.1-0.8-0.4c-0.1-0.1-0.1-0.3-0.2-0.4c-0.1-0.5,0.2-1,0.7-1.1c1-0.2,1.9-0.4,2.9-0.6l-0.4-2.7
		c-0.1-0.5,0.4-0.9,0.9-0.9s1,0.1,1.1,0.7l0.4,2.6c1.5-0.3,3.1-0.6,4.6-1l-0.4-2.9c-0.1-0.6,0.4-0.9,0.8-1c0.5-0.1,1,0.1,1.1,0.7
		L108.8,19.8z"/>
</g>
<rect x="11.3" y="-192.7" width="152" height="30"/>
<g>
	<polyline points="163.3,-177.7 163.3,-162.7 171.3,-162.7 	"/>
	<polyline points="163.3,-177.7 163.3,-192.7 171.3,-192.7 	"/>
</g>
</svg>
