<?xml version="1.0" encoding="utf-8"?>
<!-- Generator: Adobe Illustrator 22.1.0, SVG Export Plug-In . SVG Version: 6.00 Build 0)  -->
<svg version="1.1" id="レイヤー_1" xmlns="http://www.w3.org/2000/svg" xmlns:xlink="http://www.w3.org/1999/xlink" x="0px"
	 y="0px" viewBox="0 0 314.4 112.5" style="enable-background:new 0 0 314.4 112.5;" xml:space="preserve">
<style type="text/css">
	.st0{fill:#FFFFFF;}
	.st1{fill:#333333;}
</style>
<polygon class="st0" points="309.6,0 301.7,1.1 0.7,43.6 5.5,77.3 306.5,34.8 314.4,33.7 304.1,18 "/>
<rect x="4.8" y="43.1" transform="matrix(0.9903 -0.1392 0.1392 0.9903 -10.7897 1.5447)" class="st1" width="1.7" height="69.6"/>
<g>
	<path class="st1" d="M32.6,48.5c0.3,0,0.5,0.1,0.5,0.4c0,0.2-0.1,0.5-0.4,0.5l-3.1,0.4c-0.3,0-0.5,0.3-0.4,0.6l1.3,8.9
		c0,0.2-0.2,0.4-0.4,0.5c-0.2,0-0.5-0.1-0.5-0.3l-1.3-9.1c-0.1-0.7,0.3-1.3,1-1.4L32.6,48.5z"/>
	<path class="st1" d="M41.1,50c0-0.3-0.1-0.7-0.1-1c-0.1-0.5,0.3-0.8,0.8-0.8c0.4-0.1,0.9,0.1,1,0.6c0,0.3,0.1,0.7,0.1,1l1.4-0.2
		c0.4-0.1,0.7,0.3,0.7,0.6c0.1,0.4-0.1,0.8-0.5,0.8L43,51.2c0,0.3,0,0.6,0,0.9l1.8-0.3c0.4-0.1,0.7,0.3,0.7,0.6s-0.1,0.8-0.5,0.8
		l-2.2,0.3l-0.1,0.3c0.7,0.3,1.5,0.8,2.1,1.2c0.3,0.2,0.4,0.4,0.4,0.6c0.1,0.5-0.3,0.9-0.7,0.9c-0.2,0-0.4,0-0.6-0.2
		c-0.5-0.4-1.1-0.8-1.7-1.1c-0.5,1.1-1.3,2.1-2.2,2.9c-0.2,0.1-0.4,0.2-0.5,0.3c-0.5,0.1-0.9-0.3-0.9-0.7c0-0.3,0-0.5,0.3-0.8
		c0.9-0.8,1.7-1.9,2.1-3c0-0.1,0-0.2,0.1-0.2l-2,0.3c-0.4,0.1-0.7-0.3-0.7-0.6s0.1-0.8,0.5-0.8l2.4-0.3c0-0.3,0-0.6,0-0.9l-1.8,0.2
		c-0.4,0.1-0.7-0.3-0.7-0.6s0.1-0.8,0.5-0.8L41.1,50z M44.6,63.7c-1.6,0.2-2.3-0.3-2.4-1.4l-0.4-3c-0.2-1.2,0.4-1.8,1.9-2l5.8-0.8
		c1.6-0.2,2.3,0.3,2.4,1.4l0.4,3c0.2,1.4-0.7,1.9-1.9,2.1L44.6,63.7z M50.1,58.2c-0.1-0.4-0.2-0.5-0.7-0.4l-5.3,0.7
		c-0.5,0.1-0.7,0.2-0.6,0.6l0.1,0.7l6.6-0.9L50.1,58.2z M49.9,61.6c0.5-0.1,0.7-0.2,0.6-0.6l-0.1-0.8l-6.6,0.9l0.1,0.8
		c0.1,0.4,0.4,0.4,0.7,0.4L49.9,61.6z M50.5,52.5c0.9,0.8,2.1,1.6,3.3,2c0.4,0.2,0.6,0.5,0.7,0.8c0.1,0.4-0.2,0.9-0.7,1
		c-0.2,0-0.4,0-0.6-0.1c-1.5-0.6-2.9-1.6-3.8-2.6c-0.4,1-1,1.8-1.8,2.6c-0.2,0.1-0.3,0.2-0.5,0.3c-0.5,0.1-0.9-0.3-1-0.7
		c0-0.2,0.1-0.5,0.3-0.7c0.7-0.6,1.2-1.3,1.5-2.1L47,53.1c-0.4,0.1-0.7-0.3-0.7-0.6s0.1-0.8,0.5-0.8l1.5-0.2c0-0.3,0-0.6,0-0.9
		L47,50.8c-0.4,0.1-0.7-0.3-0.7-0.6s0.1-0.8,0.5-0.8L48,49c0-0.3-0.1-0.7-0.1-1c-0.1-0.5,0.3-0.8,0.8-0.8c0.4-0.1,0.9,0.1,1,0.6
		c0,0.3,0.1,0.7,0.1,1l2-0.3c0.4-0.1,0.7,0.3,0.7,0.6c0.1,0.4-0.1,0.8-0.5,0.8l-2.1,0.3c0,0.3,0,0.6,0,0.9l3-0.4
		c0.4-0.1,0.7,0.3,0.7,0.6s-0.1,0.8-0.5,0.8L50.5,52.5z"/>
	<path class="st1" d="M66.4,48.7c0.1,0,0.2,0,0.3-0.1c0.8-0.1,1.4,0.4,1.4,1c0,0.3,0,0.6-0.2,0.9l-2.5,3.4l0,0
		c0.3-0.1,0.5-0.2,0.8-0.2c1.1-0.2,1.9,0.4,2.2,1.9l0.1,0.4c0.2,1.1,0.5,1.4,1.3,1.3c0.9-0.1,1.8-0.4,2.7-0.7c0.1,0,0.2-0.1,0.3-0.1
		c0.6-0.1,1,0.4,1,0.8c0.1,0.4-0.1,0.8-0.6,1C72.1,58.7,71,59,70,59.1c-2,0.3-3.1-0.4-3.5-2.6l-0.1-0.4c-0.1-0.6-0.4-0.9-0.8-0.8
		c-0.5,0.1-1.1,0.4-1.8,1.1c-0.6,0.6-1.4,1.7-2.6,3.4c-0.2,0.3-0.4,0.4-0.7,0.5c-0.5,0.1-1-0.3-1.1-0.8c0-0.2,0-0.5,0.2-0.8l5.6-7.9
		l0,0l-4.4,1.4c-0.1,0-0.1,0-0.2,0c-0.6,0.1-1-0.4-1-0.8c-0.1-0.4,0.1-0.9,0.7-1L66.4,48.7z M66.4,46c0.5,0.1,0.8,0.4,0.8,0.8
		c0.1,0.5-0.2,1-0.8,1.1c-0.1,0-0.2,0-0.4,0c-1-0.2-2.4-0.3-3.4-0.3c-0.6,0-0.9-0.4-0.9-0.7c-0.1-0.5,0.2-1,0.8-1.1
		c0.1,0,0.1,0,0.2,0C63.9,45.6,65.4,45.8,66.4,46z"/>
	<path class="st1" d="M86.4,44.6c1.8-0.3,2.6,0.3,2.8,1.4c0,0.3,0.1,0.6,0,1c-0.4,4.2-2.9,8.2-6.7,10.7C82.4,57.9,82.2,58,82,58
		c-0.6,0.1-1.1-0.3-1.1-0.9c0-0.3,0.1-0.7,0.5-1c3.5-2.5,5.3-5.6,5.8-8.8c0-0.1,0-0.2,0-0.4c0-0.3-0.3-0.4-0.8-0.3L78,47.9
		c-0.6,0.1-1-0.4-1.1-0.9s0.2-1,0.8-1.1L86.4,44.6z M87.5,42.9c0-0.3,0.3-0.7,0.6-0.7c0.2,0,0.4,0,0.6,0.2c0.5,0.4,1,0.9,1.4,1.5
		c0.1,0.1,0.2,0.3,0.2,0.4c0.1,0.4-0.2,0.7-0.6,0.8c-0.2,0-0.4-0.1-0.6-0.3c-0.4-0.6-0.9-1-1.4-1.4C87.6,43.2,87.5,43,87.5,42.9z
		 M89.2,41.5c0-0.3,0.3-0.7,0.6-0.7c0.2,0,0.4,0,0.6,0.2c0.5,0.4,1,0.9,1.4,1.4c0.1,0.2,0.2,0.3,0.2,0.4c0.1,0.4-0.2,0.7-0.6,0.8
		c-0.2,0-0.5-0.1-0.7-0.3c-0.4-0.5-0.9-1-1.4-1.4C89.3,41.7,89.2,41.6,89.2,41.5z"/>
	<path class="st1" d="M107,44.4c1.6-0.2,2.4,0.3,2.6,1.4c0,0.3,0,0.6,0,1c-0.6,3.3-3.1,6.3-6.3,8.1c-0.1,0.1-0.3,0.1-0.4,0.1
		c-0.6,0.1-1.1-0.4-1.1-0.9c-0.1-0.4,0.1-0.8,0.6-1c2.8-1.6,4.7-3.9,5.2-6.3c0-0.1,0-0.3,0-0.4c0-0.2-0.2-0.3-0.6-0.2l-8.7,1.3
		c-0.6,0.1-0.9-0.3-1-0.8s0.1-1,0.7-1L107,44.4z M106.6,40.6c0.6-0.1,0.9,0.3,1,0.8s-0.2,1-0.7,1.1l-7.5,1.1c-0.6,0.1-0.9-0.3-1-0.8
		s0.2-1,0.7-1L106.6,40.6z"/>
	<path class="st1" d="M120.1,44c0.3,0.2,0.4,0.4,0.5,0.7c0.1,0.5-0.3,1.1-0.9,1.2c-0.2,0-0.4,0-0.7-0.2c-0.7-0.4-1.7-0.9-2.3-1.2
		c-0.4-0.1-0.6-0.4-0.6-0.7c-0.1-0.5,0.3-1.1,0.9-1.1c0.2,0,0.3,0,0.5,0C118.4,43.1,119.3,43.5,120.1,44z M121.6,39.9
		c0.3,0.2,0.4,0.4,0.5,0.7c0.1,0.5-0.3,1.1-0.9,1.2c-0.2,0-0.4,0-0.7-0.2c-0.7-0.4-1.7-0.9-2.3-1.1c-0.4-0.1-0.5-0.4-0.6-0.7
		c-0.1-0.5,0.3-1.1,0.9-1.2c0.2,0,0.4,0,0.5,0.1C119.9,38.9,120.8,39.4,121.6,39.9z M128.1,41.1c0.5-0.1,1.1,0.2,1.2,0.8
		c0,0.2,0,0.4-0.1,0.6c-1.7,4.6-5.5,8.1-9.8,10c-0.1,0.1-0.3,0.1-0.4,0.1c-0.6,0.1-1-0.3-1.1-0.8c-0.1-0.4,0.1-0.8,0.7-1.1
		c4.1-1.9,7.1-4.7,8.7-8.8C127.4,41.3,127.7,41.1,128.1,41.1z"/>
	<path class="st1" d="M134.9,52c-0.3,0-0.5-0.1-0.5-0.4c0-0.2,0.1-0.5,0.4-0.5l3.1-0.4c0.3,0,0.5-0.3,0.4-0.6l-1.3-8.9
		c0-0.2,0.2-0.4,0.4-0.5c0.2,0,0.5,0.1,0.5,0.3l1.3,9.1c0.1,0.7-0.3,1.3-1,1.4L134.9,52z"/>
	<path class="st1" d="M145,43c-0.6-3.9,2.3-7.6,7-8.3c4.2-0.6,7,1.7,7.5,5.1c0.4,3.1-1.1,5.7-3.9,7c-0.1,0.1-0.3,0.1-0.4,0.1
		c-0.6,0.1-1-0.3-1.1-0.8c-0.1-0.4,0.1-0.8,0.6-1c2.3-1.2,3.1-2.8,2.8-5c-0.3-2.3-2.1-3.9-4.8-3.7c0.2,2.9-0.1,5.6-0.9,7.6
		c-0.7,1.8-1.7,2.4-3,2.6C147,46.9,145.3,45.7,145,43z M146.9,42.7c0.2,1.6,0.9,2.1,1.5,2c0.5-0.1,1-0.4,1.3-1.4
		c0.7-1.7,1-4,0.8-6.5C148.2,37.7,146.6,40.2,146.9,42.7z"/>
	<path class="st1" d="M170.3,37.9c0.9-0.4,1.8-0.6,2.9-0.8c2.8-0.4,4.7,0.6,5,2.8s-1,3.8-3.5,4.6c-0.1,0-0.1,0-0.2,0
		c-0.6,0.1-1-0.3-1-0.8c-0.1-0.4,0.1-0.8,0.7-1c1.6-0.5,2.2-1.4,2.1-2.5c-0.1-0.9-1.1-1.6-2.8-1.4c-1.1,0.2-2,0.5-2.9,0.9l0.4,3.1
		c0.3,1.8-0.4,2.6-2,2.8s-3.4-0.7-3.6-2.2c-0.2-1.3,0.4-2.7,3.2-4.6l-0.4-2.9c-0.8,0.2-1.7,0.4-2.4,0.5c-0.6,0.1-0.9-0.3-1-0.8
		s0.1-0.9,0.7-1c0.7-0.1,1.5-0.3,2.4-0.5l-0.4-2.6c-0.1-0.6,0.3-0.9,0.8-1s1,0.1,1,0.7l0.3,2.4c0.6-0.2,1.1-0.4,1.6-0.6
		c0.1,0,0.2-0.1,0.3-0.1c0.6-0.1,1,0.3,1,0.8c0.1,0.4-0.1,0.8-0.6,0.9c-0.6,0.2-1.3,0.5-2.1,0.7L170.3,37.9z M168.8,40.6
		c-1.4,1.1-1.6,1.7-1.5,2.3s0.7,0.8,1.4,0.7c0.5-0.1,0.5-0.4,0.4-0.8L168.8,40.6z M178,33.3c0.3,0.2,0.5,0.5,0.5,0.8
		c0.1,0.5-0.3,1-0.9,1.1c-0.2,0-0.5,0-0.7-0.2c-0.7-0.4-1.6-0.9-2.3-1.2c-0.4-0.1-0.6-0.4-0.6-0.7c-0.1-0.5,0.3-1.1,0.8-1.2
		c0.2,0,0.3,0,0.5,0.1C176.2,32.3,177.2,32.8,178,33.3z"/>
	<path class="st1" d="M186.6,27.8c0.5-0.1,1,0.2,1.1,0.7c0,0.1,0,0.3-0.1,0.4c-0.6,1.4-1.5,2.9-2.4,4c-0.2,0.2-0.4,0.3-0.6,0.3
		c-0.5,0.1-1-0.3-1-0.8c0-0.2,0-0.5,0.3-0.8c0.8-0.9,1.6-2.2,2.1-3.4C186,28,186.3,27.8,186.6,27.8z M186.4,37
		c-0.2,0.3-0.4,0.5-0.6,0.8c-0.2,0.2-0.4,0.3-0.6,0.4c-0.5,0.1-0.9-0.3-1-0.7c0-0.2,0-0.5,0.2-0.8c0.9-1.1,1.9-2.9,2.6-4.6
		c0.1-0.3,0.4-0.5,0.7-0.6c0.5-0.1,1,0.2,1.1,0.7c0,0.1,0,0.3-0.1,0.4c-0.3,0.9-0.7,1.8-1.2,2.6c0.3,0.1,0.5,0.2,0.6,0.6l1,7.2
		c0.1,0.5-0.4,0.8-0.8,0.8c-0.4,0.1-0.9-0.1-1-0.6L186.4,37z M194,27.2c1.3-0.2,1.8,0.3,2,1.3l0.3,2.4c0,0.3,0.1,0.4,0.7,0.3
		c0.5-0.1,0.7-0.3,0.7-1c0-0.5,0.3-0.8,0.7-0.8c0.4-0.1,0.9,0.1,1,0.6s0,1.1-0.2,1.6c-0.3,0.7-0.8,1-2.2,1.2
		c-1.7,0.2-2.2-0.1-2.3-1.2l-0.3-2.4c0-0.3-0.2-0.4-0.4-0.4l-1.1,0.2c-0.3,0-0.4,0.2-0.3,0.5l0.1,0.4c0.2,1.5-0.3,3.1-1.5,4.2
		c-0.2,0.2-0.4,0.3-0.6,0.3c-0.5,0.1-1-0.3-1.1-0.7c0-0.3,0-0.5,0.3-0.8c0.9-0.8,1.2-1.7,1-3l-0.1-0.4c-0.1-1,0.2-1.6,1.4-1.8
		L194,27.2z M196,33.9c1.2-0.2,1.9,0.2,2.1,1c0,0.3,0,0.7-0.2,1.2c-0.3,0.9-0.8,1.8-1.4,2.6c1,0.5,2.1,0.9,3.3,1.1
		c0.6,0.1,0.9,0.4,0.9,0.8c0.1,0.5-0.2,1-0.8,1.1c-0.1,0-0.2,0-0.4,0c-1.5-0.3-2.9-0.8-4.2-1.6c-1.2,1.2-2.6,2.3-4.1,3
		c-0.1,0.1-0.2,0.1-0.3,0.1c-0.5,0.1-0.9-0.3-1-0.7c0-0.3,0.1-0.7,0.6-1c1.3-0.6,2.5-1.5,3.4-2.5c-1-0.8-1.8-1.8-2.5-2.9l-0.8,0.1
		c-0.4,0.1-0.7-0.3-0.8-0.7s0.1-0.8,0.5-0.9L196,33.9z M193.2,35.9c0.5,0.7,1.1,1.3,1.8,1.8c0.4-0.6,0.8-1.2,1-1.9
		c0-0.1,0-0.2,0-0.2c0-0.1-0.1-0.1-0.3-0.1L193.2,35.9z"/>
	<path class="st1" d="M210.6,25.1c-0.1-0.5,0.4-0.8,0.8-0.9c0.5-0.1,1,0.1,1.1,0.6l0.3,2.4l5.9-0.8c0.5-0.1,0.8,0.3,0.9,0.7
		c0.1,0.4-0.1,0.9-0.6,1L205.6,30c-0.5,0.1-0.8-0.3-0.9-0.7c-0.1-0.4,0.1-0.9,0.6-0.9l5.7-0.8L210.6,25.1z M213.9,37.7
		c0.5-2.4,0.9-5.2,1-7.6c0-0.5,0.4-0.8,0.9-0.8c0.5-0.1,1,0.2,1.1,0.7c0,0.1,0,0.1,0,0.2c-0.1,2.4-0.5,5.1-1,7.3l4.8-0.7
		c0.5-0.1,0.8,0.3,0.9,0.7c0.1,0.4-0.1,0.9-0.6,1l-14.4,2c-0.5,0.1-0.8-0.3-0.9-0.7c-0.1-0.4,0.1-0.9,0.6-0.9L213.9,37.7z
		 M208.1,31.9c-0.1-0.1-0.1-0.2-0.1-0.4c-0.1-0.5,0.4-0.9,0.9-1c0.4-0.1,0.8,0.1,1,0.5c0.8,1.4,1.5,3.1,2,4.5c0,0.1,0,0.2,0,0.2
		c0.1,0.6-0.3,1-0.8,1.1c-0.4,0.1-0.9-0.2-1.1-0.7C209.6,34.8,208.9,33.3,208.1,31.9z"/>
	<path class="st1" d="M230.3,30.4c1.2-0.9,2.8-1.7,4.2-1.9c2.6-0.4,4.1,0.8,4.4,2.7c0.4,2.8-2,4.6-5.1,5.3c-0.3,0.1-0.4,0.1-0.6,0.1
		c-0.6,0.1-1-0.3-1-0.8c-0.1-0.4,0.1-0.9,0.7-1c3.2-0.7,4.2-2,4-3.4c-0.1-0.9-0.8-1.5-2.2-1.3c-1.9,0.3-3.4,1.2-4.8,2.9
		c-0.2,0.2-0.4,0.4-0.7,0.4c-0.5,0.1-1-0.2-1.1-0.8c0-0.1,0-0.3,0-0.4c0.3-1.7,0.5-3.4,0.6-5c-0.8,0.2-1.6,0.3-2.3,0.4
		c-0.6,0.1-0.9-0.3-1-0.8c-0.1-0.4,0.2-0.9,0.7-1c0.8-0.1,1.7-0.3,2.7-0.5c0-0.9,0-1.8-0.1-2.6c0-0.5,0.4-0.9,0.8-0.9
		c0.4-0.1,0.9,0.1,1,0.7v0.1c0,0.8,0,1.6,0,2.3c1.3-0.4,2.6-0.8,3.7-1.2c0.1,0,0.2-0.1,0.3-0.1c0.5-0.1,0.9,0.3,1,0.8
		c0.1,0.4-0.1,0.8-0.7,1c-1.3,0.5-2.9,1-4.4,1.4C230.5,28.2,230.4,29.4,230.3,30.4L230.3,30.4z"/>
	<path class="st1" d="M244,23.3c0.3,0,0.7,0.1,0.8,0.5c0.1,0.5,0,1.8-0.1,2.7c-0.1,0.4-0.3,0.6-0.6,0.6s-0.7-0.1-0.8-0.5
		c0-0.1,0-0.1,0-0.2c0.1-0.7,0.1-1.7,0.1-2.4C243.4,23.5,243.6,23.3,244,23.3z M248.4,34.6c0.1,0.5-0.4,0.8-0.8,0.9
		c-0.5,0.1-1-0.1-1-0.6l-2.1-14.6c-0.1-0.5,0.4-0.8,0.8-0.9s1,0.1,1,0.6L248.4,34.6z M248.8,24.1v0.1c0.1,0.4-0.3,0.8-0.6,0.8
		s-0.6-0.1-0.7-0.5c-0.2-0.5-0.4-1.1-0.5-1.5c0-0.1-0.1-0.1-0.1-0.2c-0.1-0.4,0.2-0.6,0.6-0.7c0.3,0,0.6,0.1,0.7,0.4
		C248.4,23,248.6,23.6,248.8,24.1z M252.7,23.2l-2.3,0.3c-0.4,0.1-0.6-0.3-0.7-0.6c-0.1-0.4,0.1-0.7,0.5-0.8l2.3-0.3l-0.1-0.6
		l-3.1,0.4c-0.4,0.1-0.7-0.3-0.7-0.6c-0.1-0.4,0.1-0.8,0.5-0.8l3.1-0.4l-0.1-0.7c-0.1-0.5,0.3-0.8,0.8-0.9c0.4-0.1,0.9,0.1,1,0.6
		l0.1,0.7l3.4-0.5c0.4-0.1,0.7,0.3,0.7,0.6s-0.1,0.8-0.5,0.8l-3.4,0.5l0.1,0.6l2.5-0.3c0.4-0.1,0.7,0.3,0.7,0.6
		c0,0.3-0.1,0.7-0.5,0.8l-2.5,0.3l0.1,0.6l4-0.6c0.4-0.1,0.7,0.3,0.7,0.7c0.1,0.4-0.1,0.8-0.5,0.8l-9.4,1.3
		c-0.4,0.1-0.7-0.3-0.7-0.7c-0.1-0.4,0.1-0.8,0.5-0.8l3.5-0.5L252.7,23.2z M256,25.6c1.4-0.2,2,0.3,2.2,1.4l0.7,4.8
		c0.2,1.4-0.2,2.1-1.6,2.3c-0.3,0-0.8,0.1-1.1,0.1c-0.5,0-0.7-0.4-0.8-0.7c-0.1-0.4,0.1-0.8,0.6-0.9h0.1c0.3,0,0.5,0,0.7,0
		c0.3,0,0.4-0.1,0.4-0.6l-0.1-0.6L253,32l0.3,2.2c0.1,0.5-0.4,0.8-0.8,0.8c-0.4,0.1-0.9-0.1-1-0.6l-0.9-6.2
		c-0.2-1.1,0.3-1.7,1.7-1.9L256,25.6z M252.7,27.5c-0.4,0.1-0.5,0.2-0.5,0.5l0.1,0.4l4.1-0.6l-0.1-0.4c0-0.3-0.2-0.4-0.6-0.3
		L252.7,27.5z M256.6,29.1l-4.1,0.6l0.1,0.8l4.1-0.6L256.6,29.1z"/>
	<path class="st1" d="M270.3,17.7c0.4-0.1,0.7,0.3,0.8,0.7c0.1,0.4-0.1,0.8-0.6,0.9l-1.8,0.3l0.2,1.1l2.6-0.4
		c0.4-0.1,0.7,0.3,0.8,0.7s-0.1,0.8-0.6,0.9l-7,1c-0.4,0.1-0.7-0.3-0.8-0.7c-0.1-0.4,0.1-0.8,0.5-0.9l2.6-0.4l-0.2-1.1l-1.8,0.3
		c-0.4,0.1-0.7-0.3-0.8-0.7c-0.1-0.4,0.1-0.8,0.5-0.9l1.8-0.3l-0.2-1.1c-0.1-0.4,0.4-0.7,0.8-0.8c0.4-0.1,0.9,0.1,1,0.5l0.2,1.1
		L270.3,17.7z M267.9,26.7l-2.6,0.4c-0.4,0.1-0.7-0.3-0.8-0.7c-0.1-0.4,0.1-0.8,0.5-0.9l3.6-0.5c0.2-0.6,0.4-1.3,0.6-2.1
		c0.1-0.4,0.4-0.6,0.7-0.7c0.4-0.1,0.9,0.2,1,0.6c0,0.1,0,0.2,0,0.3c-0.1,0.6-0.3,1.1-0.4,1.6l1.6-0.2c0.4-0.1,0.7,0.3,0.8,0.7
		c0.1,0.4-0.1,0.8-0.6,0.9l-2.6,0.4l0.2,1.2l2-0.3c0.4-0.1,0.7,0.3,0.8,0.7c0.1,0.4-0.1,0.8-0.6,0.9l-2,0.3l0.3,2.5
		c0.1,0.4-0.3,0.7-0.8,0.8c-0.4,0.1-0.9-0.1-1-0.5l-0.3-2.5l-2,0.3c-0.4,0.1-0.7-0.3-0.8-0.7c-0.1-0.4,0.1-0.8,0.5-0.9l2-0.3
		L267.9,26.7z M265.7,23.5c-0.1-0.4,0.3-0.8,0.7-0.8c0.3,0,0.6,0.1,0.8,0.3c0.2,0.3,0.3,0.5,0.5,0.7c0.1,0.1,0.1,0.2,0.1,0.3
		c0.1,0.5-0.3,0.8-0.8,0.9c-0.3,0-0.6,0-0.7-0.3c-0.2-0.3-0.3-0.5-0.5-0.8C265.8,23.8,265.7,23.6,265.7,23.5z M277.9,21.6
		c1.4-0.2,1.9,0.3,2,1.2c0,0.2,0,0.5,0,0.7c-0.1,1.3-0.3,2.6-0.7,3.9c0.5,0.5,1.2,1,1.9,1.4c0.3,0.2,0.4,0.4,0.5,0.7
		c0.1,0.5-0.3,1-0.7,1c-0.2,0-0.4,0-0.6-0.1c-0.6-0.4-1.2-0.8-1.7-1.3c-0.3,0.6-0.6,1.2-1,1.7c-0.2,0.2-0.4,0.3-0.6,0.4
		c-0.4,0.1-0.9-0.2-1-0.6c0-0.2,0-0.5,0.2-0.7c0.5-0.6,0.8-1.3,1.2-2.1c-1-1.2-1.7-2.7-2.1-4.2l-0.4,0.1l1,7.3
		c0.1,0.4-0.4,0.7-0.8,0.8c-0.4,0.1-0.9-0.1-1-0.5l-1.8-13c-0.2-1.2,0.4-1.7,1.6-1.9l2.9-0.4c1.4-0.2,2,0.3,2.2,1.4l0.2,1.7
		c0.2,1.1-0.4,1.7-1.6,1.9c-0.4,0.1-0.9,0.1-1.3,0.1c-0.5,0-0.8-0.4-0.8-0.7c-0.1-0.4,0.2-0.8,0.6-0.9c0.1,0,0.1,0,0.2,0
		c0.3,0,0.6,0,0.8,0c0.2,0,0.3-0.1,0.3-0.4l-0.2-1.2c0-0.3-0.1-0.4-0.5-0.3l-2.3,0.3c-0.3,0-0.4,0.2-0.4,0.5l0.5,3.9L277.9,21.6z
		 M276.8,23.3c0.3,0.9,0.7,1.7,1.2,2.5c0.2-0.8,0.3-1.6,0.3-2.4v-0.1c0-0.2-0.1-0.2-0.4-0.2L276.8,23.3z"/>
</g>
</svg>
