<!-- Generator: Adobe Illustrator 22.1.0, SVG Export Plug-In  -->
<svg version="1.1"
	 xmlns="http://www.w3.org/2000/svg" xmlns:xlink="http://www.w3.org/1999/xlink" xmlns:a="http://ns.adobe.com/AdobeSVGViewerExtensions/3.0/"
	 x="0px" y="0px" width="359.4px" height="41.2px" viewBox="0 0 359.4 41.2" style="enable-background:new 0 0 359.4 41.2;"
	 xml:space="preserve">
<style type="text/css">
	.st0{fill:#FFFFFF;}
</style>
<defs>
</defs>
<g>
	<g>
		<path class="st0" d="M11,0c0.6,0,1,0.5,1,1.1c0,0.6-0.4,1-1,1H3.5c-0.7,0-1.2,0.5-1.2,1.2v21.7c0,0.6-0.5,1-1.1,1
			c-0.6,0-1.1-0.4-1.1-1V2.9C0,1.2,1.2,0,2.9,0H11z"/>
		<path class="st0" d="M41.5,9.2c3.3,0,5,1.3,5,3.7c0,0.6-0.1,1.4-0.4,2.1c-2.8,9.3-10.8,18.4-19.7,23.2c-0.4,0.2-0.9,0.4-1.3,0.4
			c-1.3,0-2.2-1.1-2.2-2.2c0-0.8,0.4-1.6,1.4-2.2c3.8-2.1,7.4-5,10.3-8.4c-1.8-1.6-3.3-2.8-4.6-3.7c-0.7-0.5-1-1.1-1-1.8
			c0-1.1,1-2.1,2.2-2.1c0.4,0,0.9,0.1,1.4,0.4c1.6,1,3.2,2.2,4.8,3.7c1.8-2.6,3.2-5.3,4-7.9c0.1-0.2,0.1-0.4,0.1-0.6
			c0-0.4-0.3-0.6-1.1-0.6l-9.8,0.1c-2,3-4.4,5.8-6.7,7.9c-0.6,0.5-1.2,0.7-1.8,0.7c-1.2,0-2.2-1-2.2-2.1c0-0.6,0.3-1.3,1-1.9
			c3.7-3.4,7.5-8.6,9.6-13.5C31,3.3,32,2.9,32.8,2.9c1.2,0,2.3,0.8,2.3,2c0,0.3,0,0.6-0.2,1c-0.5,1.1-1,2.2-1.7,3.4L41.5,9.2z"/>
		<path class="st0" d="M69.1,18.7c-3.3,2.6-6.8,4.9-10.1,6.7c-0.5,0.3-1,0.4-1.4,0.4c-1.3,0-2.2-1.1-2.2-2.2c0-0.8,0.4-1.7,1.5-2.2
			c7.2-3.8,14.6-10,19.4-16.4c0.6-0.7,1.3-1,2-1c1.2,0,2.4,1,2.4,2.2c0,0.4-0.2,1-0.6,1.5c-2.4,3.1-5.3,6.1-8.5,8.9
			c1.1,0.1,2.1,0.8,2.1,2.1v17.6c0,1.4-1.2,2.1-2.4,2.1c-1.2,0-2.4-0.7-2.4-2.1V18.7z"/>
		<path class="st0" d="M113.5,8.5c4.2,0,5.8,1.5,5.8,4.2c0,0.7-0.1,1.4-0.3,2.3c-2.2,9.5-9.2,17.6-18.6,22.2
			c-0.5,0.2-0.9,0.3-1.3,0.3c-1.4,0-2.3-1.1-2.3-2.4c0-0.8,0.4-1.6,1.4-2.1c8.8-4.6,13.8-11,15.9-18.2c0.1-0.3,0.1-0.6,0.1-0.8
			c0-0.8-0.5-1-1.7-1l-19.3,0.2c-1.5,0-2.3-1.2-2.3-2.4c0-1.1,0.7-2.2,2.1-2.2L113.5,8.5z M125.8,5.1c0,2.4-1.9,4.3-4.3,4.3
			c-2.4,0-4.3-1.9-4.3-4.3c0-2.4,1.9-4.3,4.3-4.3C123.9,0.8,125.8,2.7,125.8,5.1z M119.2,5.1c0,1.3,1,2.3,2.3,2.3s2.3-1,2.3-2.3
			s-1-2.3-2.3-2.3S119.2,3.8,119.2,5.1z"/>
		<path class="st0" d="M127.8,41.2c-0.6,0-1-0.5-1-1.1c0-0.6,0.4-1,1-1h7.5c0.7,0,1.2-0.5,1.2-1.2V16.1c0-0.6,0.5-1,1.1-1
			s1.1,0.4,1.1,1v22.2c0,1.7-1.2,2.9-2.9,2.9H127.8z"/>
		<path class="st0" d="M153.9,23.6c0-9.1,7.6-16.6,18.6-16.6c9.8,0,15.4,6.1,15.4,14.1c0,7.2-4.3,12.6-11.2,14.8
			c-0.3,0.1-0.6,0.2-0.9,0.2c-1.4,0-2.2-1.1-2.2-2.3c0-0.9,0.5-1.8,1.7-2.2c5.7-2,8-5.5,8-10.4c0-5.2-3.6-9.6-9.6-10
			c-0.4,6.6-2,12.6-4.5,17c-2.2,3.9-4.6,5-7.6,5C157.3,33.1,153.9,29.8,153.9,23.6z M158.5,23.6c0,3.7,1.4,5,2.9,5
			c1.2,0,2.3-0.6,3.5-2.7c2-3.6,3.5-8.7,4-14.6C162.9,12.5,158.5,17.6,158.5,23.6z"/>
		<path class="st0" d="M198.6,23.5c-0.1,0.2-0.2,0.3-0.3,0.5c-0.4,0.7-1.1,1-1.8,1c-1,0-2-0.7-2-1.8c0-0.4,0.1-0.9,0.4-1.4
			c2.2-3.6,3.9-8.4,4.6-13.3h-2.9c-1,0-1.6-1-1.6-1.9c0-1,0.6-1.9,1.6-1.9h10.7c1.1,0,1.6,1,1.6,1.9c0,1-0.6,1.9-1.6,1.9h-3.8
			c-0.4,2.5-1,5-1.8,7.4h3.3c2.7,0,3.6,1.1,3.6,3.8v11.4c0,2.6-0.8,3.8-3.6,3.8h-3.1c-2.7,0-3.6-1.1-3.6-3.8v-3.9L198.6,23.5z
			 M204.1,31.4c0.6,0,0.8-0.2,0.8-1v-10c0-0.8-0.2-1-0.8-1h-0.8c-0.6,0-0.8,0.2-0.8,1v10c0,0.6,0.1,1,0.8,1H204.1z M220.8,15.8
			c0.5-1.1,0.9-2.4,1.2-3.2c0.3-0.8,1-1.2,1.8-1.2c1,0,2,0.6,2,1.6c0,0.2,0,0.4-0.1,0.6c-0.2,0.7-0.5,1.4-0.9,2.3h5.6
			c0.9,0,1.4,0.8,1.4,1.6c0,0.8-0.5,1.6-1.4,1.6h-5.8v2.6h4.2c0.9,0,1.3,0.8,1.3,1.6s-0.4,1.6-1.3,1.6h-4.2v2.6h4.2
			c0.9,0,1.3,0.8,1.3,1.6s-0.4,1.6-1.3,1.6h-4.2v2.9h6.2c1,0,1.4,0.8,1.4,1.7s-0.4,1.7-1.4,1.7h-13.9v0.8c0,1-1,1.6-2,1.6
			s-2-0.6-2-1.6V23.1c-0.5,0.5-1,0.7-1.5,0.7c-1,0-2-0.8-2-1.9c0-0.5,0.2-1,0.7-1.6c2.5-2.8,4.7-6.4,6.3-10.4h-1.8
			c-1,0-1.1,0.2-1.1,1v1.8c0,1.1-1,1.7-2,1.7c-1,0-2-0.6-2-1.7v-2.4c0-2.6,1-3.8,4.7-3.8h3.6c0.3-1,0.6-2,0.8-3
			c0.2-1.1,1.1-1.6,2-1.6c1,0,2.2,0.7,2.2,1.8c0,0.2,0,0.3-0.1,0.5c-0.2,0.8-0.4,1.5-0.6,2.2h5.4c3.7,0,4.7,1.2,4.7,3.8v2
			c0,1.1-1,1.7-2,1.7c-1,0-2-0.6-2-1.7V11c0-0.8-0.2-1-1.1-1h-6.2c-0.8,2-1.8,4-2.8,5.8H220.8z M220.7,21.7v-2.6h-2.9
			c-0.7,0-0.9,0.3-0.9,0.8v1.8H220.7z M220.7,27.5v-2.6h-3.8v2.6H220.7z M220.7,33.6v-2.9h-3.8v2.9H220.7z"/>
		<path class="st0" d="M239.7,13.2c-1,0-1.6-1-1.6-2c0-1,0.6-2,1.6-2h12c1.1,0,1.6,1,1.6,2c0,1-0.6,2-1.6,2H239.7z M244,38.2
			c-3,0-4-1.2-4-3.6v-5c0-2.4,1-3.6,4-3.6h4c3,0,4,1.2,4,3.6v5c0,2.8-1.3,3.6-4,3.6H244z M241.8,7.4c-1,0-1.5-1-1.5-1.9
			c0-1,0.5-1.9,1.5-1.9h8c1,0,1.6,0.9,1.6,1.9c0,0.9-0.5,1.9-1.6,1.9H241.8z M241.8,18.7c-1,0-1.5-1-1.5-1.9c0-1,0.5-1.9,1.5-1.9h8
			c1,0,1.6,0.9,1.6,1.9c0,0.9-0.5,1.9-1.6,1.9H241.8z M241.8,24.2c-1,0-1.5-1-1.5-1.9c0-1,0.5-1.9,1.5-1.9h8c1,0,1.6,0.9,1.6,1.9
			c0,0.9-0.5,1.9-1.6,1.9H241.8z M247.1,34.6c0.6,0,0.8-0.2,0.8-0.9v-3.2c0-0.7-0.2-0.9-0.8-0.9h-2.3c-0.6,0-0.8,0.2-0.8,0.9v3.2
			c0,0.6,0.2,0.9,0.8,0.9H247.1z M256.4,34c-0.4,1-1.2,1.4-1.9,1.4c-1,0-1.9-0.7-1.9-1.9c0-0.3,0.1-0.7,0.3-1.1
			c0.6-1.3,1-2.5,1.4-4.1c0.2-1,1-1.4,1.8-1.4c1,0,1.9,0.7,1.9,1.8c0,0.2,0,0.4-0.1,0.6C257.5,31,257.1,32.4,256.4,34z M265,8
			c-0.2,1.6-0.6,3.1-1.1,4.5c0.4,0.3,0.8,0.5,1.2,0.8c0.8,0.5,1.1,1.2,1.1,1.8c0,1-0.8,1.8-1.9,1.8c-0.4,0-0.9-0.1-1.3-0.4
			c-0.2-0.2-0.5-0.4-0.8-0.5c-1.4,2.4-3.2,4.5-5.4,6c-0.4,0.3-0.9,0.4-1.3,0.4c-1.2,0-2.1-0.9-2.1-2c0-0.6,0.3-1.2,1-1.8
			c1.8-1.2,3.2-2.8,4.3-4.6c-0.7-0.3-1.4-0.6-2.1-0.9c-0.8-0.3-1.2-1-1.2-1.6c0-0.9,0.7-1.8,1.9-1.8c0.2,0,0.5,0,0.8,0.1
			c0.6,0.2,1.4,0.5,2.1,0.8c0.3-0.9,0.5-1.8,0.6-2.8h-4.3c-1,0-1.6-1-1.6-1.9c0-1,0.6-1.9,1.6-1.9h12.7c3.2,0,4.6,1.5,4.5,4
			c-0.1,3.7-0.5,6.7-1,9c-0.7,3-2.5,4.2-5,4.2c-0.8,0-1.7-0.1-2.5-0.2c-1.2-0.2-1.7-1.1-1.7-2c0-1,0.7-2,1.9-2c0.2,0,0.3,0,0.5,0
			c0.5,0.1,1,0.2,1.4,0.2c0.6,0,1-0.3,1.3-1.2c0.6-1.9,0.9-4.6,0.9-7.3c0-0.8-0.2-1-1.2-1H265z M258.6,27.2c0-1.2,1-1.7,2.1-1.7
			c1,0,2.1,0.6,2.1,1.7v6.4c0,0.7,0.4,0.9,1.8,0.9c1.9,0,2.4-0.3,2.7-2.3c0.1-1,1-1.5,1.9-1.5c1,0,2,0.6,2,1.7c0,1.2-0.3,3-1.2,4
			c-1,1.1-2.2,1.8-5.5,1.8c-5,0-5.9-1-5.9-4V27.2z M267.6,24c0.6,0.5,0.8,1.1,0.8,1.6c0,1.1-1,2-2,2c-0.5,0-1-0.2-1.6-0.7
			c-0.9-0.8-1.4-1.3-2.4-2c-0.6-0.4-0.8-1-0.8-1.5c0-1,0.8-1.9,1.9-1.9c0.4,0,0.9,0.1,1.4,0.4C265.9,22.6,266.6,23.2,267.6,24z
			 M275.9,30.7c0.2,0.4,0.3,0.8,0.3,1.1c0,1.2-1.1,2.2-2.2,2.2c-0.8,0-1.5-0.4-1.9-1.4c-0.6-1.5-1.5-3-2.3-4.2
			c-0.2-0.4-0.3-0.7-0.3-1c0-1,0.9-1.8,2-1.8c0.6,0,1.3,0.3,1.9,1C274.3,27.7,275.2,29.2,275.9,30.7z"/>
		<path class="st0" d="M296.4,3.6c0-1.2,1.1-1.8,2.2-1.8c1.1,0,2.2,0.6,2.2,1.8v5.2h14.1c1.2,0,1.8,1,1.8,2c0,1-0.6,2-1.8,2h-15.3
			c-0.1,1.5-0.3,3-0.5,4.4h7.2c3.8,0,5.6,1.2,5.6,4.4c0,2.8-0.6,7.3-1.4,10.8c-1,4.2-3.2,5.8-7,5.8c-1.5,0-2.8-0.1-4.2-0.4
			c-1.2-0.3-1.8-1.2-1.8-2.1c0-1.1,0.8-2.2,2.1-2.2c0.2,0,0.4,0,0.6,0.1c1.3,0.3,2.1,0.4,3.1,0.4c1.5,0,2.5-0.6,3-2.6
			c0.8-3,1.3-7.1,1.3-9.2c0-0.8-0.3-1.1-1.3-1.1h-8c-2.2,7.8-6.6,13.4-13,17.2c-0.5,0.3-0.9,0.4-1.3,0.4c-1.3,0-2.2-1.1-2.2-2.2
			c0-0.7,0.4-1.4,1.3-2c2.3-1.4,4.4-3,6.2-5.2c3.9-4.6,5.5-10.7,5.8-16.6h-12.3c-1.1,0-1.7-1-1.7-2c0-1,0.6-2,1.7-2h13.6V3.6z"/>
		<path class="st0" d="M329.7,16c0.5,0.6,0.7,1.1,0.7,1.6c0,1.2-1.1,2.2-2.2,2.2c-0.5,0-1.1-0.2-1.5-0.7c-1-1.1-2.5-2.4-3.4-3.1
			c-0.6-0.5-0.8-1-0.8-1.5c0-1.1,1-2,2.2-2c0.4,0,0.9,0.1,1.4,0.4C327.2,13.6,328.7,14.9,329.7,16z M330.6,23.6c1.2,0,2.4,0.8,2.4,2
			c0,0.2,0,0.4-0.1,0.7c-1.2,3.7-3.1,7.9-4.8,10.7c-0.6,0.9-1.4,1.2-2.2,1.2c-1.2,0-2.2-0.8-2.2-2c0-0.4,0.1-0.8,0.4-1.3
			c1.7-2.6,3.4-6.5,4.5-10C328.8,24,329.7,23.6,330.6,23.6z M332.6,6.4c0.5,0.5,0.7,1.1,0.7,1.6c0,1.2-1,2.1-2.2,2.1
			c-0.5,0-1.1-0.2-1.6-0.8c-1.1-1.1-2.3-2.3-3.2-3c-0.6-0.5-0.8-1-0.8-1.5c0-1,1-2,2.2-2c0.4,0,1,0.2,1.4,0.5
			C330.3,4.1,331.6,5.3,332.6,6.4z M355.1,9.6c1.2,0,1.7,1,1.7,1.9s-0.6,1.9-1.7,1.9h-7.2v5.8h9.8c1.2,0,1.7,1,1.7,1.9
			c0,1-0.6,1.9-1.7,1.9H346c-1.2,3.3-2.4,6.5-4,9.6c2.8-0.4,5.6-0.7,8.3-1.2c-0.6-0.8-1.3-1.6-1.9-2.3c-0.4-0.4-0.5-0.9-0.5-1.3
			c0-1,1-1.9,2.1-1.9c0.6,0,1.2,0.2,1.8,0.8c1.8,2,4.3,5,6.1,7.6c0.3,0.4,0.4,0.9,0.4,1.3c0,1.2-1.2,2.2-2.4,2.2
			c-0.7,0-1.5-0.4-2-1.2c-0.4-0.6-0.7-1.2-1.2-1.8c-6,1.4-12,2.3-17.4,2.8H335c-1.4,0-2.2-1.1-2.2-2.1c0-1,0.6-2,1.9-2
			c0.7,0,1.4-0.1,2.2-0.2c0.8-1.5,1.6-3,2.2-4.5c0.8-1.8,1.6-3.7,2.2-5.6h-6.8c-1.1,0-1.7-1-1.7-1.9c0-1,0.6-1.9,1.7-1.9h9v-5.8H337
			c-1.1,0-1.7-1-1.7-1.9s0.6-1.9,1.7-1.9h6.6V4c0-1.3,1.1-1.9,2.2-1.9c1.1,0,2.2,0.6,2.2,1.9v5.7H355.1z"/>
	</g>
</g>
</svg>
