<!-- Generator: Adobe Illustrator 22.1.0, SVG Export Plug-In  -->
<svg version="1.1"
	 xmlns="http://www.w3.org/2000/svg" xmlns:xlink="http://www.w3.org/1999/xlink" xmlns:a="http://ns.adobe.com/AdobeSVGViewerExtensions/3.0/"
	 x="0px" y="0px" width="238.6px" height="37.1px" viewBox="0 0 238.6 37.1" style="enable-background:new 0 0 238.6 37.1;"
	 xml:space="preserve">
<style type="text/css">
	.st0{fill:#FFFFFF;}
</style>
<defs>
</defs>
<g>
	<path class="st0" d="M34.4,31.8c1.3,0.4,1.9,1.3,1.9,2.2c0,1.1-0.8,2.1-2.2,2.1c-0.2,0-0.5,0-0.8-0.1c-5.8-1.6-11-4.1-15.2-7.5
		c-4.4,3.8-9.8,6.6-15.5,7.9c-0.2,0-0.4,0.1-0.6,0.1c-1.2,0-2-1.1-2-2.1c0-0.8,0.5-1.6,1.5-1.9c5.1-1.4,9.8-3.6,13.6-6.8
		c-1.6-1.7-3-3.6-4.2-5.6c-0.2-0.4-0.3-0.8-0.3-1.1c0-1.1,1-1.9,2.1-1.9c0.7,0,1.5,0.4,2,1.2c1,1.6,2.1,3.2,3.3,4.5
		c1.3-1.5,2.4-3.1,3.2-4.9c0.5-0.9,1.2-1.3,2-1.3c1.1,0,2.1,0.8,2.1,2c0,0.3-0.1,0.6-0.2,1c-1.1,2.2-2.5,4.2-4.1,6
		C24.6,28.4,29,30.3,34.4,31.8z M15.8,1.8c0-1.2,1.1-1.7,2.2-1.7c1.1,0,2.2,0.6,2.2,1.7v3.1h14.1c1.1,0,1.6,0.9,1.6,1.9
		c0,0.9-0.6,1.9-1.6,1.9H2.1c-1.1,0-1.6-1-1.6-1.9c0-1,0.5-1.9,1.6-1.9h13.7V1.8z M11.2,9.8c1.1,0,2.2,0.8,2.2,1.9
		c0,0.4-0.2,0.9-0.5,1.3c-2,2.6-4.9,5.3-7.3,7c-0.5,0.4-1,0.5-1.4,0.5c-1.2,0-2-1-2-2c0-0.6,0.3-1.3,1-1.8c2.2-1.6,4.4-3.6,6.3-6.1
		C9.9,10.1,10.6,9.8,11.2,9.8z M32.8,15.6c0.6,0.6,0.8,1.2,0.8,1.8c0,1.2-1,2.2-2.1,2.2c-0.5,0-1.1-0.2-1.6-0.7
		c-2-1.9-4.4-3.8-6.6-5.4c-0.6-0.4-0.9-1-0.9-1.6c0-1,0.8-2,2-2c0.4,0,0.8,0.1,1.3,0.4C27.9,11.5,30.8,13.7,32.8,15.6z"/>
	<path class="st0" d="M53.3,8.7c1.1,0,1.6,1,1.6,1.9c0,1-0.6,1.9-1.6,1.9h-1.6v6.1c0.5-0.2,0.9-0.4,1.4-0.6c0.2-0.1,0.5-0.2,0.7-0.2
		c1.1,0,1.9,1,1.9,2c0,0.6-0.3,1.2-1.1,1.6c-1,0.5-1.9,0.9-2.9,1.3v10.3c0,2.6-1.3,4-4.2,4c-0.8,0-1.6-0.1-2.2-0.2
		c-1.1-0.2-1.6-1.1-1.6-2c0-1,0.6-2,1.8-2c0.1,0,0.2,0,0.3,0c0.3,0.1,0.7,0.1,1,0.1c0.6,0,0.8-0.2,0.8-0.8v-7.9
		c-0.8,0.3-1.5,0.5-2.2,0.7c-0.2,0.1-0.4,0.1-0.6,0.1c-1.2,0-1.9-1-1.9-2c0-0.8,0.4-1.6,1.5-1.9c1-0.3,2.1-0.6,3.2-1v-7.6h-2.8
		c-1,0-1.6-1-1.6-1.9c0-1,0.6-1.9,1.6-1.9h2.8V1.8c0-1.1,1-1.7,2.1-1.7c1,0,2,0.6,2,1.7v6.9H53.3z M69.1,27.9
		c2.3,2.6,5.7,4.2,9.6,4.9c1.1,0.2,1.6,1,1.6,1.8c0,1-0.8,2.2-2,2.2c-0.2,0-0.4,0-0.6-0.1c-4.7-1-8.6-3.3-11.2-6.7
		c-2.2,3.3-5.8,5.6-10.3,7c-0.3,0.1-0.5,0.1-0.8,0.1c-1.2,0-1.9-0.9-1.9-1.8c0-0.8,0.5-1.6,1.6-1.9c3.9-1.3,6.6-3,8.2-5.5h-7.4
		c-1,0-1.5-0.9-1.5-1.8c0-0.9,0.5-1.8,1.5-1.8h8.9c0.1-0.6,0.2-1.2,0.2-1.9c0.1-1.1,1-1.6,1.9-1.6c1,0,2,0.6,2,1.7
		c0,0.5-0.1,1.2-0.2,1.8h9.8c1,0,1.6,0.9,1.6,1.8c0,0.9-0.5,1.8-1.6,1.8H69.1z M57.2,11.9c-1.1,0-2-0.8-2-1.8c0-0.5,0.2-1.1,0.8-1.6
		c2.2-1.8,4.3-4.6,5.6-7.2c0.4-0.8,1.2-1.2,1.9-1.2c1,0,2.1,0.7,2.1,1.8c0,0.3-0.1,0.6-0.2,1c-0.2,0.3-0.3,0.6-0.5,1h3.2
		c2.1,0,3.3,1,3.3,2.5c0,0.6-0.2,1.2-0.6,1.9C70.4,9,70,9.7,69.5,10.4h3.9c2.9,0,4.2,1.2,4.2,3.8v7.4c0,1-0.9,1.6-1.9,1.6
		c-0.9,0-1.9-0.5-1.9-1.6V19c-0.5,0.7-1.4,1-3,1c-2.3,0-3-0.6-3-2.3v-4.1h-1.5c-0.1,3.2-1,5.2-2.8,6.8c-0.4,0.4-0.8,0.5-1.2,0.5
		c-0.8,0-1.4-0.7-1.4-1.4c0-0.4,0.2-0.8,0.6-1.2c1.2-1,1.8-2.2,1.9-4.6h-1.8c-0.8,0-1,0.2-1,1v7.3c0,1-0.9,1.6-1.9,1.6
		c-0.9,0-1.9-0.5-1.9-1.6v-7.7c0-0.8,0.1-1.6,0.5-2.3H57.2z M62.5,7.3c-0.9,1.2-1.9,2.2-3,3.2c0.5-0.1,1-0.1,1.6-0.1h3.9
		c0.6-0.8,1.1-1.6,1.6-2.5c0.1-0.1,0.1-0.2,0.1-0.3c0-0.2-0.2-0.2-0.5-0.2H62.5z M70.7,17c0,0.3,0.1,0.4,0.5,0.4
		c0.5,0,0.8-0.2,0.8-0.9c0.1-0.7,0.6-1,1.2-1c0.2,0,0.4,0,0.6,0.1v-1c0-0.8-0.2-1-1-1h-2.1V17z"/>
	<path class="st0" d="M91.8,30.8c-2.9,0-4-1.2-4-4V6.9c0-2.8,1.1-4,4-4h3.7c2.9,0,4,1.2,4,4v19.9c0,2.9-1.2,4-4,4H91.8z M95.4,7.9
		c0-0.9-0.2-1.2-1-1.2h-1.7c-0.8,0-1,0.3-1,1.2v6.5h3.6V7.9z M94.4,27c0.8,0,1-0.3,1-1.2v-7.6h-3.6v7.6c0,0.7,0.1,1.2,1,1.2H94.4z
		 M109.2,9.1h-5.1c-1.1,0-1.7-1-1.7-1.9c0-1,0.6-1.9,1.7-1.9h5.1V1.8c0-1.2,1.1-1.8,2.2-1.8c1,0,2.1,0.6,2.1,1.8v3.4h5.5
		c1.2,0,1.7,1,1.7,1.9c0,1-0.6,1.9-1.7,1.9h-5.5v3.4h8.4c1.2,0,1.7,1,1.7,1.9c0,1-0.6,1.9-1.7,1.9h-19.8c-1.1,0-1.7-1-1.7-1.9
		c0-1,0.6-1.9,1.7-1.9h7.1V9.1z M102.8,24.5c-1.1,0-1.7-1-1.7-2c0-1,0.6-1.9,1.7-1.9h10.6v-1.7c0-1.2,1.1-1.8,2.2-1.8
		c1,0,2.1,0.6,2.1,1.8v1.7h3.7c1.2,0,1.7,1,1.7,2c0,1-0.6,1.9-1.7,1.9h-3.7v7.9c0,3.4-1.5,4.7-4.6,4.7c-1.2,0-2.1-0.1-3.1-0.3
		c-1.1-0.2-1.6-1.1-1.6-2c0-1,0.7-2.1,1.9-2.1c0.1,0,0.3,0,0.4,0c0.6,0.1,1,0.2,1.7,0.2c0.8,0,1-0.2,1-1v-7.4H102.8z M109.2,28.7
		c0.3,0.4,0.4,0.8,0.4,1.2c0,1.2-1.1,2.1-2.2,2.1c-0.6,0-1.1-0.2-1.6-0.8c-0.6-0.9-1.3-1.6-2-2.4c-0.4-0.4-0.5-0.8-0.5-1.3
		c0-1,1-1.9,2.1-1.9c0.5,0,1,0.2,1.5,0.6C107.7,26.8,108.5,27.7,109.2,28.7z"/>
	<path class="st0" d="M143,2c0-1.1,1-1.6,2-1.6s2,0.5,2,1.6v3.6h1.7c1,0,1.5,0.8,1.5,1.7c0,0.8-0.5,1.7-1.5,1.7H147v14h1.8
		c1,0,1.5,0.9,1.5,1.8s-0.5,1.8-1.5,1.8h-17.4c-1,0-1.5-0.9-1.5-1.8s0.5-1.8,1.5-1.8h2.7v-14h-2.4c-1,0-1.5-0.9-1.5-1.7
		c0-0.9,0.5-1.7,1.5-1.7h2.4V2c0-1.1,1-1.6,2-1.6s2,0.5,2,1.6v3.6h4.9V2z M136.8,27.7c1.1,0,2.2,0.8,2.2,1.9c0,0.4-0.1,0.7-0.3,1.1
		c-0.9,1.6-2.4,3.8-3.9,5.2c-0.6,0.5-1.2,0.8-1.8,0.8c-1.1,0-2.1-0.9-2.1-2c0-0.6,0.3-1.2,0.9-1.8c1.1-1,2.2-2.5,3.2-4.2
		C135.5,28,136.1,27.7,136.8,27.7z M138.1,9.1v2.5h4.9V9.1H138.1z M138.1,17.3h4.9v-2.6h-4.9V17.3z M143,20.4h-4.9v2.7h4.9V20.4z
		 M147.7,30.9c0.3,0.5,0.4,0.9,0.4,1.4c0,1.2-1,2.1-2.1,2.1c-0.6,0-1.2-0.3-1.7-1c-0.6-1-1.5-2.1-2.1-2.8c-0.4-0.4-0.5-0.9-0.5-1.3
		c0-1,0.9-1.8,2-1.8c0.6,0,1.2,0.2,1.8,0.8C146.1,28.8,147.1,30,147.7,30.9z M160.9,1.8c3.6,0,4.6,1.5,4.6,4.3v26.3
		c0,3-1.8,4.1-4.5,4.1c-0.8,0-1.7-0.1-2.4-0.2c-1.3-0.2-1.8-1.1-1.8-2.1c0-1,0.7-2.1,2-2.1c0.1,0,0.3,0,0.4,0
		c0.5,0.1,0.9,0.1,1.4,0.1c0.4,0,0.7-0.2,0.7-0.8v-7.3h-5.6c-0.6,5.1-1.9,8.4-3.8,11.5c-0.5,0.8-1.3,1.2-2,1.2c-1.1,0-2.2-0.8-2.2-2
		c0-0.4,0.2-0.9,0.5-1.4c2.6-4.1,3.8-8.6,3.8-19.4v-8c0-2.8,1-4.3,4.6-4.3H160.9z M161.3,14.9h-5.1c0,1.9,0,3.8-0.2,5.7h5.2V14.9z
		 M157.2,5.8c-0.7,0-0.9,0.2-0.9,1v4.5h5.1V6.7c0-0.7-0.2-1-1-1H157.2z"/>
	<path class="st0" d="M180.3,2.2c1.2,0,2.3,0.7,2.3,2c0,0.1,0,0.3,0,0.4c-1.3,5.6-2.1,11.4-2.1,16.5c0,4.4,0.5,8.7,0.9,11.9
		c0,0.1,0,0.2,0,0.4c0,1.2-1.2,2-2.3,2c-1,0-2-0.6-2.2-1.8c-0.6-3.3-0.9-7.7-0.9-12.5c0-5.4,0.8-11.5,2.2-17.3
		C178.4,2.7,179.3,2.2,180.3,2.2z M200.1,9.6c1.6-0.2,3-0.4,4.4-0.6c0.2,0,0.4,0,0.5,0c1.2,0,1.9,0.9,1.9,1.9c0,0.9-0.6,1.9-1.8,2.1
		c-1.6,0.3-3.3,0.6-5,0.8c0,3.4,0.1,6.9,0.5,10.3c2.2,0.8,4.5,2.1,6.7,3.7c0.8,0.6,1.1,1.3,1.1,2c0,1.1-0.9,2.2-2.1,2.2
		c-0.5,0-1-0.2-1.5-0.6c-1.3-1-2.7-1.9-4-2.6c-0.4,3.3-2.7,5.7-7.7,5.7c-4.5,0-7.3-2.2-7.3-5.8c0-3.3,2.7-5.8,7.9-5.8
		c0.8,0,1.7,0.1,2.6,0.2c-0.2-2.9-0.3-5.8-0.4-8.8c-1.7,0.1-3.4,0.2-5,0.2c-0.8,0-1.5,0-2.2-0.1C187.6,14,187,13,187,12s0.6-2,1.9-2
		c0.7,0,1.4,0.1,2.1,0.1c1.6,0,3.2,0,4.9-0.2V4c0-1.2,1-1.8,2.1-1.8c1,0,2.1,0.6,2.1,1.8V9.6z M196.5,26.8c-1-0.3-2-0.4-2.8-0.4
		c-2.8,0-3.7,0.9-3.7,2c0,1.2,1.1,1.9,3.1,1.9C195.1,30.3,196.5,29.4,196.5,26.8z"/>
	<path class="st0" d="M230.5,23.9c0,1.2-0.8,1.9-2,1.9c-1.2,0-2-0.7-2-1.9V23c0-3.2,0.8-5,4-7.5c2.6-2,3.2-3.2,3.2-5.3
		c0-2.7-1.8-4.1-4.7-4.1c-2.4,0-4.4,1-6.1,3.5c-0.4,0.5-0.9,0.8-1.6,0.8c-1.2,0-2.4-0.9-2.4-2c0-0.5,0.2-1,0.6-1.5
		c2.1-2.9,5.6-4.7,9.5-4.7c5.6,0,9.4,3,9.4,7.9c0,3.4-1.2,5.5-4.5,7.8c-2.9,2-3.6,3.3-3.6,5.2V23.9z M231.7,31.4c0,1.7-1.3,3-3,3
		s-3-1.3-3-3s1.3-3,3-3S231.7,29.7,231.7,31.4z"/>
</g>
</svg>
