<!-- Generator: Adobe Illustrator 22.1.0, SVG Export Plug-In  -->
<svg version="1.1"
	 xmlns="http://www.w3.org/2000/svg" xmlns:xlink="http://www.w3.org/1999/xlink" xmlns:a="http://ns.adobe.com/AdobeSVGViewerExtensions/3.0/"
	 x="0px" y="0px" width="565px" height="152.7px" viewBox="0 0 565 152.7" style="enable-background:new 0 0 565 152.7;"
	 xml:space="preserve">
<style type="text/css">
	.st0{fill:#333333;stroke:#333333;stroke-width:6;stroke-miterlimit:10;}
	.st1{fill:#FFBD50;}
	.st2{fill:#5CBBE5;}
</style>
<defs>
</defs>
<g>
	<g>
		<g>
			<path class="st0" d="M169.4,35.5c3.9-1,7.9-1.4,12.3-1.4c11.5,0,18.8,5.3,18.8,14.3c0,9.3-6.3,15.2-16.8,16.7
				c-0.3,0.1-0.5,0.1-0.8,0.1c-2.4,0-3.8-1.9-3.8-3.9c0-1.7,1-3.3,3.3-3.7c7.1-1.2,9.9-4.4,9.9-9.1c0-4-3.7-7.3-10.5-7.3
				c-4.5,0-8.6,0.7-12.4,1.9v12.8c0,7.5-3.2,10.2-9.9,10.2c-6.5,0-13.5-5-13.5-11.2c0-5.3,3-11,15.6-16.8V25.9
				c-3.6,0.4-7.1,0.6-9.9,0.6c-2.3,0-3.5-1.8-3.5-3.7c0-1.9,1.2-3.7,3.5-3.7c2.9-0.1,6.3-0.3,9.9-0.7V7.5c0-2.4,1.9-3.5,3.9-3.5
				c1.9,0,3.9,1.2,3.9,3.5v9.9c2.4-0.4,4.8-0.9,6.8-1.4c0.4-0.1,0.9-0.1,1.3-0.1c2.4,0,3.8,1.8,3.8,3.7c0,1.5-0.9,3-3,3.5
				c-2.7,0.6-5.7,1.3-8.9,1.8V35.5z M161.6,46c-6.3,3.5-7.6,5.9-7.6,8.7c0,2.3,2.6,3.8,5.3,3.7c2.1,0,2.3-1.4,2.3-3.2V46z
				 M203.4,21.2c1.2,1.1,1.7,2.3,1.7,3.4c0,2.2-1.9,4.1-4.2,4.1c-0.9,0-2-0.4-3-1.2c-2.4-2.2-6-4.8-8.7-6.3c-1.4-0.8-2-2-2-3.2
				c0-2.1,1.8-4.2,4.1-4.2c0.6,0,1.3,0.1,1.9,0.5C196.5,16,200.6,18.7,203.4,21.2z"/>
			<path class="st0" d="M218.4,18.8c1.4,0,2.9,1,2.9,2.7c0,1.8-0.9,7.3-1.9,10.7c-0.5,1.6-1.7,2.2-2.9,2.2c-1.4,0-2.8-1-2.8-2.6
				c0-0.4,0.1-0.6,0.1-1c0.9-2.9,1.6-6.8,1.9-9.7C216,19.6,217.2,18.8,218.4,18.8z M229.9,67.3c0,2.1-1.9,3.2-3.8,3.2
				c-1.9,0-3.9-1.1-3.9-3.2V6.2c0-2.1,1.9-3.2,3.9-3.2c1.9,0,3.8,1.1,3.8,3.2V67.3z M237.4,25.8v0.5c0,1.9-1.4,2.9-2.9,2.9
				c-1.2,0-2.2-0.7-2.5-2.3c-0.3-2-0.9-4.8-1.4-6.5c-0.1-0.3-0.1-0.6-0.1-0.9c0-1.4,1.3-2.4,2.6-2.4c1.1,0,2.2,0.6,2.7,2
				C236.5,21.2,237.1,23.9,237.4,25.8z M249.4,19.8c0.3,0.7,0.4,1.4,0.4,2.1c0,2.3-1.9,3.8-3.9,3.8c-1.5,0-3.1-0.9-4-3
				c-1.1-2.6-2.8-6.1-4.5-8.8c-0.5-0.7-0.7-1.5-0.7-2.2c0-2,1.9-3.5,3.9-3.5c1.2,0,2.4,0.6,3.4,1.9C246.2,13.3,248.2,17,249.4,19.8z
				 M246.6,67.5c-6.9,0-9.4-2.2-9.4-8.1V37c0-2.1,1.9-3.2,3.9-3.2s3.9,1.1,3.9,3.2v21.3c0,1.7,0.9,2.3,2.4,2.3h20.9
				c1.5,0,2.4-0.6,2.4-2.3V37.6c0-2.1,1.9-3.2,3.9-3.2c1.9,0,3.9,1.1,3.9,3.2v21.9c0,5.9-2.5,8.1-9.4,8.1H246.6z M267.5,50.5
				c0.9,0.9,1.2,1.9,1.2,2.8c0,2-1.7,3.6-3.6,3.6c-1,0-1.9-0.4-2.8-1.4c-1-1.2-2.2-2.4-3.4-3.7c-2,2.3-4.1,4.4-6.3,6.2
				c-0.9,0.7-1.8,1.1-2.6,1.1c-1.9,0-3.4-1.6-3.4-3.4c0-0.9,0.4-1.9,1.4-2.8c1.9-1.7,3.9-3.7,5.8-5.9c-1.5-1.3-3-2.4-4.4-3.5
				c-1.2-0.9-1.7-1.9-1.7-2.9c0-1.8,1.7-3.4,3.6-3.4c0.6,0,1.4,0.2,2,0.6c1.6,1,3.2,2.2,4.8,3.5c1.4-2.1,2.7-4.2,3.7-6.3
				c0.8-1.6,2.1-2.2,3.4-2.2c1.8,0,3.5,1.3,3.5,3.2c0,0.5-0.1,1.1-0.4,1.7c-1.3,2.7-3,5.6-4.9,8.4C264.8,47.6,266.2,49,267.5,50.5z
				 M261.8,17.5c0.2,0.5,0.3,1.1,0.3,1.5c0,2.4-2,3.9-4,3.9c-1.4,0-2.9-0.8-3.5-2.7c-1.1-3.2-2.8-7.1-4.2-9.7
				c-0.4-0.6-0.5-1.3-0.5-1.9c0-1.9,1.8-3.2,3.7-3.2c1.3,0,2.6,0.6,3.5,2C259,10.3,260.8,14.4,261.8,17.5z M269.9,28.5
				c-0.9,1.5-2.2,2.1-3.5,2.1c-2,0-3.9-1.5-3.9-3.6c0-0.7,0.2-1.5,0.7-2.3c2.9-4.5,5.5-10.2,7.6-16.3c0.6-1.8,2-2.6,3.5-2.6
				c2,0,4,1.4,4,3.7c0,0.5-0.1,1-0.3,1.6C276,17.3,273,23.5,269.9,28.5z"/>
			<path class="st0" d="M313.8,8.4c0.7-0.1,1.4-0.1,2.2-0.1c4.5,0,7,2.5,7,6.3c0,0.6,0,1.2-0.1,1.8c-0.9,5.3-2.3,10.6-3.8,15.6
				c4.8,0.6,9.4,1.9,14,3.5c0.7-3.4,1.2-7.1,1.4-10.9c0.1-2.2,2-3.4,4-3.4c2.1,0,4.2,1.3,4.2,3.8c0,4.1-0.9,9.1-1.9,13.7
				c3.6,1.7,7.1,3.6,10.6,5.8c1.4,0.9,2,2.3,2,3.6c0,2.2-1.7,4.3-4,4.3c-0.8,0-1.7-0.2-2.5-0.8c-2.9-1.9-5.7-3.5-8.5-5
				c-2.7,7.3-6.7,13.6-11.5,18.4c-1.2,1.2-2.4,1.7-3.5,1.7c-2.2,0-4-1.9-4-4c0-0.9,0.4-1.9,1.2-2.8c4.5-4.5,8.1-10,10.4-16.6
				c-4.6-1.9-9.3-3.2-14.2-4c-1.4,3.8-3,7.3-4.5,10.3c-3.7,7.3-7.4,9.6-12.6,9.6c-6,0-10.4-3.9-10.4-11.3c0-9,8.1-16.4,20.2-16.4
				h1.7c1.4-4.6,2.8-9.4,3.4-14c0-0.2,0.1-0.4,0.1-0.6c0-0.6-0.4-0.7-1.4-0.6l-10.1,1.7c-0.3,0.1-0.6,0.1-0.8,0.1
				c-2.3,0-3.7-1.9-3.7-3.9c0-1.7,1.1-3.5,3.4-3.8L313.8,8.4z M304.8,46.9c1.3-2.4,2.5-5.3,3.7-8.4c-7.5,0.1-11.4,4.3-11.4,8.9
				c0,2.6,1.2,3.7,2.6,3.7C301.7,51.2,302.8,50.5,304.8,46.9z"/>
			<path class="st0" d="M369,30.7c-5.5,0-8.4-1.9-8.4-7.7v-9.2c0-5.3,2.8-7.7,8.7-7.7h13.5c5.9,0,8.7,2.4,8.7,7.7V23
				c0,5.3-2.8,7.7-8.7,7.7h-6.3c-0.1,2.3-0.2,4.7-0.5,7h7.6c5.9,0,8.3,2.7,8.3,6.9c0,6.4-0.8,11.6-1.7,15.6
				c-1.4,6.2-4.5,8.6-9.7,8.6c-1.8,0-3.2-0.1-5-0.4c-2.2-0.4-3.1-2.1-3.1-3.7c0-1.9,1.3-3.8,3.6-3.8c0.2,0,0.5,0,0.8,0.1
				c1.4,0.3,2.2,0.4,3.3,0.4c1.4,0,2.1-0.6,2.6-2.5c1-3.8,1.4-8.4,1.4-12.6c0-1.3-0.4-1.7-2.2-1.7h-7.1c-2,9.1-5.8,16.5-11.8,22.5
				c-1.2,1.2-2.4,1.7-3.5,1.7c-2,0-3.6-1.6-3.6-3.5c0-1,0.4-2.1,1.4-3.2c7.4-7.6,10.9-16.8,11.7-31.3H369z M381.4,24.1
				c1.8,0,2.4-0.6,2.4-2.2V15c0-1.5-0.6-2.2-2.4-2.2h-10.7c-1.8,0-2.4,0.6-2.4,2.2v6.9c0,1.5,0.6,2.2,2.4,2.2H381.4z M398.3,12.1
				c0-2.1,1.9-3.2,3.9-3.2c1.9,0,3.8,1.1,3.8,3.2v38.5c0,2.1-1.9,3.2-3.8,3.2c-1.9,0-3.9-1.1-3.9-3.2V12.1z M419.9,60.3
				c0,6-2.4,8.5-8.9,8.5c-1.8,0-3.7-0.1-5.3-0.4c-2-0.4-3-2.1-3-3.7c0-1.9,1.3-3.8,3.6-3.8c0.1,0,0.4,0.1,0.6,0.1
				c1,0.1,1.8,0.3,3.3,0.3c0.9,0,1.7-0.3,1.7-2.2V7.8c0-2.2,1.9-3.2,4-3.2c1.9,0,3.9,1,3.9,3.2V60.3z"/>
			<path class="st0" d="M18.4,90.8c0.1-1.4,0.1-2.7,0.1-4.2c0-1.9,1.9-3,3.7-3c1.9,0,3.7,1,3.7,3c0,1.4,0,2.9-0.1,4.2h6
				c1.7,0,2.5,1.5,2.5,3c0,1.5-0.8,3-2.5,3h-6.4c-0.1,1.3-0.3,2.5-0.5,3.8h7.5c1.7,0,2.5,1.5,2.5,3s-0.8,3-2.5,3h-9.1l-0.4,1.3
				c2.8,1.8,5.8,4.2,7.8,6.3c0.9,0.9,1.3,1.9,1.3,2.7c0,1.9-1.7,3.5-3.5,3.5c-0.9,0-1.7-0.4-2.4-1.1c-1.9-1.8-4.2-4-6.3-5.6
				c-2.7,4-6.6,7.9-10.9,10.8c-0.8,0.5-1.6,0.7-2.3,0.7c-1.9,0-3.5-1.7-3.5-3.5c0-1.1,0.5-2.2,1.7-3c4.3-2.9,8.1-6.8,10.4-11.2
				c0.1-0.3,0.3-0.6,0.4-0.9H7.2c-1.7,0-2.5-1.5-2.5-3s0.9-3,2.5-3h10.2c0.2-1.3,0.4-2.5,0.6-3.8h-7.4c-1.7,0-2.5-1.5-2.5-3
				c0-1.5,0.9-3,2.5-3H18.4z M24.7,149.1c-6.6,0-9.1-2.4-9.1-7.3v-12.6c0-4.8,2.5-7.3,9.1-7.3h24.3c6.6,0,9.1,2.4,9.1,7.3v12.6
				c0,6-3.8,7.3-9.1,7.3H24.7z M50.6,129.7c0-1.5-0.6-2-2.8-2h-22c-2.2,0-2.8,0.5-2.8,2v2.9h27.6V129.7z M47.8,143.3
				c2.2,0,2.8-0.5,2.8-2v-3.2H23v3.2c0,1.9,1.2,2,2.8,2H47.8z M55.2,106.7c3.1,3.7,7.6,7.6,12.2,10.2c1.7,1,2.4,2.3,2.4,3.6
				c0,1.9-1.5,3.6-3.5,3.6c-0.7,0-1.4-0.2-2.2-0.6c-5.6-3.5-10.8-8.2-14.2-13c-2.2,3.8-5.2,6.8-9,9.5c-0.7,0.5-1.5,0.8-2.3,0.8
				c-1.9,0-3.6-1.6-3.6-3.4c0-0.9,0.5-1.9,1.7-2.8c3.2-2.2,5.5-4.6,7.2-7.8h-4c-1.7,0-2.5-1.5-2.5-3s0.9-3,2.5-3H46
				c0.3-1.2,0.5-2.5,0.6-3.8h-5.3c-1.7,0-2.5-1.5-2.5-3c0-1.5,0.9-3,2.5-3h5.8c0.1-1.4,0.1-2.7,0.1-4.2c0-1.9,1.9-3,3.7-3
				c1.9,0,3.7,1,3.7,3c0,1.4,0,2.9-0.1,4.2h8.4c1.7,0,2.5,1.5,2.5,3c0,1.5-0.8,3-2.5,3H54c-0.1,1.3-0.4,2.5-0.6,3.8h12.5
				c1.7,0,2.5,1.5,2.5,3s-0.8,3-2.5,3H55.2z"/>
			<path class="st0" d="M110.3,100.1c0.4-0.1,0.7-0.1,1.1-0.1c3.3,0,5.3,2.4,5.3,4.9c0,1.2-0.4,2.4-1.4,3.5l-12,12.3l0.1,0.2
				c1.2-0.4,2.2-0.6,3.2-0.6c4.7,0,7.5,2.9,7.8,9.1l0.1,1.5c0.2,4.5,1.1,5.9,4.7,5.9c3.7,0,7.8-0.6,11.6-1.4
				c0.4-0.1,0.8-0.1,1.2-0.1c2.4,0,3.8,2,3.8,4c0,1.7-0.9,3.4-3,3.8c-4.9,1.1-9.5,1.5-13.5,1.5c-8.4,0-12.4-3.4-12.7-12.5l-0.1-1.7
				c-0.1-2.7-1.1-3.7-2.7-3.7c-2.2,0-4.7,0.9-7.8,3.5c-2.6,2.1-6.6,6.2-12.5,12.6c-1,1.1-2.1,1.5-3.2,1.5c-2.2,0-4-1.7-4-3.8
				c0-1,0.4-2.1,1.4-3.1l27.5-29l-0.1-0.2l-18.8,3.3c-0.3,0.1-0.6,0.1-0.8,0.1c-2.4,0-3.8-2-3.8-4c0-1.7,1-3.5,3.4-3.8L110.3,100.1z
				 M111.9,89c2,0.7,3,2.2,3,3.7c0,2-1.5,4-3.7,4c-0.5,0-1-0.1-1.6-0.3c-4.2-1.4-9.6-2.7-13.9-3.4c-2.4-0.4-3.4-1.9-3.4-3.6
				c0-1.9,1.5-4,4-4c0.2,0,0.5,0,0.7,0.1C101.8,86.1,107.7,87.5,111.9,89z"/>
			<path class="st0" d="M173,85.6c0-2.1,1.9-3.2,3.9-3.2c1.9,0,3.8,1.1,3.8,3.2v2.7h15.5c2,0,3,1.6,3,3.2c0,1.6-1,3.2-3,3.2h-15.5
				v3.7h25.2c2,0,3,1.7,3,3.3c0,1.7-1,3.3-3,3.3h-60.7c-1.9,0-3-1.7-3-3.3c0-1.7,1-3.3,3-3.3h10.9v-9.7c0-2.1,1.9-3.2,3.9-3.2
				c1.9,0,3.8,1.1,3.8,3.2v9.7h9.1V85.6z M195.4,110.6c0-2.1,1.9-3.2,3.9-3.2s3.9,1.1,3.9,3.2V140c0,6-2.5,9.1-10.2,9.1h-35
				c-7.7,0-10.2-3-10.2-9.1v-29.4c0-2.1,1.9-3.1,3.9-3.1s3.9,1,3.9,3.1v28.5c0,2.7,0.8,3.5,3.7,3.5h32.4c3,0,3.7-0.8,3.7-3.5V110.6z
				 M178.8,135.1v3.5c0,1.9-1.7,2.8-3.5,2.8c-1.7,0-3.5-0.9-3.5-2.8v-3.5l0.2-4.8c-2.8,3-6.3,5.8-10.1,8.1c-0.7,0.4-1.4,0.6-2,0.6
				c-1.7,0-3-1.5-3-3.1c0-0.9,0.5-1.9,1.7-2.6c3.6-2.1,7.1-4.8,10.2-8.1h-8.1c-1.7,0-2.6-1.4-2.6-2.9c0-1.4,0.9-2.8,2.6-2.8h11.2
				v-10.2c0-1.9,1.7-2.8,3.5-2.8c1.7,0,3.5,0.9,3.5,2.8v10.2h11.5c1.8,0,2.7,1.4,2.7,2.8c0,1.4-0.9,2.9-2.7,2.9h-8.7
				c3,2.4,6.4,4.6,10.2,6.5c1.4,0.7,2.1,1.9,2.1,3.1c0,1.7-1.4,3.4-3.2,3.4c-0.6,0-1.2-0.2-1.9-0.6c-4-2.2-7.3-4.8-10.2-7.6
				L178.8,135.1z M160,111.7c0-1.7,1.7-3,3.4-3c0.9,0,1.9,0.4,2.7,1.2c0.9,0.9,1.8,2.2,2.7,3.7c0.4,0.6,0.6,1.2,0.6,1.7
				c0,1.8-1.7,3.2-3.5,3.2c-0.9,0-1.9-0.4-2.6-1.5c-0.7-1.2-1.5-2.3-2.7-3.8C160.1,112.7,160,112.2,160,111.7z M187.5,108.4
				c1.7,0,3.3,1.2,3.3,3c0,0.4-0.1,0.9-0.4,1.4c-1.1,1.9-2,3.3-3.2,4.7c-0.7,0.9-1.6,1.2-2.4,1.2c-1.7,0-3.2-1.4-3.2-3
				c0-0.6,0.2-1.2,0.6-1.8c0.9-1.2,1.8-2.4,2.7-4C185.6,108.9,186.5,108.4,187.5,108.4z"/>
			<path class="st0" d="M259.8,95c7.6-0.1,10.5,2.7,10.5,7.5c0,1.2-0.1,2.6-0.5,4.1c-4,17.1-16.5,31.8-33.5,40
				c-0.9,0.4-1.7,0.6-2.4,0.6c-2.4,0-4.2-2-4.2-4.2c0-1.4,0.7-2.9,2.5-3.8c15.9-8.3,24.9-19.8,28.7-32.7c0.1-0.6,0.2-1,0.2-1.4
				c0-1.4-0.9-1.9-3-1.9l-34.7,0.4c-2.7,0-4.2-2.2-4.2-4.2c0-1.9,1.3-4,3.8-4L259.8,95z M265.2,88.6c0-1.4,1.4-2.7,3-2.7
				c0.7,0,1.5,0.3,2.2,1c1.8,1.9,3.7,4.5,5,6.8c0.4,0.6,0.5,1.2,0.5,1.7c0,1.7-1.4,2.9-3,2.9c-0.9,0-1.8-0.5-2.4-1.6
				c-1.4-2.5-3.2-4.8-4.8-6.6C265.3,89.7,265.2,89.1,265.2,88.6z M272.8,83.6c0-1.4,1.4-2.5,3-2.5c0.8,0,1.7,0.3,2.4,1
				c1.7,1.8,3.7,4.2,5,6.4c0.4,0.7,0.6,1.4,0.6,1.9c0,1.7-1.4,2.8-2.9,2.8c-0.9,0-1.9-0.5-2.7-1.6c-1.4-2.2-3.2-4.6-4.8-6.5
				C273,84.7,272.8,84.1,272.8,83.6z"/>
			<path class="st0" d="M331.6,105.8c6.6-0.1,9.7,2.7,9.7,7.1c0,1.2-0.2,2.6-0.7,4.1c-4.5,13.3-16.2,24-30.3,29.5
				c-0.6,0.2-1.2,0.4-1.8,0.4c-2.4,0-4.2-2.1-4.2-4.2c0-1.5,0.9-3,3-3.9c12.6-5,21.3-13.2,24.9-22.7c0.2-0.6,0.4-1.1,0.4-1.4
				c0-0.9-0.7-1.2-2.3-1.2l-36.4,0.4c-2.4,0-3.7-1.9-3.7-3.9c0-1.9,1.2-3.9,3.5-3.9L331.6,105.8z M332.1,90.1c2.4,0,3.6,1.9,3.6,3.9
				c0,1.9-1.2,3.9-3.6,3.9h-31.4c-2.3,0-3.5-1.9-3.5-3.9c0-1.9,1.2-3.9,3.5-3.9H332.1z"/>
			<path class="st0" d="M372.7,111.9c1.1,0.9,1.5,2.1,1.5,3.2c0,2.2-1.9,4.4-4.2,4.4c-0.9,0-1.8-0.3-2.7-1c-2.5-2-6.3-4.7-8.9-6.1
				c-1.4-0.8-2-2-2-3.2c0-2.1,1.9-4.2,4.4-4.2c0.6,0,1.4,0.1,2.2,0.5C366.3,107.2,369.9,109.4,372.7,111.9z M407.1,104.5
				c2.2,0,4.3,1.6,4.3,3.9c0,0.7-0.2,1.5-0.6,2.3c-9.6,17.8-27.3,29.9-46.1,35.2c-0.5,0.1-1.1,0.2-1.5,0.2c-2.5,0-4-2-4-4.1
				c0-1.7,1-3.4,3.3-4.1c17.8-5.3,31.8-15.2,40.8-31.2C404.2,105.1,405.7,104.5,407.1,104.5z M381.3,95.7c1.1,0.9,1.5,2.1,1.5,3.2
				c0,2.2-1.9,4.3-4.2,4.3c-0.9,0-1.8-0.3-2.7-1c-2.5-2-6.3-4.6-8.9-6c-1.4-0.8-2-1.9-2-3.2c0-2.1,1.9-4.2,4.5-4.2
				c0.6,0,1.4,0.2,2.2,0.6C374.8,90.9,378.4,93.2,381.3,95.7z"/>
			<path class="st0" d="M422.3,103.4c-1.9,0-2.9-1.8-2.9-3.6c0-1.8,1-3.6,2.9-3.6h22.5c1.9,0,3,1.8,3,3.6c0,1.8-1,3.6-3,3.6H422.3z
				 M430.5,148.9c-5.5,0-7.3-2.2-7.3-6.6v-8.7c0-4.5,1.8-6.6,7.3-6.6h7.4c5.5,0,7.3,2.2,7.3,6.6v8.7c0,5.1-2.4,6.6-7.3,6.6H430.5z
				 M426.4,92.9c-1.8,0-2.7-1.7-2.7-3.4c0-1.7,0.9-3.4,2.7-3.4h15c1.9,0,2.8,1.7,2.8,3.4c0,1.7-0.9,3.4-2.8,3.4H426.4z M426.4,113.5
				c-1.8,0-2.7-1.7-2.7-3.4c0-1.7,0.9-3.4,2.7-3.4h15c1.9,0,2.8,1.7,2.8,3.4c0,1.7-0.9,3.4-2.8,3.4H426.4z M426.4,123.6
				c-1.8,0-2.7-1.7-2.7-3.4c0-1.7,0.9-3.4,2.7-3.4h15c1.9,0,2.8,1.7,2.8,3.4c0,1.7-0.9,3.4-2.8,3.4H426.4z M436.4,142.4
				c1.2,0,1.5-0.4,1.5-1.7v-5.7c0-1.2-0.4-1.7-1.5-1.7h-4.5c-1.2,0-1.5,0.4-1.5,1.7v5.7c0,1.2,0.3,1.7,1.5,1.7H436.4z M486.3,106.5
				c1.2,0.9,1.7,2.1,1.7,3.2c0,2.1-1.7,4-4,4c-1,0-2.1-0.4-3.1-1.4c-5.2-4.7-10.5-10.9-14.5-17.1c-3.7,6.2-8.4,12.2-13.5,16.6
				c-0.9,0.9-2,1.2-3,1.2c-2,0-3.7-1.6-3.7-3.5c0-1,0.4-2.1,1.6-3.1c6-5.3,11.4-13,14.9-20.4c0.8-1.7,2.2-2.3,3.5-2.3
				c1.9,0,3.9,1.4,3.9,3.4c0,0.4-0.1,0.7-0.2,1.1C474.4,95.1,480.4,101.8,486.3,106.5z M481.4,128.1c2,0,3.7,1.8,3.7,3.7
				c0,0.9-0.4,1.9-1.5,2.7c-7.9,6.3-19.6,11.6-30.2,14.3c-0.4,0.1-0.7,0.1-1,0.1c-2.2,0-3.5-1.8-3.5-3.6c0-1.4,0.9-2.9,3-3.5
				c9.7-2.5,20.4-7.4,27.2-12.9C479.8,128.4,480.6,128.1,481.4,128.1z M468.8,106.1c1.9,0,3.7,1.7,3.7,3.5c0,0.8-0.3,1.6-1,2.3
				c-4.3,4.6-10,8.7-15.6,11.4c-0.6,0.3-1.2,0.4-1.8,0.4c-1.9,0-3.3-1.7-3.3-3.3c0-1.2,0.6-2.2,2-3c4.8-2.5,9.9-6,13.3-10.2
				C467,106.5,467.9,106.1,468.8,106.1z M475,116.8c1.9,0,3.7,1.7,3.7,3.6c0,0.8-0.4,1.6-1.2,2.4c-6,5.5-14.6,10.5-22,13.1
				c-0.5,0.1-0.9,0.2-1.4,0.2c-2,0-3.3-1.7-3.3-3.4c0-1.3,0.7-2.7,2.4-3.2c6.6-2.4,14.4-6.8,19.4-11.7
				C473.4,117.1,474.2,116.8,475,116.8z"/>
			<path class="st0" d="M496.7,90.4c0-2,1.9-3,3.8-3c1.9,0,3.8,1,3.8,3v46.9c0,2,0.7,2.7,3.1,2.7h16.6c1.9,0,2.9,1.7,2.9,3.5
				c0,1.7-0.9,3.5-2.9,3.5H506c-7.1,0-9.2-2.7-9.2-8.2V90.4z M515.5,123c-1.3,2.8-2.8,5.5-4.7,8.1c-0.9,1.2-1.9,1.7-2.9,1.7
				c-1.6,0-3-1.4-3-3c0-0.7,0.3-1.6,0.9-2.4c3.2-4.2,5.8-9,7.8-14.9h-5.1c-1.8,0-2.7-1.6-2.7-3.2s0.9-3.2,2.7-3.2h6.6V86.7
				c0-1.9,1.7-2.7,3.5-2.7c1.7,0,3.5,0.9,3.5,2.7v19.6h6.8c1.9,0,2.7,1.6,2.7,3.2s-0.9,3.2-2.7,3.2H522v3.5c2.7,1.7,5.5,3.9,7.6,6
				c0.9,0.9,1.2,1.7,1.2,2.6c0,1.6-1.4,3-3.1,3c-0.9,0-1.8-0.4-2.6-1.4c-0.9-1.1-1.9-2.2-3.2-3.2v12.5c0,2-1.7,3.1-3.5,3.1
				c-1.7,0-3.5-1.1-3.5-3.1v-3.5L515.5,123z M514,99.7c0.1,0.2,0.1,0.5,0.1,0.7c0,1.9-1.6,3-3.1,3c-1.2,0-2.4-0.7-2.9-2.4
				c-0.5-1.9-1.4-4.5-2-6.2c-0.1-0.4-0.2-0.8-0.2-1.2c0-1.6,1.4-2.7,3-2.7c1.1,0,2.2,0.6,2.7,1.8C512.5,94.9,513.5,97.5,514,99.7z
				 M528.6,90.7c1.5,0,3,1,3,2.7c0,0.4-0.1,0.6-0.1,1c-0.8,2.7-1.7,5.3-2.9,7.4c-0.6,1.2-1.7,1.7-2.7,1.7c-1.5,0-3-1.1-3-2.5
				c0-0.4,0.1-0.7,0.3-1.2c0.8-1.8,1.9-4.5,2.6-7C526.3,91.4,527.5,90.7,528.6,90.7z M534.5,92.3c0-2,1.9-3,3.8-3
				c0.8,0,1.6,0.2,2.2,0.6c4.6-1.3,8.5-2.7,12.2-4.5c0.6-0.3,1.3-0.5,1.9-0.5c2.2,0,3.6,1.9,3.6,3.8c0,1.2-0.6,2.5-2.2,3.2
				c-3.8,1.7-8.7,3.5-14,4.9v9.9H559c1.9,0,3,1.7,3,3.3c0,1.7-1,3.4-3,3.4h-3.9v33.1c0,2.2-1.9,3.2-3.7,3.2c-1.9,0-3.8-1.1-3.8-3.2
				v-33.1H542c-0.3,15.6-2.9,26.3-7,33.8c-0.9,1.7-2.4,2.4-3.8,2.4c-1.9,0-3.7-1.3-3.7-3.3c0-0.6,0.2-1.4,0.6-2.2
				c4.4-7.7,6.3-17.9,6.3-34.8V92.3z"/>
		</g>
	</g>
	<g>
		<path class="st1" d="M168.4,34.5c3.9-1,7.9-1.4,12.3-1.4c11.5,0,18.8,5.3,18.8,14.3c0,9.3-6.3,15.2-16.8,16.7
			c-0.3,0.1-0.5,0.1-0.8,0.1c-2.4,0-3.8-1.9-3.8-3.9c0-1.7,1-3.3,3.3-3.7c7.1-1.2,9.9-4.4,9.9-9.1c0-4-3.7-7.3-10.5-7.3
			c-4.5,0-8.6,0.7-12.4,1.9v12.8c0,7.5-3.2,10.2-9.9,10.2c-6.5,0-13.5-5-13.5-11.2c0-5.3,3-11,15.6-16.8V24.9
			c-3.6,0.4-7.1,0.6-9.9,0.6c-2.3,0-3.5-1.8-3.5-3.7c0-1.9,1.2-3.7,3.5-3.7c2.9-0.1,6.3-0.3,9.9-0.7V6.5c0-2.4,1.9-3.5,3.9-3.5
			c1.9,0,3.9,1.2,3.9,3.5v9.9c2.4-0.4,4.8-0.9,6.8-1.4c0.4-0.1,0.9-0.1,1.3-0.1c2.4,0,3.8,1.8,3.8,3.7c0,1.5-0.9,3-3,3.5
			c-2.7,0.6-5.7,1.3-8.9,1.8V34.5z M160.6,45c-6.3,3.5-7.6,5.9-7.6,8.7c0,2.3,2.6,3.8,5.3,3.7c2.1,0,2.3-1.4,2.3-3.2V45z
			 M202.4,20.2c1.2,1.1,1.7,2.3,1.7,3.4c0,2.2-1.9,4.1-4.2,4.1c-0.9,0-2-0.4-3-1.2c-2.4-2.2-6-4.8-8.7-6.3c-1.4-0.8-2-2-2-3.2
			c0-2.1,1.8-4.2,4.1-4.2c0.6,0,1.3,0.1,1.9,0.5C195.5,15,199.6,17.7,202.4,20.2z"/>
		<path class="st1" d="M217.4,17.8c1.4,0,2.9,1,2.9,2.7c0,1.8-0.9,7.3-1.9,10.7c-0.5,1.6-1.7,2.2-2.9,2.2c-1.4,0-2.8-1-2.8-2.6
			c0-0.4,0.1-0.6,0.1-1c0.9-2.9,1.6-6.8,1.9-9.7C215,18.6,216.2,17.8,217.4,17.8z M228.9,66.3c0,2.1-1.9,3.2-3.8,3.2
			c-1.9,0-3.9-1.1-3.9-3.2V5.2c0-2.1,1.9-3.2,3.9-3.2c1.9,0,3.8,1.1,3.8,3.2V66.3z M236.4,24.8v0.5c0,1.9-1.4,2.9-2.9,2.9
			c-1.2,0-2.2-0.7-2.5-2.3c-0.3-2-0.9-4.8-1.4-6.5c-0.1-0.3-0.1-0.6-0.1-0.9c0-1.4,1.3-2.4,2.6-2.4c1.1,0,2.2,0.6,2.7,2
			C235.5,20.2,236.1,22.9,236.4,24.8z M248.4,18.8c0.3,0.7,0.4,1.4,0.4,2.1c0,2.3-1.9,3.8-3.9,3.8c-1.5,0-3.1-0.9-4-3
			c-1.1-2.6-2.8-6.1-4.5-8.8c-0.5-0.7-0.7-1.5-0.7-2.2c0-2,1.9-3.5,3.9-3.5c1.2,0,2.4,0.6,3.4,1.9C245.2,12.3,247.2,16,248.4,18.8z
			 M245.6,66.5c-6.9,0-9.4-2.2-9.4-8.1V36c0-2.1,1.9-3.2,3.9-3.2s3.9,1.1,3.9,3.2v21.3c0,1.7,0.9,2.3,2.4,2.3h20.9
			c1.5,0,2.4-0.6,2.4-2.3V36.6c0-2.1,1.9-3.2,3.9-3.2c1.9,0,3.9,1.1,3.9,3.2v21.9c0,5.9-2.5,8.1-9.4,8.1H245.6z M266.5,49.5
			c0.9,0.9,1.2,1.9,1.2,2.8c0,2-1.7,3.6-3.6,3.6c-1,0-1.9-0.4-2.8-1.4c-1-1.2-2.2-2.4-3.4-3.7c-2,2.3-4.1,4.4-6.3,6.2
			c-0.9,0.7-1.8,1.1-2.6,1.1c-1.9,0-3.4-1.6-3.4-3.4c0-0.9,0.4-1.9,1.4-2.8c1.9-1.7,3.9-3.7,5.8-5.9c-1.5-1.3-3-2.4-4.4-3.5
			c-1.2-0.9-1.7-1.9-1.7-2.9c0-1.8,1.7-3.4,3.6-3.4c0.6,0,1.4,0.2,2,0.6c1.6,1,3.2,2.2,4.8,3.5c1.4-2.1,2.7-4.2,3.7-6.3
			c0.8-1.6,2.1-2.2,3.4-2.2c1.8,0,3.5,1.3,3.5,3.2c0,0.5-0.1,1.1-0.4,1.7c-1.3,2.7-3,5.6-4.9,8.4C263.8,46.6,265.2,48,266.5,49.5z
			 M260.8,16.5c0.2,0.5,0.3,1.1,0.3,1.5c0,2.4-2,3.9-4,3.9c-1.4,0-2.9-0.8-3.5-2.7c-1.1-3.2-2.8-7.1-4.2-9.7
			c-0.4-0.6-0.5-1.3-0.5-1.9c0-1.9,1.8-3.2,3.7-3.2c1.3,0,2.6,0.6,3.5,2C258,9.3,259.8,13.4,260.8,16.5z M268.9,27.5
			c-0.9,1.5-2.2,2.1-3.5,2.1c-2,0-3.9-1.5-3.9-3.6c0-0.7,0.2-1.5,0.7-2.3c2.9-4.5,5.5-10.2,7.6-16.3c0.6-1.8,2-2.6,3.5-2.6
			c2,0,4,1.4,4,3.7c0,0.5-0.1,1-0.3,1.6C275,16.3,272,22.5,268.9,27.5z"/>
		<path class="st1" d="M312.8,7.4c0.7-0.1,1.4-0.1,2.2-0.1c4.5,0,7,2.5,7,6.3c0,0.6,0,1.2-0.1,1.8c-0.9,5.3-2.3,10.6-3.8,15.6
			c4.8,0.6,9.4,1.9,14,3.5c0.7-3.4,1.2-7.1,1.4-10.9c0.1-2.2,2-3.4,4-3.4c2.1,0,4.2,1.3,4.2,3.8c0,4.1-0.9,9.1-1.9,13.7
			c3.6,1.7,7.1,3.6,10.6,5.8c1.4,0.9,2,2.3,2,3.6c0,2.2-1.7,4.3-4,4.3c-0.8,0-1.7-0.2-2.5-0.8c-2.9-1.9-5.7-3.5-8.5-5
			c-2.7,7.3-6.7,13.6-11.5,18.4c-1.2,1.2-2.4,1.7-3.5,1.7c-2.2,0-4-1.9-4-4c0-0.9,0.4-1.9,1.2-2.8c4.5-4.5,8.1-10,10.4-16.6
			c-4.6-1.9-9.3-3.2-14.2-4c-1.4,3.8-3,7.3-4.5,10.3c-3.7,7.3-7.4,9.6-12.6,9.6c-6,0-10.4-3.9-10.4-11.3c0-9,8.1-16.4,20.2-16.4h1.7
			c1.4-4.6,2.8-9.4,3.4-14c0-0.2,0.1-0.4,0.1-0.6c0-0.6-0.4-0.7-1.4-0.6l-10.1,1.7c-0.3,0.1-0.6,0.1-0.8,0.1c-2.3,0-3.7-1.9-3.7-3.9
			c0-1.7,1.1-3.5,3.4-3.8L312.8,7.4z M303.8,45.9c1.3-2.4,2.5-5.3,3.7-8.4c-7.5,0.1-11.4,4.3-11.4,8.9c0,2.6,1.2,3.7,2.6,3.7
			C300.7,50.2,301.8,49.5,303.8,45.9z"/>
		<path class="st1" d="M368,29.7c-5.5,0-8.4-1.9-8.4-7.7v-9.2c0-5.3,2.8-7.7,8.7-7.7h13.5c5.9,0,8.7,2.4,8.7,7.7V22
			c0,5.3-2.8,7.7-8.7,7.7h-6.3c-0.1,2.3-0.2,4.7-0.5,7h7.6c5.9,0,8.3,2.7,8.3,6.9c0,6.4-0.8,11.6-1.7,15.6c-1.4,6.2-4.5,8.6-9.7,8.6
			c-1.8,0-3.2-0.1-5-0.4c-2.2-0.4-3.1-2.1-3.1-3.7c0-1.9,1.3-3.8,3.6-3.8c0.2,0,0.5,0,0.8,0.1c1.4,0.3,2.2,0.4,3.3,0.4
			c1.4,0,2.1-0.6,2.6-2.5c1-3.8,1.4-8.4,1.4-12.6c0-1.3-0.4-1.7-2.2-1.7h-7.1c-2,9.1-5.8,16.5-11.8,22.5c-1.2,1.2-2.4,1.7-3.5,1.7
			c-2,0-3.6-1.6-3.6-3.5c0-1,0.4-2.1,1.4-3.2c7.4-7.6,10.9-16.8,11.7-31.3H368z M380.4,23.1c1.8,0,2.4-0.6,2.4-2.2V14
			c0-1.5-0.6-2.2-2.4-2.2h-10.7c-1.8,0-2.4,0.6-2.4,2.2v6.9c0,1.5,0.6,2.2,2.4,2.2H380.4z M397.3,11.1c0-2.1,1.9-3.2,3.9-3.2
			c1.9,0,3.8,1.1,3.8,3.2v38.5c0,2.1-1.9,3.2-3.8,3.2c-1.9,0-3.9-1.1-3.9-3.2V11.1z M418.9,59.3c0,6-2.4,8.5-8.9,8.5
			c-1.8,0-3.7-0.1-5.3-0.4c-2-0.4-3-2.1-3-3.7c0-1.9,1.3-3.8,3.6-3.8c0.1,0,0.4,0.1,0.6,0.1c1,0.1,1.8,0.3,3.3,0.3
			c0.9,0,1.7-0.3,1.7-2.2V6.8c0-2.2,1.9-3.2,4-3.2c1.9,0,3.9,1,3.9,3.2V59.3z"/>
		<path class="st2" d="M17.4,89.8c0.1-1.4,0.1-2.7,0.1-4.2c0-1.9,1.9-3,3.7-3c1.9,0,3.7,1,3.7,3c0,1.4,0,2.9-0.1,4.2h6
			c1.7,0,2.5,1.5,2.5,3c0,1.5-0.8,3-2.5,3h-6.4c-0.1,1.3-0.3,2.5-0.5,3.8h7.5c1.7,0,2.5,1.5,2.5,3s-0.8,3-2.5,3h-9.1l-0.4,1.3
			c2.8,1.8,5.8,4.2,7.8,6.3c0.9,0.9,1.3,1.9,1.3,2.7c0,1.9-1.7,3.5-3.5,3.5c-0.9,0-1.7-0.4-2.4-1.1c-1.9-1.8-4.2-4-6.3-5.6
			c-2.7,4-6.6,7.9-10.9,10.8c-0.8,0.5-1.6,0.7-2.3,0.7c-1.9,0-3.5-1.7-3.5-3.5c0-1.1,0.5-2.2,1.7-3c4.3-2.9,8.1-6.8,10.4-11.2
			c0.1-0.3,0.3-0.6,0.4-0.9H6.2c-1.7,0-2.5-1.5-2.5-3s0.9-3,2.5-3h10.2c0.2-1.3,0.4-2.5,0.6-3.8H9.6c-1.7,0-2.5-1.5-2.5-3
			c0-1.5,0.9-3,2.5-3H17.4z M23.7,148.1c-6.6,0-9.1-2.4-9.1-7.3v-12.6c0-4.8,2.5-7.3,9.1-7.3h24.3c6.6,0,9.1,2.4,9.1,7.3v12.6
			c0,6-3.8,7.3-9.1,7.3H23.7z M49.6,128.7c0-1.5-0.6-2-2.8-2h-22c-2.2,0-2.8,0.5-2.8,2v2.9h27.6V128.7z M46.8,142.3
			c2.2,0,2.8-0.5,2.8-2v-3.2H22v3.2c0,1.9,1.2,2,2.8,2H46.8z M54.2,105.7c3.1,3.7,7.6,7.6,12.2,10.2c1.7,1,2.4,2.3,2.4,3.6
			c0,1.9-1.5,3.6-3.5,3.6c-0.7,0-1.4-0.2-2.2-0.6c-5.6-3.5-10.8-8.2-14.2-13c-2.2,3.8-5.2,6.8-9,9.5c-0.7,0.5-1.5,0.8-2.3,0.8
			c-1.9,0-3.6-1.6-3.6-3.4c0-0.9,0.5-1.9,1.7-2.8c3.2-2.2,5.5-4.6,7.2-7.8h-4c-1.7,0-2.5-1.5-2.5-3s0.9-3,2.5-3H45
			c0.3-1.2,0.5-2.5,0.6-3.8h-5.3c-1.7,0-2.5-1.5-2.5-3c0-1.5,0.9-3,2.5-3h5.8c0.1-1.4,0.1-2.7,0.1-4.2c0-1.9,1.9-3,3.7-3
			c1.9,0,3.7,1,3.7,3c0,1.4,0,2.9-0.1,4.2h8.4c1.7,0,2.5,1.5,2.5,3c0,1.5-0.8,3-2.5,3H53c-0.1,1.3-0.4,2.5-0.6,3.8h12.5
			c1.7,0,2.5,1.5,2.5,3s-0.8,3-2.5,3H54.2z"/>
		<path class="st2" d="M109.3,99.1c0.4-0.1,0.7-0.1,1.1-0.1c3.3,0,5.3,2.4,5.3,4.9c0,1.2-0.4,2.4-1.4,3.5l-12,12.3l0.1,0.2
			c1.2-0.4,2.2-0.6,3.2-0.6c4.7,0,7.5,2.9,7.8,9.1l0.1,1.5c0.2,4.5,1.1,5.9,4.7,5.9c3.7,0,7.8-0.6,11.6-1.4c0.4-0.1,0.8-0.1,1.2-0.1
			c2.4,0,3.8,2,3.8,4c0,1.7-0.9,3.4-3,3.8c-4.9,1.1-9.5,1.5-13.5,1.5c-8.4,0-12.4-3.4-12.7-12.5l-0.1-1.7c-0.1-2.7-1.1-3.7-2.7-3.7
			c-2.2,0-4.7,0.9-7.8,3.5c-2.6,2.1-6.6,6.2-12.5,12.6c-1,1.1-2.1,1.5-3.2,1.5c-2.2,0-4-1.7-4-3.8c0-1,0.4-2.1,1.4-3.1l27.5-29
			l-0.1-0.2l-18.8,3.3c-0.3,0.1-0.6,0.1-0.8,0.1c-2.4,0-3.8-2-3.8-4c0-1.7,1-3.5,3.4-3.8L109.3,99.1z M110.9,88c2,0.7,3,2.2,3,3.7
			c0,2-1.5,4-3.7,4c-0.5,0-1-0.1-1.6-0.3C104.4,94,99,92.7,94.6,92c-2.4-0.4-3.4-1.9-3.4-3.6c0-1.9,1.5-4,4-4c0.2,0,0.5,0,0.7,0.1
			C100.8,85.1,106.7,86.5,110.9,88z"/>
		<path class="st2" d="M172,84.6c0-2.1,1.9-3.2,3.9-3.2c1.9,0,3.8,1.1,3.8,3.2v2.7h15.5c2,0,3,1.6,3,3.2c0,1.6-1,3.2-3,3.2h-15.5
			v3.7h25.2c2,0,3,1.7,3,3.3c0,1.7-1,3.3-3,3.3h-60.7c-1.9,0-3-1.7-3-3.3c0-1.7,1-3.3,3-3.3h10.9v-9.7c0-2.1,1.9-3.2,3.9-3.2
			c1.9,0,3.8,1.1,3.8,3.2v9.7h9.1V84.6z M194.4,109.6c0-2.1,1.9-3.2,3.9-3.2s3.9,1.1,3.9,3.2V139c0,6-2.5,9.1-10.2,9.1h-35
			c-7.7,0-10.2-3-10.2-9.1v-29.4c0-2.1,1.9-3.1,3.9-3.1s3.9,1,3.9,3.1v28.5c0,2.7,0.8,3.5,3.7,3.5h32.4c3,0,3.7-0.8,3.7-3.5V109.6z
			 M177.8,134.1v3.5c0,1.9-1.7,2.8-3.5,2.8c-1.7,0-3.5-0.9-3.5-2.8v-3.5l0.2-4.8c-2.8,3-6.3,5.8-10.1,8.1c-0.7,0.4-1.4,0.6-2,0.6
			c-1.7,0-3-1.5-3-3.1c0-0.9,0.5-1.9,1.7-2.6c3.6-2.1,7.1-4.8,10.2-8.1h-8.1c-1.7,0-2.6-1.4-2.6-2.9c0-1.4,0.9-2.8,2.6-2.8h11.2
			v-10.2c0-1.9,1.7-2.8,3.5-2.8c1.7,0,3.5,0.9,3.5,2.8v10.2h11.5c1.8,0,2.7,1.4,2.7,2.8c0,1.4-0.9,2.9-2.7,2.9h-8.7
			c3,2.4,6.4,4.6,10.2,6.5c1.4,0.7,2.1,1.9,2.1,3.1c0,1.7-1.4,3.4-3.2,3.4c-0.6,0-1.2-0.2-1.9-0.6c-4-2.2-7.3-4.8-10.2-7.6
			L177.8,134.1z M159,110.7c0-1.7,1.7-3,3.4-3c0.9,0,1.9,0.4,2.7,1.2c0.9,0.9,1.8,2.2,2.7,3.7c0.4,0.6,0.6,1.2,0.6,1.7
			c0,1.8-1.7,3.2-3.5,3.2c-0.9,0-1.9-0.4-2.6-1.5c-0.7-1.2-1.5-2.3-2.7-3.8C159.1,111.7,159,111.2,159,110.7z M186.5,107.4
			c1.7,0,3.3,1.2,3.3,3c0,0.4-0.1,0.9-0.4,1.4c-1.1,1.9-2,3.3-3.2,4.7c-0.7,0.9-1.6,1.2-2.4,1.2c-1.7,0-3.2-1.4-3.2-3
			c0-0.6,0.2-1.2,0.6-1.8c0.9-1.2,1.8-2.4,2.7-4C184.6,107.9,185.5,107.4,186.5,107.4z"/>
		<path class="st2" d="M258.8,94c7.6-0.1,10.5,2.7,10.5,7.5c0,1.2-0.1,2.6-0.5,4.1c-4,17.1-16.5,31.8-33.5,40
			c-0.9,0.4-1.7,0.6-2.4,0.6c-2.4,0-4.2-2-4.2-4.2c0-1.4,0.7-2.9,2.5-3.8c15.9-8.3,24.9-19.8,28.7-32.7c0.1-0.6,0.2-1,0.2-1.4
			c0-1.4-0.9-1.9-3-1.9l-34.7,0.4c-2.7,0-4.2-2.2-4.2-4.2c0-1.9,1.3-4,3.8-4L258.8,94z M264.2,87.6c0-1.4,1.4-2.7,3-2.7
			c0.7,0,1.5,0.3,2.2,1c1.8,1.9,3.7,4.5,5,6.8c0.4,0.6,0.5,1.2,0.5,1.7c0,1.7-1.4,2.9-3,2.9c-0.9,0-1.8-0.5-2.4-1.6
			c-1.4-2.5-3.2-4.8-4.8-6.6C264.3,88.7,264.2,88.1,264.2,87.6z M271.8,82.6c0-1.4,1.4-2.5,3-2.5c0.8,0,1.7,0.3,2.4,1
			c1.7,1.8,3.7,4.2,5,6.4c0.4,0.7,0.6,1.4,0.6,1.9c0,1.7-1.4,2.8-2.9,2.8c-0.9,0-1.9-0.5-2.7-1.6c-1.4-2.2-3.2-4.6-4.8-6.5
			C272,83.7,271.8,83.1,271.8,82.6z"/>
		<path class="st2" d="M330.6,104.8c6.6-0.1,9.7,2.7,9.7,7.1c0,1.2-0.2,2.6-0.7,4.1c-4.5,13.3-16.2,24-30.3,29.5
			c-0.6,0.2-1.2,0.4-1.8,0.4c-2.4,0-4.2-2.1-4.2-4.2c0-1.5,0.9-3,3-3.9c12.6-5,21.3-13.2,24.9-22.7c0.2-0.6,0.4-1.1,0.4-1.4
			c0-0.9-0.7-1.2-2.3-1.2l-36.4,0.4c-2.4,0-3.7-1.9-3.7-3.9c0-1.9,1.2-3.9,3.5-3.9L330.6,104.8z M331.1,89.1c2.4,0,3.6,1.9,3.6,3.9
			c0,1.9-1.2,3.9-3.6,3.9h-31.4c-2.3,0-3.5-1.9-3.5-3.9c0-1.9,1.2-3.9,3.5-3.9H331.1z"/>
		<path class="st2" d="M371.7,110.9c1.1,0.9,1.5,2.1,1.5,3.2c0,2.2-1.9,4.4-4.2,4.4c-0.9,0-1.8-0.3-2.7-1c-2.5-2-6.3-4.7-8.9-6.1
			c-1.4-0.8-2-2-2-3.2c0-2.1,1.9-4.2,4.4-4.2c0.6,0,1.4,0.1,2.2,0.5C365.3,106.2,368.9,108.4,371.7,110.9z M406.1,103.5
			c2.2,0,4.3,1.6,4.3,3.9c0,0.7-0.2,1.5-0.6,2.3c-9.6,17.8-27.3,29.9-46.1,35.2c-0.5,0.1-1.1,0.2-1.5,0.2c-2.5,0-4-2-4-4.1
			c0-1.7,1-3.4,3.3-4.1c17.8-5.3,31.8-15.2,40.8-31.2C403.2,104.1,404.7,103.5,406.1,103.5z M380.3,94.7c1.1,0.9,1.5,2.1,1.5,3.2
			c0,2.2-1.9,4.3-4.2,4.3c-0.9,0-1.8-0.3-2.7-1c-2.5-2-6.3-4.6-8.9-6c-1.4-0.8-2-1.9-2-3.2c0-2.1,1.9-4.2,4.5-4.2
			c0.6,0,1.4,0.2,2.2,0.6C373.8,89.9,377.4,92.2,380.3,94.7z"/>
		<path class="st2" d="M421.3,102.4c-1.9,0-2.9-1.8-2.9-3.6c0-1.8,1-3.6,2.9-3.6h22.5c1.9,0,3,1.8,3,3.6c0,1.8-1,3.6-3,3.6H421.3z
			 M429.5,147.9c-5.5,0-7.3-2.2-7.3-6.6v-8.7c0-4.5,1.8-6.6,7.3-6.6h7.4c5.5,0,7.3,2.2,7.3,6.6v8.7c0,5.1-2.4,6.6-7.3,6.6H429.5z
			 M425.4,91.9c-1.8,0-2.7-1.7-2.7-3.4c0-1.7,0.9-3.4,2.7-3.4h15c1.9,0,2.8,1.7,2.8,3.4c0,1.7-0.9,3.4-2.8,3.4H425.4z M425.4,112.5
			c-1.8,0-2.7-1.7-2.7-3.4c0-1.7,0.9-3.4,2.7-3.4h15c1.9,0,2.8,1.7,2.8,3.4c0,1.7-0.9,3.4-2.8,3.4H425.4z M425.4,122.6
			c-1.8,0-2.7-1.7-2.7-3.4c0-1.7,0.9-3.4,2.7-3.4h15c1.9,0,2.8,1.7,2.8,3.4c0,1.7-0.9,3.4-2.8,3.4H425.4z M435.4,141.4
			c1.2,0,1.5-0.4,1.5-1.7v-5.7c0-1.2-0.4-1.7-1.5-1.7h-4.5c-1.2,0-1.5,0.4-1.5,1.7v5.7c0,1.2,0.3,1.7,1.5,1.7H435.4z M485.3,105.5
			c1.2,0.9,1.7,2.1,1.7,3.2c0,2.1-1.7,4-4,4c-1,0-2.1-0.4-3.1-1.4c-5.2-4.7-10.5-10.9-14.5-17.1c-3.7,6.2-8.4,12.2-13.5,16.6
			c-0.9,0.9-2,1.2-3,1.2c-2,0-3.7-1.6-3.7-3.5c0-1,0.4-2.1,1.6-3.1c6-5.3,11.4-13,14.9-20.4c0.8-1.7,2.2-2.3,3.5-2.3
			c1.9,0,3.9,1.4,3.9,3.4c0,0.4-0.1,0.7-0.2,1.1C473.4,94.1,479.4,100.8,485.3,105.5z M480.4,127.1c2,0,3.7,1.8,3.7,3.7
			c0,0.9-0.4,1.9-1.5,2.7c-7.9,6.3-19.6,11.6-30.2,14.3c-0.4,0.1-0.7,0.1-1,0.1c-2.2,0-3.5-1.8-3.5-3.6c0-1.4,0.9-2.9,3-3.5
			c9.7-2.5,20.4-7.4,27.2-12.9C478.8,127.4,479.6,127.1,480.4,127.1z M467.8,105.1c1.9,0,3.7,1.7,3.7,3.5c0,0.8-0.3,1.6-1,2.3
			c-4.3,4.6-10,8.7-15.6,11.4c-0.6,0.3-1.2,0.4-1.8,0.4c-1.9,0-3.3-1.7-3.3-3.3c0-1.2,0.6-2.2,2-3c4.8-2.5,9.9-6,13.3-10.2
			C466,105.5,466.9,105.1,467.8,105.1z M474,115.8c1.9,0,3.7,1.7,3.7,3.6c0,0.8-0.4,1.6-1.2,2.4c-6,5.5-14.6,10.5-22,13.1
			c-0.5,0.1-0.9,0.2-1.4,0.2c-2,0-3.3-1.7-3.3-3.4c0-1.3,0.7-2.7,2.4-3.2c6.6-2.4,14.4-6.8,19.4-11.7
			C472.4,116.1,473.2,115.8,474,115.8z"/>
		<path class="st2" d="M495.7,89.4c0-2,1.9-3,3.8-3c1.9,0,3.8,1,3.8,3v46.9c0,2,0.7,2.7,3.1,2.7h16.6c1.9,0,2.9,1.7,2.9,3.5
			c0,1.7-0.9,3.5-2.9,3.5H505c-7.1,0-9.2-2.7-9.2-8.2V89.4z M514.5,122c-1.3,2.8-2.8,5.5-4.7,8.1c-0.9,1.2-1.9,1.7-2.9,1.7
			c-1.6,0-3-1.4-3-3c0-0.7,0.3-1.6,0.9-2.4c3.2-4.2,5.8-9,7.8-14.9h-5.1c-1.8,0-2.7-1.6-2.7-3.2s0.9-3.2,2.7-3.2h6.6V85.7
			c0-1.9,1.7-2.7,3.5-2.7c1.7,0,3.5,0.9,3.5,2.7v19.6h6.8c1.9,0,2.7,1.6,2.7,3.2s-0.9,3.2-2.7,3.2H521v3.5c2.7,1.7,5.5,3.9,7.6,6
			c0.9,0.9,1.2,1.7,1.2,2.6c0,1.6-1.4,3-3.1,3c-0.9,0-1.8-0.4-2.6-1.4c-0.9-1.1-1.9-2.2-3.2-3.2v12.5c0,2-1.7,3.1-3.5,3.1
			c-1.7,0-3.5-1.1-3.5-3.1v-3.5L514.5,122z M513,98.7c0.1,0.2,0.1,0.5,0.1,0.7c0,1.9-1.6,3-3.1,3c-1.2,0-2.4-0.7-2.9-2.4
			c-0.5-1.9-1.4-4.5-2-6.2c-0.1-0.4-0.2-0.8-0.2-1.2c0-1.6,1.4-2.7,3-2.7c1.1,0,2.2,0.6,2.7,1.8C511.5,93.9,512.5,96.5,513,98.7z
			 M527.6,89.7c1.5,0,3,1,3,2.7c0,0.4-0.1,0.6-0.1,1c-0.8,2.7-1.7,5.3-2.9,7.4c-0.6,1.2-1.7,1.7-2.7,1.7c-1.5,0-3-1.1-3-2.5
			c0-0.4,0.1-0.7,0.3-1.2c0.8-1.8,1.9-4.5,2.6-7C525.3,90.4,526.5,89.7,527.6,89.7z M533.5,91.3c0-2,1.9-3,3.8-3
			c0.8,0,1.6,0.2,2.2,0.6c4.6-1.3,8.5-2.7,12.2-4.5c0.6-0.3,1.3-0.5,1.9-0.5c2.2,0,3.6,1.9,3.6,3.8c0,1.2-0.6,2.5-2.2,3.2
			c-3.8,1.7-8.7,3.5-14,4.9v9.9H558c1.9,0,3,1.7,3,3.3c0,1.7-1,3.4-3,3.4h-3.9v33.1c0,2.2-1.9,3.2-3.7,3.2c-1.9,0-3.8-1.1-3.8-3.2
			v-33.1H541c-0.3,15.6-2.9,26.3-7,33.8c-0.9,1.7-2.4,2.4-3.8,2.4c-1.9,0-3.7-1.3-3.7-3.3c0-0.6,0.2-1.4,0.6-2.2
			c4.4-7.7,6.3-17.9,6.3-34.8V91.3z"/>
	</g>
</g>
</svg>
