<!-- Generator: Adobe Illustrator 22.1.0, SVG Export Plug-In  -->
<svg version="1.1"
	 xmlns="http://www.w3.org/2000/svg" xmlns:xlink="http://www.w3.org/1999/xlink" xmlns:a="http://ns.adobe.com/AdobeSVGViewerExtensions/3.0/"
	 x="0px" y="0px" width="327.5px" height="31.9px" viewBox="0 0 327.5 31.9" style="enable-background:new 0 0 327.5 31.9;"
	 xml:space="preserve">
<style type="text/css">
	.st0{fill:#333333;}
</style>
<defs>
</defs>
<g>
	<g>
		<path class="st0" d="M8,13.5c0-1.5,0.1-3.1,0.3-4.6C6.7,9,5.2,9,3.9,9C2.8,9,2.2,8.2,2.2,7.3c0-0.9,0.5-1.7,1.7-1.7
			c1.4,0,3.1,0,4.7-0.1c0.1-1.3,0.3-2.5,0.5-3.9c0.2-1,1-1.5,1.8-1.5c0.9,0,1.8,0.5,1.8,1.5c0,0.1,0,0.2,0,0.3
			c-0.2,1.2-0.3,2.3-0.5,3.4C14.7,5,17.1,4.7,19,4.4c0.1,0,0.3,0,0.4,0c1.1,0,1.7,0.8,1.7,1.7c0,0.7-0.5,1.5-1.5,1.7
			c-2.2,0.4-5,0.7-7.9,1c-0.1,1.2-0.2,2.4-0.3,3.6c1.6-0.4,3.3-0.5,5-0.5c0.1-0.4,0.3-0.9,0.4-1.4c0.2-0.8,1-1.2,1.7-1.2
			c0.9,0,1.8,0.5,1.8,1.5c0,0.1,0,0.3-0.1,0.4c-0.1,0.3-0.2,0.7-0.3,1c4.7,1.1,7.4,4.6,7.4,8.6c0,5-3.4,8.7-9.1,10.1
			c-0.2,0-0.4,0.1-0.5,0.1c-1.1,0-1.8-0.9-1.8-1.9c0-0.7,0.4-1.5,1.5-1.8c4.3-1.3,6.1-3.5,6.1-6.5c0-2.3-1.5-4.7-4.6-5.6
			c-1.5,3.7-3.6,7.3-6.7,9.9c0.1,0.7,0.3,1.4,0.4,2c0,0.1,0.1,0.3,0.1,0.4c0,1.1-1,1.7-1.9,1.7c-0.7,0-1.4-0.4-1.6-1.2l-0.2-0.8
			c-1.5,0.9-2.9,1.2-4.3,1.2c-2.9,0-4.8-1.8-4.8-4.9S2.2,16.1,8,13.5z M5,24.9c1,0,2-0.3,3.4-1.2C8.2,21.5,8,19.3,8,17.1
			c-3.1,2-4.4,4.3-4.4,6.3C3.6,24.4,3.9,24.9,5,24.9z M15.5,15c-1.4,0.1-2.7,0.3-4,0.6v0.6c0,1.5,0.1,3.2,0.3,5
			C13.3,19.3,14.6,17.2,15.5,15z"/>
		<path class="st0" d="M42.1,2.1c0.2-1,1-1.5,1.8-1.5c1,0,1.8,0.6,1.8,1.7c0,0.1,0,0.3,0,0.4c-0.3,1.3-0.6,2.7-1,4
			c1-0.2,2-0.3,3-0.5c0.1,0,0.3,0,0.4,0c1.1,0,1.8,0.9,1.8,1.8c0,0.7-0.4,1.5-1.5,1.7c-1.5,0.3-3.1,0.6-4.8,0.8
			c-1.4,4.1-3.3,8.2-5.2,11.5c-0.5,0.8-1.2,1.2-1.9,1.2c-1,0-1.9-0.8-1.9-1.8c0-0.4,0.1-0.8,0.4-1.2c1.7-2.7,3.3-5.9,4.6-9.2
			c-1.3,0.1-2.5,0.2-3.5,0.2c-1.2,0-1.8-0.9-1.8-1.9c0-0.9,0.5-1.7,1.6-1.8c1.5-0.1,3.2-0.2,5-0.3C41.3,5.6,41.8,3.8,42.1,2.1z
			 M48.2,30.6c-4,0-6.5-1.8-6.5-4.9c0-2.7,2.3-5,6.7-5c0.5,0,1.1,0,1.7,0.1c-0.2-1.6-0.3-2.7-0.3-3.6c0-1.5,0.1-2.2,0.2-3.3
			c0.2-1,1-1.4,1.8-1.4c1,0,1.9,0.5,1.9,1.6c0,0.1,0,0.2,0,0.3c-0.1,1-0.2,1.8-0.2,2.8s0.1,2.3,0.5,4.4c2.2,0.6,4.4,1.6,6.4,3
			c0.6,0.4,0.9,1,0.9,1.6c0,1-0.8,1.9-1.8,1.9c-0.3,0-0.7-0.1-1.2-0.4c-1.3-0.9-2.6-1.6-3.9-2.2C54.2,29.3,51.5,30.6,48.2,30.6z
			 M50.6,25.1c0-0.3,0-0.6,0-0.8c-0.7-0.1-1.5-0.2-2.1-0.2c-2.4,0-3.1,0.7-3.1,1.7c0,1,0.7,1.6,2.9,1.6
			C49.8,27.3,50.6,26.6,50.6,25.1z M61.1,9.2c0.8,0.5,1.1,1.2,1.1,1.8c0,1-0.8,1.9-1.8,1.9c-0.3,0-0.7-0.1-1-0.3
			c-1.6-0.9-3.4-1.8-4.9-2.3c-0.8-0.3-1.2-0.9-1.2-1.5c0-0.9,0.8-1.9,1.9-1.9c0.2,0,0.4,0,0.6,0.1C57.5,7.3,59.6,8.3,61.1,9.2z"/>
		<path class="st0" d="M70.7,11.9c-1.1,0-1.7-0.8-1.7-1.8s0.6-1.8,1.7-1.9c1.4-0.1,3-0.3,4.8-0.6c0.3-1.9,0.4-3.4,0.6-5.2
			c0.1-1.1,1-1.6,1.9-1.6c1,0,1.9,0.6,1.9,1.7v0.2c-0.2,1.6-0.3,2.9-0.5,4.1c1-0.2,1.9-0.4,2.9-0.7c0.2,0,0.3-0.1,0.5-0.1
			c1.1,0,1.7,0.9,1.7,1.8c0,0.7-0.4,1.4-1.3,1.7c-1.6,0.4-3.1,0.8-4.4,1.1c-1.2,6.7-2.9,13-4.8,17.9c-0.4,1-1.3,1.5-2.1,1.5
			c-1,0-1.9-0.7-1.9-1.7c0-0.3,0.1-0.6,0.2-1c1.9-4.6,3.4-10,4.6-16C73.4,11.7,72.1,11.9,70.7,11.9z M83.6,21.3
			c0.8,0,1.5,0.4,1.6,1.4c0.2,2.2,1.5,2.8,5.2,2.8c1.7,0,3.2-0.1,4.6-0.3c0.1,0,0.3,0,0.4,0c1.2,0,1.8,1,1.8,1.9
			c0,0.8-0.5,1.6-1.6,1.8c-1.5,0.2-3.2,0.4-5.1,0.4c-4.8,0-6.9-1.2-8-3c-0.5-0.8-0.8-2.2-0.8-3.2C81.7,22,82.6,21.3,83.6,21.3z
			 M93.8,11.1c1.2,0,1.8,0.9,1.8,1.8c0,0.9-0.6,1.7-1.7,1.7c-2.7,0-5.9,0.4-8.3,0.9c-0.1,0-0.3,0-0.4,0c-1.1,0-1.7-0.8-1.7-1.8
			c0-0.8,0.5-1.6,1.6-1.8C87.7,11.5,91.1,11.1,93.8,11.1z"/>
		<path class="st0" d="M102.6,18.5c0-7.8,6.4-14.1,15.8-14.1c8.3,0,13.1,5.2,13.1,12c0,6.2-3.6,10.7-9.5,12.5
			c-0.3,0.1-0.5,0.1-0.8,0.1c-1.2,0-1.9-1-1.9-1.9c0-0.7,0.4-1.5,1.4-1.9c4.8-1.7,6.8-4.7,6.8-8.9c0-4.5-3-8.1-8.2-8.5
			c-0.3,5.6-1.7,10.7-3.8,14.4c-1.9,3.3-3.9,4.3-6.5,4.3C105.5,26.6,102.6,23.8,102.6,18.5z M106.5,18.5c0,3.1,1.2,4.3,2.4,4.3
			c1.1,0,2-0.5,3-2.3c1.7-3,3-7.4,3.4-12.4C110.2,9,106.5,13.4,106.5,18.5z"/>
		<path class="st0" d="M148.7,0c0.5,0,0.8,0.4,0.8,0.8c0,0.4-0.3,0.8-0.8,0.8h-5.6c-0.5,0-0.9,0.4-0.9,0.9v16.2
			c0,0.4-0.4,0.7-0.8,0.7c-0.4,0-0.8-0.3-0.8-0.7V2.2c0-1.3,0.9-2.2,2.2-2.2H148.7z"/>
		<path class="st0" d="M165.4,15.4c1.8-0.5,3.7-0.7,5.8-0.7c5.4,0,8.9,2.5,8.9,6.8c0,4.4-3,7.2-7.9,7.9c-0.1,0-0.2,0-0.4,0
			c-1.2,0-1.8-0.9-1.8-1.8c0-0.8,0.5-1.6,1.6-1.8c3.3-0.6,4.7-2.1,4.7-4.3c0-1.9-1.7-3.5-5-3.5c-2.1,0-4,0.3-5.8,0.9V25
			c0,3.5-1.5,4.8-4.7,4.8c-3.1,0-6.4-2.3-6.4-5.3c0-2.5,1.4-5.2,7.4-8v-5.7c-1.7,0.2-3.3,0.3-4.7,0.3c-1.1,0-1.7-0.8-1.7-1.7
			c0-0.9,0.5-1.8,1.7-1.8c1.4,0,3-0.1,4.7-0.3V2.2c0-1.1,0.9-1.7,1.8-1.7s1.8,0.5,1.8,1.7v4.7c1.2-0.2,2.3-0.4,3.2-0.6
			c0.2-0.1,0.4-0.1,0.6-0.1c1.1,0,1.8,0.8,1.8,1.7c0,0.7-0.4,1.4-1.4,1.7c-1.3,0.3-2.7,0.6-4.2,0.8V15.4z M161.7,20.4
			c-3,1.7-3.6,2.8-3.6,4.1c0,1.1,1.2,1.8,2.5,1.8c1,0,1.1-0.6,1.1-1.5V20.4z M181.4,8.7c0.6,0.5,0.8,1.1,0.8,1.6
			c0,1.1-0.9,1.9-2,1.9c-0.4,0-1-0.2-1.4-0.6c-1.2-1-2.8-2.2-4.1-3c-0.7-0.4-1-1-1-1.5c0-1,0.8-2,1.9-2c0.3,0,0.6,0.1,0.9,0.2
			C178.2,6.2,180.1,7.5,181.4,8.7z"/>
		<path class="st0" d="M189.8,7.5c0.7,0,1.4,0.5,1.4,1.3c0,0.8-0.4,3.4-0.9,5.1c-0.2,0.7-0.8,1.1-1.4,1.1c-0.7,0-1.3-0.5-1.3-1.2
			c0-0.2,0-0.3,0.1-0.5c0.4-1.4,0.7-3.2,0.9-4.6C188.6,7.9,189.2,7.5,189.8,7.5z M195.2,30.4c0,1-0.9,1.5-1.8,1.5
			c-0.9,0-1.8-0.5-1.8-1.5V1.6c0-1,0.9-1.5,1.8-1.5c0.9,0,1.8,0.5,1.8,1.5V30.4z M198.8,10.8v0.2c0,0.9-0.7,1.4-1.4,1.4
			c-0.5,0-1.1-0.3-1.2-1.1c-0.1-1-0.4-2.3-0.6-3.1c0-0.1-0.1-0.3-0.1-0.4c0-0.7,0.6-1.1,1.2-1.1c0.5,0,1.1,0.3,1.3,1
			C198.3,8.7,198.6,9.9,198.8,10.8z M204.4,8c0.1,0.3,0.2,0.7,0.2,1c0,1.1-0.9,1.8-1.8,1.8c-0.7,0-1.5-0.4-1.9-1.4
			c-0.5-1.2-1.3-2.9-2.1-4.1c-0.2-0.3-0.3-0.7-0.3-1c0-1,0.9-1.7,1.8-1.7c0.6,0,1.2,0.3,1.6,0.9C202.9,4.9,203.8,6.7,204.4,8z
			 M203.1,30.5c-3.3,0-4.5-1-4.5-3.8V16.1c0-1,0.9-1.5,1.8-1.5s1.8,0.5,1.8,1.5v10.1c0,0.8,0.4,1.1,1.1,1.1h9.9
			c0.7,0,1.1-0.3,1.1-1.1v-9.8c0-1,0.9-1.5,1.8-1.5s1.8,0.5,1.8,1.5v10.3c0,2.8-1.2,3.8-4.5,3.8H203.1z M212.9,22.5
			c0.4,0.4,0.6,0.9,0.6,1.3c0,1-0.8,1.7-1.7,1.7c-0.5,0-0.9-0.2-1.3-0.6c-0.5-0.6-1-1.2-1.6-1.7c-1,1.1-1.9,2.1-3,2.9
			c-0.4,0.3-0.8,0.5-1.2,0.5c-0.9,0-1.6-0.7-1.6-1.6c0-0.4,0.2-0.9,0.7-1.3c0.9-0.8,1.8-1.7,2.7-2.8c-0.7-0.6-1.4-1.2-2.1-1.6
			c-0.6-0.4-0.8-0.9-0.8-1.4c0-0.8,0.8-1.6,1.7-1.6c0.3,0,0.6,0.1,1,0.3c0.7,0.5,1.5,1,2.2,1.6c0.7-1,1.3-2,1.7-3
			c0.4-0.7,1-1.1,1.6-1.1c0.9,0,1.7,0.6,1.7,1.5c0,0.2-0.1,0.5-0.2,0.8c-0.6,1.3-1.4,2.7-2.3,3.9C211.7,21.1,212.3,21.8,212.9,22.5z
			 M210.3,6.9c0.1,0.2,0.1,0.5,0.1,0.7c0,1.1-1,1.8-1.9,1.8c-0.7,0-1.4-0.4-1.7-1.3c-0.5-1.5-1.3-3.4-2-4.6
			c-0.2-0.3-0.2-0.6-0.2-0.9c0-0.9,0.8-1.5,1.8-1.5c0.6,0,1.2,0.3,1.7,1C208.9,3.5,209.8,5.4,210.3,6.9z M214.1,12.1
			c-0.4,0.7-1.1,1-1.7,1c-1,0-1.8-0.7-1.8-1.7c0-0.3,0.1-0.7,0.3-1.1c1.4-2.1,2.6-4.8,3.6-7.7c0.3-0.8,1-1.2,1.7-1.2
			c1,0,1.9,0.7,1.9,1.8c0,0.2,0,0.5-0.1,0.7C217,6.8,215.6,9.8,214.1,12.1z"/>
		<path class="st0" d="M236.1,2.6c0.3-0.1,0.7-0.1,1-0.1c2.1,0,3.3,1.2,3.3,3c0,0.3,0,0.5-0.1,0.9c-0.4,2.5-1.1,5-1.8,7.4
			c2.2,0.3,4.5,0.9,6.6,1.6c0.3-1.6,0.5-3.3,0.6-5.2c0-1.1,1-1.6,1.9-1.6c1,0,2,0.6,2,1.8c0,1.9-0.4,4.3-0.9,6.5
			c1.7,0.8,3.4,1.7,5,2.8c0.7,0.4,1,1.1,1,1.7c0,1.1-0.8,2-1.9,2c-0.4,0-0.8-0.1-1.2-0.4c-1.4-0.9-2.7-1.7-4-2.3
			c-1.3,3.5-3.2,6.4-5.4,8.7c-0.5,0.5-1.1,0.8-1.7,0.8c-1.1,0-1.9-0.9-1.9-1.9c0-0.4,0.2-0.9,0.6-1.3c2.1-2.1,3.8-4.7,4.9-7.9
			c-2.2-0.9-4.4-1.5-6.7-1.9c-0.7,1.8-1.4,3.5-2.1,4.9c-1.7,3.4-3.5,4.5-5.9,4.5c-2.8,0-4.9-1.8-4.9-5.3c0-4.2,3.8-7.8,9.5-7.8h0.8
			c0.7-2.2,1.3-4.5,1.6-6.6c0-0.1,0-0.2,0-0.3c0-0.3-0.2-0.3-0.7-0.3L231,7.1c-0.1,0-0.3,0-0.4,0c-1.1,0-1.7-0.9-1.7-1.8
			c0-0.8,0.5-1.6,1.6-1.8L236.1,2.6z M231.9,20.8c0.6-1.2,1.2-2.5,1.7-3.9c-3.5,0-5.4,2-5.4,4.2c0,1.2,0.5,1.8,1.2,1.8
			C230.4,22.8,231,22.5,231.9,20.8z"/>
		<path class="st0" d="M258,31.9c-0.5,0-0.8-0.3-0.8-0.8s0.3-0.8,0.8-0.8h5.6c0.5,0,0.9-0.4,0.9-0.9V13.2c0-0.4,0.4-0.7,0.8-0.7
			c0.5,0,0.8,0.3,0.8,0.7v16.5c0,1.3-0.9,2.2-2.2,2.2H258z"/>
		<path class="st0" d="M278.8,2c1,0,2,0.6,2,1.7c0,0.1,0,0.2,0,0.4c-1.1,4.7-1.8,9.7-1.8,14c0,3.8,0.4,7.4,0.7,10.1
			c0,0.1,0,0.2,0,0.3c0,1.1-1,1.7-2,1.7c-0.9,0-1.7-0.5-1.9-1.5c-0.5-2.8-0.8-6.5-0.8-10.6c0-4.6,0.7-9.8,1.9-14.7
			C277.1,2.4,277.9,2,278.8,2z M295.6,8.2c1.3-0.1,2.6-0.3,3.7-0.5c0.2,0,0.3,0,0.4,0c1.1,0,1.6,0.8,1.6,1.6c0,0.8-0.5,1.6-1.5,1.8
			c-1.3,0.3-2.8,0.5-4.2,0.6c0,2.9,0.1,5.8,0.4,8.7c1.9,0.7,3.8,1.8,5.7,3.2c0.6,0.5,0.9,1.1,0.9,1.7c0,1-0.8,1.8-1.8,1.8
			c-0.4,0-0.8-0.2-1.3-0.5c-1.1-0.9-2.3-1.6-3.4-2.2c-0.4,2.8-2.3,4.9-6.5,4.9c-3.8,0-6.2-1.9-6.2-5c0-2.8,2.3-4.9,6.7-4.9
			c0.7,0,1.5,0.1,2.2,0.2c-0.2-2.5-0.3-5-0.3-7.4c-1.5,0.1-2.9,0.1-4.2,0.1c-0.7,0-1.3,0-1.9-0.1c-1.1-0.1-1.6-1-1.6-1.8
			s0.5-1.7,1.6-1.7c0.6,0,1.2,0.1,1.8,0.1c1.3,0,2.7,0,4.2-0.1V3.5c0-1.1,0.9-1.6,1.8-1.6s1.8,0.5,1.8,1.6V8.2z M292.5,22.9
			c-0.9-0.2-1.7-0.4-2.4-0.4c-2.4,0-3.1,0.7-3.1,1.7c0,1.1,0.9,1.6,2.6,1.6C291.3,25.9,292.5,25.1,292.5,22.9z"/>
		<path class="st0" d="M320.7,20.4c0,1.1-0.7,1.6-1.7,1.6c-1,0-1.7-0.6-1.7-1.6v-0.7c0-2.7,0.6-4.3,3.4-6.4c2.2-1.7,2.7-2.8,2.7-4.5
			c0-2.3-1.6-3.5-4-3.5c-2,0-3.8,0.9-5.2,3c-0.3,0.4-0.8,0.7-1.3,0.7c-1.1,0-2-0.8-2-1.7c0-0.4,0.2-0.9,0.5-1.3c1.8-2.5,4.7-4,8.1-4
			c4.7,0,8,2.5,8,6.7c0,2.9-1,4.7-3.8,6.7c-2.5,1.7-3,2.8-3,4.4V20.4z M321.7,26.8c0,1.4-1.1,2.5-2.6,2.5s-2.6-1.1-2.6-2.5
			c0-1.4,1.1-2.5,2.6-2.5S321.7,25.3,321.7,26.8z"/>
	</g>
</g>
</svg>
