<!-- Generator: Adobe Illustrator 22.1.0, SVG Export Plug-In  -->
<svg version="1.1"
	 xmlns="http://www.w3.org/2000/svg" xmlns:xlink="http://www.w3.org/1999/xlink" xmlns:a="http://ns.adobe.com/AdobeSVGViewerExtensions/3.0/"
	 x="0px" y="0px" width="454.8px" height="29.7px" viewBox="0 0 454.8 29.7" style="enable-background:new 0 0 454.8 29.7;"
	 xml:space="preserve">
<style type="text/css">
	.st0{fill:#333333;}
	.st1{fill:#5E5D5D;}
</style>
<defs>
</defs>
<g>
	<path class="st0" d="M25.6,21.5c-2.3,0-3.4-0.9-3.4-2.7V6.5c0-1.8,1-2.8,3.4-2.8h2.1c0.3-0.8,0.6-1.6,0.8-2.4
		c0.2-0.6,0.7-0.9,1.3-0.9c0.7,0,1.3,0.4,1.3,1.1c0,0.1,0,0.3-0.1,0.4c-0.2,0.6-0.4,1.2-0.6,1.7h3.6c2.3,0,3.4,1,3.4,2.8v12.2
		c0,2.1-1.4,2.7-3.4,2.7H25.6z M34.7,7c0-0.6-0.2-1-1.1-1h-7.7c-0.9,0-1.1,0.4-1.1,1v1.7h10V7z M24.7,13.8h10V11h-10V13.8z
		 M33.6,19.2c0.9,0,1.1-0.4,1.1-1V16h-10v2.1c0,0.7,0.4,1,1.1,1H33.6z"/>
	<path class="st0" d="M48.9,1.2c0.7,0,1.3,0.4,1.3,1.1c0,0.2,0,0.3-0.1,0.5c-1.3,3-3.5,6.1-6.1,8.5c-0.3,0.3-0.7,0.4-1,0.4
		c-0.7,0-1.3-0.6-1.3-1.2c0-0.3,0.2-0.7,0.5-1c2.5-2.2,4.3-4.8,5.5-7.5C48,1.4,48.5,1.2,48.9,1.2z M51.6,12.1
		c-0.7,4.6-2.9,7.7-7.1,9.6c-0.3,0.1-0.5,0.2-0.7,0.2c-0.7,0-1.2-0.6-1.2-1.1c0-0.4,0.3-0.9,0.9-1.2c3.3-1.6,5-4,5.6-7.5h-2.3
		c-0.7,0-1-0.6-1-1.1c0-0.6,0.3-1.1,1-1.1h9c2.2,0,3,0.7,3,2.4c0,2.7-0.3,4.9-0.8,6.7c-0.6,2-1.6,2.7-3.4,2.7
		c-0.9,0-1.6-0.1-2.2-0.2c-0.7-0.1-1.1-0.7-1.1-1.2c0-0.6,0.4-1.2,1.2-1.2c0.1,0,0.2,0,0.3,0c0.5,0.1,1,0.1,1.5,0.1
		c0.6,0,0.9-0.2,1.1-0.9c0.4-1.5,0.7-3.6,0.7-5.6c0-0.5-0.2-0.7-0.9-0.7H51.6z M62.4,8.8c0.5,0.4,0.7,0.8,0.7,1.2
		c0,0.7-0.6,1.3-1.4,1.3c-0.3,0-0.6-0.1-0.9-0.3c-2.7-2.2-5.4-5.3-6.7-8.3c-0.1-0.2-0.1-0.4-0.1-0.5c0-0.6,0.6-1.1,1.2-1.1
		c0.5,0,0.9,0.2,1.2,0.8C57.7,4.4,60.1,7.2,62.4,8.8z"/>
	<path class="st0" d="M69.4,2.6c0.7,0,1.3,0.4,1.3,1.2c0,0.1,0,0.2,0,0.3c-0.8,3.8-1.1,6.9-1.1,10.2c0,1.9,0.3,4,0.4,5.4
		c0,0.1,0,0.1,0,0.2c0,0.8-0.7,1.2-1.3,1.2c-0.6,0-1.2-0.3-1.3-1.1c-0.2-1.5-0.4-3.7-0.4-5.7c0-3.4,0.3-6.5,1.1-10.6
		C68.3,2.9,68.8,2.6,69.4,2.6z M79.9,16.8c1,0,2.3-0.1,3.5-0.3c0.1,0,0.2,0,0.3,0c0.8,0,1.2,0.6,1.2,1.3c0,0.5-0.3,1.1-1,1.2
		c-1.4,0.3-2.7,0.4-4,0.4c-4.3,0-6-1.3-6.3-4.1v-0.1c0-0.8,0.7-1.3,1.3-1.3c0.6,0,1.1,0.3,1.2,1C76.3,16.2,77,16.8,79.9,16.8z
		 M82.2,4.6c0.8,0,1.2,0.6,1.2,1.2c0,0.6-0.4,1.1-1.2,1.3c-2,0.3-4.3,0.5-6.5,0.5c-0.9,0-1.3-0.6-1.3-1.2c0-0.6,0.4-1.2,1.2-1.2
		c2.1,0,4.3-0.2,6.3-0.5H82.2z"/>
	<path class="st0" d="M94.6,9.7c0-1,0.1-2.1,0.2-3.1c-1.1,0-2.1,0.1-3,0.1c-0.8,0-1.1-0.6-1.1-1.2c0-0.6,0.4-1.1,1.1-1.1
		c1,0,2.1,0,3.2-0.1c0.1-0.9,0.2-1.7,0.3-2.6c0.1-0.7,0.7-1,1.2-1c0.6,0,1.2,0.4,1.2,1c0,0.1,0,0.1,0,0.2c-0.1,0.8-0.2,1.5-0.3,2.3
		c1.7-0.1,3.3-0.3,4.6-0.6c0.1,0,0.2,0,0.3,0c0.8,0,1.2,0.6,1.2,1.1c0,0.5-0.3,1-1,1.1c-1.5,0.3-3.4,0.5-5.3,0.6
		c0,0.8-0.1,1.6-0.2,2.5c1.1-0.3,2.3-0.4,3.4-0.4c0.1-0.3,0.2-0.6,0.3-0.9c0.1-0.6,0.6-0.8,1.1-0.8c0.6,0,1.2,0.4,1.2,1
		c0,0.1,0,0.2,0,0.3c-0.1,0.2-0.1,0.5-0.2,0.7c3.2,0.7,5,3.1,5,5.8c0,3.4-2.3,5.9-6.1,6.8c-0.1,0-0.3,0-0.4,0
		c-0.7,0-1.2-0.6-1.2-1.3c0-0.5,0.3-1,1-1.2c2.9-0.9,4.1-2.4,4.1-4.4c0-1.6-1-3.2-3.1-3.8c-1,2.5-2.4,4.9-4.5,6.7
		c0.1,0.5,0.2,0.9,0.3,1.4c0,0.1,0,0.2,0,0.3c0,0.7-0.7,1.1-1.3,1.1c-0.5,0-1-0.3-1.1-0.8L95.3,19c-1,0.6-1.9,0.8-2.9,0.8
		c-2,0-3.2-1.2-3.2-3.3S90.6,11.5,94.6,9.7z M92.5,17.4c0.7,0,1.4-0.2,2.3-0.8c-0.2-1.5-0.3-3-0.3-4.5c-2.1,1.4-3,2.9-2.9,4.2
		C91.6,17.1,91.8,17.4,92.5,17.4z M99.6,10.7c-0.9,0-1.8,0.2-2.7,0.4v0.4c0,1,0.1,2.2,0.2,3.4C98.2,13.6,99,12.2,99.6,10.7z"/>
	<path class="st0" d="M128.4,13.6c0,3.6-2.7,6.1-7.8,6.9c-0.1,0-0.2,0-0.2,0c-0.7,0-1.1-0.6-1.1-1.1c0-0.5,0.3-1,0.9-1.1
		c4.4-0.8,5.9-2.2,5.9-4.7c0-1.5-1.1-2.6-3.3-2.6c-2.4,0-5.3,0.8-8.7,2.3c-0.2,0.1-0.4,0.1-0.6,0.1c-0.6,0-1.1-0.5-1.1-1.1
		c0-0.4,0.2-0.9,0.8-1.1c3.4-1.5,6.9-2.3,9.6-2.3C126.1,8.9,128.4,10.7,128.4,13.6z"/>
	<path class="st0" d="M133.5,8.6c-0.8,0-1.1-0.6-1.1-1.2c0-0.6,0.4-1.2,1.2-1.3c0.9,0,2-0.2,3.3-0.4c0.2-1.3,0.3-2.3,0.4-3.5
		c0.1-0.7,0.7-1.1,1.3-1.1c0.6,0,1.3,0.4,1.3,1.1v0.1c-0.1,1.1-0.2,1.9-0.4,2.8c0.6-0.1,1.3-0.3,2-0.5c0.1,0,0.2,0,0.3,0
		c0.7,0,1.1,0.6,1.1,1.2c0,0.5-0.3,1-0.9,1.1c-1.1,0.3-2.1,0.6-3,0.8c-0.8,4.5-1.9,8.8-3.2,12.1c-0.3,0.7-0.9,1-1.4,1
		c-0.6,0-1.3-0.5-1.3-1.2c0-0.2,0-0.4,0.1-0.6c1.3-3.1,2.3-6.8,3.1-10.8C135.4,8.5,134.5,8.6,133.5,8.6z M142.3,15
		c0.5,0,1,0.3,1.1,1c0.2,1.5,1,1.9,3.5,1.9c1.2,0,2.2-0.1,3.1-0.2c0.1,0,0.2,0,0.3,0c0.8,0,1.2,0.7,1.2,1.3c0,0.6-0.3,1.1-1.1,1.2
		c-1,0.2-2.1,0.3-3.4,0.3c-3.2,0-4.6-0.8-5.4-2c-0.4-0.6-0.6-1.5-0.6-2.1C141,15.4,141.6,15,142.3,15z M149.2,8.1
		c0.8,0,1.2,0.6,1.2,1.2c0,0.6-0.4,1.2-1.2,1.2c-1.8,0-4,0.3-5.6,0.6c-0.1,0-0.2,0-0.3,0c-0.7,0-1.1-0.6-1.1-1.2
		c0-0.5,0.3-1.1,1.1-1.2C145.1,8.3,147.4,8.1,149.2,8.1z"/>
	<path class="st0" d="M164,1.4c0-0.7,0.6-1,1.2-1c0.6,0,1.2,0.3,1.2,1v0.9h4.9c0.6,0,1,0.5,1,1c0,0.5-0.3,1-1,1h-4.9v1.2h8
		c0.6,0,1,0.5,1,1.1c0,0.5-0.3,1.1-1,1.1h-19.4c-0.6,0-0.9-0.5-0.9-1.1c0-0.5,0.3-1.1,0.9-1.1h3.5V2.5c0-0.7,0.6-1,1.2-1
		c0.6,0,1.2,0.3,1.2,1v3.1h2.9V1.4z M171.1,9.4c0-0.7,0.6-1,1.2-1c0.6,0,1.2,0.3,1.2,1v9.4c0,1.9-0.8,2.9-3.3,2.9h-11.2
		c-2.5,0-3.3-1-3.3-2.9V9.5c0-0.7,0.6-1,1.2-1c0.6,0,1.2,0.3,1.2,1v9.1c0,0.9,0.3,1.1,1.2,1.1h10.3c0.9,0,1.2-0.3,1.2-1.1V9.4z
		 M165.8,17.3v1.1c0,0.6-0.6,0.9-1.1,0.9c-0.6,0-1.1-0.3-1.1-0.9v-1.1l0.1-1.5c-0.9,0.9-2,1.8-3.2,2.6c-0.2,0.1-0.4,0.2-0.6,0.2
		c-0.6,0-1-0.5-1-1c0-0.3,0.2-0.6,0.5-0.8c1.1-0.7,2.3-1.5,3.2-2.6H160c-0.6,0-0.8-0.5-0.8-0.9c0-0.4,0.3-0.9,0.8-0.9h3.6V9.1
		c0-0.6,0.6-0.9,1.1-0.9c0.6,0,1.1,0.3,1.1,0.9v3.3h3.7c0.6,0,0.9,0.5,0.9,0.9c0,0.5-0.3,0.9-0.9,0.9h-2.8c1,0.8,2,1.5,3.3,2.1
		c0.5,0.2,0.7,0.6,0.7,1c0,0.6-0.4,1.1-1,1.1c-0.2,0-0.4-0.1-0.6-0.2c-1.3-0.7-2.3-1.5-3.2-2.4L165.8,17.3z M159.8,9.8
		c0-0.5,0.5-0.9,1.1-0.9c0.3,0,0.6,0.1,0.9,0.4c0.3,0.3,0.6,0.7,0.9,1.2c0.1,0.2,0.2,0.4,0.2,0.6c0,0.6-0.6,1-1.1,1
		c-0.3,0-0.6-0.1-0.8-0.5c-0.2-0.4-0.5-0.7-0.9-1.2C159.9,10.1,159.8,9.9,159.8,9.8z M168.6,8.7c0.5,0,1.1,0.4,1.1,0.9
		c0,0.1,0,0.3-0.1,0.4c-0.3,0.6-0.6,1.1-1,1.5c-0.2,0.3-0.5,0.4-0.8,0.4c-0.5,0-1-0.4-1-0.9c0-0.2,0.1-0.4,0.2-0.6
		c0.3-0.4,0.6-0.8,0.9-1.3C168,8.9,168.3,8.7,168.6,8.7z"/>
	<path class="st0" d="M192.1,4.4c2.4,0,3.4,0.9,3.4,2.4c0,0.4,0,0.8-0.2,1.3c-1.3,5.4-5.3,10.1-10.7,12.8c-0.3,0.1-0.5,0.2-0.8,0.2
		c-0.8,0-1.3-0.6-1.3-1.4c0-0.4,0.2-0.9,0.8-1.2c5.1-2.6,8-6.3,9.2-10.4c0-0.2,0.1-0.3,0.1-0.5c0-0.4-0.3-0.6-1-0.6l-11.1,0.1
		c-0.9,0-1.3-0.7-1.3-1.4c0-0.6,0.4-1.3,1.2-1.3L192.1,4.4z M193.8,2.4c0-0.5,0.5-0.9,1-0.9c0.2,0,0.5,0.1,0.7,0.3
		c0.6,0.6,1.2,1.4,1.6,2.2c0.1,0.2,0.2,0.4,0.2,0.6c0,0.5-0.5,0.9-0.9,0.9c-0.3,0-0.6-0.2-0.8-0.5c-0.5-0.8-1-1.5-1.5-2.1
		C193.8,2.8,193.8,2.6,193.8,2.4z M196.2,0.8c0-0.5,0.5-0.8,0.9-0.8c0.3,0,0.5,0.1,0.8,0.3c0.6,0.6,1.2,1.3,1.6,2
		c0.1,0.2,0.2,0.4,0.2,0.6c0,0.5-0.4,0.9-0.9,0.9c-0.3,0-0.6-0.2-0.9-0.5c-0.5-0.7-1-1.5-1.5-2.1C196.3,1.1,196.2,1,196.2,0.8z"/>
	<path class="st0" d="M215.5,7.9c2.1,0,3.1,0.9,3.1,2.3c0,0.4-0.1,0.8-0.2,1.3c-1.4,4.3-5.2,7.7-9.7,9.4c-0.2,0.1-0.4,0.1-0.6,0.1
		c-0.8,0-1.3-0.7-1.3-1.3c0-0.5,0.3-1,0.9-1.2c4-1.6,6.8-4.2,8-7.2c0.1-0.2,0.1-0.3,0.1-0.5c0-0.3-0.2-0.4-0.7-0.4l-11.6,0.1
		c-0.8,0-1.2-0.6-1.2-1.2s0.4-1.2,1.1-1.2L215.5,7.9z M215.7,2.9c0.8,0,1.1,0.6,1.1,1.2s-0.4,1.2-1.1,1.2h-10
		c-0.7,0-1.1-0.6-1.1-1.2s0.4-1.2,1.1-1.2H215.7z"/>
	<path class="st0" d="M229.2,9.9c0.3,0.3,0.5,0.7,0.5,1c0,0.7-0.6,1.4-1.4,1.4c-0.3,0-0.6-0.1-0.9-0.3c-0.8-0.6-2-1.5-2.8-2
		c-0.5-0.3-0.6-0.6-0.6-1c0-0.7,0.6-1.3,1.4-1.3c0.2,0,0.5,0,0.7,0.2C227.2,8.3,228.3,9.1,229.2,9.9z M240.2,7.5
		c0.7,0,1.4,0.5,1.4,1.2c0,0.2-0.1,0.5-0.2,0.7c-3.1,5.7-8.7,9.5-14.7,11.2c-0.2,0-0.3,0.1-0.5,0.1c-0.8,0-1.3-0.6-1.3-1.3
		c0-0.5,0.3-1.1,1.1-1.3c5.7-1.7,10.2-4.9,13-10C239.3,7.7,239.7,7.5,240.2,7.5z M231.9,4.7c0.3,0.3,0.5,0.7,0.5,1
		c0,0.7-0.6,1.4-1.4,1.4c-0.3,0-0.6-0.1-0.9-0.3c-0.8-0.6-2-1.5-2.8-1.9c-0.5-0.3-0.6-0.6-0.6-1c0-0.7,0.6-1.4,1.4-1.4
		c0.2,0,0.5,0.1,0.7,0.2C229.9,3.2,231,3.9,231.9,4.7z"/>
	<path class="st0" d="M250.7,9.2c0.6-0.2,1.3-0.4,2-0.4c1.6,0,2.6,0.5,3.2,2.2c1.8-0.8,3.7-1.4,5.7-2.1c0.2,0,0.3-0.1,0.5-0.1
		c0.8,0,1.2,0.6,1.2,1.2c0,0.5-0.3,1-0.9,1.2c-2,0.6-4,1.3-6,2.1c0.1,0.9,0.2,1.9,0.2,3.1c0,0.8-0.6,1.2-1.3,1.2
		c-0.6,0-1.2-0.3-1.2-1.1c0-0.9-0.1-1.6-0.1-2.2c-2.4,1.2-2.9,2.3-2.9,3.1c0,0.9,0.8,1.4,3.5,1.4c1.4,0,3-0.1,4.5-0.4
		c0.1,0,0.2,0,0.3,0c0.8,0,1.2,0.6,1.2,1.3c0,0.6-0.4,1.1-1.1,1.2c-1.5,0.3-3.2,0.4-4.7,0.4c-4.3,0-6.2-1.4-6.2-3.7
		c0-1.8,1.1-3.6,5.2-5.7c-0.3-0.9-0.8-1-1.6-1c-0.9,0-2.5,0.6-4.7,2.4c-0.3,0.2-0.6,0.3-0.8,0.3c-0.7,0-1.2-0.6-1.2-1.2
		c0-0.3,0.2-0.7,0.5-1c1.4-1.3,2.8-2.8,3.9-4.5C248.7,7,247.9,7,247.1,7c-0.8,0-1.3-0.6-1.3-1.2c0-0.6,0.4-1.2,1.3-1.2
		c1.1,0,2.4-0.1,3.7-0.2c0.4-0.9,0.7-1.8,1-2.7C252,1.2,252.5,1,253,1c0.6,0,1.3,0.4,1.3,1.1c0,0.1,0,0.2,0,0.3
		c-0.2,0.6-0.4,1.2-0.7,1.8c1.2-0.1,2.3-0.3,3.3-0.5c0.1,0,0.2,0,0.3,0c0.7,0,1.1,0.6,1.1,1.1c0,0.5-0.3,1-1,1.1
		c-1.4,0.3-3.2,0.5-4.9,0.7C251.8,7.6,251.2,8.5,250.7,9.2L250.7,9.2z"/>
	<path class="st0" d="M269.8,10.9c-0.2,0.3-0.3,0.5-0.5,0.8c-0.3,0.5-0.7,0.6-1.1,0.6c-0.6,0-1.2-0.5-1.2-1.1c0-0.3,0.1-0.5,0.3-0.8
		c1.5-2.3,2.9-5.6,3.6-8.7c0.1-0.6,0.7-0.9,1.2-0.9c0.7,0,1.3,0.4,1.3,1.1c0,0.1,0,0.2,0,0.3c-0.5,1.8-1.2,3.9-2,5.8
		c0.5,0.1,1,0.4,1,0.9v12.2c0,0.6-0.6,0.9-1.2,0.9c-0.6,0-1.2-0.3-1.2-0.9V10.9z M284.6,7.2c1.7,0,2.4,0.6,2.4,2.2v1.8
		c0,1.8-0.9,2.3-2.6,2.3h-3.1c-0.3,1.3-0.8,2.5-1.4,3.6c1.9,1,4.3,1.5,7.3,1.7c0.8,0,1.2,0.6,1.2,1.2c0,0.6-0.5,1.2-1.2,1.2
		c-0.1,0-0.5,0-0.9,0c-2.9-0.2-5.6-1-7.8-2.3c-1.1,1.1-2.4,2-3.9,2.6c-0.2,0.1-0.4,0.1-0.5,0.1c-0.7,0-1.1-0.6-1.1-1.1
		c0-0.4,0.2-0.8,0.8-1.1c1.1-0.5,2.1-1,2.9-1.7c-0.6-0.5-1.1-1-1.7-1.6c-0.2-0.2-0.3-0.5-0.3-0.7c0-0.6,0.6-1.1,1.2-1.1
		c0.3,0,0.7,0.1,0.9,0.5c0.4,0.4,0.8,0.8,1.2,1.2c0.4-0.8,0.7-1.5,0.9-2.4h-2.2c-1.9,0-2.6-0.7-2.6-2.3V9.5c0-1.6,0.8-2.2,2.4-2.2
		h2.7V5.7h-4.9c-0.6,0-0.9-0.6-0.9-1.1c0-0.6,0.3-1.1,0.9-1.1h4.9V1.7c0-0.7,0.6-1,1.2-1c0.6,0,1.2,0.3,1.2,1v1.8h5.7
		c0.6,0,0.9,0.6,0.9,1.1c0,0.6-0.3,1.1-0.9,1.1h-5.7v1.5H284.6z M277.3,9.3c-0.6,0-0.7,0.1-0.7,0.6V11c0,0.5,0.3,0.6,0.7,0.6h1.9
		c0-0.5,0.1-1.1,0.1-1.6V9.3H277.3z M281.7,10.1c0,0.5,0,1-0.1,1.5h2.2c0.6,0,0.7-0.1,0.7-0.6V9.8c0-0.5-0.1-0.6-0.7-0.6h-2.2V10.1z
		"/>
	<path class="st0" d="M307.9,13.6c0,3.6-2.7,6.1-7.8,6.9c-0.1,0-0.2,0-0.2,0c-0.7,0-1.1-0.6-1.1-1.1c0-0.5,0.3-1,0.9-1.1
		c4.4-0.8,5.9-2.2,5.9-4.7c0-1.5-1.1-2.6-3.3-2.6c-2.4,0-5.3,0.8-8.7,2.3c-0.2,0.1-0.4,0.1-0.6,0.1c-0.6,0-1.1-0.5-1.1-1.1
		c0-0.4,0.2-0.9,0.8-1.1c3.4-1.5,6.9-2.3,9.6-2.3C305.6,8.9,307.9,10.7,307.9,13.6z"/>
	<path class="st0" d="M322,6.3c-2.8,0.4-6.4,0.9-9.7,1.4c-0.1,0-0.2,0-0.2,0c-0.8,0-1.3-0.7-1.3-1.3c0-0.6,0.4-1.1,1.2-1.3
		c4.8-0.6,10.7-1.3,15.5-1.7h0.1c0.8,0,1.2,0.6,1.2,1.2c0,0.6-0.3,1.1-1.1,1.2c-0.8,0.1-1.7,0.4-2.5,0.9c-3.6,2-4.3,4.4-4.3,6.6
		c0,2.6,1.8,4.1,5,4.5c0.9,0.1,1.2,0.7,1.2,1.4c0,0.7-0.5,1.4-1.4,1.4c-0.3,0-1.3-0.1-1.7-0.2c-3.4-0.9-5.8-3.4-5.8-6.9
		C318.3,11.1,319.4,8.4,322,6.3L322,6.3z"/>
	<path class="st0" d="M335.1,3.6c0.7,0,1.4,0.4,1.4,1.2c0,0.3-0.1,1.4-0.1,2.2c0,8,1.6,10.2,2.6,10.2c0.6,0,1.1-0.4,1.5-2.1
		c0.2-0.7,0.7-1,1.2-1c0.7,0,1.3,0.5,1.3,1.2c0,0.1,0,0.3,0,0.4c-0.9,3.1-2.3,4.2-3.9,4.2c-3.3,0-5.4-4.1-5.4-12.9
		c0-1.1,0-1.7,0.1-2.3C333.8,4,334.5,3.6,335.1,3.6z M352.5,13.3c0.1,0.2,0.1,0.3,0.1,0.5c0,0.8-0.6,1.2-1.3,1.2
		c-0.5,0-1-0.3-1.2-0.9c-0.8-2.1-2.3-4.5-4-6.3c-0.3-0.3-0.4-0.6-0.4-0.9c0-0.6,0.6-1.2,1.3-1.2c0.3,0,0.7,0.1,1,0.4
		C349.9,8.1,351.7,11,352.5,13.3z"/>
	<path class="st0" d="M365.6,4.2h1.5c1.3,0,2.6,0,3.8,0c0.8,0,1.2,0.6,1.2,1.2c0,0.6-0.4,1.2-1.2,1.2c-0.9,0-1.9,0-2.9,0
		c-0.7,0-1.5,0-2.3,0c0,0.8,0,1.6,0.1,2.4c1.5-0.1,3-0.2,4.3-0.4h0.2c0.8,0,1.2,0.6,1.2,1.2c0,0.6-0.4,1.1-1.1,1.2
		c-1.4,0.2-2.9,0.3-4.5,0.4c0,1,0.1,2,0.2,3c2,0.5,3.9,1.4,5.8,2.5c0.6,0.3,0.8,0.8,0.8,1.2c0,0.7-0.6,1.4-1.4,1.4
		c-0.3,0-0.5-0.1-0.8-0.3c-1.4-0.9-2.8-1.7-4.3-2.2v0.2c0,2.5-2.2,3.7-4.8,3.7c-2.9,0-4.7-1.4-4.7-3.5c0-2,1.7-3.5,4.9-3.5
		c0.6,0,1.2,0,1.9,0.1c-0.1-0.8-0.2-1.7-0.2-2.5H362c-1.4,0-2.8,0-3.6-0.1c-0.8-0.1-1.1-0.7-1.1-1.2c0-0.6,0.4-1.2,1.1-1.2h0.2
		c0.9,0.1,2,0.2,3.3,0.2h1.2c0-0.8-0.1-1.6-0.1-2.5c-2,0-3.9,0.1-5.5,0.2c-0.8,0-1.2-0.6-1.2-1.2c0-0.6,0.4-1.2,1.1-1.2
		c1.6-0.1,3.5-0.2,5.5-0.2V1.9c0-0.7,0.6-1,1.3-1c0.6,0,1.3,0.3,1.3,1V4.2z M363.7,16.9v-0.5c-0.7-0.1-1.4-0.2-2.1-0.2
		c-1.8,0-2.3,0.6-2.3,1.2c0,0.6,0.6,1.1,2.1,1.1C362.9,18.6,363.7,17.9,363.7,16.9z"/>
	<path class="st0" d="M387.6,16.2c-0.4,0.4-1,0.6-1.7,0.6c-2.3,0-3.9-1.5-3.9-4.1c0-2.3,1.4-3.8,3.6-3.8c0.5,0,0.9,0.1,1.4,0.2
		l-0.1-1.8c-1.7,0.1-5.6,0.3-8,0.4c-0.3,0-0.8,0-1,0c-0.8,0-1.2-0.7-1.2-1.3c0-0.6,0.4-1.2,1.2-1.2c2.7-0.2,5.9-0.3,9-0.4
		c0-0.8,0-1.8,0-2.8c0-0.7,0.6-1.1,1.3-1.1c0.6,0,1.2,0.4,1.2,1.1v2.7c2.4-0.1,4.7-0.1,6.7-0.1c0.8,0,1.2,0.6,1.2,1.3
		c0,0.6-0.4,1.2-1.1,1.2c-2,0-4.4,0.1-6.8,0.1c0,1.3,0.1,2.6,0.2,4c0.5,0.8,0.8,1.9,0.8,3.1c0,3.6-1.9,6.1-5.2,7.7
		c-0.2,0.1-0.4,0.1-0.6,0.1c-0.8,0-1.3-0.6-1.3-1.3c0-0.4,0.3-0.9,0.9-1.2C386,18.6,387.3,17.3,387.6,16.2L387.6,16.2z M384.4,12.7
		c0,1.1,0.8,1.8,1.6,1.8c0.8,0,1.4-0.6,1.4-1.6c0-1-0.6-1.8-1.6-1.8C385,11,384.4,11.7,384.4,12.7z"/>
	<path class="st0" d="M403.3,19.4c-0.3,0.5-0.8,0.7-1.2,0.7c-0.7,0-1.3-0.5-1.3-1.1c0-0.2,0.1-0.5,0.2-0.7c1.4-2.6,2.6-5.7,3.5-9
		c-0.9,0.1-1.9,0.3-2.7,0.5c-0.1,0-0.2,0-0.3,0c-0.7,0-1.1-0.6-1.1-1.2c0-0.5,0.3-1.1,1-1.2c1.2-0.2,2.4-0.4,3.7-0.5
		c0.3-1.4,0.5-2.8,0.7-4.2c0.1-0.7,0.7-1.1,1.3-1.1c0.6,0,1.3,0.4,1.3,1.1v0.2c-0.1,1.2-0.3,2.5-0.6,3.8c0.5,0,0.9,0,1.2,0
		c2.9,0,4,1.3,4,4.9c0,2.2-0.2,4.1-0.6,5.5c-0.7,2.6-1.8,3.6-4.1,3.6c-0.6,0-1.1,0-1.6-0.1c-0.8-0.1-1.1-0.7-1.1-1.2
		c0-0.6,0.4-1.3,1.2-1.3c0,0,0.1,0,0.2,0c0.4,0,0.8,0.1,1.3,0.1c0.8,0,1.2-0.3,1.6-1.6c0.4-1.3,0.6-3.1,0.6-5c0-2.1-0.4-2.6-1.5-2.6
		c-0.5,0-1.1,0-1.7,0.1C406.2,12.8,404.9,16.5,403.3,19.4z M420.2,10.1c0.1,0.3,0.2,0.6,0.2,0.8c0,0.8-0.6,1.3-1.3,1.3
		c-0.5,0-0.9-0.3-1.3-0.9c-0.8-1.7-2-3.4-3.3-4.7c-0.3-0.3-0.4-0.6-0.4-0.8c0-0.6,0.6-1.1,1.3-1.1c0.4,0,0.7,0.1,1.1,0.4
		C418,6.4,419.4,8.6,420.2,10.1z"/>
	<path class="st0" d="M431,14.4c0,0.7-0.5,1.1-1.1,1.1c-0.7,0-1.1-0.4-1.1-1.1v-0.5c0-1.8,0.4-2.9,2.3-4.3c1.5-1.1,1.8-1.9,1.8-3.1
		c0-1.5-1.1-2.4-2.7-2.4c-1.4,0-2.6,0.6-3.5,2c-0.2,0.3-0.5,0.5-0.9,0.5c-0.7,0-1.4-0.5-1.4-1.1c0-0.3,0.1-0.6,0.3-0.9
		c1.2-1.7,3.2-2.7,5.5-2.7c3.2,0,5.4,1.7,5.4,4.6c0,2-0.7,3.2-2.6,4.5c-1.7,1.2-2,1.9-2,3V14.4z M431.7,18.7c0,1-0.8,1.7-1.7,1.7
		s-1.7-0.7-1.7-1.7s0.8-1.7,1.7-1.7S431.7,17.7,431.7,18.7z"/>
</g>
<g>
	<circle class="st0" cx="1.4" cy="2.6" r="1.4"/>
	<circle class="st1" cx="3.6" cy="7.7" r="1.4"/>
	<circle class="st0" cx="5.8" cy="12.9" r="1.4"/>
	<circle class="st1" cx="8" cy="18" r="1.4"/>
	<circle class="st0" cx="10.2" cy="23.2" r="1.4"/>
	<circle class="st1" cx="12.4" cy="28.3" r="1.4"/>
</g>
<g>
	<circle class="st0" cx="453.4" cy="2.6" r="1.4"/>
	<circle class="st1" cx="451.2" cy="7.7" r="1.4"/>
	<circle class="st0" cx="449" cy="12.9" r="1.4"/>
	<circle class="st1" cx="446.8" cy="18" r="1.4"/>
	<circle class="st0" cx="444.6" cy="23.2" r="1.4"/>
	<circle class="st1" cx="442.4" cy="28.3" r="1.4"/>
</g>
</svg>
